<svg xmlns="http://www.w3.org/2000/svg" width="330" height="309" fill="none"><path fill="#0C0553" d="M19.756 242.609a.635.635 0 0 1-.627-.628c0-.968.018-2.923.197-5.846.018-.341.34-.556.663-.592.34.018.61.323.591.664-.179 2.869-.197 4.806-.197 5.505 0 .61-.286.897-.627.897Zm.68-11.567c-.411-.036-.662-.359-.626-.7.197-1.919.448-3.855.716-5.756.054-.341.377-.556.717-.538a.64.64 0 0 1 .537.717 150.41 150.41 0 0 0-.716 5.721.623.623 0 0 1-.627.556Zm1.667-11.442c-.466-.072-.68-.412-.627-.753a144.5 144.5 0 0 1 1.2-5.685.61.61 0 0 1 .752-.467c.34.072.555.413.466.754a142.46 142.46 0 0 0-1.182 5.631.602.602 0 0 1-.61.52Zm2.633-11.28c-.502-.108-.699-.467-.61-.807.52-1.866 1.093-3.731 1.702-5.56a.625.625 0 0 1 .806-.394.641.641 0 0 1 .394.807 114.833 114.833 0 0 0-1.683 5.505.652.652 0 0 1-.61.449Zm3.671-10.958c-.555-.179-.716-.538-.59-.861a96.078 96.078 0 0 1 2.292-5.344.615.615 0 0 1 .842-.305.63.63 0 0 1 .304.843 102.162 102.162 0 0 0-2.256 5.29.649.649 0 0 1-.591.377Zm4.854-10.491c-.608-.233-.716-.628-.555-.933a77.085 77.085 0 0 1 2.956-5.021.637.637 0 0 1 .877-.198c.287.18.376.574.197.879a89.377 89.377 0 0 0-2.901 4.95.646.646 0 0 1-.574.323Zm6.216-9.738c-.663-.341-.717-.736-.502-1.005a69.714 69.714 0 0 1 3.672-4.519.644.644 0 0 1 .896-.054.63.63 0 0 1 .053.897 62.707 62.707 0 0 0-3.6 4.448.77.77 0 0 1-.52.233Zm85.437-1.704a20.676 20.676 0 0 1-3.278-.592 11.198 11.198 0 0 1-2.561-.986.642.642 0 0 1-.251-.861.64.64 0 0 1 .86-.251c.681.376 1.451.663 2.275.879 1.021.251 2.042.448 3.027.556a.628.628 0 0 1-.072 1.255Zm5.732-.323a.63.63 0 0 1-.609-.484.636.636 0 0 1 .466-.771 12.034 12.034 0 0 0 4.871-2.439c.269-.233.663-.18.896.089a.65.65 0 0 1-.089.897 13.461 13.461 0 0 1-5.374 2.69c-.054 0-.107.018-.161.018Zm-15.153-5.326c-1.361-1.991-1.827-3.946-1.97-6.169a.636.636 0 0 1 .591-.664c.394 0 .644.251.662.592.126 2.062.556 3.856 1.272 5.344.143.323.018.7-.287.843a.712.712 0 0 1-.268.054Zm-68.368-1.291c-.699-.449-.68-.843-.43-1.094a74.285 74.285 0 0 1 4.388-3.82.646.646 0 0 1 .896.089.65.65 0 0 1-.09.897 72.303 72.303 0 0 0-4.316 3.766.761.761 0 0 1-.448.162Zm92.136-.485c-.591-.215-.716-.591-.573-.896.788-1.614 1.272-3.426 1.469-5.345.036-.34.34-.627.698-.556a.657.657 0 0 1 .574.7c-.215 2.062-.753 3.999-1.595 5.757a.64.64 0 0 1-.573.34Zm-83.18-6.797c-.717-.556-.645-.95-.359-1.147a124.892 124.892 0 0 1 4.819-3.246c.286-.198.68-.108.877.197a.643.643 0 0 1-.197.879 104.766 104.766 0 0 0-4.764 3.21.748.748 0 0 1-.376.107Zm58.409-2.779c-.448-.054-.681-.377-.627-.736.286-1.811.716-3.73 1.325-5.703a.641.641 0 0 1 .788-.43c.341.09.52.448.43.789-.573 1.937-1.003 3.802-1.271 5.542a.668.668 0 0 1-.645.538Zm26.007-1.722a.652.652 0 0 1-.627-.502 19.795 19.795 0 0 0-1.827-5.273.622.622 0 0 1 .269-.843.627.627 0 0 1 .842.269 20.87 20.87 0 0 1 1.934 5.614.62.62 0 0 1-.501.735h-.09Zm-74.69-1.722c-.717-.609-.627-1.004-.323-1.183a184.17 184.17 0 0 1 5.07-2.816.63.63 0 0 1 .859.269c.161.305.036.7-.269.861a158.732 158.732 0 0 0-5.033 2.798.84.84 0 0 1-.305.071Zm10.21-5.416c-.717-.663-.592-1.04-.27-1.201a138.191 138.191 0 0 1 5.266-2.439c.323-.126.699 0 .842.323a.637.637 0 0 1-.322.842 194.745 194.745 0 0 0-5.23 2.422c-.09.017-.18.053-.287.053Zm41.697-2.206c-.555-.179-.717-.538-.591-.878a71.544 71.544 0 0 1 2.4-5.309c.161-.305.537-.448.842-.287.304.162.448.538.286.843a78.242 78.242 0 0 0-2.364 5.219.613.613 0 0 1-.573.412Zm17.625-.842c-1.702-1.579-3.153-2.798-4.729-3.838a.637.637 0 0 1-.179-.879.635.635 0 0 1 .878-.179 23.242 23.242 0 0 1 4.513 3.838.644.644 0 0 1-.036.896.72.72 0 0 1-.447.162Zm-48.755-1.632c-.717-.718-.556-1.094-.233-1.22 1.863-.735 3.69-1.435 5.427-2.044.322-.108.699.053.806.376.108.323-.054.7-.376.807a115.93 115.93 0 0 0-5.391 2.045.903.903 0 0 1-.233.036Zm10.89-3.856a.65.65 0 0 1-.609-.449c-.108-.34.09-.681.43-.789a89.276 89.276 0 0 1 5.624-1.506.61.61 0 0 1 .752.466c.072.341-.125.682-.465.753a96.207 96.207 0 0 0-5.535 1.489c-.072.018-.125.036-.197.036Zm28.336-.825c-1.917-.664-3.744-1.166-5.678-1.489a.636.636 0 0 1-.52-.735c.054-.341.395-.556.735-.52a32.19 32.19 0 0 1 5.678 1.506c.322.126.501.485.376.807a.614.614 0 0 1-.591.431Zm-17.07-1.722a.623.623 0 0 1-.627-.556.627.627 0 0 1 .556-.699c.537-.072 1.038-.108 1.522-.162a49.702 49.702 0 0 1 3.564-.143c1.111.018 1.38.305 1.38.646 0 .34-.287.627-.627.627-1.845 0-3.009.036-4.209.126-.466.036-.968.09-1.469.143-.036.018-.054.018-.09.018Zm14.097-1.488c-.627-.251-.717-.646-.556-.951.95-1.632 1.971-3.3 3.045-4.967a.633.633 0 0 1 .878-.18c.286.18.376.574.179.879a112.424 112.424 0 0 0-3.009 4.896.593.593 0 0 1-.537.323Zm6.268-9.702c-.644-.323-.716-.718-.519-1.005a144.954 144.954 0 0 1 3.493-4.645c.215-.287.609-.322.895-.107.269.215.323.61.108.896a124.886 124.886 0 0 0-3.457 4.609.66.66 0 0 1-.52.252Zm7.129-9.093c-.68-.377-.698-.771-.483-1.04a144.35 144.35 0 0 1 3.851-4.34.643.643 0 0 1 .895-.036.645.645 0 0 1 .036.897 210.633 210.633 0 0 0-3.815 4.304.643.643 0 0 1-.484.215Zm7.81-8.501c-.699-.43-.699-.825-.448-1.076a221.893 221.893 0 0 1 4.137-4.053c.251-.233.663-.233.896.018a.645.645 0 0 1-.018.897 223.138 223.138 0 0 0-4.12 4.035.701.701 0 0 1-.447.179Zm8.382-7.962c-.698-.466-.68-.879-.412-1.112a321.918 321.918 0 0 1 4.388-3.784.648.648 0 0 1 .896.09.65.65 0 0 1-.089.896 183.719 183.719 0 0 0-4.371 3.748.566.566 0 0 1-.412.162Zm8.884-7.389c-.716-.52-.663-.915-.394-1.13a195.99 195.99 0 0 1 4.621-3.497.613.613 0 0 1 .878.144.615.615 0 0 1-.143.878 190.91 190.91 0 0 0-4.586 3.48c-.089.09-.232.125-.376.125Zm9.332-6.815c-.716-.574-.645-.95-.358-1.148a127.101 127.101 0 0 1 4.89-3.138c.286-.18.698-.09.859.215.18.305.09.682-.215.861a141.415 141.415 0 0 0-4.836 3.103.63.63 0 0 1-.34.107Zm125.022-3.676c-1.988-1.148-3.636-2.134-5.266-3.067a.624.624 0 0 1-.233-.86.623.623 0 0 1 .86-.234c1.648.933 3.313 1.955 4.961 3.013.305.18.376.574.197.879a.651.651 0 0 1-.519.269Zm-115.171-2.35c-.716-.627-.609-1.022-.304-1.183a153.64 153.64 0 0 1 5.14-2.69c.323-.144.699-.018.842.287.161.305.018.7-.286.843-1.702.842-3.421 1.74-5.105 2.654-.072.072-.179.09-.287.09Zm105.14-3.407c-2.024-.95-3.761-1.793-5.463-2.565-.322-.143-.465-.52-.322-.842a.636.636 0 0 1 .842-.323c1.719.77 3.475 1.632 5.23 2.528.304.162.43.538.269.843a.603.603 0 0 1-.556.359Zm-94.787-1.704c-.716-.7-.573-1.076-.251-1.22a154.796 154.796 0 0 1 5.374-2.223.665.665 0 0 1 .824.359.643.643 0 0 1-.358.825 96.821 96.821 0 0 0-5.302 2.206.892.892 0 0 1-.287.053Zm84.273-3.03a189.887 189.887 0 0 0-5.624-1.991.602.602 0 0 1-.394-.79c.108-.322.448-.52.788-.394 1.791.592 3.636 1.256 5.463 1.973a.635.635 0 0 1 .358.825.68.68 0 0 1-.591.377Zm-73.508-1.148a.611.611 0 0 1-.591-.43.64.64 0 0 1 .394-.808 122.287 122.287 0 0 1 5.552-1.721c.359-.108.681.107.789.43a.658.658 0 0 1-.43.79 105.88 105.88 0 0 0-5.481 1.703c-.09.018-.161.036-.233.036Zm62.547-2.475c-2.024-.52-3.887-.969-5.75-1.363a.636.636 0 0 1-.484-.753c.072-.341.412-.574.753-.485 1.88.395 3.779.843 5.642 1.346.34.09.537.448.448.77a.627.627 0 0 1-.609.485Zm-51.424-.682a.615.615 0 0 1-.609-.484.637.637 0 0 1 .466-.753c1.88-.43 3.797-.825 5.678-1.166a.642.642 0 0 1 .734.502.643.643 0 0 1-.502.736c-1.88.34-3.761.735-5.624 1.165h-.143Zm40.121-1.703a120.983 120.983 0 0 0-5.785-.718.656.656 0 0 1-.573-.7c.036-.34.34-.627.681-.573 1.916.18 3.851.412 5.767.717a.64.64 0 0 1-.09 1.274Zm-28.765-.323a.623.623 0 0 1-.627-.556.627.627 0 0 1 .555-.7 92.864 92.864 0 0 1 5.785-.573c.323 0 .645.233.681.591a.651.651 0 0 1-.591.682c-1.863.125-3.797.323-5.714.556h-.089Zm17.284-.771a123.84 123.84 0 0 0-5.767-.072c-.323-.054-.627-.27-.645-.628a.65.65 0 0 1 .627-.645 89.802 89.802 0 0 1 5.803.071.64.64 0 0 1 .609.664.631.631 0 0 1-.627.61Z"/><path fill="#216FF4" d="M188.142 120.695h-75.533c-12.054 0-21.923-9.882-21.923-21.951V62.822c0-12.07 9.869-21.95 21.923-21.95h75.533c12.054 0 21.923 9.88 21.923 21.95v35.922c0 12.069-9.869 21.951-21.923 21.951Z"/><path fill="#fff" d="M220.113 117.376h86.566s15.708 1.775 16.317 17.199v55.684s.681 15.549-15.601 18.472h-57.316l-43.919-39.15 10.926-51.559 3.027-.646Z"/><path fill="#216FF4" d="M226.615 161.674s4.138-3.676 9.457-3.641c5.32.036 7.254.79 23.554 11.03 13.756 8.644 19.649 4.358 23.213 3.228 3.546-1.13 7.899-4.215 15.368-4.143 7.469.09 7.953 2.009 24.127 9.38l.68 1.058v15.082s-2.454 13.432-15.601 15.082c-13.147 1.632-48.826 0-48.826 0l-52.427-30.182 20.455-16.894ZM57.406 90.082v14.795s1.755 7.604 6.627 8.447c4.872.843 10.12.394 10.12.394s6.448-2.439 7.451-7.048c1.003-4.609.591-16.642.591-16.642l-24.789-.323v.377Z"/><path fill="#fff" d="M212.895 293.093s1.863-.43 4.12-.125c2.256.304 8.543 3.712 11.821-1.023l6.771 8.339h-18.342l-4.37-7.191Zm-11.768-152.025s1.899 1.631 5.033 1.129c3.135-.502 5.248-4.519 4.998-7.998-.251-3.479-2.526-7.676-5.983-7.425-3.457.233-5.015 1.794-5.015 1.794s-15.314-10.797-17.589-21.037c0 0-9.26 3.157-14.723 11.711l-2.777 2.565s-4.173 7.819.018 15.728c0 0-.501 17.162 12.216 20.731l-.215 16.141s5.965 5.523 16.228 1.936c0 0-5.105-8.07-4.299-15.763 1.146-11.066 12.108-19.512 12.108-19.512ZM72.2 120.604l-6.895-6.958s-6.591.897-9.17-3.569c-2.58-4.465-2.33-5.272-2.33-5.272s-3.6-.484-4.53 2.044c-.216.395-2.688-1.757-4.425-.843-1.737.897-2.794 2.385-2.794 2.385s-2.866-1.506-4.854-.089-1.182 4.591 1.254 7.622c2.436 3.031 8.221 9.469 12.574 12.356l2.256 1.417s2.938 1.094 3.744 4.537c.806 3.461.913 7.694.913 7.694l24.002-4.286s-.914-4.699-.144-8.053c.77-3.353 4.872-6.635 7.147-8.231 2.275-1.596 5.893-3.964 4.424-7.264-1.487-3.299-7.791-.43-11.929 1.507-4.137 1.937-7.81 5.631-9.242 5.003Z"/><path fill="#0C0553" d="M186.44 291.246s18.879-2.493 21.762-4.071c0 0 6.466 7.532 9.064 13.109l-30.826.198v-9.236Z" opacity=".2"/><path fill="#fff" d="M167.49 119.547s7.809-10.456 15.099-12.052c0 0 2.705 9.164 9.421 14.168 6.717 5.003 8.15 6.886 8.15 6.886s2.364-2.134 4.639-1.811c2.275.341 7.344 2.475 6.108 9.039-1.236 6.564-4.962 6.546-6.108 6.402-1.146-.161-3.367-1.13-3.367-1.13s-10.317 6.905-12.144 17.522c-1.809 10.617 4.137 20.946 11.105 24.013 6.967 3.067 15.207 2.206 19.899-.735l10.389 3.999s3.887-5.667 4.209-10.975c.305-5.309-4.639-11.155-8.293-13.218-3.654-2.062-12.574-6.563-12.789-7.532-.214-.968 1.004-8.429 2.938-18.705 1.916-10.294 3.529-16.858 3.529-16.858s-.574-11.406-13.524-15.817c-12.967-4.412-29.338-3.05-34.425-.789-5.087 2.259-8.293 7.586-7.237 19.261l2.401-1.668Z"/><path fill="#0C0553" d="M173.185 113.325s6.753-5.757 14.025-7.335c0 0 3.009 9.738 9.726 14.741 6.717 5.004 7.863 6.008 7.863 6.008s1.809-.466 3.493 1.112c1.164 1.076 3.367 2.17 2.883 7.909-.322 3.874-3.403 5.559-5.015 6.42-1.021.556-2.346 0-2.346 0s-7.792 4.842-9.619 15.477c-1.809 10.617 4.138 20.947 11.106 24.013 6.967 3.067 10.478 3.139 15.171.198l10.084 3.64s4.567-2.851 4.567-9.899c0-5.309-4.603-10.886-9.672-14.76-3.332-2.546-11.284-6.259-11.499-7.209-.215-.969.842-7.927 2.776-18.203 1.917-10.294 3.403-16.445 3.403-16.445s-.609-12.159-11.248-15.549c-13.058-4.16-26.581-4.68-31.668-2.421-5.086 2.26-7.397 7.012-7.433 15.764l3.403-3.461Zm-5.158 36.476s.609 4.681 9.278 8.213l-.215 16.069-3.887.969s-8.006.932-8.866-7.03c-.86-7.963 1.648-16.159 3.69-18.221Z" opacity=".2"/><path fill="#0C0553" d="m235.607 300.285 31.094.197s6.287-5.918 9.189-18.06c2.901-12.159 3.367-25.627-.574-39.992-3.94-14.365-10.693-27.475-24.861-42.36-14.15-14.867-29.715-18.185-29.715-18.185s-5.051 3.426-11.606 3.067c-6.556-.341-8.49-2.098-8.49-2.098s.036 9.541-7.344 10.419c-7.379.861-9.171-2.923-9.905-7.388-.734-4.484-.502-3.784-.502-3.784s-7.039 9.648-13.505 6.743c-6.466-2.906-2.149-7.622-1.468-8.447.68-.825 6.071-5.488 6.071-5.488s-18.09 4.125-23.643 5.542c-5.57 1.416-19.505 7.496-32.151 2.421-12.645-5.076-19.828-10.832-25.398-20.983-5.57-10.15-7.684-24.838-7.684-24.838l-31.775 6.115s-.286 14.509 5.374 28.802c5.66 14.311 18.7 34.289 35.643 41.732 16.945 7.443 18.449 8.895 28.336 8.895 9.887 0 18.915-1.56 18.915-1.56s-1.433 7.568.035 15.082a428.097 428.097 0 0 0 2.92 13.72l41.644.394.233 41.015s15.995-2.063 22.013-4.071c0 0-3.331-13.684-1.236-27.349 2.096-13.666 8.419-40.082 8.419-40.082s12.376 4.053 19.254 11.459c6.663 7.192 9.726 19.028 8.329 30.398-1.648 13.343-8.167 18.777-18.359 25.036l10.747 13.648Z"/><path fill="#fff" d="M151.638 61.423c-2.096-3.586-5.517-3.586-7.612 0l-16.067 27.565c-2.095 3.587-.412 6.528 3.744 6.528h32.294c4.138 0 5.821-2.941 3.743-6.528l-16.102-27.565Zm-42.092-9.845c0 23.977-19.416 43.436-43.363 43.436-23.948 0-43.364-19.44-43.364-43.436C22.82 27.6 42.235 8.16 66.183 8.16c23.947 0 43.363 19.44 43.363 43.418Z"/><path fill="#216FF4" d="M303.885 145.407c0 5.219-4.227 9.433-9.421 9.433-5.212 0-9.422-4.232-9.422-9.433 0-5.219 4.228-9.433 9.422-9.433 5.194 0 9.421 4.232 9.421 9.433Z"/><path fill="#0C0553" d="M193.461 131.993c0 5.631-2.722 10.186-6.072 10.186-3.349 0-6.072-4.555-6.072-10.186s2.723-10.186 6.072-10.186c3.35 0 6.072 4.573 6.072 10.186Zm-17.069-1.219c0 2.386-.484 4.573-1.308 6.313l-2.866.341 1.415 1.883c-.949 1.04-2.095 1.65-3.331 1.65-3.35 0-6.072-4.555-6.072-10.187 0-5.631 2.722-10.186 6.072-10.186 3.367 0 6.09 4.573 6.09 10.186Z" opacity=".2"/><path fill="#fff" d="M200.232 255.575H11.087V309h189.145v-53.425Z"/><path fill="#0C0553" d="M164.803 116.535h-59.108c-11.463 0-21.046-8.967-21.816-20.41a.651.651 0 0 1 .591-.68c.376.017.645.25.663.591.716 10.796 9.762 19.243 20.562 19.243h59.126c.34 0 .627.287.627.628a.64.64 0 0 1-.645.628Zm37.381-14.545c-.555-.162-.716-.52-.591-.843.842-2.278 1.164-4.035 1.164-6.492v-36.1c0-11.371-9.242-20.625-20.598-20.625h-72.864a.635.635 0 0 1-.627-.627c0-.341.287-.628.627-.628h72.864c12.054 0 21.87 9.828 21.87 21.897v36.1c0 2.583-.34 4.52-1.236 6.923a.693.693 0 0 1-.609.395Z"/><path fill="#0C0553" d="M159.089 99.999h-32.294c-2.239 0-3.923-.79-4.765-2.242-.823-1.434-.662-3.3.466-5.236l16.067-27.565c1.128-1.937 2.669-3.013 4.352-3.013 1.684 0 3.224 1.059 4.353 3.013l16.084 27.565c1.129 1.936 1.308 3.802.466 5.236-.806 1.453-2.49 2.242-4.729 2.242Zm-16.156-36.764c-1.2 0-2.364.843-3.26 2.385l-16.066 27.564c-.896 1.525-1.057 2.941-.466 3.981.591 1.023 1.899 1.596 3.654 1.596h32.294c1.773 0 3.063-.573 3.654-1.596.591-1.022.43-2.439-.466-3.963l-16.084-27.564c-.896-1.56-2.06-2.403-3.26-2.403Zm63.066 74.802c-.358-.108-4.03-2.708-4.03-2.708-.089-.969 3.744-4.824 3.744-4.824a.626.626 0 0 1 .895 0 .627.627 0 0 1 0 .896l-3.296 3.336 3.063 2.152a.615.615 0 0 1 .144.879.61.61 0 0 1-.52.269Zm-19.792-16.913c-.573-.358-1.702-1.972-4.209-.986a.634.634 0 0 1-.824-.359.644.644 0 0 1 .358-.825c2.794-1.094 4.621.305 5.212 1.184a.637.637 0 0 1-.179.879.737.737 0 0 1-.358.107ZM174.69 141.57c-1.612-1.292-3.188-3.874-3.26-3.982.34-.771 3.887-1.399 3.887-1.399.376-1.147 1.719-5.81 1.719-12.446a.501.501 0 1 1 1.003 0c0 7.82-1.809 12.859-1.88 13.074-.376.323-3.493.879-3.493.879.537.825 1.54 2.26 2.346 2.995.215.179.215.502.036.717-.071.108-.215.162-.358.162Zm-4.46-21.52c-.716-.556-.645-.951-.358-1.148.143-.108 3.546-2.457 6.036-.287a.63.63 0 0 1 .054.897.645.645 0 0 1-.896.071c-1.755-1.524-4.46.359-4.478.377a.807.807 0 0 1-.358.09Zm11.714 39.167c-10.747 0-16.622-7.174-17.464-21.342a.636.636 0 0 1 .591-.663c.394 0 .645.251.663.592.806 13.54 6.108 20.139 16.192 20.139.305 0 .609 0 .931-.018a.64.64 0 0 1 .663.61.65.65 0 0 1-.609.664c-.322 0-.645.018-.967.018Z"/><path fill="#0C0553" d="M200.178 129.177c-14.705-10.724-17.32-18.418-17.804-20.839-7.379 2.457-13.093 10.007-14.186 11.531a.612.612 0 0 1-.877.144c-.287-.197-.341-.592-.144-.879 1.648-2.295 7.631-9.971 15.565-12.231.806.664 1.308 8.931 17.822 21.144.287.216.34.61.126.879a.657.657 0 0 1-.502.251Z"/><path fill="#0C0553" d="M204.781 142.879c-1.809-.072-3.26-.735-4.442-1.955-.251-.251-.233-.645.018-.897.251-.251.645-.233.896.018.949.969 2.113 1.525 3.349 1.561 1.487.071 2.973-.628 4.12-1.955 1.11-1.291 1.755-3.049 1.827-4.932.089-2.116-.573-4.125-1.827-5.542-.967-1.111-2.239-1.739-3.547-1.793-2.239-.072-3.922 1.004-4.943 3.174a.65.65 0 0 1-.842.305c-.323-.143-.448-.52-.305-.843 1.236-2.618 3.457-3.963 6.126-3.891 1.666.054 3.242.861 4.46 2.223 1.451 1.65 2.239 4 2.132 6.421-.09 2.17-.842 4.178-2.132 5.703-1.343 1.542-3.063 2.403-4.89 2.403Z"/><path fill="#0C0553" d="M230.573 186.154c-.716-.592-.626-.987-.34-1.166.233-.144 5.821-3.73 3.851-12.661-2.006-9.093-20.24-17.773-20.419-17.845 2.436-21.556 5.409-34.325 5.678-35.527-.322-5.433-2.83-9.756-7.451-12.876-11.929-8.034-33.692-5.595-38.653-3.73-.519.089-9.583 1.668-7.559 19.368a.64.64 0 0 1-.555.7c-.304.053-.663-.216-.698-.556-2.168-18.992 8.06-20.678 8.508-20.732 6.233-2.331 28.049-3.91 39.655 3.91 4.98 3.353 7.684 8.052 8.007 13.934-.054.305-3.117 13.11-6.018 34.559 2.83 1.381 18.735 9.505 20.705 18.526 2.167 9.827-4.352 13.97-4.424 14.006-.054.054-.179.09-.287.09Z"/><path fill="#0C0553" d="M168.922 140.583c-1.594 0-3.098-1.005-4.262-2.816-1.308-2.026-2.042-4.95-2.042-8.016 0-3.067.752-5.99 2.059-8.035.717-1.13 1.613-1.955 2.562-2.403a3.968 3.968 0 0 1 1.683-.376c3.529 0 6.305 4.752 6.305 10.814 0 2.977-.627 5.613-1.809 7.622a.516.516 0 0 1-.698.179.517.517 0 0 1-.179-.7c1.092-1.865 1.665-4.304 1.665-7.101 0-5.309-2.418-9.792-5.284-9.792-.429 0-.841.089-1.253.287-.77.358-1.505 1.058-2.132 2.026-1.218 1.883-1.898 4.609-1.898 7.479 0 2.869.68 5.595 1.88 7.46.968 1.507 2.168 2.349 3.403 2.349 1.165 0 2.114-.555 2.992-1.739a.493.493 0 0 1 .698-.108.495.495 0 0 1 .108.7c-1.075 1.452-2.311 2.17-3.798 2.17Zm66.846 160.526c-.484-.233-11.625-13.934-11.625-13.934 5.427-4.251 11.32-8.429 14.92-14.168 2.096-3.318 3.171-7.174 3.493-12.482.358-5.739.036-10.635-.949-14.993-1.988-8.698-7.183-15.566-15.458-20.391-3.636-2.116-7.236-3.676-10.693-4.626a.636.636 0 0 1-.448-.772c.09-.34.43-.538.771-.448 3.564.986 7.254 2.583 10.979 4.753 8.598 5.021 14.007 12.141 16.067 21.215 1.021 4.466 1.343 9.487.985 15.352-.34 5.523-1.469 9.558-3.69 13.073-3.6 5.739-9.332 9.918-14.562 13.254l10.693 13.163a.626.626 0 0 1-.089.879.742.742 0 0 1-.394.125Zm31.255-.197c-.662-.359-.716-.753-.483-1.022a43.052 43.052 0 0 0 4.173-6.241c4.872-8.752 7.129-19.548 6.753-32.066-1.075-34.738-22.784-60.383-41.053-71.789-5.266-3.282-10.586-5.703-15.816-7.173-.788-.234-.985-.574-.896-.915.09-.341.448-.502.788-.43 5.786 1.632 11.231 4.088 16.586 7.442 18.539 11.567 40.552 37.589 41.662 72.829.394 12.751-1.934 23.763-6.913 32.73a46.715 46.715 0 0 1-4.299 6.42c-.143.125-.323.215-.502.215Z"/><path fill="#0C0553" d="M208.704 185.562c-4.138 0-7.792-1.112-10.174-3.228-7.075-6.223-10.532-12.984-10.281-20.068.43-12.302 11.768-21.108 12.251-21.467a.633.633 0 0 1 .896.126.611.611 0 0 1-.126.879c-.107.089-11.355 8.823-11.767 20.516-.233 6.689 3.08 13.092 9.851 19.064 3.206 2.815 8.974 3.676 15.081 2.206a29.771 29.771 0 0 0 6.036-2.17c.305-.144.699-.018.842.287a.629.629 0 0 1-.304.842c-2.06.987-4.174 1.758-6.287 2.26-2.06.52-4.084.753-6.018.753Z"/><path fill="#0C0553" d="M186.691 178.101c-6.126 0-9.637-3.121-9.834-3.3-.197-.466-.197-16.768-.197-16.768 0-.341.287-.628.627-.628.341 0 .627.287.627.628v16.015c1.111.897 6.52 4.663 15.171 1.65.323-.108.699.054.806.394a.64.64 0 0 1-.394.807c-2.525.879-4.8 1.202-6.806 1.202Zm13.612 111.656a.668.668 0 0 1-.627-.502.634.634 0 0 1 .502-.753c3.815-.771 6.269-1.471 7.29-1.776-5.123-28.03 7.433-66.642 7.558-67.036a.601.601 0 0 1 .789-.395c.34.108.519.466.394.789-.126.395-12.753 39.203-7.416 66.947.054.305-.125.628-.412.717-.107.036-2.776.915-7.952 1.973-.036.036-.072.036-.126.036Zm-73.222-66.283c-6.663 0-13.308-1.148-20.096-3.479a.641.641 0 0 1-.394-.807.627.627 0 0 1 .806-.395c11.553 3.946 22.747 4.448 34.193 1.542.34-.107.68.108.77.449a.637.637 0 0 1-.466.771c-4.961 1.273-9.887 1.919-14.813 1.919Z"/><path fill="#0C0553" d="M72.63 196.986c-20.365-23.637-19.953-53.551-19.953-53.856 0-.304.215-.555.52-.609l31.775-6.116c2.525 18.042 10.263 32.227 22.514 40.531 10.084 6.833 22.139 8.949 33.065 5.81 27.924-8.034 36.342-9.002 36.682-9.038.341-.054.663.215.699.556a.64.64 0 0 1-.555.699c-.09 0-8.705 1.004-36.468 8.985-11.284 3.228-23.715 1.076-34.121-5.972-12.413-8.393-20.294-22.668-22.246-40.208l-30.593 5.9c.036 4.018 1.021 30.901 19.165 52.278a.63.63 0 0 1-.071.896.674.674 0 0 1-.412.144Zm151.281 97.882c-.663 0-1.379-.09-2.15-.341-3.045-.95-5.481-1.183-8.149-.825-.376.036-.663-.197-.717-.538a.64.64 0 0 1 .538-.717c2.865-.395 5.463-.143 8.704.861 3.78 1.166 6.108-1.668 6.198-1.776a.645.645 0 0 1 .895-.107c.269.215.323.61.108.896-.036.036-2.06 2.547-5.427 2.547Zm-37.937-153.047c-3.618 0-6.556-4.86-6.556-10.815 0-5.971 2.938-10.814 6.556-10.814s6.556 4.86 6.556 10.814c0 6.062-2.884 10.815-6.556 10.815Zm0-20.624c-3.063 0-5.552 4.393-5.552 9.809 0 5.399 2.489 9.81 5.552 9.81 3.063 0 5.553-4.393 5.553-9.81-.018-5.416-2.508-9.809-5.553-9.809Z"/><path fill="#0C0553" d="M179.92 131.508c-.501-.43-1.236-2.456-3.045-2.456-1.236 0-1.701 1.811-1.701 1.829a.513.513 0 0 1-.609.376.522.522 0 0 1-.376-.609c.035-.108.644-2.601 2.668-2.619 2.544 0 3.493 2.69 3.529 2.798a.515.515 0 0 1-.466.681Zm20.043-1.883h-7.63a.501.501 0 1 1 0-1.004h7.63a.501.501 0 1 1 0 1.004Zm-55.382 121.234a.625.625 0 0 1-.627-.573c0-.036-.305-3.623-1.272-6.851-6.43-21.503 1.487-34.612 10.926-47.22a.613.613 0 0 1 .878-.125c.286.215.34.609.125.878-9.224 12.339-16.998 25.144-10.729 46.09 1.003 3.336 1.308 6.941 1.326 7.102.036.341-.233.646-.573.681-.018.018-.036.018-.054.018Zm46.086-56.564c-1.469 0-2.794-.412-3.923-1.219-3.17-2.26-4.101-7.048-4.37-9.577-2.49 2.869-8.992 9.236-14.705 5.039-1.487-1.111-2.239-2.457-2.186-4.035.144-4.824 7.828-9.935 8.15-10.15a.635.635 0 0 1 .878.179c.197.287.107.682-.179.879-.072.054-7.469 4.95-7.577 9.128-.036 1.148.52 2.134 1.684 2.977 6.054 4.484 13.881-5.936 13.971-6.044a.658.658 0 0 1 .698-.233c.251.09.43.323.43.592 0 .072.143 7.479 3.959 10.187 1.576 1.129 3.636 1.273 6.107.448 7.416-2.475 6.144-9.128 6.09-9.397a.635.635 0 0 1 .502-.754c.34-.071.68.162.752.503.018.071 1.522 8.016-6.932 10.849-1.218.431-2.328.628-3.349.628ZM68.511 114.257h-4.746c-5.84 0-10.586-4.753-10.586-10.581v-13.02c0-.27 0-.52.036-.79 8.597 1.974 17.248 1.974 25.022-.52.86 1.31.86 14.33.86 14.33 0 5.846-4.747 10.581-10.586 10.581ZM54.433 90.781v12.895c0 5.147 4.173 9.325 9.314 9.325h4.746c5.14 0 9.314-4.178 9.314-9.325V90.799c-7.523 2.26-15.816 2.242-23.374-.018Z"/><path fill="#0C0553" d="M66.183 92.503a41.08 41.08 0 0 1-12.538-1.955C36.7 85.096 25.309 69.44 25.309 51.596c0-22.561 18.341-40.907 40.874-40.907 22.532 0 40.856 18.346 40.856 40.907 0 17.88-11.428 33.536-28.408 38.97a41.128 41.128 0 0 1-12.448 1.937Zm0-80.577c-21.834 0-39.603 17.79-39.603 39.652 0 17.288 11.034 32.46 27.459 37.75 7.773 2.511 16.424 2.529 24.216.036 16.478-5.272 27.53-20.444 27.53-37.768-.018-21.88-17.768-39.67-39.602-39.67Zm14.741 91.14h-29.5a.635.635 0 0 1-.627-.628c0-.341.286-.627.627-.627h29.482c.34 0 .627.286.627.627a.608.608 0 0 1-.61.628Zm0 7.407h-29.5a.635.635 0 0 1-.627-.628c0-.34.286-.627.627-.627h29.482c.34 0 .627.287.627.627a.598.598 0 0 1-.61.628Zm0-14.832h-29.5a.635.635 0 0 1-.627-.628c0-.34.286-.627.627-.627h29.482c.34 0 .627.287.627.627a.608.608 0 0 1-.61.628Z"/><path fill="#0C0553" d="M80.924 103.066h-29.5a.635.635 0 0 1-.627-.628c0-.341.286-.627.627-.627h29.482c.34 0 .627.286.627.627a.608.608 0 0 1-.61.628ZM41.949 68.902c-.43 0-.86-.018-1.254-.036a.652.652 0 0 1-.61-.664c.019-.34.252-.627.663-.61 2.4.108 5.858.018 8.132-1.99a9.025 9.025 0 0 0 1.415-1.578c-1.039-.754-1.952-1.614-2.704-2.6-1.881-2.44-2.723-5.65-2.311-8.77.143-1.077 1.11-5.291 3.26-6.475.698-.376 1.469-.394 2.203-.053 1.45.681 2.006 2.708 2.382 4.053.556 1.954.788 3.676.77 5.416-.018 1.632-.25 5.057-1.88 8.034 4.048 2.51 9.761 3.658 14.562 3.658 6.502 0 11.356-3.945 13.935-8.088-2.776-1.56-4.353-3.676-4.621-5.882-.162-1.273.09-2.654.716-4 .484-1.004 1.343-2.295 2.776-2.743.932-.287 1.791-.161 2.49.34 1.934 1.435 2.006 5.363 2.006 6.134 0 1.704-.537 3.676-1.54 5.595 4.012 1.65 8.902 1.812 13.612 1.812.34 0 .627.287.627.627a.635.635 0 0 1-.627.628c-4.89 0-9.994-.18-14.24-1.973-2.811 4.61-8.203 8.788-15.152 8.788-4.675 0-10.783-1.058-15.243-3.82a10.46 10.46 0 0 1-1.63 1.83c-2.185 1.99-5.248 2.367-7.737 2.367Zm7.755-21.736c-1.88.879-2.937 4.089-3.152 5.685-.376 2.797.376 5.649 2.06 7.819.644.843 1.45 1.596 2.382 2.277 1.433-2.708 1.648-5.846 1.666-7.352a16.4 16.4 0 0 0-.645-4.77c-.394-1.435-.86-3.121-1.773-3.552-.198-.053-.377-.107-.538-.107Zm30.664.538c-1.594.412-2.238 1.399-2.597 2.188-.537 1.13-.752 2.26-.609 3.3.233 1.81 1.559 3.586 3.583 4.716 1.397-1.596 1.898-3.39 1.898-4.824 0-1.937-.466-4.358-1.486-5.111a1.234 1.234 0 0 0-.788-.27Zm1.308 89.956a.623.623 0 0 1-.627-.556c-.036-.341-.95-8.142 1.523-10.832 3.08-3.354 5.445-5.111 7.54-6.492 2.347-1.561 3.51-3.318 3.081-4.699-.34-1.13-1.809-1.865-3.493-1.847-3.94.054-9.976 4.071-14.383 6.994-4.262 2.834-15.117.072-15.565-.054a.625.625 0 0 1-.447-.771c.09-.341.412-.556.77-.448 2.991.771 11.338 2.367 14.114.52 5.23-3.479 11.195-7.443 15.511-7.496 2.365.035 4.21 1.04 4.729 2.743.287.933.52 3.408-3.582 6.134-2.024 1.345-4.317 3.031-7.308 6.295-1.72 1.883-1.451 7.729-1.2 9.827a.627.627 0 0 1-.555.7c-.054-.018-.072-.018-.108-.018Zm95.629 13.755a.62.62 0 0 1-.627-.61c0-.34.269-.645.609-.645 6.717-.197 7.129-5.004 7.147-5.201.018-.341.322-.592.663-.592.34.018.609.323.591.664 0 .071-.466 6.169-8.383 6.384Zm-6.985 24.857c-4.353-.269-7.398-1.919-9.064-4.878-4.925-8.752 3.941-25.968 4.317-26.704a.625.625 0 0 1 .842-.269c.304.162.43.538.269.861-.09.179-8.938 17.324-4.335 25.484 1.451 2.565 4.138 3.981 7.989 4.233.34.017.609.322.591.663 0 .359-.287.61-.609.61Zm46.946 124.64c-5.893-10.007-9.458-13.235-9.476-13.271a.63.63 0 0 1-.053-.897.627.627 0 0 1 .895-.053c.143.143 3.744 3.371 9.207 13.271a.642.642 0 0 1-.251.861c-.125.053-.215.089-.322.089Z"/><path fill="#0C0553" d="M58.176 142.843c-.358-.018-.645-.305-.627-.646 0-.108.215-9.81-4.084-11.747-4.674-2.08-17.374-13.934-18.09-19.404-.161-1.309.34-2.493 1.38-3.228 1.468-1.022 3.671-1.022 5.587-.018 2.848 1.506 11.822 9.218 13.165 10.401 1.72.144 12.503 1.292 16.622 7.909.18.305.09.682-.197.879-.286.197-.68.09-.877-.197-4.03-6.492-15.727-7.335-15.834-7.335-.466-.233-10.568-8.985-13.47-10.527-1.504-.789-3.224-.807-4.28-.072-.466.323-1.003.932-.86 2.026.609 4.735 12.502 16.248 17.356 18.418 5.069 2.26 4.836 12.5 4.836 12.931a.62.62 0 0 1-.627.61Z"/><path fill="#0C0553" d="M65.305 121.232c-6.466-5.703-16.873-14.544-19.076-14.723-2.704-.18-3.582 2.062-3.6 2.08-.125.323-.483.502-.806.377-.322-.126-.501-.485-.376-.807a4.652 4.652 0 0 1 4.872-2.888c3.35.269 17.768 13.379 19.398 14.867.25.233.269.628.036.897a.58.58 0 0 1-.448.197Z"/><path fill="#0C0553" d="M49.077 107.854c-.573-.197-.716-.574-.573-.896.573-1.292 2.436-3.515 5.463-2.78.34.089.555.43.466.771a.65.65 0 0 1-.77.466c-2.759-.663-3.959 1.955-4.013 2.063a.643.643 0 0 1-.573.376Zm23.267 13.54c-2.794-2.708-6.699-6.653-7.845-7.191a.63.63 0 0 1-.304-.843.628.628 0 0 1 .841-.305c1.738.825 7.165 6.618 7.774 7.263a.647.647 0 0 1-.036.897.584.584 0 0 1-.43.179Z"/><path fill="#fff" d="M119.577 98.026c-.43-.162-17.751-16.069-17.751-16.069a.646.646 0 0 1-.036-.897.644.644 0 0 1 .896-.035l17.32 15.907a.644.644 0 0 1 .036.897.584.584 0 0 1-.465.197Z"/><path fill="#0C0553" d="M.573 104.627c-.716-.503-.663-.897-.394-1.13l29.823-24.3a.647.647 0 0 1 .895.09.65.65 0 0 1-.09.896l-29.822 24.3a.715.715 0 0 1-.412.144Zm25.363-80.165c-.394-.125-16.46-12.661-16.46-12.661a.628.628 0 0 1-.108-.879.646.646 0 0 1 .895-.108L26.33 23.35c.268.215.322.61.107.879a.635.635 0 0 1-.501.233ZM68.35 7.066a.623.623 0 0 1-.627-.628V.628c0-.341.287-.628.627-.628s.627.287.627.628v5.81a.623.623 0 0 1-.627.628Zm38.295 21.538c-.717-.735-.556-1.094-.215-1.22l38.151-14.543c.322-.126.698.035.806.358a.643.643 0 0 1-.358.825l-38.152 14.544a.896.896 0 0 1-.232.036Zm216.352 150.591c-1.003-.592-1.254-.789-1.541-.932l-14.562-7.479c-4.854-2.493-9.546-2.833-14.776-1.094l-12.521 4.269c-4.477 1.524-11.463.789-15.547-1.632l-19.989-11.926c-3.779-2.242-9.923-2.296-13.72-.108l-3.403 1.955a.624.624 0 0 1-.86-.233.62.62 0 0 1 .233-.861l3.403-1.955c4.156-2.385 10.872-2.331 14.992.126l19.989 11.926c3.815 2.259 10.317 2.959 14.49 1.524l12.538-4.25c5.571-1.866 10.586-1.507 15.763 1.165l14.562 7.479c.34.179.644.412.967.645.645.467.698.861.501 1.148a.7.7 0 0 1-.519.233Zm-30.951-25.967c-5.642 0-10.246-4.591-10.246-10.24 0-5.65 4.604-10.259 10.246-10.259s10.227 4.592 10.227 10.259c.018 5.631-4.585 10.24-10.227 10.24Zm0-19.243c-4.944 0-8.974 4.035-8.974 8.985 0 4.949 4.03 8.985 8.974 8.985 4.943 0 8.973-4.036 8.973-8.985 0-4.95-4.012-8.985-8.973-8.985Z"/><path fill="#0C0553" d="M305.246 209.503h-46.802a.634.634 0 0 1-.627-.627c0-.341.286-.628.627-.628h46.802c9.44 0 17.124-7.694 17.124-17.145v-55.935c0-9.451-7.684-17.145-17.124-17.145h-13.2a.635.635 0 0 1-.627-.628c0-.358.286-.627.627-.627h13.2c10.138 0 18.395 8.267 18.395 18.418v55.917c-.018 10.133-8.257 18.4-18.395 18.4Zm-58.033-91.48h-27.368a.635.635 0 0 1-.627-.628c0-.358.286-.627.627-.627h27.368c.359 0 .627.287.627.627a.623.623 0 0 1-.627.628Zm-91.33 142.896H32.832a.634.634 0 0 1-.627-.627c0-.341.286-.628.627-.628h123.051c.34 0 .627.287.627.628.018.341-.269.627-.627.627Zm0 30.129H32.832a.635.635 0 0 1-.627-.627c0-.341.286-.628.627-.628h123.051c.34 0 .627.287.627.628 0 .34-.269.627-.627.627Zm0-15.064H32.832a.635.635 0 0 1-.627-.628c0-.341.286-.627.627-.627h123.051c.34 0 .627.286.627.627.018.341-.269.628-.627.628Z"/><path fill="#0C0553" d="M185.938 301.109H2.794a.635.635 0 0 1-.627-.628v-13.306c0-.341.287-.628.627-.628s.627.287.627.628v12.679h181.891v-48.978H3.421v7.282c0 .34-.287.627-.627.627a.635.635 0 0 1-.627-.627v-7.909c0-.341.287-.628.627-.628h183.144c.341 0 .627.287.627.628v50.25a.62.62 0 0 1-.627.61Z"/><path fill="#0C0553" d="M319.737 301.109H186.422a.624.624 0 0 1-.627-.628c0-.341.287-.627.627-.627h133.315c.34 0 .627.286.627.627a.624.624 0 0 1-.627.628Z"/><path fill="#3A3A3A" d="M297.348 205.413c1.092 0 1.97-.879 1.97-1.972a1.966 1.966 0 0 0-1.97-1.973 1.966 1.966 0 0 0-1.971 1.973c0 1.093.896 1.972 1.971 1.972Zm15.314.09a2.08 2.08 0 0 0 0-4.16 2.08 2.08 0 0 0-2.078 2.08c.018 1.166.949 2.08 2.078 2.08Zm15.314-.143a1.92 1.92 0 0 0 0-3.838 1.92 1.92 0 0 0-1.917 1.919 1.92 1.92 0 0 0 1.917 1.919Zm-30.629 15.495a2.08 2.08 0 0 0 0-4.161 2.08 2.08 0 0 0-2.077 2.081c.018 1.147.931 2.08 2.077 2.08Zm15.315.089c1.2 0 2.167-.968 2.167-2.17 0-1.201-.967-2.17-2.167-2.17-1.2 0-2.168.969-2.168 2.17 0 1.202.968 2.17 2.168 2.17Zm15.314-.143c1.11 0 2.024-.915 2.024-2.026a2.035 2.035 0 0 0-2.024-2.027 2.023 2.023 0 0 0-2.024 2.027c.018 1.111.913 2.026 2.024 2.026Zm-30.629 15.226a1.92 1.92 0 0 0 1.917-1.919 1.92 1.92 0 0 0-1.917-1.919 1.92 1.92 0 0 0 0 3.838Zm15.315.107c1.11 0 2.024-.897 2.024-2.026 0-1.13-.914-2.027-2.024-2.027a2.035 2.035 0 0 0-2.024 2.027c0 1.111.913 2.026 2.024 2.026Zm15.314-.143a1.882 1.882 0 0 0 1.881-1.883 1.881 1.881 0 1 0-3.762 0c0 1.04.842 1.883 1.881 1.883Z"/><path fill="#0C0553" d="M164.803 116.535h-59.108c-11.463 0-21.046-8.967-21.816-20.41a.651.651 0 0 1 .591-.68c.376.017.645.25.663.591.716 10.796 9.762 19.243 20.562 19.243h59.126c.34 0 .627.287.627.628a.64.64 0 0 1-.645.628Zm37.381-14.545c-.555-.162-.716-.52-.591-.843.842-2.278 1.164-4.035 1.164-6.492v-36.1c0-11.371-9.242-20.625-20.598-20.625h-72.864a.634.634 0 0 1-.626-.627c0-.341.286-.628.626-.628h72.864c12.055 0 21.87 9.828 21.87 21.897v36.1c0 2.583-.34 4.52-1.236 6.923a.693.693 0 0 1-.609.395Zm-121.26 1.076h-29.5a.635.635 0 0 1-.627-.628c0-.341.286-.627.627-.627h29.482c.34 0 .627.286.627.627a.609.609 0 0 1-.61.628Zm-31.847 4.788c-.573-.197-.716-.574-.573-.896.573-1.292 2.436-3.515 5.463-2.78.34.089.555.43.466.771a.65.65 0 0 1-.77.466c-2.759-.663-3.959 1.955-4.013 2.063a.643.643 0 0 1-.573.376Zm23.267 13.54c-2.794-2.708-6.699-6.653-7.845-7.191a.631.631 0 0 1-.305-.843.628.628 0 0 1 .842-.305c1.738.825 7.165 6.617 7.774 7.263a.646.646 0 0 1-.036.897.583.583 0 0 1-.43.179Zm225.004 84.019c1.092 0 1.97-.879 1.97-1.972a1.966 1.966 0 0 0-1.97-1.973 1.966 1.966 0 0 0-1.971 1.973c0 1.093.896 1.972 1.971 1.972Zm15.314.09a2.08 2.08 0 0 0 0-4.16 2.08 2.08 0 0 0-2.078 2.08c.018 1.166.949 2.08 2.078 2.08Zm15.314-.143a1.92 1.92 0 0 0 1.917-1.919 1.92 1.92 0 0 0-1.917-1.919 1.92 1.92 0 0 0 0 3.838Zm-30.629 15.495a2.08 2.08 0 0 0 0-4.161 2.08 2.08 0 0 0-2.077 2.081c.018 1.147.931 2.08 2.077 2.08Zm15.315.089c1.2 0 2.167-.968 2.167-2.17 0-1.201-.967-2.17-2.167-2.17-1.2 0-2.168.969-2.168 2.17 0 1.202.968 2.17 2.168 2.17Zm15.314-.143a2.035 2.035 0 0 0 2.024-2.026 2.035 2.035 0 0 0-2.024-2.027c-1.11 0-2.024.897-2.024 2.027.018 1.111.914 2.026 2.024 2.026Zm-30.629 15.226a1.92 1.92 0 0 0 1.917-1.919 1.92 1.92 0 0 0-1.917-1.919 1.92 1.92 0 0 0 0 3.838Zm15.315.107c1.11 0 2.024-.897 2.024-2.026 0-1.13-.914-2.027-2.024-2.027a2.035 2.035 0 0 0-2.024 2.027c0 1.111.913 2.026 2.024 2.026Zm15.314-.143a1.882 1.882 0 0 0 1.881-1.883 1.881 1.881 0 1 0-3.762 0c0 1.04.842 1.883 1.881 1.883Z"/></svg>