<svg xmlns="http://www.w3.org/2000/svg" width="230" height="149" fill="none"><path fill="#216FF4" d="m107.619 110.248 13.848 21.878c2.273 3.591-.306 8.279-4.558 8.279H79.527a5.392 5.392 0 0 1-4.558-2.51l-15.718-24.834c-2.272-3.591.309-8.28 4.559-8.28h37.381c1.849 0 3.569.947 4.558 2.51l1.87 2.957Z"/><path fill="#fff" d="M87.116 111.607s1.449-2.41 4.224-.367l15.575 14.032s1.469 2.084-1.543 2.351H84.767s-4.449.222-3.38-3.048l5.729-12.968Z"/><path fill="#fff" d="m178.844 53.187 33.74 53.309c5.537 8.751-.75 20.171-11.107 20.171h-91.082a13.148 13.148 0 0 1-11.107-6.114L60.994 60.046c-5.538-8.752.75-20.172 11.106-20.172h91.083a13.15 13.15 0 0 1 11.106 6.115l4.555 7.198Z"/><path fill="#216FF4" d="m151.497 84.337-6.068-9.588-.819-1.296a2.643 2.643 0 0 0-2.244-1.235h-16.384a2.63 2.63 0 0 0-2.329 1.375 2.626 2.626 0 0 0 .082 2.704l6.887 10.884a2.641 2.641 0 0 0 2.245 1.237h16.383a2.63 2.63 0 0 0 2.329-1.375 2.63 2.63 0 0 0-.082-2.706Z"/><path fill="#fff" d="M189.698 56.523s1.39-.484 3.109 0c1.719.485 2.293 1.646 2.428 3.403.138 1.758-1.359 4.089-4.831 3.237 0 0-5.339.72-6.683 3.331-1.347 2.615-1.354 3.04-1.354 3.04s-1.013 3.967.469 5.931c0 0-6.033.84-6.994 3.051 0 0-3.39-1.132-4.607-1.484-1.217-.352-2.773-2.163-3.933-3.41-1.163-1.248-3.324-3.187-3.342-3.852-.015-.666.181-1.732.97-1.926.788-.194 2.39-.105 4.083 1.872 1.694 1.977 2.794 2.51 2.855 2.132.064-.377-2.278-3.127-4.388-4.79-2.109-1.663-5.236-4.107-5.695-4.642-.46-.536.209-2.02.867-2.324.655-.304 1.665-.533 3.464.786a110.496 110.496 0 0 1 3.229 2.461s2.439-2.005 5.181-.393c0 0 1.109-.867 2.594-.245l.191-1.033s-2.535-2.277-2.431-3.135c.105-.857 4.255-3.795 4.255-3.795l.87-6.505s1.367 3.934 4.897 6.227c3.536 2.295 4.796 2.063 4.796 2.063Zm-65.382 26.309s-2.099 1.319-1.385 3.64c0 0-2.056 1.184-1.109 4.64.944 3.456 2.181 6.298 4.52 8.624 2.339 2.326 5.923 4.222 6.162 5.048 0 0 1.862-2.028 4.832-4.239 2.969-2.212 5.231-3.283 5.231-3.283s-4.522-7.247-5.367-9.216c-.847-1.967-2.191-4.81-4.17-4.29-1.98.517-1.622 2.652-1.033 4.251.589 1.6 2.275 4.74.507 5.084-1.767.345-3.045-2.994-3.045-2.994s-.666-.268-2.079-2.714c-1.413-2.45-3.061-4.38-3.061-4.38v-.171h-.003Z"/><path fill="#216FF4" d="M182.002 42.69c3.219-3.068 7.601-2.004 9.981-1.06 2.38.94 4.189 1.668 5.186 2.938 0 0 3.793 1.27 5.627 2.4 1.834 1.13 3.145 3.472 2.584 6.663-.561 3.19-2.574 5.992-2.574 5.992s-.967 1.864.357 2.757c1.324.893 4.987 3.321 5.224 9.017.237 5.696-3.556 8.8-7.496 8.92-3.939.122-8.869-1.25-9.165-2.008 0 0-5.224 2.38-8.451-1.846-3.227-4.227.02-10.356 1.961-11.38 1.942-1.025 4.005-.946 4.005-.946s1.186-1.14 1.842-2.992c.377-1.066-.648-3.053-2.033-3.703-.946-.444-2.087-.503-2.087-.503s-4.497-1.087-6.818-7.091c-.002 0-1.362-4.089 1.857-7.157Z"/><path fill="#0C0553" d="M205.112 78.897s2.329 2.114 3.778 7.244c0 0 5.803 10.22 7.935 16.292 2.133 6.071 5.79 14.6 2.518 20.357-3.273 5.757-9.196 5.273-10.479 4.867 0 0-.52 4.306-.127 8.969.392 4.663 1.479 11.698 1.479 11.698h-46.227s1.089-4.842 1.387-6.798c.299-1.954.689-5.296.689-5.296s-3.954 2.549-12.244-1.415-15.832-15.81-17.552-18.825c-1.716-3.015-5.017-9.762-5.017-9.762s7.614-8.244 14.629-10.534l12.996 14.445s3.502-7.724 6.068-13.471 6.053-14.218 9.826-17.167c3.772-2.948 5.287-3.696 8.063-4.038 0 0 1.584 3.036 4.282 3.444 2.699.408 4.607-.602 4.607-.602s4.306 2.224 7.915 2.071c3.609-.148 5.474-1.48 5.474-1.48ZM152.888 10.64l6.068 9.588c.997 1.574-.135 3.627-1.997 3.627h-16.384a2.364 2.364 0 0 1-1.997-1.099l-6.89-10.884c-.997-1.574.135-3.627 1.997-3.627h16.384c.811 0 1.564.415 1.997 1.099l.822 1.296Z"/><path fill="#216FF4" d="m85.823 37.056 16.141 25.503c2.65 4.186-.357 9.65-5.313 9.65H53.076a6.289 6.289 0 0 1-5.313-2.926L29.44 40.334c-2.65-4.186.357-9.65 5.314-9.65h43.574a6.289 6.289 0 0 1 5.314 2.926l2.18 3.446Z"/><path fill="#CCC" d="M161.637 62.169s-1.02 1.632 1.24 2.668l1.285-.409c-.002 0-2.699-1.946-2.525-2.26Z"/><path fill="#0C0553" d="M34.182 34.87H92.23l-3.813-5.783s-.92-1.206-3.6-1.926c-2.677-.719-45.1.026-45.1.026s-6.636.633-5.535 7.683Z"/><path fill="#3A3A3A" d="M85.369 32.07c-.707.586-1.954.252-2.783-.748-.83-1-.931-2.285-.225-2.872.707-.587 1.954-.253 2.783.747.832 1 .931 2.286.225 2.872Z"/><path fill="#fff" d="M78.8 32.07c-.706.586-1.954.252-2.783-.748s-.93-2.285-.224-2.872c.706-.587 1.954-.253 2.783.747.831 1 .93 2.286.224 2.872Zm-6.412 0c-.707.586-1.952.252-2.783-.748-.83-1-.931-2.285-.225-2.872.707-.587 1.952-.253 2.783.747.832 1 .931 2.286.225 2.872Z"/><path fill="#216FF4" d="M9.131 62.548c-1.788 1.485-4.943.638-7.042-1.895-2.102-2.53-2.355-5.788-.567-7.272 1.788-1.485 4.944-.638 7.043 1.895 2.102 2.53 2.357 5.788.566 7.272Z"/><path fill="#fff" d="M182.002 42.69c-3.219 3.07-1.86 7.158-1.86 7.158 2.322 6.005 6.819 7.091 6.819 7.091s.357.02.834.112c-1.709-1.339-4.984-4.685-3.809-10.006.947-4.283 3.75-5.668 5.819-6.094-2.375-.538-5.41-.543-7.803 1.74Zm5.872 36.265c-7.653-4.528-2.235-13.052.592-14.787-.776.069-2.026.28-3.23.916-1.941 1.025-5.188 7.155-1.961 11.379 1.359 1.778 3.071 2.385 4.599 2.492Z"/><path fill="#216FF4" d="M150.959 133.128s7.831 6.04 15.108 3.102c0 0 4.518-1.852 6.023-3.607 0 0-2.47-6.359-10.249-6.15-7.783.209-9.839 4.319-10.882 6.655Z"/><path fill="#0C0553" d="M161.667 137.281c-11.828 0-24.069-15.665-30.719-30.921a.331.331 0 0 1 .041-.334c.026-.033 2.561-3.313 6.515-6.004 5.249-3.569 8.101-4.643 8.218-4.686a.334.334 0 0 1 .35.076c.153.153 15.363 15.44 20.051 24.83a.33.33 0 0 1-.148.443.333.333 0 0 1-.443-.147c-4.385-8.788-18.159-22.868-19.771-24.503-.73.306-3.472 1.535-7.882 4.533-3.383 2.3-5.701 5.04-6.242 5.708 6.91 15.743 19.751 31.847 31.719 30.227 12.718-1.742 18.103-18.21 23.821-39.555a.34.34 0 0 1 .409-.235c.176.049.28.23.234.408-5.785 21.588-11.251 38.244-24.375 40.037-.592.082-1.183.123-1.778.123Z"/><path fill="#0C0553" d="M159.061 110.747a.33.33 0 0 1-.301-.467c1.433-3.178 2.752-6.318 4.027-9.353 5.831-13.874 10.438-24.832 19.728-25.653.178-.031.344.117.357.3a.327.327 0 0 1-.301.358c-8.892.788-13.427 11.585-19.174 25.252-1.278 3.041-2.599 6.183-4.035 9.369a.325.325 0 0 1-.301.194Zm-16.496-13.38a.338.338 0 0 1-.258-.123c-.018-.023-.449-.563-2.584-3.69-.867-1.273-1.556-2.467-2.104-3.646-.26-.558-.49-1.132-.717-1.706-.321-.809-.655-1.648-1.076-2.413a8.24 8.24 0 0 0-.419-.689c-.306-.459-.576-.745-.88-.933-.392-.245-.9-.281-1.392-.1-.544.202-.98.64-1.138 1.14-.247.794.043 1.755.334 2.592.158.454.342.895.526 1.336.204.5.418 1.013.591 1.538.018.06.046.123.074.194.23.564.763 1.885-1.007 2.737-1.393.666-2.344-1.196-2.98-2.425-.135-.263-.255-.5-.367-.681a.33.33 0 1 1 .566-.342c.115.188.245.441.388.719.656 1.273 1.355 2.49 2.105 2.132 1.209-.584.915-1.308.681-1.892a3.64 3.64 0 0 1-.09-.235c-.168-.502-.377-1.005-.576-1.495a24.29 24.29 0 0 1-.536-1.372c-.326-.939-.65-2.02-.342-3.005.22-.704.794-1.288 1.536-1.563.686-.25 1.408-.194 1.974.16.493.309.834.766 1.077 1.128.16.24.308.487.449.74.441.803.783 1.657 1.112 2.487.224.563.449 1.127.704 1.673.533 1.145 1.204 2.306 2.048 3.55 2.099 3.08 2.535 3.628 2.553 3.648.115.14.092.35-.051.464a.298.298 0 0 1-.201.072Zm-19.249-9.872a.325.325 0 0 1-.29-.176c-.028-.053-.681-1.31-.314-2.88.229-.976.681-1.502 1.507-1.757a.332.332 0 0 1 .194.633c-.502.155-.857.42-1.056 1.275-.311 1.326.248 2.403.253 2.413a.332.332 0 0 1-.135.449.312.312 0 0 1-.159.043Z"/><path fill="#0C0553" d="M127.469 94.573a.325.325 0 0 1-.263-.13c-2.239-2.928-4.17-7.098-4.188-7.14a.33.33 0 0 1 .161-.438.322.322 0 0 1 .438.16c.021.044 1.919 4.148 4.115 7.015a.33.33 0 0 1-.263.533Z"/><path fill="#0C0553" d="M132.502 105.113a.33.33 0 0 1-.245-.107c-.691-.755-1.26-1.079-1.918-1.451-.842-.48-1.801-1.023-3.296-2.543-2.857-2.906-5.038-7.49-5.719-10.517-.775-3.439 1.658-4.201 1.684-4.209a.326.326 0 0 1 .411.225.331.331 0 0 1-.22.41c-.079.023-1.862.615-1.229 3.428.66 2.936 2.777 7.382 5.545 10.199 1.431 1.453 2.347 1.971 3.153 2.43.676.386 1.319.748 2.079 1.582a.331.331 0 0 1-.021.469.338.338 0 0 1-.224.084ZM187.54 64.66a3.94 3.94 0 0 1-3.242-1.706.332.332 0 1 1 .546-.377c.38.553.913.971 1.543 1.208a3.272 3.272 0 0 0 4.224-1.908 3.282 3.282 0 0 0-1.908-4.224 3.246 3.246 0 0 0-3.147.464.328.328 0 0 1-.465-.06.33.33 0 0 1 .062-.465 3.93 3.93 0 0 1 3.785-.559 3.95 3.95 0 0 1 2.296 5.079 3.951 3.951 0 0 1-3.694 2.548Z"/><path fill="#0C0553" d="M187.815 62.898a.335.335 0 0 1-.268-.136l-1.755-2.405a.334.334 0 0 1-.045-.301.337.337 0 0 1 .221-.212l2.987-.864a.336.336 0 0 1 .411.227.332.332 0 0 1-.227.41l-2.533.732 1.477 2.023a.334.334 0 0 1-.074.464.337.337 0 0 1-.194.062Zm-5.754 7.142c-1.972-.179-3.349-.9-4.13-2.143-1.454-2.31-.276-5.553-.224-5.69l2.647-10.836a.34.34 0 0 1 .401-.245.336.336 0 0 1 .245.4L178.339 62.4c-.023.069-1.127 3.115.153 5.148.666 1.056 1.877 1.673 3.599 1.831a.331.331 0 0 1-.03.66Z"/><path fill="#0C0553" d="M177.602 60.765a1.435 1.435 0 0 1-1.375-1.819l1.645-5.86c.102-.368.342-.672.676-.86a1.404 1.404 0 0 1 1.087-.13c.378.104.643.29.791.555.148.263.168.587.061.965a.326.326 0 0 1-.408.23.332.332 0 0 1-.23-.409c.059-.201.056-.357-.002-.46-.059-.104-.192-.183-.393-.239a.78.78 0 0 0-.944.53l-1.645 5.862a.768.768 0 0 0 1.115.875.766.766 0 0 0 .362-.461.326.326 0 0 1 .408-.23.33.33 0 0 1 .229.408 1.415 1.415 0 0 1-.676.86 1.424 1.424 0 0 1-.701.183Zm-13.614 87.89a.332.332 0 0 1-.313-.436c.609-1.822 1.663-8.051 2.063-11.683a.329.329 0 0 1 .365-.293c.184.02.314.183.293.365-.369 3.349-1.41 9.787-2.094 11.822a.328.328 0 0 1-.314.225Zm46.845-20.307c-1.369 0-2.203-.428-2.28-.469a.331.331 0 1 1 .314-.584c.171.089 4.244 2.132 9.726-4.053 4.987-5.63-2.265-23.416-9.989-36.938a.336.336 0 0 1 .125-.454.338.338 0 0 1 .454.125c2.834 4.964 16.636 30.107 9.907 37.703-3.408 3.844-6.351 4.67-8.257 4.67Z"/><path fill="#0C0553" d="M210.214 148.655a.333.333 0 0 1-.324-.258c-.026-.115-2.538-11.555-1.268-23.977 2.661-26.005 1.566-39.945-3.553-45.197a.33.33 0 0 1 .008-.47.328.328 0 0 1 .469.008c5.336 5.477 6.453 19.154 3.734 45.725-1.257 12.313 1.232 23.653 1.258 23.766a.337.337 0 0 1-.25.398c-.026.002-.049.005-.074.005Zm-31.788-95.807a.326.326 0 0 1-.28-.155l-3.985-6.295a12.721 12.721 0 0 0-10.795-5.944h-15.878a.331.331 0 1 1 0-.663h15.878c4.63 0 8.874 2.337 11.354 6.252l3.984 6.295c.1.156.054.357-.104.457a.304.304 0 0 1-.174.053Zm-48.97-12.392H99.222a.331.331 0 1 1 0-.663h30.234a.331.331 0 1 1 0 .663Zm14.532 86.54h-33.255a13.37 13.37 0 0 1-11.353-6.25L68.799 72.427a.327.327 0 0 1 .104-.457.333.333 0 0 1 .457.105l30.578 48.319a12.713 12.713 0 0 0 10.795 5.941h33.255a.331.331 0 1 1 0 .661Zm-41.779-57.982H58.634a6.584 6.584 0 0 1-5.594-3.08L34.72 36.99c-1.308-2.069-1.385-4.587-.204-6.732 1.181-2.145 3.35-3.426 5.798-3.426H83.89a6.587 6.587 0 0 1 5.594 3.08l2.18 3.443 16.142 25.502a6.538 6.538 0 0 1 .204 6.732c-1.184 2.143-3.352 3.426-5.8 3.426ZM40.314 27.49a5.883 5.883 0 0 0-5.219 3.084 5.878 5.878 0 0 0 .186 6.06l18.32 28.946a5.925 5.925 0 0 0 5.033 2.77h43.575a5.882 5.882 0 0 0 5.218-3.083 5.878 5.878 0 0 0-.186-6.061L88.921 30.26a5.925 5.925 0 0 0-5.032-2.77H40.314Z"/><path fill="#0C0553" d="M63.213 115.915a.33.33 0 0 1-.28-.153l-3.965-6.264a5.628 5.628 0 0 1-.176-5.798 5.625 5.625 0 0 1 4.995-2.951h23.536a.331.331 0 1 1 0 .663H63.787a4.968 4.968 0 0 0-4.413 2.609 4.981 4.981 0 0 0 .155 5.127l3.964 6.265c.1.156.054.357-.104.457a.36.36 0 0 1-.176.045Zm53.446 20.96H79.438a5.666 5.666 0 0 1-4.818-2.653l-3.253-5.137a.326.326 0 0 1 .105-.456.333.333 0 0 1 .457.104l3.252 5.137a5.02 5.02 0 0 0 4.26 2.345h37.22a4.969 4.969 0 0 0 4.413-2.61 4.981 4.981 0 0 0-.155-5.127l-1.036-1.638a.329.329 0 0 1 .105-.456.328.328 0 0 1 .456.104l1.036 1.638a5.629 5.629 0 0 1 .176 5.798 5.634 5.634 0 0 1-4.997 2.951ZM151.033 27.49H134.65c-.929 0-1.781-.47-2.278-1.255l-6.89-10.884a2.66 2.66 0 0 1-.084-2.74 2.66 2.66 0 0 1 2.359-1.395h16.387c.928 0 1.78.47 2.275 1.253l.819 1.293 6.068 9.588c.533.842.564 1.867.084 2.742a2.644 2.644 0 0 1-2.357 1.398ZM127.76 11.88c-.753 0-1.418.392-1.78 1.05a2.01 2.01 0 0 0 .063 2.07l6.89 10.883a2.022 2.022 0 0 0 1.717.947h16.383c.753 0 1.418-.393 1.781-1.051a2.009 2.009 0 0 0-.064-2.069l-6.89-10.884a2.015 2.015 0 0 0-1.716-.944H127.76v-.002Z"/><path fill="#0C0553" d="M151.033 27.49H134.65c-.929 0-1.781-.47-2.278-1.255l-6.89-10.884a2.66 2.66 0 0 1-.084-2.74 2.66 2.66 0 0 1 2.359-1.395h16.387c.928 0 1.78.47 2.275 1.253l.819 1.293 6.068 9.588c.533.842.564 1.867.084 2.742a2.644 2.644 0 0 1-2.357 1.398ZM127.76 11.88c-.753 0-1.418.392-1.78 1.05a2.01 2.01 0 0 0 .063 2.07l6.89 10.883a2.022 2.022 0 0 0 1.717.947h16.383c.753 0 1.418-.393 1.781-1.051a2.009 2.009 0 0 0-.064-2.069l-6.89-10.884a2.015 2.015 0 0 0-1.716-.944H127.76v-.002Zm5.219 78.778h-2.51c-.929 0-1.781-.47-2.275-1.253l-6.89-10.884a2.665 2.665 0 0 1-.084-2.742 2.658 2.658 0 0 1 2.359-1.395h16.386c.929 0 1.781.47 2.278 1.252l.819 1.296c.1.156.051.357-.105.457a.325.325 0 0 1-.456-.105l-.819-1.296a2.025 2.025 0 0 0-1.717-.944h-16.386c-.752 0-1.415.393-1.78 1.051a2.009 2.009 0 0 0 .064 2.069l6.889 10.884a2.017 2.017 0 0 0 1.717.944h2.51a.33.33 0 0 1 .331.332c0 .183-.15.334-.331.334Z"/><path fill="#0C0553" d="M146.85 90.658h-8.492a.33.33 0 1 1 0-.664h8.492c.752 0 1.418-.392 1.78-1.05a2.01 2.01 0 0 0-.063-2.07l-6.069-9.588a.328.328 0 0 1 .105-.456.333.333 0 0 1 .456.104l6.069 9.589c.533.842.563 1.867.084 2.742a2.662 2.662 0 0 1-2.362 1.393Zm17.595-25.628h-24.778a4.541 4.541 0 0 1-3.852-2.12l-3.178-5.515a4.497 4.497 0 0 1-.135-4.627 4.5 4.5 0 0 1 3.992-2.36h29.296c1.571 0 3.009.794 3.851 2.123l3.181 5.512a4.48 4.48 0 0 1 .293 4.308.332.332 0 0 1-.602-.276 3.826 3.826 0 0 0-.255-3.69l-3.18-5.512a3.872 3.872 0 0 0-3.286-1.804h-29.298a3.841 3.841 0 0 0-3.41 2.018 3.847 3.847 0 0 0 .119 3.964l3.179 5.512a3.875 3.875 0 0 0 3.285 1.801h24.778c.184 0 .332.148.332.332a.332.332 0 0 1-.332.334Z"/><path fill="#0C0553" d="M175.722 78.806a.313.313 0 0 1-.141-.03c-.025-.013-.487-.21-2.438-.722-3.257-.852-4.653-2.51-6.002-4.112l-.449-.528c-.339-.393-.763-.786-1.171-1.166-1.002-.933-1.951-1.813-1.941-2.862.005-.558.281-1.076.844-1.581.393-.352.883-.5 1.403-.485 1.543.09 3.201 1.783 3.842 2.51.617.696 1.142 1.204 1.515 1.515-.554-.717-1.684-1.852-2.505-2.673l-.714-.72c-.773-.782-2.253-1.89-3.559-2.864-1.234-.923-2.3-1.72-2.708-2.183-.472-.541-.452-1.462.053-2.294.434-.716 1.288-1.384 2.352-1.137 1.627.393 3.673 2.17 4.772 3.127.176.15.317.276.424.362.296-.278.773-.721 1.637-.872 1.944-.34 3.023.163 3.452.449.336-.207 1.028-.53 1.836-.378a9.192 9.192 0 0 1 1.594.48.33.33 0 1 1-.265.607 8.541 8.541 0 0 0-1.446-.436c-.824-.15-1.518.388-1.523.393a.336.336 0 0 1-.444-.028c-.007-.005-.877-.814-3.091-.44-.671.118-1.023.447-1.255.667-.174.16-.439.403-.73.206-.102-.066-.321-.255-.62-.515-.979-.854-3.02-2.627-4.494-2.982-.725-.183-1.316.316-1.63.834-.342.566-.393 1.204-.12 1.513.362.413 1.451 1.23 2.607 2.089 1.324.99 2.824 2.112 3.632 2.93l.712.718c1.831 1.836 2.949 2.994 3.025 3.611.046.368-.178.5-.25.531-.158.074-.65.296-2.75-2.081-1.221-1.38-2.487-2.235-3.384-2.286a1.185 1.185 0 0 0-.921.316c-.419.375-.623.735-.625 1.097-.005.755.839 1.538 1.732 2.37.423.393.857.798 1.222 1.22l.454.532c1.341 1.592 2.609 3.097 5.66 3.898 2.033.533 2.505.74 2.551.762a.336.336 0 0 1-.143.638Z"/><path fill="#0C0553" d="M173.589 67.782a.326.326 0 0 1-.275-.147c-1.031-1.551-4.237-4.008-4.268-4.033a.33.33 0 1 1 .401-.528c.135.104 3.328 2.55 4.42 4.19.1.154.059.358-.094.46a.309.309 0 0 1-.184.058Zm3.89-1.826a.334.334 0 0 1-.242-.105c-1.191-1.278-3.035-2.622-3.056-2.635a.336.336 0 0 1-.074-.464.333.333 0 0 1 .464-.074c.079.056 1.913 1.395 3.151 2.722a.331.331 0 0 1-.243.556Zm52.19 82.698H67.509a.331.331 0 1 1 0-.663h162.16a.331.331 0 1 1 0 .663Zm-65.038-93.916h-24.536a.33.33 0 1 1 0-.663h24.536a.331.331 0 1 1 0 .663Zm2.469 4.478h-24.533a.331.331 0 1 1 0-.663H167.1a.331.331 0 1 1 0 .663ZM107.711 81.71H83.175a.33.33 0 1 1 0-.663h24.536a.33.33 0 1 1 0 .663Zm2.469 4.48H85.644a.33.33 0 1 1 0-.664h24.536a.331.331 0 1 1 0 .663Zm9.361 15.22H95.005a.331.331 0 1 1 0-.663h24.536a.331.331 0 1 1 0 .663Zm2.47 4.478H97.475a.33.33 0 1 1 0-.663h24.536a.331.331 0 1 1 0 .663ZM88.417 35.2h-48.7a.33.33 0 1 1 0-.664h48.7a.331.331 0 1 1 0 .663Zm5.328 8.562h-20.97a.33.33 0 1 1 0-.663h20.97a.33.33 0 1 1 0 .663Zm4.449 6.838H77.227a.33.33 0 1 1 0-.663h20.967a.331.331 0 1 1 0 .663Zm4.204 6.841h-20.97a.33.33 0 1 1 0-.663h20.97a.33.33 0 1 1 0 .663Zm86.56 21.937a8.9 8.9 0 0 1-1.456-.125c-2.88-.485-5.905-2.77-5.77-7.742.148-5.352 4.553-7.463 4.599-7.481a.33.33 0 1 1 .278.602c-.166.079-4.079 1.969-4.216 6.9-.156 5.72 3.953 6.859 5.216 7.068 3.831.645 5.267-1.566 5.326-1.663a.333.333 0 0 1 .456-.108.332.332 0 0 1 .108.454c-.059.097-1.329 2.095-4.541 2.095Z"/><path fill="#0C0553" d="M199.518 80.935c-3.028 0-5.948-.967-7.481-2.49a.331.331 0 1 1 .466-.472c1.454 1.444 4.298 2.383 7.227 2.299 2.619-.041 4.856-.84 6.134-2.191 1.467-1.549 2.225-4.158 2.084-7.158-.081-1.745-.459-3.27-1.119-4.528-.549-1.045-1.421-1.744-2.342-2.484-.543-.436-1.105-.885-1.607-1.418-.347-.37-.753-.873-.788-1.49-.044-.757.403-1.589.762-2.257.069-.13.138-.255.197-.373l.255-.5c.337-.65.681-1.323.944-2.012.752-1.97.974-3.857.658-5.604-.702-3.883-7.844-5.482-7.918-5.497a.334.334 0 0 1-.148-.077c-3.402-3.022-9.376-4.8-13.488-2.54-3.939 2.168-2.939 6.747-2.895 6.94.007.278.023 4.96 7.3 7.719a.334.334 0 0 1 .194.429.335.335 0 0 1-.429.193c-7.741-2.935-7.726-8.055-7.721-8.272-.01 0-1.14-5.183 3.229-7.588 4.339-2.388 10.596-.574 14.185 2.57.883.205 7.599 1.889 8.341 6.008.337 1.87.105 3.872-.691 5.959-.273.721-.63 1.413-.972 2.078l-.255.495c-.061.123-.13.25-.204.388-.319.594-.717 1.334-.684 1.906.023.397.322.767.607 1.07.47.5 1.016.934 1.539 1.358.936.75 1.902 1.525 2.515 2.69.706 1.345 1.107 2.962 1.193 4.806.09 1.868-.089 5.344-2.262 7.643-1.403 1.482-3.811 2.354-6.607 2.397-.074.003-.148.003-.219.003Z"/><path fill="#216FF4" d="M85.369 32.07c-.707.586-1.954.252-2.783-.748-.83-1-.931-2.285-.225-2.872.707-.587 1.954-.253 2.783.747.832 1 .931 2.286.225 2.872Z"/><path fill="#0C0553" d="M77.948 32.689c-.063 0-.127-.003-.194-.008-.706-.066-1.451-.495-1.992-1.148-.944-1.138-1.025-2.637-.18-3.339.859-.711 2.287-.367 3.249.793.444.536.717 1.169.763 1.778.05.65-.159 1.207-.585 1.561a1.64 1.64 0 0 1-1.06.363Zm-1.306-4.196a.979.979 0 0 0-.637.209c-.554.461-.431 1.563.267 2.408.434.523 1.01.862 1.546.913.215.018.523 0 .77-.207.258-.214.38-.569.347-1-.038-.474-.255-.974-.612-1.405-.484-.584-1.14-.918-1.68-.918Zm53.472 34.218c-.742 0-1.576-.41-2.191-1.153-.446-.535-.717-1.168-.765-1.777-.051-.654.156-1.21.584-1.562.429-.354 1.008-.454 1.643-.285.592.16 1.163.543 1.607 1.076.446.536.717 1.168.765 1.778.051.653-.156 1.21-.584 1.561a1.637 1.637 0 0 1-1.059.362Zm-1.308-4.196c-.25 0-.47.072-.64.212-.258.214-.381.569-.347 1 .035.474.255.974.612 1.405.701.842 1.765 1.164 2.316.707.258-.214.38-.569.347-1-.036-.474-.255-.974-.612-1.405-.357-.431-.809-.737-1.268-.862a1.721 1.721 0 0 0-.408-.057Zm-91.354.322a2.36 2.36 0 0 1-.581-.079c-.592-.16-1.163-.543-1.607-1.076-.944-1.14-1.026-2.638-.181-3.34.86-.716 2.288-.364 3.25.794.443.536.716 1.168.762 1.778.051.65-.158 1.206-.584 1.561a1.65 1.65 0 0 1-1.059.362Zm-1.308-4.198a.982.982 0 0 0-.635.209c-.556.462-.434 1.563.265 2.408.357.43.809.737 1.268.862.423.11.79.059 1.045-.156.258-.214.38-.569.347-1-.038-.474-.255-.974-.612-1.405-.482-.584-1.138-.918-1.678-.918ZM6.983 63.604c-1.721 0-3.688-.977-5.15-2.737C.773 59.589.13 58.092.017 56.65c-.114-1.485.345-2.735 1.294-3.523.948-.788 2.262-1.01 3.7-.625 1.396.375 2.748 1.286 3.809 2.56 2.214 2.669 2.449 6.14.523 7.74-.653.543-1.474.8-2.36.8ZM3.678 52.98c-.753 0-1.421.222-1.941.656-.781.647-1.159 1.698-1.059 2.963.102 1.304.694 2.671 1.666 3.842 1.982 2.387 4.935 3.219 6.575 1.852 1.646-1.365 1.373-4.418-.607-6.806-.974-1.173-2.206-2.005-3.471-2.346a4.536 4.536 0 0 0-1.163-.161Zm98.069-41.702c-1.724 0-3.688-.977-5.153-2.737-2.214-2.668-2.448-6.14-.522-7.739 1.925-1.6 5.295-.732 7.509 1.939 2.217 2.668 2.449 6.14.523 7.739-.65.54-1.472.798-2.357.798ZM98.447.651c-.738 0-1.414.212-1.95.659-1.645 1.364-1.372 4.418.608 6.805 1.979 2.388 4.935 3.214 6.578 1.852 1.645-1.365 1.372-4.418-.61-6.806-1.334-1.607-3.109-2.51-4.627-2.51ZM60.544 126.225c-.063 0-.127-.002-.194-.007-.706-.067-1.45-.495-1.992-1.148-.446-.536-.716-1.168-.765-1.778-.051-.653.156-1.209.584-1.561.85-.704 2.306-.347 3.25.793.543.653.829 1.464.763 2.171-.046.487-.245.89-.582 1.168-.29.235-.656.362-1.064.362Zm-1.308-4.198a.978.978 0 0 0-.638.209c-.255.214-.377.569-.344 1 .035.474.255.974.612 1.405.434.523 1.01.862 1.546.913.217.021.523 0 .77-.206.25-.207.326-.505.347-.722.048-.536-.179-1.163-.612-1.684-.485-.581-1.138-.915-1.681-.915Zm58.647-34.51c-.734 0-1.553-.41-2.178-1.163-.444-.535-.717-1.168-.763-1.778-.051-.653.156-1.206.582-1.56.859-.717 2.29-.368 3.249.79.444.536.717 1.168.763 1.778.051.653-.155 1.21-.581 1.561a1.639 1.639 0 0 1-1.072.373Zm-1.298-4.2a.99.99 0 0 0-.638.209c-.255.214-.38.568-.347 1 .039.474.255.974.612 1.405.702.844 1.766 1.166 2.317.707.255-.215.38-.57.346-1-.038-.475-.255-.975-.612-1.406-.482-.582-1.137-.916-1.678-.916ZM71.539 32.69c-.187 0-.383-.026-.582-.08-.59-.16-1.16-.54-1.604-1.076-.544-.653-.827-1.464-.763-2.171.046-.487.245-.89.581-1.168.426-.355 1.01-.457 1.643-.286.592.16 1.163.54 1.607 1.076.543.653.83 1.465.763 2.171-.046.487-.245.89-.582 1.168a1.66 1.66 0 0 1-1.063.365Zm-1.304-4.202a.983.983 0 0 0-.64.212c-.25.206-.327.505-.347.722-.048.535.179 1.165.612 1.686.357.433.809.737 1.268.862.416.112.79.059 1.046-.156.25-.206.326-.505.347-.722.048-.533-.179-1.163-.612-1.683-.358-.434-.81-.737-1.268-.862a1.56 1.56 0 0 0-.406-.059Z"/><path fill="#0C0553" d="M114.924 82.521a.331.331 0 0 1-.273-.145 22.233 22.233 0 0 1-1.877-3.382.335.335 0 0 1 .166-.44.334.334 0 0 1 .439.167A21.655 21.655 0 0 0 115.2 82a.33.33 0 0 1-.087.46.326.326 0 0 1-.189.06Zm-3.114-6.928a.335.335 0 0 1-.322-.247 22.374 22.374 0 0 1-.645-3.81.334.334 0 0 1 .304-.358c.206-.003.341.122.357.303.099 1.235.308 2.477.625 3.7a.332.332 0 0 1-.319.412Zm-.554-7.55c-.247-.043-.362-.22-.324-.4.273-1.283.942-2.429 1.987-3.4a.337.337 0 0 1 .47.017.331.331 0 0 1-.018.47c-.944.877-1.546 1.905-1.791 3.05a.332.332 0 0 1-.324.263Zm5.117-5.216a.331.331 0 0 1-.13-.635c1.082-.457 2.326-.84 3.701-1.143a.335.335 0 0 1 .396.252.334.334 0 0 1-.253.396c-1.334.293-2.54.665-3.586 1.107a.39.39 0 0 1-.128.023Zm7.413-1.72a.331.331 0 0 1-.329-.295.331.331 0 0 1 .296-.363 36.905 36.905 0 0 1 3.652-.198h.199a.331.331 0 1 1 0 .663h-.199c-.502 0-1.857.02-3.586.196-.01-.002-.023-.002-.033-.002ZM33.19 57.441h-3.81a.33.33 0 1 1 0-.663h3.81a.33.33 0 1 1 0 .663Zm-7.621 0h-3.814a.33.33 0 1 1 0-.663h3.814a.33.33 0 1 1 0 .663Zm-7.627 0H14.13a.33.33 0 1 1 0-.663h3.81a.33.33 0 1 1 0 .663Zm-7.622 0h-.347a.33.33 0 1 1 0-.663h.347a.33.33 0 1 1 0 .663Zm45.715 66.683h-3.811a.331.331 0 0 1-.332-.332c0-.184.148-.332.332-.332h3.81a.333.333 0 0 1 0 .664Zm-7.624 0h-2.96a.331.331 0 0 1-.33-.332.33.33 0 0 1 .33-.332h2.96c.183 0 .331.148.331.332a.331.331 0 0 1-.331.332Z"/><path fill="#0C0553" d="M45.452 124.124a.328.328 0 0 1-.28-.155l-1.264-1.992a.327.327 0 0 1 .105-.457.331.331 0 0 1 .457.105l1.262 1.992c.1.155.054.357-.104.456a.318.318 0 0 1-.176.051Zm-3.301-5.214a.328.328 0 0 1-.28-.155l-2.039-3.219a.327.327 0 0 1 .105-.457.333.333 0 0 1 .457.105l2.038 3.219c.1.153.053.357-.105.456a.328.328 0 0 1-.176.051Zm-4.079-6.44a.329.329 0 0 1-.28-.156l-2.038-3.221a.327.327 0 0 1 .104-.457.333.333 0 0 1 .457.105l2.038 3.221c.1.153.053.357-.105.457a.337.337 0 0 1-.176.051Zm-4.076-6.443a.329.329 0 0 1-.28-.156l-2.039-3.222a.328.328 0 0 1 .105-.456.33.33 0 0 1 .457.104l2.038 3.222a.33.33 0 0 1-.28.508Zm-4.076-6.444a.329.329 0 0 1-.28-.155l-2.04-3.222a.327.327 0 0 1 .105-.457.334.334 0 0 1 .457.105l2.038 3.222c.1.155.053.357-.105.456a.326.326 0 0 1-.176.051Zm-4.079-6.44a.329.329 0 0 1-.28-.156l-2.038-3.222a.327.327 0 0 1 .104-.456.331.331 0 0 1 .457.104l2.038 3.222c.1.156.053.357-.105.457a.336.336 0 0 1-.176.05Zm-4.076-6.444a.329.329 0 0 1-.28-.155l-2.038-3.222a.327.327 0 0 1 .104-.457.334.334 0 0 1 .457.105l2.038 3.222c.1.155.053.357-.105.456a.32.32 0 0 1-.176.051Zm-4.078-6.443a.329.329 0 0 1-.281-.156l-2.038-3.221a.327.327 0 0 1 .104-.457.334.334 0 0 1 .457.105l2.038 3.222c.1.155.054.357-.104.456a.314.314 0 0 1-.176.051Zm-4.08-6.44a.329.329 0 0 1-.28-.156l-2.038-3.222a.331.331 0 1 1 .561-.352l2.039 3.222a.33.33 0 0 1-.105.456.314.314 0 0 1-.176.051Zm-4.075-6.444a.329.329 0 0 1-.28-.155l-2.039-3.222a.327.327 0 0 1 .105-.457.333.333 0 0 1 .456.105l2.038 3.222c.1.155.054.357-.104.456a.314.314 0 0 1-.176.051Zm73.261 56.222c-.6 0-2.447-.092-3.278-1.181-.457-.597-.53-1.373-.227-2.306l5.742-12.999c.045-.079.665-1.092 1.882-1.334.882-.174 1.847.102 2.844.836l3.275 2.947a.333.333 0 0 1 .023.469.334.334 0 0 1-.47.023l-3.249-2.926c-.813-.599-1.597-.839-2.295-.699-.929.186-1.419.982-1.424.99l-5.711 12.93c-.222.681-.179 1.252.135 1.665.643.84 2.316.954 2.923.919h18.955a.331.331 0 1 1 0 .663H82.981c-.012 0-.079.003-.188.003ZM67.24 60.911a.328.328 0 0 1-.28-.156L53.007 38.712a.327.327 0 0 1 .105-.457.334.334 0 0 1 .456.105l13.953 22.044c.1.155.053.357-.105.456a.337.337 0 0 1-.176.051Zm55.995-40.747c-7.214 0-13.774-3.17-19.557-9.466a.331.331 0 1 1 .49-.449c6.948 7.563 15.024 10.512 24.028 8.76a.343.343 0 0 1 .388.262.334.334 0 0 1-.263.388 26.584 26.584 0 0 1-5.086.505Zm54.683 14.994c-1.13 0-2.413-.632-3.364-1.78-.689-.83-1.107-1.803-1.181-2.742-.077-.982.232-1.811.865-2.337.632-.525 1.504-.673 2.458-.42.911.244 1.788.836 2.477 1.665 1.449 1.745 1.592 4.023.316 5.081-.436.362-.982.533-1.571.533Zm-2.099-6.739c-.449 0-.847.133-1.156.388-.464.385-.686 1.015-.627 1.778.061.803.429 1.645 1.028 2.37 1.214 1.464 3.01 1.981 4.005 1.16.992-.826.813-2.686-.403-4.148-.602-.726-1.363-1.24-2.14-1.45a2.852 2.852 0 0 0-.707-.098Z"/><path fill="#0C0553" d="M174.567 28.435a.325.325 0 0 1-.245-.11c-7.017-7.777-14.838-10.695-23.932-8.923a.334.334 0 0 1-.387-.262.334.334 0 0 1 .262-.388c9.336-1.816 17.366 1.168 24.549 9.13a.334.334 0 0 1-.023.468.341.341 0 0 1-.224.085Zm-23.414 104.718a.338.338 0 0 1-.125-.023.332.332 0 0 1-.181-.433c1.701-4.125 5.852-6.683 10.833-6.683 4.803 0 8.918 2.484 10.739 6.484a.332.332 0 0 1-.163.438.332.332 0 0 1-.439-.165c-1.712-3.76-5.596-6.097-10.137-6.097-4.706 0-8.624 2.403-10.218 6.273a.336.336 0 0 1-.309.206Z"/></svg>