<svg xmlns="http://www.w3.org/2000/svg" width="170" height="140" fill="none"><path fill="#fff" d="M131.14 98.153s-3.667-3.88.623-7.215c0 0 2.773-1.476 2.026-5.54-.747-4.064.601-7.265 4.414-7.566 3.814-.3 11.083 2.23 10.914 4.842.174.448.202 1.078-.048 1.84-.825 2.5-1.961 5.508-1.043 6.466a8.81 8.81 0 0 0 2.688 1.934c3.1 1.413 4.902 3.133 4.902 6.579 0 5.285-9.312 2.541-9.312 2.541l-15.164-3.88Z"/><path fill="#216FF4" d="M53.368 72.82c11.294 0 20.45-9.155 20.45-20.45 0-11.293-9.156-20.449-20.45-20.449-11.294 0-20.45 9.156-20.45 20.45 0 11.294 9.156 20.45 20.45 20.45Z"/><path fill="#fff" d="M126.508 131.675H63.025a2.18 2.18 0 0 1-2.175-2.173v-78.45a2.18 2.18 0 0 1 2.175-2.173h63.483a2.18 2.18 0 0 1 2.174 2.173v78.45a2.18 2.18 0 0 1-2.174 2.173Z"/><path fill="#216FF4" d="M17.335 107.25s-2.81 1.096-4.435 3.328c-1.627 2.233-5.314 7.531-6.462 11.313-1.147 3.782-2.333 5.621-2.422 8.922-.09 3.3.004 6.134 1.082 7.746l34.027.099 1.774-21.939s-2.24-5.041-4.624-7.318c-2.384-2.278-5.427-3.746-7.694-3.658l-11.246 1.507Z"/><path fill="#0C0553" d="M42.258 139.655h28.443c1.874 0 3.539-1.154 4.128-2.865l6.746-19.571c.931-2.706-1.164-5.495-4.129-5.495H49.005c-1.875 0-3.537 1.154-4.128 2.865L38.13 134.16c-.932 2.707 1.164 5.495 4.128 5.495Z"/><path fill="#216FF4" d="M102.484 17.953s-2.008-2.31-1.701-3.89c.308-1.58 1.682-2.87 2.774-3.004 1.092-.135 2.471.555 2.471.555s.96-1.089 3.366-.429c2.406.66 3.766 3.686 3.766 3.686s2.567.374 2.554 2.965c-.012 2.59-1.571 5.035-3.491 6.568-1.921 1.53-1.682 1.591-2.216 1.509-.533-.08-1.391-.314-.991-2.55l-1.147-3.48s-1.807-.177-.646-2.55c0 0-1.666-2.066-3.881-2l-.858 2.62ZM128.1 130.962v8.693h29.209l-.087-6.26s3.712-1.365 4.872-5.567c1.161-4.204.028-7.832-.51-9.69-.539-1.858-2.606-7.566-3.8-10.164-1.192-2.599-2.629-6.224-3.439-7.593-.81-1.368-2.451-3.738-5.176-4.694-2.725-.955-5.893-.957-5.893-.957l-5.499-.111s-1.78.122-4.349 1.051c-2.568.93-4.121 1.4-6.78.94-2.66-.461-4.629-2.533-5.702-4.42-1.072-1.886-2.08-5.549-2.321-7.085-.241-1.536-.334-3.495-.334-3.495s-.651-.981-5.007-.783c-4.355.198-5.486.825-5.545.994-.059.17.402 4.622 1.453 8.526 1.05 3.904 3.261 8.796 5.866 11.779 2.605 2.984 6.976 6.696 12.024 7.384l1.018 21.452Z"/><path fill="#0C0553" d="m146.698 108.732-18.151.137s-3.406.45-3.735 4.062c-.328 3.609.122 13.709.122 13.709s.415 3.633 3.617 4.037l17.54-.185s-2.993-1.817-5.657-4.061c-2.665-2.244-4.131-3.904-4.131-3.904s2.19-5.432 5.642-8.035l8.683 6.181c.002-.003-3.027-7.779-3.93-11.941Zm-39.961 0v8.977h-8.978a8.978 8.978 0 0 0 8.978 8.978 8.977 8.977 0 0 0 8.977-8.978 8.977 8.977 0 0 0-8.977-8.977Z"/><path fill="#216FF4" d="M94.781 114.717h8.963v-8.973s-3.68-.25-6.504 2.799c-2.823 3.049-2.459 6.174-2.459 6.174Z"/><path fill="#fff" d="M31.879 93.422s.778.824.966 1.84c.404 2.189-.981 3.66-.981 3.66s.13 3.989-2.81 3.935l-.208 3.164s.323 3.589-.783 3.704c-1.108.115-2.762-2.182-2.762-2.182s1.27-1.669 1.228-3.161c-.041-1.492-.02-2.555-1.324-4.435-1.305-1.88-1.434-3.19-1.121-3.93.312-.74 1.031-2.472 1.062-2.992.03-.519-.328-2.25-.328-2.25s.634.57.717 1.241c.083.673.017 1.427.017 1.427l1.57-.065 4.757.044Zm-8.86 41.357s3.731-1.979 4.544-2.022c.812-.044 1.26-.053 1.26-.053s1.398-1.206 3.109-.341c0 0 .881-.808 1.77-.673.89.135 1.393 1.247 1.393 1.247s-.438 1.684-.36 2.369c.08.684.564 2.972 2.174 3.793 0 0-.646.9-2.18-.162 0 0-1.206.929-2.913.538 0 0-.985.331-1.58.096-.596-.236-1.093-.682-1.327-1.028-.233-.345-.745-1.56-.745-1.56s-.103 2.691-3.083 2.576c0 0-1.06-.425-1.717-1.995-.661-1.57-.345-2.785-.345-2.785Zm117.634-20.227s-.702-1.339-1.295-2.602c-.596-1.264-.929-2.35-1.763-2.208-.832.141-.6 1.492-.448 1.959.151.467.787 2.171.122 2.358-.668.19-1.605-.175-2.591-1.029-.986-.855-2.684-2.461-2.684-2.461s-.954-.617-1.554-.106c-.599.509-.091 1.241-.091 1.241s-.801-.036-1.02.31c-.218.344-.256.909-.043 1.155 0 0-1.041.767-.388 1.904.653 1.134 3.194 3.267 3.919 3.801.728.533 2.531 1.686 3.368 1.828 0 0 .932-1.924 1.982-3.359 1.048-1.438 2.486-2.791 2.486-2.791Zm-24.995-31.964s.206-3.775-.167-5.282c-.375-1.504-.785-2.52-1.966-2.869-1.181-.348-2.301-.62-2.301-.62h-1.297l.801 1.556-1.205.678-.806-1.537s-1.633.458-1.862 1.782c-.229 1.325-.16 3.751.514 5.213.675 1.459 1.285 2.368 2.76 2.278 1.474-.09 2.23-.242 3.111-.682.881-.443.991-.782.991-.782l.25.483 1.177-.218Zm20.388-.79-1.036 4.81s-.502 2.494-.29 3.637c.211 1.142.344 2.708 2.859 2.73l-.256 2.16s-1.765 4.55.402 4.617c2.167.065 3.136-1.44 3.883-2.397a21.19 21.19 0 0 0 1.409-2.11l.124-5.153s2.417.555 2.498-1.573c.081-2.127-2.496-1.806-2.496-1.806s-2.898-1.53-4.222-2.524c-1.324-.997-2.875-2.39-2.875-2.39Z"/><path fill="#216FF4" d="M59.474 125.624c-.909 1.544-.804 3.273.23 3.86 1.035.587 2.61-.19 3.519-1.734.908-1.546.806-3.273-.23-3.859-1.036-.587-2.61.189-3.52 1.733Z"/><path fill="#fff" d="M37.907 47.408c.702-.202 1.35-.387 1.995-.571.361-.104.724-.205 1.083-.31.106-.031.174-.018.248.085 1.226 1.718 2.701 3.175 4.315 4.497.514.422 1.061.514 1.673.36.62-.156 1.176-.459 1.709-.809 1.312-.86 2.456-1.932 3.558-3.054 2.013-2.049 3.846-4.266 5.587-6.563.101-.136.186-.172.352-.123 1.08.32 2.166.626 3.248.938.056.016.107.038.172.06-.027.057-.046.112-.074.16-2.108 3.705-4.401 7.28-7.062 10.592-1.341 1.671-2.764 3.27-4.469 4.558-.545.414-1.136.774-1.734 1.097-1.304.706-2.629.687-3.965.058-1.312-.618-2.335-1.586-3.195-2.758-1.24-1.688-2.07-3.593-2.705-5.593-.272-.854-.486-1.726-.736-2.624Z"/><path fill="#0C0553" d="M17.97 108.422s4.414 2.051 6.705.702c2.288-1.349 2.415-3.361 2.319-4.888-.096-1.527-1.41-3.536-1.985-4.332-.577-.797-.692-1.714-.492-2.935.201-1.222.996-2.045 1.062-3.028.065-.983-.553-2.597-.553-2.597s.941.8.959 1.746c.017.945 0 1.272 0 1.272l.897.086s.28-.318.522-.34c.242-.022.834.454.834.454l2.863-.114s.557-.358.882-.233c.325.125.522.233.522.233l.402.007s.1-2.231-.28-3.27c-.38-1.037-.758-1.829-2.76-2.145-2.002-.315-4.018-.552-5.882.6 0 0-4.878-.354-5.21 3.959 0 0 .967 5.506 1.21 7.055.242 1.549.596 3.016-.924 3.538-1.522.522-3.367.715-3.84 2.459-.475 1.744-.274 2.49.44 3.078l2.308-1.307Zm11.116-5.353-.157 3.287 1.465.381s.626-.579.517-1.834c-.108-1.253-.59-2.157-.59-2.157s-.978.571-1.235.323Zm57.127-72.483s2.812 9.27 2.998 9.85c.186.58.894 4.589 3.137 4.409 2.24-.183 2.925-2.597 3.22-3.34.297-.742 1.999-5.149 3.29-6.97 1.292-1.821 3.287-3.052 5.382-3.202 2.096-.15 8.57-.32 10.27.849 1.7 1.168 4.77 5.01 7.093 9.862 2.322 4.852 2.905 5.308 3.089 7.277l-5.189.137-15.425-.083s-1.899 2.97-4.009 4.64c0 0-1.666 1.044-2.592 1.504-.926.46-3.577 1.422-6.228 1.335-2.652-.087-6.398-.864-8.778-4.092-2.38-3.228-3.228-5.384-3.79-7.264-.563-1.882-1.58-5.833-2.013-8.351-.432-2.516-.855-4.935-.855-4.935s.757-1.476 4.852-2.095c4.094-.62 5.548.47 5.548.47Z"/><path fill="#fff" d="m113.719 83.458.808 1.241s.695.206.984 0c.287-.206.186-.648.186-.648l-.83-1.255c0-.002-.668.61-1.148.662Zm-9.608-53.532v-1.454s-2.536-.294-3.053-1.23c-.517-.937-.506-1.807-.338-2.266.17-.458.36-1.791.36-1.791s-1.477-1.027-1.314-1.594c.164-.566 2.25-1.928 2.25-1.928l.873-3.702s3.404.46 4.272 2.199c0 0-.861 2.307.726 2.444 0 0 .765-1.03 2.012-.705 1.244.322 1.719.959 1.819 2.19.101 1.232-1.105 2.147-2.605 2.039 0 0-.356 2.38.49 2.499.846.117 1.383-.3 1.383-.3l.278 2.98-7.153.62Zm-19.865 2.092s-.329-1.88-.22-4.249c.111-2.368-.14-2.744.098-3.797.24-1.053 1.178-2.5.297-2.726-.881-.229-2.03-.13-2.492.804-.463.931-.858 3.117-1.144 3.41-.286.294-.888.563-1.28.418-.393-.144-.675-.468-.916-1.073-.24-.602-.883-2.437-1.728-3.315-.845-.877-1.936-1.773-2.823-1.484-.888.289-.915 1.062-.915 1.062s-1.321 0-1.3 1.36c0 0 .12.529.781 1.484.664.956 1.127 1.646 1.49 2.53.36.885.97 2.736 2.04 3.602 1.068.867 1.926 1.371 2.052 2.833 0 0 .725.136 2.812-.084 2.09-.22 3.248-.775 3.248-.775Z"/><path fill="#3A3A3A" d="m84.79 29.926.286 1.995s1.788-.779 1.707-1.322c-.082-.543-1.992-.673-1.992-.673Zm-7.719.998s.751 1.164.737 1.995c0 0-1.862.007-1.987-.538-.127-.545 1.25-1.457 1.25-1.457Z"/><path fill="#fff" d="m101.749 31.921 1.276-2.244s7.633-.901 8.987-.726l1.707 2.654s-5.896-.545-7.62-.393c-1.722.149-4.35.71-4.35.71Z"/><path fill="#CCC" d="m105.739 27.931-1.995 1.995v-1.72l1.995-.275Z"/><path fill="#0C0553" d="m22.943 135.665 3.803-1.871s1.79-.52 2.252-.234c0 0 1.385-.967 2.923-.514 0 0-.492-.836-1.387-1.399-.895-.562-2.603-1.213-3.708-.878-1.106.33-3.474 1.378-3.883 4.896Zm3.99 2.993h3.99s-1.623-.944-1.894-1.995c.002 0-1.199 1.761-2.096 1.995Z"/><path fill="#fff" d="m77.808 111.942-2.014-1.185H47.52s-3.295-.539-4.753 2.963l-6.598 19.987s-1.872 5.506 4.492 5.948l.043-.189s-2.706-1.222-2.89-3.414c-.185-2.19 2.044-7.274 2.044-7.274l5.086-14.642s1.797-2.142 3.463-2.136l29.402-.058Z"/><path fill="#216FF4" d="M84.79 12.47a7.481 7.481 0 0 1-7.48 7.48 7.481 7.481 0 0 1-7.482-7.48 7.481 7.481 0 0 1 7.481-7.482 7.48 7.48 0 0 1 7.482 7.481Z"/><path fill="#0C0553" d="M77.808 21.056v.864s.435.831.644 1.545c.21.714.41 1.502 1.57 1.473 1.159-.03 1.097-2.554 1.776-3.229l-.004-.76s-.582.322-1.834.296a14.644 14.644 0 0 1-2.152-.189Z"/><path fill="#216FF4" d="M85.788 66.835h-3.99v4.988h3.99v-4.988Z"/><path fill="#0C0553" d="M78.805 63.842h-3.99v7.98h3.99v-7.98Z"/><path fill="#fff" d="M30.14 94.76s.546-.378.863-.246c.32.132.512.245.512.245l.395.007s.098-2.354-.275-3.448c-.373-1.095-.743-1.93-2.708-2.264-1-.169-2.005-.317-2.991-.261 1.502.217 3.173.789 3.636 2.242.51 1.6.544 2.903.48 3.727l.088-.003Zm-3.23 8.733c-.1-1.495-1.47-3.463-2.069-4.243-.6-.78-.721-1.677-.512-2.874.039-.217.1-.419.17-.612-.004 0-.932 1.48-.318 3.852.56 2.163 3.01 7.218-2.235 9.1.926.058 1.834-.039 2.547-.434 2.388-1.323 2.518-3.293 2.418-4.789Zm3.512-.747s-.241.169-.496.282c.181.697.333 1.887.059 3.554l.497.155s.522-.579.431-1.834c-.091-1.253-.491-2.157-.491-2.157Zm73.195-89.786c.144-1 1.018-1.54 1.761-1.825-.474-.116-1.018-.2-1.51-.145-1.213.137-2.74 1.439-3.081 3.035-.342 1.597 1.889 3.93 1.889 3.93l.953-2.645c1.979-.053 3.564 1.289 4.105 1.812-.481-1.75-4.368-2.42-4.117-4.161Zm5.514-1.814c-2.424-.538-3.392.35-3.392.35l.831.474s1.176-1.225 4.157-.14c-.466-.301-1-.551-1.596-.684Z"/><path fill="#216FF4" d="M85.788 54.491s1.395-3.872 6.023-3.603c4.627.268 5.666 3.3 5.948 3.718 0 0-2.493 1.362-6.189 1.25-3.697-.117-5.782-1.365-5.782-1.365Z"/><path fill="#0C0553" d="M71.667 71.823h-3.679c-.085 0-.156-.078-.156-.172V59.027c0-.095.07-.172.156-.172h3.68c.085 0 .155.077.155.172v4.056c0 .094-.07.172-.156.172-.085 0-.155-.078-.155-.172v-3.884h-3.368V71.48h3.368v-3.717c0-.094.07-.172.155-.172.086 0 .156.078.156.172v3.889c0 .092-.07.17-.156.17Zm6.983 0h-3.68c-.085 0-.155-.075-.155-.168V64.01c0-.092.07-.168.156-.168h3.679c.085 0 .155.076.155.168v7.645c0 .093-.07.168-.155.168Zm-3.524-.335h3.368v-7.313h-3.368v7.313Zm10.507-.663h-3.68a.158.158 0 0 1-.155-.16v-2.902c0-.088.07-.16.156-.16.085 0 .155.072.155.16v2.742h3.368v-4.347h-2.331a.158.158 0 0 1-.156-.16c0-.088.07-.16.156-.16h2.487c.085 0 .155.072.155.16v4.665c0 .09-.07.162-.155.162Zm30.909-8.633H95.933a.172.172 0 0 1-.17-.172c0-.095.077-.173.17-.173h20.609c.094 0 .17.078.17.173a.171.171 0 0 1-.17.172Zm-.002 7.98h-8.634a.173.173 0 0 1-.172-.172c0-.095.078-.172.172-.172h8.634c.094 0 .172.077.172.172a.173.173 0 0 1-.172.172Zm-9.976 0H95.936a.173.173 0 0 1 0-.344h10.628c.095 0 .173.077.173.172a.173.173 0 0 1-.173.172Zm9.979 2.993h-6.645a.171.171 0 0 1-.169-.172c0-.095.076-.173.169-.173h6.645c.093 0 .169.078.169.173a.17.17 0 0 1-.169.172Zm-7.988 0H95.94a.175.175 0 0 1-.176-.172c0-.095.08-.173.176-.173h12.615c.097 0 .177.078.177.173a.176.176 0 0 1-.177.172Zm7.981-7.98h-11.619a.175.175 0 0 1-.176-.173c0-.094.08-.172.176-.172h11.619c.097 0 .176.078.176.172a.175.175 0 0 1-.176.173Zm-12.962 0h-7.64a.172.172 0 0 1-.17-.173c0-.094.076-.172.17-.172h7.64a.172.172 0 0 1 0 .345ZM86.616 87.13H66.007a.172.172 0 0 1-.17-.172c0-.095.077-.172.17-.172h20.61a.17.17 0 0 1 .169.172.171.171 0 0 1-.17.172Zm0 7.98H66.007a.171.171 0 0 1-.17-.172c0-.094.077-.172.17-.172h20.61c.093 0 .169.078.169.172a.171.171 0 0 1-.17.173Zm0 2.993H66.007a.171.171 0 0 1-.17-.172c0-.095.077-.172.17-.172h20.61a.17.17 0 0 1 .169.172.171.171 0 0 1-.17.172Zm0-7.98H66.007a.171.171 0 0 1-.17-.172c0-.095.077-.173.17-.173h20.61c.093 0 .169.078.169.173a.171.171 0 0 1-.17.172Zm21.939-2.993H95.94a.175.175 0 0 1-.177-.172c0-.095.08-.172.177-.172h12.615c.097 0 .177.077.177.172a.176.176 0 0 1-.177.172Zm2.001 7.98H95.934a.172.172 0 0 1-.17-.172c0-.094.076-.172.17-.172h14.622c.094 0 .171.078.171.172a.17.17 0 0 1-.171.173Zm1.99 2.993H95.939a.175.175 0 0 1-.175-.172c0-.095.079-.172.175-.172h16.607c.097 0 .176.077.176.172a.173.173 0 0 1-.176.172Zm-2.994-7.98h-13.61a.175.175 0 0 1-.178-.172c0-.095.08-.173.177-.173h13.611c.097 0 .177.078.177.173a.175.175 0 0 1-.177.172Zm47.236 48.535c-.103-.004-.177-.082-.172-.176l.01-.221c.099-2.021.099-2.021-.002-5.082l-.011-.333a.17.17 0 0 1 .166-.172c.08-.015.175.071.177.162l.011.333c.101 3.073.101 3.073 0 5.109l-.011.22a.165.165 0 0 1-.168.16Zm-6.33-17.956a.17.17 0 0 1-.151-.092c-2.824-5.6-4.644-14.58-4.663-14.669a.171.171 0 0 1 .134-.201c.092-.01.182.043.201.135.019.089 1.83 9.025 4.631 14.582a.17.17 0 0 1-.075.228.191.191 0 0 1-.077.017Zm-22.601 18.953c-.105-.006-.172-.078-.172-.175 0-.039.071-3.997.08-8.63 0-.095.077-.173.172-.173.095 0 .172.078.172.173a580.186 580.186 0 0 1-.079 8.637.173.173 0 0 1-.173.168Zm-.002-29.926c-.113-.013-.18-.101-.169-.202.344-2.972 1.084-5.904 1.662-7.659a.17.17 0 0 1 .218-.11c.088.032.135.135.105.229-.573 1.737-1.305 4.64-1.647 7.585a.173.173 0 0 1-.169.157Zm10.593-16.958c-.338 0-.67-.007-.938-.02-.605-.027-1.072-.128-1.463-.32-.676-.333-1.088-.952-1.257-1.889-.256-1.42-.06-2.863.131-4.258l.027-.197c.116-.852.96-5.07 1.006-5.18a.166.166 0 0 1 .222-.092c.085.04.125.146.087.236-.026.123-.85 4.112-.981 5.083l-.027.197c-.186 1.368-.381 2.78-.134 4.14.148.816.497 1.35 1.068 1.63.351.172.775.264 1.335.289.552.025 1.37.031 1.951-.011.1 0 .174.071.18.165.006.097-.064.184-.157.191-.308.03-.684.036-1.05.036Z"/><path fill="#0C0553" d="M142.488 86.786a.158.158 0 0 1-.077-.02c-5.43-3.276-6.673-5.592-6.724-5.688a.2.2 0 0 1 .057-.25c.079-.055.178-.025.22.064.013.026 1.269 2.337 6.599 5.553.079.048.107.158.067.247a.162.162 0 0 1-.142.094Zm-2.113-.989c-.254-.033-.443.008-.636.42-.217.46.029.56.263.568a.58.58 0 0 0 .594-.454c.086-.334.115-.492-.221-.534Zm-3.962-.995c-.242-.037-.427 0-.645.412-.241.457-.012.56.214.573a.599.599 0 0 0 .605-.447c.106-.332.142-.49-.174-.538Z"/><path fill="#0C0553" d="M135.892 83.793c-.074 0-.144-.054-.19-.15-.068-.153-.039-.356.063-.46.311-.299.83-.647 1.753-.1.117.071.173.262.125.428-.045.17-.176.253-.292.183-.711-.42-1.076-.22-1.337.037a.151.151 0 0 1-.122.062Zm7.888 5.985c-.041 0-.082-.002-.125-.004a1.79 1.79 0 0 1-.937-.35.183.183 0 0 1-.041-.243.16.16 0 0 1 .227-.044c.228.17.498.272.774.29.406.038.804-.117 1.113-.406.308-.29.492-.691.519-1.131a1.713 1.713 0 0 0-.378-1.19c-.27-.33-.646-.53-1.054-.558a1.398 1.398 0 0 0-.874.22.16.16 0 0 1-.223-.063.182.182 0 0 1 .059-.238 1.706 1.706 0 0 1 1.06-.267c1.026.072 1.804 1.024 1.736 2.12a2.036 2.036 0 0 1-.629 1.37 1.786 1.786 0 0 1-1.227.494Z"/><path fill="#0C0553" d="M144.041 88.78a.229.229 0 0 1-.136-.043l-1.202-.964a.134.134 0 0 1-.053-.13.162.162 0 0 1 .096-.114l1.611-.725c.094-.038.208-.015.261.06.053.073.019.167-.074.21l-1.391.624 1.022.82c.074.06.074.157 0 .217a.205.205 0 0 1-.134.046Zm-6.009 10.974c-.17 0-.344-.017-.521-.052a.899.899 0 0 1-.633-.476c-.617-1.11.279-3.831.376-4.123l.158-2.177c.006-.092.085-.145.174-.155a.165.165 0 0 1 .15.18l-.16 2.2c-.018.07-.981 2.893-.419 3.91a.583.583 0 0 0 .415.313c2.797.553 4.745-4.259 4.765-4.309a.156.156 0 0 1 .21-.09.164.164 0 0 1 .087.218c-.079.194-1.844 4.56-4.602 4.56Zm.391-9.976a2.19 2.19 0 0 1-.661-.113c-.083-.027-.124-.102-.089-.168.037-.065.132-.092.217-.068.355.113.658.124.905.027.408-.163.532-.572.535-.577.018-.068.111-.11.196-.095.09.014.146.083.125.151-.006.021-.16.529-.705.746-.16.067-.334.097-.523.097Z"/><path fill="#0C0553" d="M154.328 101.749a.168.168 0 0 1-.143-.077.173.173 0 0 1 .048-.238c1.284-.837 1.226-3.161.696-4.446-.429-1.037-1.214-1.983-2.33-2.81-.815-.6-1.694-1.037-2.626-1.495l-.297-.148c-.692-.343-1.653-.906-2.028-1.829-.501-1.225-.177-2.364.204-3.32.071-.175.147-.355.222-.537.438-1.052.932-2.242.88-3.352-.048-.968-.533-2.225-1.373-2.76-1.115-.71-2.147-1.243-2.988-1.54-.718-.253-7.092-2.423-9.458.327-.779.906-1.212 2.185-1.326 3.909-.039.615.069 1.238.177 1.84.105.595.213 1.214.183 1.84a4.87 4.87 0 0 1-1.285 3.084c-.267.289-.582.522-.884.747-.26.195-.508.379-.73.595a4.158 4.158 0 0 0-1.022 1.615c-.345 1.009-.384 2.403.537 3.294a.17.17 0 0 1 .002.242.174.174 0 0 1-.244.002c-1.034-1.002-.998-2.542-.62-3.65a4.494 4.494 0 0 1 1.105-1.747c.24-.233.507-.435.766-.627.303-.225.59-.44.836-.705a4.538 4.538 0 0 0 1.194-2.87c.028-.589-.073-1.159-.179-1.763-.11-.62-.222-1.265-.181-1.92.119-1.802.58-3.147 1.408-4.11 2.513-2.926 9.092-.692 9.835-.427.865.307 1.921.853 3.055 1.574.983.626 1.483 2.01 1.532 3.031.056 1.187-.454 2.414-.903 3.5-.077.181-.151.36-.22.535-.357.89-.661 1.953-.209 3.063.334.816 1.225 1.334 1.865 1.653l.297.146c.903.447 1.839.908 2.677 1.529 1.169.865 1.99 1.857 2.443 2.955.575 1.392.612 3.924-.824 4.86a.151.151 0 0 1-.092.03Z"/><path fill="#0C0553" d="M142.82 94.766c-.099-.002-.174-.077-.172-.165l.118-4.665a.168.168 0 0 1 .173-.158c.077-.002.174.075.172.166l-.118 4.665c-.002.087-.078.157-.173.157Z"/><path fill="#0C0553" d="M153.867 133.67c-5.956.002-13.842-6.076-18.157-10.791a.174.174 0 0 1-.034-.176c.009-.026.955-2.521 2.557-4.667 1.688-2.26 2.964-3.495 2.977-3.508a.167.167 0 0 1 .209-.019c.072.045 7.161 4.594 11.01 8.381a.172.172 0 0 1 .002.243.17.17 0 0 1-.241.002c-3.552-3.501-9.91-7.664-10.839-8.267-.322.326-1.437 1.486-2.845 3.372-1.396 1.866-2.284 4.006-2.472 4.485 6.491 7.053 16.092 12.846 21.195 9.721 8.338-5.099 1.713-19.44-1.845-27.145l-.239-.52c-.136-.296-.281-.663-.449-1.088-.804-2.043-2.018-5.132-4.75-6.81-1.783-1.094-3.614-1.773-7.227-1.773a.172.172 0 0 1 0-.344c3.694 0 5.572.696 7.404 1.822 2.83 1.74 4.119 5.017 4.89 6.976.166.423.309.786.441 1.074l.241.519c3.603 7.801 10.309 22.323 1.713 27.583-1.055.644-2.254.93-3.541.93Zm-25.738-36.909c-2.075 0-4.131-.599-5.755-2.159-1.123-1.083-2.051-2.467-2.836-4.232-1.101-2.482-1.752-5.466-1.828-8.4-.003-.094.083-.166.174-.172.094 0 .173.071.175.163.077 2.892.717 5.833 1.803 8.279.767 1.725 1.669 3.076 2.761 4.125 2.987 2.878 7.543 2.333 10.803.861 1.206-.542 2.569-.83 4.057-.852.083-.01.175.071.177.163a.17.17 0 0 1-.17.17c-1.438.023-2.755.3-3.916.82-1.617.727-3.537 1.234-5.445 1.234Zm-.618 12.968c-3.6-.261-6.108-2.101-8.763-4.048-6.068-4.45-10.182-13.31-11.013-23.696a.175.175 0 0 1 .16-.187c.106 0 .183.07.189.16.821 10.29 4.884 19.053 10.871 23.446 2.613 1.916 5.082 3.726 8.567 3.981a.174.174 0 0 1 .162.187.17.17 0 0 1-.173.157Zm8.469-20.949a.178.178 0 0 1-.175-.133c-.097-.414-.289-1.397.065-1.665.219-.165.674-.016 1.025.143l.408-2.189a.17.17 0 0 1 .21-.14.176.176 0 0 1 .144.204l-.451 2.417a.174.174 0 0 1-.096.126.178.178 0 0 1-.163-.003c-.354-.18-.755-.314-.863-.277-.099.077-.068.713.072 1.302a.176.176 0 0 1-.133.212c-.018.002-.029.004-.043.004Zm-19.5-5.984c-.114-.007-.19-.083-.185-.174.104-1.581.132-5.856-.971-6.662-1.315-.964-1.929-1.195-3.664-.012-.114.077-.239.157-.368.238-.549.344-1.17.734-1.196 1.217-.016.322.239.686.76 1.076.804.611 1.934.204 3.66-1.313.069-.066.19-.064.262.002a.152.152 0 0 1-.003.233c-1.174 1.033-2.881 2.292-4.155 1.33-.621-.467-.913-.906-.89-1.342.033-.646.765-1.106 1.353-1.474.125-.08.248-.157.354-.23 1.816-1.24 2.62-1.083 4.123.02 1.471 1.075 1.119 6.696 1.105 6.934-.007.09-.088.157-.185.157Z"/><path fill="#0C0553" d="M129.116 130.677c-2.336 0-4.248-1.863-4.274-4.172l-.149-13.392a4.163 4.163 0 0 1 1.22-2.994 4.258 4.258 0 0 1 3.004-1.271l17.55-.116c.096 0 .171.074.171.167a.168.168 0 0 1-.169.169l-17.55.116a3.92 3.92 0 0 0-2.762 1.17 3.826 3.826 0 0 0-1.124 2.755l.15 13.392c.023 2.125 1.783 3.838 3.931 3.838l16.783-.184a.168.168 0 1 1 .002.336l-16.74.186h-.043Z"/><path fill="#0C0553" d="M132.497 113.719a.151.151 0 0 1-.095-.035c-.444-.343-1.308-1.218-1.66-1.577a.25.25 0 0 1-.025-.302c.063-.093.17-.107.248-.036l1.64 1.561c.075.071.089.201.035.297a.159.159 0 0 1-.143.092Zm1.012 3.99a.153.153 0 0 1-.104-.04s-.863-.761-1.829-1.624c-.697-.622-1.5-1.651-1.731-1.953a.159.159 0 0 1-.131-.077c-.048-.084-.05-.184.029-.236a.514.514 0 0 1 .075-.043c.062-.03.17-.021.218.04.01.014.968 1.288 1.748 1.987.964.863 1.825 1.624 1.825 1.624a.194.194 0 0 1 .025.254.146.146 0 0 1-.125.068ZM108.56 82.796c-.554-.075-.824-.255-.826-.537 0-.155.163-.337.261-.419a.186.186 0 0 1 .242.006.148.148 0 0 1-.006.221.544.544 0 0 0-.154.198c.002.131.319.196.509.221.092.014.159.092.144.178-.013.077-.088.132-.17.132Zm6.307-.005c-.075 0-.14-.062-.149-.148-.01-.092.05-.174.132-.184l.761-.092c1.477-.262 1.804-.615 1.802-.72-.003-.115-.149-.234-.411-.333-.304-.069-.881-.18-1.015-.18a.158.158 0 0 1-.154-.159c-.004-.092.059-.171.141-.173.25-.019 1.017.171 1.106.192.166.063.618.235.629.647.011.46-.681.816-2.059 1.06l-.768.095c-.004-.005-.01-.005-.015-.005Zm-9.31 32.923h-8.616a.18.18 0 0 1-.18-.179.18.18 0 0 1 .18-.18h8.438v-8.439a.18.18 0 0 1 .36 0v8.619a.183.183 0 0 1-.182.179Zm-89.728-6.982a.158.158 0 0 1-.086-.024c-.62-.361-.884-1.181-.743-2.311.141-1.126.587-1.938 1.326-2.419a3.37 3.37 0 0 1 .543-.279c.32-.131.666-.221 1-.309.649-.172 1.264-.333 1.732-.767.39-.363.564-.96.472-1.637-.699-5.21-1.397-8-1.406-8.026.075-1.478.724-2.615 1.927-3.429 1.326-.898 2.854-.807 3.21-.77.259-.2.573-.374.979-.548 1.84-.784 4.18-.32 5.408.025.51.142 1.245.398 1.743.954.62.687.792 1.65.888 2.588.18 1.708.066 1.835-.002 1.91a.242.242 0 0 1-.154.069l-.395-.007.007-.341.29.004c.017-.131.03-.507-.079-1.549-.094-.928-.252-1.828-.807-2.442-.44-.49-1.115-.72-1.583-.85-1.186-.334-3.437-.785-5.186-.041-.408.171-.71.343-.953.54a.16.16 0 0 1-.13.037c-.015-.002-1.677-.217-3.048.71-1.102.745-1.7 1.782-1.78 3.084.073.296.742 3.075 1.406 8.039.107.789-.105 1.493-.579 1.933-.53.494-1.215.673-1.877.847-.34.09-.658.174-.96.296a2.99 2.99 0 0 0-.486.249c-.652.421-1.047 1.152-1.173 2.172-.07.569-.09 1.581.577 1.972a.172.172 0 0 1 .062.234.159.159 0 0 1-.143.086Z"/><path fill="#0C0553" d="M30.762 94.137c-1.11-.007-2.831-.026-2.831-.026l.004-.342s1.72.019 2.827.025c.09 0 .164.078.162.173 0 .092-.072.17-.162.17Zm-9.146 14.595c-2.205 0-4.435-1.071-4.563-1.134a.168.168 0 0 1-.077-.227.164.164 0 0 1 .222-.078c.041.019 4.194 2.013 6.633.57 1.06-.632 1.655-1.84 1.764-3.59.123-2.007-.956-3.537-1.603-4.45-.081-.117-.157-.223-.221-.32-1.233-1.828-.446-3.705.13-5.076.085-.208.169-.407.242-.594.5-1.305-.527-2.772-.54-2.789a.172.172 0 0 1 .017-.218.167.167 0 0 1 .215-.02c1.325.959 1.22 2.394 1.124 2.936l.74.006c.092 0 .168.077.166.17a.167.167 0 0 1-.168.167l-.95-.008a.168.168 0 0 1-.133-.068.175.175 0 0 1-.026-.15c.017-.051.272-.933-.137-1.814.173.557.257 1.241 0 1.909a30.1 30.1 0 0 1-.245.602c-.576 1.371-1.291 3.075-.161 4.751l.217.312c.672.949 1.795 2.541 1.663 4.671-.115 1.869-.763 3.168-1.926 3.859-.712.428-1.546.583-2.383.583ZM9.154 135.665a.179.179 0 0 1-.133-.058.17.17 0 0 1 .018-.243c5.746-4.879 18.577-5.677 18.703-5.684.087-.006.182.065.189.162a.173.173 0 0 1-.167.181c-.128.006-12.84.798-18.493 5.599a.188.188 0 0 1-.117.043Z"/><path fill="#0C0553" d="M5.403 139.655a.175.175 0 0 1-.155-.093c-3.714-7.063 1.62-18.89 5.359-24.767.893-1.401 1.876-2.879 3.025-4.207 1.069-1.23 2.534-2.044 4.067-2.832a.171.171 0 0 1 .237.073.17.17 0 0 1-.074.231c-1.505.775-2.938 1.57-3.964 2.755-1.135 1.308-2.109 2.776-2.995 4.164-3.444 5.414-8.992 17.486-5.346 24.426a.172.172 0 0 1-.075.233.162.162 0 0 1-.079.017Zm36.314-22.943a.18.18 0 0 1-.166-.102l-.195-.427c-2.734-5.844-6.21-8.979-10.939-9.867a90.062 90.062 0 0 0-1.488-.251l.06-.326s1.126.181 1.5.251c4.788.901 8.45 4.192 11.196 10.062.068.141.133.286.198.43.038.085-.005.182-.097.217a.182.182 0 0 1-.07.013Zm-12.934-12.968c-.199 0-.382-.012-.537-.026a20.738 20.738 0 0 1-2.16-.293.188.188 0 0 1-.147-.218c.021-.103.118-.158.218-.144a21.03 21.03 0 0 0 2.119.286c.616.053 1.088.016 1.491-.112.658-.207 1.107-.707 1.376-1.525.317-.975.394-1.814.408-2.774a.185.185 0 0 1 .37.007c-.016.995-.095 1.864-.426 2.885-.308.942-.836 1.519-1.614 1.765-.375.116-.76.149-1.098.149Z"/><path fill="#0C0553" d="M27.782 109.729c-.944 0-2.487-1.858-2.807-2.257a.167.167 0 0 1 .028-.236.17.17 0 0 1 .239.027c.794.989 2.14 2.314 2.631 2.114.576-.222.652-2.338.565-3.618l.151-2.852c.007-.093.069-.159.18-.161a.168.168 0 0 1 .16.178l-.152 2.833c.04.576.192 3.561-.782 3.934a.586.586 0 0 1-.213.038Zm2.616-2.992a.134.134 0 0 1-.083-.032c-.064-.059-.078-.171-.034-.253.948-1.702-.302-3.381-.314-3.397a.217.217 0 0 1 .003-.257c.056-.071.147-.068.202.004.015.019 1.426 1.914.344 3.859-.029.048-.074.076-.118.076Zm-14.212 24.938a.161.161 0 0 1-.16-.151c-.556-5.876 2.582-15.599 2.614-15.698a.165.165 0 0 1 .204-.105c.084.03.129.124.1.212-.032.097-3.147 9.752-2.596 15.557a.17.17 0 0 1-.143.185h-.019Zm13.081-31.921c-.274 0-.517-.047-.722-.139-.538-.243-.611-.714-.613-.733-.009-.062.062-.119.156-.126.095.002.183.04.192.104a.81.81 0 0 0 .466.567c.238.107.56.126.957.055.093-.016.19.019.216.08.027.062-.028.125-.123.143a3.245 3.245 0 0 1-.53.049Zm31.268 27.931c-.29 0-.564-.072-.806-.209-1.046-.599-1.171-2.336-.278-3.872.426-.732 1.018-1.315 1.67-1.637.674-.337 1.332-.354 1.847-.059 1.046.6 1.172 2.336.278 3.872-.426.733-1.018 1.316-1.67 1.638-.358.176-.71.267-1.041.267Zm1.627-5.651c-.278 0-.579.078-.889.232-.592.294-1.135.829-1.527 1.506-.8 1.375-.732 2.905.152 3.412.418.242.96.215 1.528-.067.592-.295 1.135-.83 1.528-1.507.8-1.375.731-2.905-.153-3.412a1.275 1.275 0 0 0-.639-.164Z"/><path fill="#0C0553" d="M39.444 139.655a4.5 4.5 0 0 1-3.669-1.844 4.338 4.338 0 0 1-.627-4.002l6.754-20.033c.614-1.825 2.34-3.049 4.295-3.049h28.477c.337 0 .675.036 1.003.108.093.02.152.111.132.203a.172.172 0 0 1-.206.13 4.361 4.361 0 0 0-.926-.1h-28.48c-1.805 0-3.4 1.132-3.968 2.817l-6.753 20.032a4.013 4.013 0 0 0 .579 3.698 4.156 4.156 0 0 0 3.389 1.703c.095 0 .173.077.173.171a.169.169 0 0 1-.173.166Z"/><path fill="#0C0553" d="M69.618 139.655h-28.22c-1.483 0-2.868-.701-3.706-1.877a4.116 4.116 0 0 1-.55-3.778l6.692-19.332c.61-1.761 2.32-2.944 4.257-2.944h28.22c1.484 0 2.87.701 3.707 1.877a4.118 4.118 0 0 1 .55 3.779l-6.693 19.331c-.61 1.762-2.322 2.944-4.257 2.944Zm-21.527-27.589c-1.789 0-3.371 1.09-3.932 2.714l-6.693 19.332a3.77 3.77 0 0 0 .507 3.464c.772 1.086 2.054 1.733 3.427 1.733h28.22c1.792 0 3.372-1.09 3.933-2.716l6.693-19.332a3.775 3.775 0 0 0-.505-3.464c-.772-1.086-2.054-1.733-3.427-1.733H48.09v.002Zm-16.677 27.589c-2.513 0-3.135-2.882-3.135-3.292 0-.096.08-.174.178-.174.098 0 .179.078.179.174 0 .029.4 2.946 2.778 2.946.548 0 .904-.122 1.053-.362.319-.515-.236-1.563-.641-2.333-.098-.187-.192-.362-.265-.514a8.902 8.902 0 0 1-.243-.576c-.477-1.199-1.13-2.836-3.444-2.446-.011.004-2.932.813-4.652 1.984a.183.183 0 0 1-.247-.044.172.172 0 0 1 .044-.242c1.77-1.203 4.654-2.001 4.777-2.036 2.617-.447 3.361 1.422 3.854 2.66.082.203.156.392.234.556.07.148.16.318.258.501.47.887 1.054 1.991.63 2.673-.22.346-.677.525-1.358.525Z"/><path fill="#0C0553" d="M32.951 139.653c-.084 0-.155-.073-.161-.169-.006-.1.063-.187.151-.194.882-.063 1.437-.339 1.603-.796.149-.415-.06-.894-.287-1.179-.276-.349-.527-1.074-.817-1.913-.365-1.056-.78-2.254-1.32-2.92-.892-1.097-2.928.192-2.95.206-.077.05-.176.02-.22-.069a.195.195 0 0 1 .06-.248c.093-.06 2.28-1.444 3.346-.135.581.716 1.007 1.948 1.382 3.033.269.776.521 1.506.757 1.804.3.379.55.99.343 1.561-.151.415-.597.928-1.879 1.021-.002-.002-.006-.002-.008-.002Zm-7.501.002a2.8 2.8 0 0 1-.362-.024.175.175 0 0 1-.148-.199c.013-.097.099-.177.19-.155.149.02.313.025.485.016 2.771-.143 2.964-2.371 2.97-2.465a.177.177 0 0 1 .185-.165.177.177 0 0 1 .158.192c-.002.027-.225 2.635-3.294 2.794-.062.002-.124.006-.184.006Z"/><path fill="#0C0553" d="M25.173 139.655a.156.156 0 0 1-.09-.029c-1.569-1.134-2.383-3.241-2.075-5.369.424-2.933 2.83-4.953 5.36-4.518.82.144 2.077.528 3.509 2.204a.188.188 0 0 1-.008.252.156.156 0 0 1-.232-.007c-1.364-1.597-2.55-1.959-3.322-2.094-2.35-.418-4.59 1.484-4.985 4.219-.287 1.989.471 3.957 1.931 5.014a.19.19 0 0 1 .047.25.162.162 0 0 1-.135.078Zm11.537-5.985a.193.193 0 0 1-.188-.14c-.003-.012-.298-1.065-1.07-1.379-.977-.392-2.203.568-2.216.578a.2.2 0 0 1-.273-.026.187.187 0 0 1 .03-.269c.055-.047 1.418-1.117 2.61-.634.953.385 1.285 1.58 1.3 1.632a.187.187 0 0 1-.14.231c-.02.007-.036.007-.053.007Zm-.096 5.985a2.375 2.375 0 0 1-1.656-.704c-.07-.077-.055-.19.03-.253a.21.21 0 0 1 .276.027c.037.04.947 1.03 2.347.307.094-.045.215-.018.27.068.054.088.02.198-.075.246a2.576 2.576 0 0 1-1.191.309Z"/><path fill="#0C0553" d="M35.103 131.675c-.152-.029-.21-.124-.183-.212 3.182-10.154.672-16.457.646-16.522-.036-.086.014-.183.114-.214.103-.032.21.014.244.101.026.063 2.579 6.458-.64 16.723-.02.076-.097.124-.18.124Zm43.519-18.953a.171.171 0 0 1-.09-.025l-2.626-1.605a.204.204 0 0 1-.069-.269.182.182 0 0 1 .249-.074l2.627 1.605a.206.206 0 0 1 .069.269.185.185 0 0 1-.16.099Zm-16.952-5.985H46.063a.174.174 0 0 1-.144-.075.17.17 0 0 1-.023-.159l2.725-7.629a.18.18 0 0 1 .227-.108c.091.031.14.133.109.223l-2.642 7.397h15.353c.098 0 .178.079.178.176 0 .097-.08.175-.178.175Zm3.989-10.629h-12.61a.176.176 0 0 1-.18-.172c0-.095.081-.172.18-.172h12.61c.098 0 .178.077.178.172a.176.176 0 0 1-.178.172Z"/><path fill="#0C0553" d="M61.016 106.737c-.142-.041-.188-.138-.157-.228l3.657-10.63a.166.166 0 0 1 .213-.105c.087.03.131.128.102.216l-3.657 10.631a.17.17 0 0 1-.158.116Zm-33.53-6.983c-.827 0-1.504-1.282-1.548-2.94-.045-1.68.577-3.016 1.413-3.045.855-.003 1.532 1.28 1.575 2.937.046 1.68-.576 3.018-1.413 3.048h-.027Zm-.107-5.623c-.657.025-1.164 1.246-1.127 2.671.038 1.412.6 2.59 1.234 2.59.657-.026 1.164-1.249 1.127-2.674-.038-1.412-.6-2.587-1.234-2.587Zm4.086 5.623c-.272 0-.481-.103-.69-.333a.202.202 0 0 1-.004-.258.145.145 0 0 1 .223-.007c.157.176.3.226.498.233.64-.025 1.148-1.247 1.109-2.672-.038-1.412-.6-2.586-1.233-2.586-.656.025-1.163 1.245-1.126 2.67.016.568.077.96.211 1.357.032.093-.008.198-.089.235-.08.04-.171-.012-.203-.103-.148-.438-.215-.867-.233-1.478-.045-1.678.576-3.014 1.415-3.043.854-.003 1.53 1.279 1.573 2.936.046 1.678-.575 3.017-1.412 3.046-.016.003-.027.003-.04.003Z"/><path fill="#0C0553" d="M29.712 96.761c-.062 0-.124-.034-.167-.102-.052-.081-.519-.732-1.267-.023-.097.088-.232.068-.302-.048-.073-.122-.054-.291.04-.38.886-.848 1.604-.295 1.864.112.073.119.059.289-.036.384a.183.183 0 0 1-.132.057Zm48.285-73.818c-.104 0-.189-.095-.189-.211v-1.419c0-.058.002-.113.007-.169a.217.217 0 0 1 .085-.159.165.165 0 0 1 .163-.026 6.623 6.623 0 0 0 4.48.005.175.175 0 0 1 .16.024.223.223 0 0 1 .086.156c.004.056.007.111.007.167v.723c0 .117-.085.212-.189.212s-.189-.095-.189-.212v-.583a6.958 6.958 0 0 1-4.228-.006v1.287c-.005.116-.09.211-.193.211Z"/><path fill="#0C0553" d="M79.804 21.946a6.954 6.954 0 0 1-2.141-.336 6.959 6.959 0 0 1-4.843-6.647 6.99 6.99 0 0 1 6.984-6.983 6.989 6.989 0 0 1 6.982 6.983 6.96 6.96 0 0 1-4.856 6.654 6.99 6.99 0 0 1-2.126.329Zm0-13.626a6.65 6.65 0 0 0-6.642 6.643 6.617 6.617 0 0 0 4.605 6.322 6.683 6.683 0 0 0 4.06.005 6.621 6.621 0 0 0 4.621-6.33 6.652 6.652 0 0 0-6.644-6.64Z"/><path fill="#0C0553" d="M76.204 17.956a3.94 3.94 0 0 1-.224-.007.171.171 0 0 1-.167-.176.172.172 0 0 1 .176-.161c.413.019 1 .002 1.379-.319.072-.059.138-.13.2-.208a2.007 2.007 0 0 1-.849-1.927c.026-.187.202-.923.602-1.133a.49.49 0 0 1 .442-.013c.277.127.38.484.449.72.096.333.138.628.136.93-.002.267-.042.818-.301 1.317.536.274 1.277.39 2.254.372.564-.015 1.037-.091 1.444-.24.477-.174.86-.454 1.117-.803-.475-.256-.763-.63-.811-1.02-.029-.225.015-.47.132-.707.127-.26.307-.429.525-.495a.543.543 0 0 1 .49.068c.36.257.376.947.376 1.083a2.147 2.147 0 0 1-.21.919c.738.263 1.628.263 2.248.263.097 0 .176.076.176.17 0 .093-.079.17-.176.17-.828 0-1.69-.028-2.425-.304-.294.427-.747.768-1.319.976-.442.162-.952.247-1.559.261-1.037.024-1.851-.112-2.447-.42-.077.1-.165.196-.266.28-.402.338-.95.404-1.392.404Zm1.346-3.651c-.275.13-.45.651-.486.9a1.667 1.667 0 0 0 .682 1.59c.158-.317.246-.71.25-1.136a2.679 2.679 0 0 0-.107-.783c-.064-.219-.143-.497-.275-.556a.196.196 0 0 0-.064-.015Zm5.343.091a.27.27 0 0 0-.084.015c-.16.047-.264.219-.312.316a.911.911 0 0 0-.101.52c.035.287.257.565.589.745.17-.214.233-.477.235-.755 0-.319-.079-.699-.235-.81-.018-.018-.046-.03-.092-.03Zm-10.245-3.423a.169.169 0 0 1-.104-.034l-7.635-5.646a.17.17 0 0 1-.035-.238.177.177 0 0 1 .242-.034l7.636 5.648a.17.17 0 0 1 .034.238.18.18 0 0 1-.138.066Zm-6.628 11.97a.187.187 0 0 1-.153-.077.168.168 0 0 1 .052-.238l7.618-4.643a.185.185 0 0 1 .252.049c.054.08.03.184-.053.236l-7.618 4.643a.165.165 0 0 1-.098.03ZM79.975 5.985a.17.17 0 0 1-.172-.168V.167A.17.17 0 0 1 79.975 0a.17.17 0 0 1 .173.168v5.65a.17.17 0 0 1-.173.167Zm6.972 4.988a.164.164 0 0 1-.142-.073c-.042-.068-.014-.152.065-.189l3.666-1.716c.08-.036.178-.014.22.056.043.066.014.152-.064.188l-3.667 1.716a.19.19 0 0 1-.078.018Zm6.651 15.96a.18.18 0 0 1-.112-.041l-7.64-6.65a.165.165 0 0 1-.015-.236.176.176 0 0 1 .24-.015l7.64 6.65c.07.063.077.168.015.236a.165.165 0 0 1-.128.056Zm11.948-8.977a.19.19 0 0 1-.164-.087c-.492-.764-1.358-.54-1.392-.527-.1.026-.208-.024-.239-.115-.028-.09.027-.187.127-.215.406-.112 1.317-.119 1.835.685.053.082.022.188-.069.235a.198.198 0 0 1-.098.024Zm-1.522 1c-.138-.018-.228.031-.272.45-.045.466.097.548.22.545.123-.004.248-.148.244-.482-.005-.332-.013-.489-.192-.513Zm-.108 10.97c-.101-.002-.174-.093-.172-.202l.047-1.603c.002-.109.061-.19.177-.19.095.002.168.094.166.202l-.047 1.604c-.003.108-.078.19-.171.19ZM120.53 48.88a.172.172 0 0 1-.172-.173c.019-4.735-.192-8.874-.195-8.915-.064-1.33-.746-2.94-1.474-4.483-.58-1.234-1.245-2.167-2.024-2.853-1.004-.881-2.001-1.35-3.137-1.482-2.503-.287-7.599-.268-7.638-.268-1.088.065-2.029.199-3.052.65-1.504.663-2.808 1.988-3.872 3.936-.758 1.39-1.366 2.9-1.956 4.362-.185.459-.367.916-.557 1.368-.382.92-.82 1.873-1.597 2.524-.855.71-2 .832-2.92.306-.928-.53-1.237-1.478-1.533-2.394l-1.269-3.88c-.395-1.202-.783-2.467-1.16-3.689-.383-1.239-.778-2.519-1.18-3.736a.172.172 0 0 1 .11-.218.17.17 0 0 1 .219.11c.401 1.222.796 2.504 1.18 3.745.376 1.22.767 2.483 1.16 3.683l1.269 3.883c.289.895.563 1.737 1.374 2.203.797.454 1.788.347 2.53-.272.717-.599 1.135-1.508 1.5-2.39.188-.452.371-.91.555-1.366.591-1.472 1.202-2.991 1.973-4.398 1.1-2.017 2.458-3.392 4.034-4.086 1.07-.472 2.046-.612 3.179-.679.065 0 5.167-.021 7.69.27 1.207.14 2.264.637 3.324 1.566.816.716 1.507 1.685 2.109 2.963.742 1.575 1.437 3.224 1.507 4.612.002.04.213 4.19.194 8.934.002.089-.076.166-.171.166Z"/><path fill="#0C0553" d="M91.525 56.86c-3.023 0-6.059-.981-8.415-3.414-2.751-2.842-4.106-6.763-5.068-10.223-.954-3.423-1.478-6.586-2.033-9.932l-.194-1.167a.176.176 0 0 1 .14-.2.174.174 0 0 1 .199.144l.194 1.166c.552 3.338 1.077 6.492 2.024 9.895.951 3.419 2.287 7.29 4.984 10.072 4.197 4.331 10.622 3.919 15.13 1.584l.476-.24c6.594-4.042 8.415-13.041 8.432-13.13.017-.095.123-.162.201-.138.092.02.155.111.136.203-.02.092-1.865 9.24-8.603 13.37l-.487.247c-2.096 1.083-4.603 1.763-7.116 1.763Zm33.989-7.98a.17.17 0 0 1-.165-.121c-1.62-5.162-5.075-11.416-8.598-15.564a.167.167 0 0 1 .024-.239.182.182 0 0 1 .246.023c3.547 4.18 7.028 10.48 8.661 15.68a.167.167 0 0 1-.115.21.12.12 0 0 1-.053.01Zm-21.74-20.949c-2.294 0-2.896-1.202-3.052-1.805-.2-.77.234-2.682.357-3.193-.275-.17-.982-.642-1.245-1.21a.856.856 0 0 1 .211-1.007c.395-.337 1.52-1.018 1.803-1.187.093-.473.59-2.956.874-3.482a.165.165 0 0 1 .222-.067.17.17 0 0 1 .066.228c-.235.434-.695 2.645-.853 3.46a.17.17 0 0 1-.078.11c-.015.009-1.4.833-1.822 1.194a.513.513 0 0 0-.125.609c.275.594 1.204 1.118 1.215 1.124a.17.17 0 0 1 .08.189c-.006.023-.592 2.357-.389 3.146.21.806 1.071 2.059 4.504 1.357.089-.02.175.042.194.132a.167.167 0 0 1-.13.197 9.171 9.171 0 0 1-1.832.205Zm5.761-3.991c-.657 0-1.294-.34-1.721-.967a.212.212 0 0 1 .029-.267.157.157 0 0 1 .235.033c.526.779 1.438 1.037 2.232.626.448-.234.791-.655.96-1.183a2.378 2.378 0 0 0-.05-1.615c-.424-1.056-1.52-1.524-2.45-1.042a1.933 1.933 0 0 0-.732.69c-.055.087-.159.104-.234.044a.206.206 0 0 1-.038-.265c.222-.352.521-.633.866-.815 1.097-.571 2.391-.021 2.893 1.228.243.605.264 1.283.063 1.907-.203.623-.606 1.12-1.137 1.395a1.95 1.95 0 0 1-.916.232Z"/><path fill="#0C0553" d="M110.153 22.943a.153.153 0 0 1-.106-.05l-1.261-1.36a.229.229 0 0 1-.054-.166.212.212 0 0 1 .078-.15l1.676-1.237c.072-.057.172-.028.218.069.044.094.022.216-.056.27l-1.485 1.098 1.094 1.182a.234.234 0 0 1 .014.28.14.14 0 0 1-.118.064ZM78.82 32.919c-.42 0-.81-.018-1.164-.048-1.158-.105-1.776-.364-1.837-.767-.083-.533.731-.896 1.35-1.123a.18.18 0 0 1 .227.087c.035.08-.007.172-.096.204-.767.281-1.171.56-1.136.787.026.166.441.398 1.527.495 1.024.093 2.358.046 3.765-.13 3.182-.403 5.045-1.241 4.98-1.663-.03-.209-.535-.454-1.852-.52-.096-.006-.17-.079-.164-.166.004-.084.083-.149.175-.149 1.384.068 2.118.333 2.186.79.133.873-2.553 1.678-5.277 2.022a21.7 21.7 0 0 1-2.684.18Z"/><path fill="#0C0553" d="M84.088 31.921a.172.172 0 0 1-.164-.127c-.282-1.07-.272-2.176-.236-3.217.028-.86 0-1.74-.027-2.592-.009-.277-.02-.553-.026-.83-.025-.957.198-1.901.678-2.884.083-.172.17-.35.131-.497-.078-.295-.584-.484-.902-.501-.372-.028-.769.133-1.19.456-.804.62-1.148 2.131-1.352 3.035-.096.419-.144.628-.215.735-.441.682-1.308.561-1.709.4-.444-.18-.488-.27-.652-.729-.123-.346-.33-.923-.881-2.007-1.083-2.125-2.37-3.122-3.625-2.813-.249.063-.57.32-.699.697-.136.396-.032.839.304 1.278.427.557 1.16 1.86 1.866 3.118.746 1.327 1.593 2.833 1.848 3.018a.174.174 0 0 1 .038.24.168.168 0 0 1-.236.04c-.295-.214-.93-1.323-1.945-3.128-.703-1.25-1.429-2.54-1.84-3.08-.517-.675-.479-1.243-.356-1.6.177-.514.61-.837.937-.918.824-.205 2.438-.09 4.007 2.987.563 1.103.773 1.697.9 2.05.143.398.143.398.46.524.31.127.978.23 1.299-.27.038-.06.106-.36.168-.622.214-.949.575-2.536 1.478-3.23.486-.375.977-.545 1.412-.525.397.021 1.077.247 1.21.755.072.27-.053.53-.153.737-.456.934-.666 1.824-.643 2.723l.026.83c.027.856.057 1.742.027 2.614-.034 1.015-.047 2.092.223 3.118a.17.17 0 0 1-.121.209.114.114 0 0 1-.04.006Z"/><path fill="#0C0553" d="M78.628 32.919a.175.175 0 0 1-.175-.149c-.094-.688-.343-1.579-1.005-1.906-1.151-.572-2.398-2.25-3.25-4.378-.344-.86-.891-1.577-1.371-2.207-.61-.799-1.134-1.485-.976-2.16.213-.904 1.056-1.162 1.47-1.17.075-.003.177.072.182.165a.175.175 0 0 1-.171.176c-.038.003-.93.037-1.134.904-.122.52.336 1.12.916 1.88.495.65 1.058 1.386 1.418 2.287.809 2.023 2.02 3.67 3.08 4.198.798.395 1.09 1.398 1.192 2.166a.173.173 0 0 1-.154.194h-.022Zm32.774-3.99c-.166 0-.313-.067-.325-.154l-.35-2.662c-.012-.092.122-.17.301-.177.179.01.334.062.346.154l.349 2.662c.013.091-.122.17-.3.177h-.021Zm-1.514-2.993a1.03 1.03 0 0 1-.313-.048c-.834-.263-.863-1.558-.838-2.102.033-.645.117-.663.207-.682a.168.168 0 0 1 .17.254c-.053.188-.144 1.214.147 1.817.105.212.238.342.408.396.645.198 1.495-.613 3.028-2.098l.369-.359c1.85-1.787 2.726-4.281 2.132-6.067-.338-1.013-1.11-1.635-2.182-1.751a.167.167 0 0 1-.145-.184c.01-.09.07-.158.18-.148 1.205.131 2.078.832 2.457 1.975.643 1.933-.248 4.511-2.215 6.415l-.371.359c-1.463 1.422-2.288 2.223-3.034 2.223Zm-8.273-.997c-.476 0-.779-.342-.801-.366-.066-.078-.083-.225-.035-.333.048-.107.138-.134.204-.056.033.035.665.715 1.536-.204.066-.072.16-.042.204.072.044.11.024.257-.044.332-.403.42-.766.555-1.064.555Zm.309 6.982a.211.211 0 0 1-.077-.015c-.086-.036-.123-.124-.081-.202.254-.453 1.113-1.947 1.486-2.13.441-.211 8.023-.645 9.345-.645.577 0 1.662 1.767 2.102 2.526.042.074.007.166-.079.202-.081.034-.19.007-.234-.068-.724-1.254-1.546-2.334-1.789-2.36-1.565 0-8.744.453-9.178.611-.182.09-.838 1.105-1.337 1.994a.18.18 0 0 1-.158.087ZM47.915 57.857c-.687 0-1.385-.16-2.094-.479-1.262-.567-2.36-1.468-3.35-2.756-1.157-1.506-2.047-3.264-2.804-5.537-.192-.576-.35-1.145-.52-1.75-.08-.273-.156-.55-.236-.828a.173.173 0 0 1 .015-.131.187.187 0 0 1 .105-.082l2.337-.639c.275-.073.55-.148.825-.226.187-.047.327-.007.442.149 1.128 1.51 2.567 2.942 4.399 4.376.464.365.962.466 1.57.322.53-.128 1.056-.367 1.703-.77 1.407-.88 2.621-1.998 3.625-2.975 1.853-1.8 3.724-3.902 5.722-6.423.153-.192.318-.244.547-.181.825.235 1.655.46 2.484.688l.853.233c.04.01.076.023.116.036.115.037.152.074.174.117.02.045.02.097-.002.142-.04.086-.06.13-.083.17-2.436 4.09-4.815 7.496-7.27 10.416-1.23 1.463-2.742 3.143-4.622 4.5a14.24 14.24 0 0 1-1.803 1.089c-.692.36-1.405.54-2.133.54Zm-8.62-11.278.187.662c.17.6.33 1.167.517 1.734.743 2.237 1.618 3.964 2.75 5.438.955 1.24 2.006 2.107 3.216 2.653 1.357.606 2.676.59 3.921-.052.685-.356 1.26-.703 1.76-1.066 1.847-1.335 3.341-2.993 4.558-4.44 2.436-2.9 4.798-6.28 7.216-10.337l-.829-.226a328.33 328.33 0 0 1-2.486-.688c-.093-.028-.11-.024-.176.06-2.007 2.532-3.889 4.642-5.753 6.454-1.016.99-2.248 2.122-3.683 3.02-.68.426-1.24.679-1.808.817-.709.168-1.32.043-1.87-.386-1.855-1.454-3.316-2.906-4.46-4.441-.343.056-.62.131-.895.205l-2.166.593Z"/><path fill="#0C0553" d="M50.446 68.83c-11.314 0-20.52-9.174-20.52-20.45 0-11.275 9.206-20.449 20.52-20.449 10.405 0 19.166 7.754 20.378 18.036a.17.17 0 0 1-.15.189c-.097.023-.179-.056-.192-.15C69.29 35.895 60.675 28.27 50.446 28.27c-11.125 0-20.176 9.02-20.176 20.107 0 11.088 9.05 20.108 20.176 20.108 2.91 0 5.718-.604 8.346-1.795a.172.172 0 0 1 .227.083.17.17 0 0 1-.085.225 20.3 20.3 0 0 1-8.488 1.832ZM169.408 140H.173a.173.173 0 0 1-.173-.172c0-.095.078-.173.173-.173h169.235a.173.173 0 1 1 0 .345ZM111.11 83.793c-.204 0-.415-.006-.635-.019-.983-.058-1.647-.408-2.216-1.168-.905-1.21-1.424-2.612-1.503-4.055-.086-1.566.023-3.142 2.31-3.73.097-.023.197.027.224.115.027.09-.03.182-.125.207-1.852.478-2.146 1.56-2.046 3.394.077 1.381.573 2.723 1.441 3.88.503.677 1.068.974 1.942 1.027 1.141.066 2.052-.049 2.852-.369 1.38-.553 2.069-1.191 1.992-1.848-.059-.503-.539-.836-.644-.855-.097-.018-.163-.104-.145-.194.016-.09.107-.147.204-.136.286.044.859.506.943 1.13.077.576-.245 1.426-2.207 2.21-.701.275-1.471.411-2.387.411Z"/><path fill="#0C0553" d="M109.914 81.798c-.099 0-.18-.068-.185-.152-.004-.088.074-.162.175-.166.664-.024 1.36-.157 2.127-.409l.074-.024c.629-.206 1.281-.42 1.758-.797.348-.274.516-.61.479-.97-.044-.444-.387-.884-.919-1.177-.086-.048-.111-.146-.058-.222a.21.21 0 0 1 .256-.05c.626.344 1.034.877 1.09 1.422.046.464-.162.891-.602 1.235-.527.417-1.244.651-1.875.858-.876.286-1.608.426-2.313.452h-.007Zm-.976-1.995a.203.203 0 0 1-.206-.19.2.2 0 0 1 .196-.207c.677-.028 1.548-.228 2.517-.585a.201.201 0 0 1 .265.115.196.196 0 0 1-.118.257c-1.026.378-1.912.582-2.646.61h-.008Zm19.917 16.958a.172.172 0 0 1-.173-.17V72.99c0-.094.078-.17.173-.17a.17.17 0 0 1 .172.17v23.602a.17.17 0 0 1-.172.17Zm.647-33.916a.18.18 0 0 1-.18-.178V51.485c0-1.24-1.199-2.25-2.674-2.25h-6.764a.18.18 0 0 1-.18-.178.18.18 0 0 1 .18-.178h6.764c1.671 0 3.032 1.17 3.032 2.606v11.182a.176.176 0 0 1-.178.178Z"/><path fill="#0C0553" d="M119.532 49.224h-15.616a.172.172 0 0 1 0-.345h15.616a.172.172 0 0 1 0 .345ZM61.023 94.766a.174.174 0 0 1-.173-.173v-43.17c0-1.402 1.307-2.544 2.913-2.544h16.865a.174.174 0 0 1 0 .347H63.763c-1.417 0-2.57.986-2.57 2.197v43.17a.17.17 0 0 1-.17.173Zm53.944-9.976a.686.686 0 0 1-.211-.036.796.796 0 0 1-.449-.443l-.569-1.267c-.041-.09-.013-.202.058-.25.073-.051.162-.02.203.07l.569 1.268c.06.131.155.226.272.267a.365.365 0 0 0 .343-.046c.218-.147.299-.49.177-.76l-.68-1.52c-.041-.09-.013-.203.058-.252.072-.048.162-.018.203.072l.68 1.52c.2.45.067 1.014-.294 1.26a.628.628 0 0 1-.36.118Zm-4.716-7.98a.177.177 0 0 1-.156-.088l-7.237-12.589a.856.856 0 0 1 .351-1.18.918.918 0 0 1 1.224.34l7.268 12.61c.05.083.016.187-.069.234-.09.043-.197.018-.244-.067l-7.268-12.61a.555.555 0 0 0-.738-.205.515.515 0 0 0-.213.712l7.237 12.589a.17.17 0 0 1-.155.254Z"/><path fill="#0C0553" d="M112.551 74.815a.135.135 0 0 1-.076-.023c-1.518-.957-2.49-.373-2.501-.367-.078.05-.184.01-.226-.092-.042-.102-.011-.228.072-.28.044-.03 1.118-.7 2.809.367.085.052.116.178.074.28-.029.076-.091.115-.152.115Zm-12.966 58.202H76.98a.17.17 0 0 1-.17-.172c0-.095.077-.173.17-.173h22.605c.093 0 .169.078.169.173a.17.17 0 0 1-.17.172Zm27.924 0h-9.626a.174.174 0 0 1-.174-.172c0-.095.079-.173.174-.173h9.628c.096 0 .174.078.174.173a.175.175 0 0 1-.176.172ZM30.435 99.754a.096.096 0 0 1-.072-.035c-.05-.056-.058-.157-.019-.228.36-.629.36-.855.343-.922-.023-.095-.16-.141-.28-.182-.157-.052-.319-.105-.393-.29-.173-.44-.042-1.905-.013-2.194.009-.089.07-.152.13-.137.063.012.108.093.099.181-.06.63-.119 1.727-.013 1.994.024.06.146.103.243.133.17.057.38.127.446.39.066.271-.05.651-.38 1.23-.023.042-.056.06-.09.06Zm78.501-22.944c-.104 0-.193-.057-.204-.132-.01-.081.072-.153.184-.16.017-.002 1.776-.124 2.455-.658a.262.262 0 0 1 .287-.009c.082.055.089.148.013.208-.786.617-2.638.746-2.717.751h-.018Zm-6.298-58.854a.17.17 0 0 1-.106-.037c-.072-.058-1.749-1.424-1.78-3.271-.019-1.04.49-2.012 1.514-2.894.674-.58 1.419-.835 2.221-.771 1.761.15 3.151 1.824 3.21 1.894a.162.162 0 0 1-.025.231.167.167 0 0 1-.235-.025c-.014-.016-1.361-1.636-2.981-1.772-.712-.058-1.37.173-1.97.69-.947.814-1.416 1.701-1.401 2.638.029 1.692 1.641 3.01 1.658 3.022a.16.16 0 0 1 .023.23.155.155 0 0 1-.128.065Z"/><path fill="#0C0553" d="M113.542 14.963a.176.176 0 0 1-.161-.096c-.015-.028-1.541-2.988-4.278-3.439-2.628-.436-3.012.37-3.017.378-.036.083-.145.124-.228.095-.092-.03-.141-.12-.11-.201.041-.112.479-1.077 3.418-.591 2.92.483 4.472 3.495 4.537 3.624.041.081.003.177-.087.216a.175.175 0 0 1-.074.014Zm-4.991 4.987c-.527-.07-.884-.285-1.088-.636-.388-.677-.053-1.647.061-1.928-.907-1.623-4.584-2.073-4.622-2.078a.174.174 0 0 1-.154-.192.175.175 0 0 1 .198-.152c.163.02 4.008.492 4.935 2.338a.155.155 0 0 1 .002.145c-.004.01-.471 1.069-.107 1.7.147.256.411.408.802.462a.176.176 0 0 1 .152.195.185.185 0 0 1-.179.147Zm49.236 66.836a.187.187 0 0 1-.084-.02.174.174 0 0 1-.071-.237c.311-.564.621-1.16.928-1.774a.176.176 0 0 1 .317.153 52.237 52.237 0 0 1-.932 1.786.19.19 0 0 1-.158.092Zm1.79-3.591a.173.173 0 0 1-.161-.244c.265-.581.533-1.197.797-1.833a.173.173 0 0 1 .229-.093.168.168 0 0 1 .095.226 49.54 49.54 0 0 1-.804 1.843.167.167 0 0 1-.156.1Zm1.537-3.703c-.152-.043-.198-.143-.165-.233a55.99 55.99 0 0 0 .672-1.88.18.18 0 0 1 .222-.111c.093.03.143.128.112.22a54.66 54.66 0 0 1-.676 1.893.176.176 0 0 1-.165.111Zm1.282-3.793c-.141-.035-.196-.13-.167-.222.191-.645.369-1.29.535-1.922a.171.171 0 0 1 .213-.124c.095.024.15.117.126.21a54.971 54.971 0 0 1-.538 1.936.179.179 0 0 1-.169.122Zm1.002-3.877c-.132-.024-.192-.115-.172-.209a55.51 55.51 0 0 0 .383-1.958c.016-.094.108-.17.203-.14a.172.172 0 0 1 .141.2 51.73 51.73 0 0 1-.383 1.97.177.177 0 0 1-.172.137Zm.683-3.941c-.119-.013-.188-.1-.174-.196.083-.649.154-1.315.207-1.98a.174.174 0 0 1 .176-.16c.11.007.183.092.176.188-.053.67-.126 1.342-.209 1.998a.177.177 0 0 1-.176.15Zm.319-3.985a.175.175 0 0 1-.176-.179 38.595 38.595 0 0 0 .006-1.99c-.002-.097.071-.167.177-.178.094 0 .174.074.176.17.006.29.011.579.011.866 0 .383-.007.764-.018 1.143a.175.175 0 0 1-.176.168Zm-.097-3.996a.177.177 0 0 1-.176-.16 32.924 32.924 0 0 0-.218-1.978.174.174 0 0 1 .15-.196c.114-.021.185.055.198.148.09.649.167 1.322.222 1.998a.175.175 0 0 1-.161.188h-.015Zm-.562-3.96a.173.173 0 0 1-.171-.139 29.758 29.758 0 0 0-.467-1.933.171.171 0 0 1 .123-.213c.09-.026.19.029.216.122.181.644.337 1.304.473 1.955a.173.173 0 0 1-.138.204.21.21 0 0 1-.036.005Zm-1.068-3.854a.173.173 0 0 1-.165-.115 29.73 29.73 0 0 0-.727-1.853.175.175 0 0 1 .093-.228.18.18 0 0 1 .231.091c.26.605.507 1.236.731 1.876a.17.17 0 0 1-.163.229Zm-5.232-8.194a.174.174 0 0 1-.138-.07 13.531 13.531 0 0 0-.237-.307.174.174 0 0 1 .03-.241.176.176 0 0 1 .242.03c.079.101.159.204.239.312a.172.172 0 0 1-.035.241.155.155 0 0 1-.101.035Zm-1.503-1.83a.175.175 0 0 1-.127-.056 26.438 26.438 0 0 0-1.358-1.417.172.172 0 1 1 .239-.248c.471.457.934.94 1.375 1.434a.17.17 0 0 1-.013.244.172.172 0 0 1-.116.043Zm-2.837-2.747a.175.175 0 0 1-.11-.039 24.9 24.9 0 0 0-1.555-1.197.17.17 0 0 1-.04-.239.172.172 0 0 1 .239-.04c.542.385 1.072.794 1.578 1.213.073.06.081.168.021.244a.185.185 0 0 1-.133.058Zm-3.219-2.286a.165.165 0 0 1-.088-.024 25.451 25.451 0 0 0-1.723-.943.175.175 0 0 1-.077-.23.172.172 0 0 1 .23-.078c.586.29 1.174.611 1.746.956a.172.172 0 0 1 .061.234.178.178 0 0 1-.149.084Zm-3.537-1.76a33.723 33.723 0 0 0-1.912-.677.173.173 0 0 1-.11-.218.169.169 0 0 1 .216-.11c.639.203 1.268.43 1.873.676a.168.168 0 0 1 .092.224.173.173 0 0 1-.159.106Zm-3.766-1.205a30.313 30.313 0 0 0-1.965-.396.174.174 0 0 1-.142-.198.176.176 0 0 1 .198-.142c.661.11 1.315.245 1.95.398a.173.173 0 0 1 .127.209.174.174 0 0 1-.168.129Zm-13.724-.06a.171.171 0 0 1-.166-.127.171.171 0 0 1 .12-.211c.031-.009.735-.2 1.96-.392.103-.015.18.05.195.144a.171.171 0 0 1-.142.196c-1.203.19-1.914.383-1.922.383a.163.163 0 0 1-.045.007Zm9.828-.599a33.504 33.504 0 0 0-1.979-.135.17.17 0 0 1-.166-.177.167.167 0 0 1 .177-.166 30.85 30.85 0 0 1 1.983.134c.094.01.163.095.155.19a.17.17 0 0 1-.17.154Zm-5.925-.03a.172.172 0 0 1-.172-.155.173.173 0 0 1 .155-.187 32.043 32.043 0 0 1 1.985-.114c.096 0 .172.073.176.168a.174.174 0 0 1-.168.176 31.23 31.23 0 0 0-1.963.114c-.002-.002-.009-.002-.013-.002Zm-27.517 90.32c-4.675 0-8.48-3.803-8.48-8.478s3.805-8.48 8.48-8.48c4.675 0 8.478 3.805 8.478 8.48 0 .719-.089 1.434-.267 2.121a.166.166 0 0 1-.206.121.169.169 0 0 1-.121-.206 8.18 8.18 0 0 0 .257-2.036c0-4.491-3.653-8.143-8.141-8.143-4.49 0-8.143 3.652-8.143 8.143 0 4.488 3.653 8.14 8.143 8.14a8.146 8.146 0 0 0 3.941-1.016.169.169 0 0 1 .231.066.17.17 0 0 1-.065.231 8.49 8.49 0 0 1-4.107 1.057ZM14.79 100.751a.144.144 0 0 1-.083-.024c-.3-.174-.59-.364-.868-.564a.174.174 0 0 1-.038-.242.168.168 0 0 1 .24-.04c.266.195.548.378.835.546a.175.175 0 0 1 .065.237.17.17 0 0 1-.15.087Zm-2.33-1.871a.175.175 0 0 1-.124-.053c-.44-.468-.863-.998-1.256-1.575a.176.176 0 0 1 .043-.242.172.172 0 0 1 .238.044 12.57 12.57 0 0 0 1.22 1.534.175.175 0 0 1-.007.246.158.158 0 0 1-.114.046Zm-2.25-3.27a.172.172 0 0 1-.152-.094 20.377 20.377 0 0 1-.822-1.84.177.177 0 0 1 .096-.226c.084-.04.187.009.221.098.25.638.522 1.246.808 1.806a.177.177 0 0 1-.073.236.157.157 0 0 1-.078.02Zm-1.466-3.716a.17.17 0 0 1-.163-.124 31.506 31.506 0 0 1-.515-1.941.173.173 0 0 1 .126-.21.172.172 0 0 1 .206.129c.153.656.325 1.303.51 1.922a.173.173 0 0 1-.115.215c-.015.01-.032.01-.049.01Zm-.91-3.89a.173.173 0 0 1-.17-.143 41.12 41.12 0 0 1-.3-1.985.174.174 0 0 1 .148-.196.17.17 0 0 1 .19.148A48.796 48.796 0 0 0 8 87.8a.172.172 0 0 1-.136.2c-.009.005-.02.005-.03.005Zm-.513-3.97a.173.173 0 0 1-.172-.156 45.7 45.7 0 0 1-.129-2.004.172.172 0 0 1 .163-.181c.1 0 .174.074.179.165.028.656.07 1.325.128 1.987a.175.175 0 0 1-.156.19H7.32Zm-.165-3.995a.174.174 0 0 1-.172-.174c.004-.67.026-1.345.064-2.01.004-.095.075-.16.18-.163a.172.172 0 0 1 .162.183c-.037.66-.06 1.33-.065 1.992a.17.17 0 0 1-.17.172Zm.234-3.996c-.114-.011-.18-.098-.17-.194.077-.673.172-1.342.283-1.99.017-.093.11-.17.198-.139a.175.175 0 0 1 .14.2 35.01 35.01 0 0 0-.28 1.97.173.173 0 0 1-.171.153Zm.68-3.942c-.133-.026-.189-.12-.167-.213.156-.656.332-1.31.528-1.94a.177.177 0 0 1 .214-.115c.09.028.142.126.112.218a31.656 31.656 0 0 0-.522 1.915.168.168 0 0 1-.165.135Zm3.078-9.256a.187.187 0 0 1-.098-.03.16.16 0 0 1-.046-.231c.341-.474.7-.94 1.063-1.386a.185.185 0 0 1 .245-.03c.077.06.09.163.031.237-.361.44-.713.9-1.053 1.369a.17.17 0 0 1-.142.07Zm2.348-2.85a.183.183 0 0 1-.116-.041.16.16 0 0 1-.013-.236c.442-.472.913-.94 1.397-1.392a.182.182 0 0 1 .247.002.162.162 0 0 1-.002.236c-.48.446-.946.91-1.381 1.377a.177.177 0 0 1-.132.055Zm2.872-2.677a.178.178 0 0 1-.134-.059.161.161 0 0 1 .02-.236 30.698 30.698 0 0 1 1.578-1.204.183.183 0 0 1 .245.033.163.163 0 0 1-.035.234 29.62 29.62 0 0 0-1.558 1.192.185.185 0 0 1-.116.04Zm3.217-2.296a.178.178 0 0 1-.147-.076.163.163 0 0 1 .05-.231 32.728 32.728 0 0 1 1.73-.998.183.183 0 0 1 .238.065.163.163 0 0 1-.066.227c-.575.31-1.15.641-1.709.987a.2.2 0 0 1-.096.026Zm3.504-1.877a.174.174 0 0 1-.158-.094.163.163 0 0 1 .081-.221 32.3 32.3 0 0 1 1.851-.775.18.18 0 0 1 .228.094.167.167 0 0 1-.096.217 30.21 30.21 0 0 0-1.832.762.161.161 0 0 1-.074.017Zm3.73-1.417a.176.176 0 0 1-.165-.115.164.164 0 0 1 .113-.21c.65-.197 1.305-.372 1.946-.525.096-.019.188.036.21.123a.166.166 0 0 1-.127.203 31.01 31.01 0 0 0-1.921.517.243.243 0 0 1-.055.007Zm54.805-28.44h-3.642a.174.174 0 0 1-.174-.172c0-.095.078-.173.174-.173h3.642c.096 0 .174.078.174.173a.174.174 0 0 1-.174.172Zm-.019 1.995h-2.606c-.107 0-.194-.077-.194-.172 0-.095.087-.173.194-.173h2.606c.106 0 .193.078.193.173 0 .095-.087.172-.193.172ZM97.59 55.862c-.074 0-.141-.054-.162-.139a5.872 5.872 0 0 0-5.706-4.474 5.868 5.868 0 0 0-5.608 4.117c-.03.096-.128.153-.213.115-.088-.033-.135-.141-.103-.238.826-2.614 3.206-4.369 5.924-4.369a6.215 6.215 0 0 1 6.03 4.75c.026.1-.027.203-.118.231a.145.145 0 0 1-.044.007Zm62.015-5.985a2.995 2.995 0 0 1-2.992-2.993 2.996 2.996 0 0 1 2.992-2.992 2.997 2.997 0 0 1 2.994 2.992 3 3 0 0 1-2.994 2.993Zm0-5.618a2.63 2.63 0 0 0-2.627 2.625 2.629 2.629 0 0 0 2.627 2.626 2.63 2.63 0 0 0 2.627-2.626 2.63 2.63 0 0 0-2.627-2.625ZM9.975 68.83a2.996 2.996 0 0 1-2.992-2.994 2.995 2.995 0 0 1 2.992-2.991 2.995 2.995 0 0 1 2.993 2.991 2.996 2.996 0 0 1-2.993 2.994Zm0-5.618a2.63 2.63 0 0 0-2.627 2.627 2.631 2.631 0 0 0 2.627 2.626 2.631 2.631 0 0 0 2.628-2.626 2.63 2.63 0 0 0-2.628-2.627Z"/></svg>