<svg xmlns="http://www.w3.org/2000/svg" width="181" height="163" fill="none"><path fill="#216FF4" d="M84.51 125.09s2.941-4.979 1.42-9.884c-1.522-4.906-3.2-5.847-4.758-6.658-1.55-.811-5.403-2.748-5.828-5.385-.424-2.637 2.61-4.776 5.505-6.492 2.905-1.715 7.82-1.835 11.24-2.074 3.412-.24 10.337-.692 16.248-2.665 5.92-1.973 19.576-8.078 23.909-14.827 4.334-6.75 3.836-6.685 5.256-11.49 1.42-4.804 2.665-9.783 2.684-13.812.037-6.012-1.568-13.195-12.347-24.085S98.553 14.716 93.888 14.126c-4.666-.6-9.931-1.752-21.061-1.881-11.13-.12-15.666-.055-25.376.369-9.719.415-38.184 3.54-37.935 17.731.25 14.191.803 18.092 1.43 21.873.627 3.78 1.337 8.381 3.67 12.835 2.332 4.454 16.551 20.074 27.93 25.45 11.378 5.376 15.73 10.724 17.261 12.411 1.53 1.687 2.425 4.952 7.312 7.497 4.887 2.545 10.992 3.218 13.509 6.842 2.517 3.623 1.503 7.837 1.503 7.837h2.379Z"/><path fill="#fff" d="M121.347 79.696s-1.899-1.429-3.402-8.013l-.433 4.454-13.721 1.07s-1.079-4.251.286-6.409c1.364-2.158 5.256-5.468 12.374-5.532 0 0 3.366.451 4.297.756 0 0-1.346-4.989-.618-7.054.738-2.075 1.448-3.394 5.109-2.167 3.605 1.208 3.522 4.186 2.72 6.095-.913 2.167-3.513 4.389-3.513 4.389s2.563.627 2.6 2.545c.046 1.918.47 9.267 1.623 12.513 1.033 2.913 2.323 5.228 5.505 5.255 3.089.028 7.93.499 8.879 4.353.747 3.043-.396 4.426 2.472 6.215 2.296 1.429 2.821 2.499 2.757 7.782 0 0-1.605-3.19-2.481-4.306-.885-1.116-4.334-3.79-5.551-4.066 0 0-.599-.019-3.356.562-2.757.581-6.418 1.605-10.982.249-4.565-1.356-5.146-3.744-5.385-5.33-.24-1.586-.065-5.145 1.466-7.542 0 0 2.646 0 2.692-4.113 0 0 .286-2.554-2.047-2.554-.461-.019-1.291.848-1.291.848Z"/><path fill="#216FF4" d="M149.508 106.123s5.745 12.245 7.838 19.567c2.093 7.321 4.583 16.588 3.928 22.194-.645 5.607-1.89 10.936-11.738 11.01l1.069 3.504h-39.207l.12-4.537s-1.153 3.587-6.897 1.771c-5.736-1.817-17.603-17.308-17.603-17.308l.996-.756.221.47h10.023l-4.426-6.777.701-.277s.092.987 1.457 1.531c0 0 1.872.055 4.703-.387 0 0 3.061 2.176 7.515 5.625l2.351-6.474-5.007-3.614s-.479-9.147-.433-10.945c.046-1.798.073-4.814 2.296-9.765 2.222-4.952 5.929-10.964 6.611-11.342l2.536-3.32s-.941 2.462-.738 5.173c0 0-.212 4.297-.064 7.506.147 3.209.802 8.834.802 8.834s1.392-4.841 3.504-8.612c2.111-3.772 2.941-5.146 2.941-5.146s3.615-1.733 4.648-5.053c0 0 2.471.646 7.303-.23 4.831-.886 6.86-2.472 10.687 1.53.009 0 2.452 2.72 3.863 5.828Z"/><path fill="#0C0553" d="M122.177 79.041s-1.032-1.503-2.987-7.164l-.443 4.453-13.721 1.07s-1.078-4.25.286-6.409c1.365-2.157 5.256-5.468 12.375-5.532 0 0 3.365.452 4.287.756 0 0-1.346-4.989-.608-7.054.738-2.066 1.448-3.393 5.108-2.167 3.606 1.208 3.523 4.186 2.72 6.095-.912 2.167-3.522 4.39-3.522 4.39s2.563.626 2.61 2.544c.046 1.918.47 9.267 1.613 12.513 1.033 2.914 2.324 5.228 5.505 5.256 3.089.028 7.93.498 8.88 4.352.747 3.043-.397 4.426 2.471 6.215 2.296 1.43 2.822 2.499 2.748 7.783 0 0-1.605-3.191-2.481-4.307-.885-1.115-3.079-3.411-5.551-4.066 0 0-1.069-.24-3.826.341s-5.948 1.826-10.512.47c-4.564-1.355-5.145-3.743-5.376-5.33-.24-1.585-.064-5.145 1.466-7.542 0 0 2.647 0 2.693-4.112 0 0-.277-2.914-2.61-2.914-.452-.019-1.125.36-1.125.36Z"/><path fill="#F5F5F5" d="M155.99 117.557s-6.869 4.712-7.718 10.964c-.848 6.261 1.384 6.842 0 9.156-1.383 2.315-3.55 11.139 1.264 17.686 4.693 6.39 10.392 5.191 10.392 5.191l17.612-34.246-21.55-8.751Z"/><path fill="#0C0553" d="m116.147 92.605.904 2.434-.415 1.116s-.581 2.619-1.291 3.624c0 0-2.674 1.014-3.892-1.42-1.217-2.444-.839-5.21-.839-5.21s1.365.341 3.892-.249c1.115-.267 1.641-.295 1.641-.295Z"/><path fill="#fff" d="M119.153 72.347c.018-.046.24 5.994 2.019 7.23.185.119 1.642-1.707 3.523-.508 1.881 1.199 1.281 3.882.83 4.915-.443 1.032-1.632 2.185-3.587 1.549 0 0-1.411 2.914-1.531 5.016-.129 2.102-.148 3.707.941 5.256 0 0-.083 2.14-1.734 2.397-1.66.258-2.065-1.503-2.065-1.503l-1.393-3.946s-3.688.857-5.154.618c-1.457-.24-2.997-1.439-3.523-3.117-.516-1.678-1.245-3.357-1.512-6.51a206.606 206.606 0 0 0-.673-6.492l13.398-1.014c0-.01.194-3.163.461-3.891Zm-8.585 62.933-2.351 6.473s-1.614-.572-3.283-1.226c-2.895-1.153-5.597-4.537-4.979-3.818.618.719 1.964 2.979 1.383 3.467-.903.747-2.73-.295-3.983-1.899-1.254-1.596-1.356-1.761-1.356-1.761s-1.604-.803-1.669-2.084c-.064-1.282.332-1.522 1.033-2.204.692-.673 1.688-1.328 1.688-1.328s-3.228-.599-5.515-1.402c-2.314-.811-2.526-1.669-2.24-2.231.285-.563.737-.692 2.581-.47 1.845.221 9.526 2.167 9.572 2.185.977.35 9.119 6.298 9.119 6.298Z"/><path fill="#216FF4" d="M169.435 142.315c-.508-1.171-1.208-2.102-1.006-3.347.277-1.715 2.287-2.877 3.237-4.325 1.042-1.576 1.42-3.374.618-5.108-.6-1.3-1.623-2.407-2.693-3.439-.719-.692-1.493-1.411-1.752-2.324-.156-.553-.11-1.143-.055-1.715.341-3.163 3.799-10.429-1.024-12.144-2.591-.922-4.287 3.458-4.619 4.961-.664 2.978.323 6.215-1.725 8.898-1.06 1.383-2.729 2.287-4.112 3.43-1.918 1.586-3.301 3.799-3.449 6.15-.129 2.112 1.605 3.781 1.513 5.828-.074 1.678-1.531 2.785-2.379 4.159-2.527 4.066.811 8.935 4.997 10.871 1.005.461 1.891.784 3.006.913l9.443-12.808Z"/><path fill="#216FF4" d="M177.964 133.823c-1.273-.563-2.813-.295-3.892 1.143-.811 1.079-1.189 2.407-1.641 3.67-.489 1.346-1.134 2.711-2.434 3.412-1.3.71-2.886.701-4.196 1.42-1.706.931-3.218 2.231-4.306 3.845-1.678 2.49-2.268 5.763-1.263 8.594 1.199 3.402 4.97 5.79 8.566 5.283 2.84-.396 5.247-2.563 6.409-5.191 1.161-2.628 1.217-5.634.673-8.456-.507-2.637 1.337-3.983 2.803-5.892 1.097-1.438 1.789-3.292 1.42-5.062-.277-1.328-1.116-2.314-2.139-2.766Z"/><path fill="#fff" d="M40.969 133.74c-1.134.802-1.706 2.259-1.033 3.928.507 1.245 1.448 2.259 2.296 3.301.904 1.116 1.734 2.37 1.67 3.845-.065 1.484-.895 2.831-.95 4.325-.074 1.936.248 3.909 1.07 5.67 1.262 2.721 3.761 4.915 6.703 5.524 3.531.728 7.524-1.264 8.953-4.611 1.125-2.637.507-5.818-1.134-8.169-1.65-2.352-4.195-3.947-6.888-4.943-2.517-.931-2.72-3.2-3.596-5.449-.664-1.679-1.89-3.228-3.596-3.827-1.3-.452-2.582-.24-3.495.406Zm57.298 8.299H88.244l-10.668-16.598h9.894l10.797 16.598Z"/><path fill="#fff" d="m79.41 128.401 2.232 3.43s3.476-.396 4.362-.424c.885-.028 3.052.12 3.264.765.212.646-.397 1.346-1.153 1.577 0 0 2.13-.286 2.582.47.461.756-.987 1.789-2.314 2.075 0 0 2.61-.636 3.024.369.415 1.005-2.84 2.895-5.219 3.273-2.379.388-2.619.212-3.753-.461-1.125-.673-2.656-3.707-2.969-4.444-.323-.747-.055-6.63-.055-6.63ZM40.794 3.034c1.844.959 3.43 2.434 4.748 4.066 2.914 3.633 5.293 8.022 6.907 12.384 1.53 4.15 2.61 8.298-.397 12.051-1.364 1.697-3.135 3.006-4.896 4.288-5.145 3.771-10.281 7.543-15.426 11.314-4.131 3.034-9.102 6.76-14.505 5.431-5.293-1.31-8.953-6.288-11.517-10.77a54.94 54.94 0 0 1-2.305-4.527c-.84-1.835-1.558-3.8-1.55-5.819.02-2.111.84-4.149 1.993-5.92 2.554-3.91 6.325-6.906 9.884-9.847 2.684-2.223 5.348-4.546 8.17-6.593 2.591-1.881 4.896-4.104 7.783-5.57 2.71-1.374 5.873-2.093 8.815-1.355.82.193 1.577.498 2.296.867Z"/><path fill="#216FF4" d="M20.95 20.886c-.405.156-.765.387-.913.746-.48 1.2 1.503 2.684 2.149 3.44.986 1.143 1.955 2.36 2.655 3.707.683 1.318 1.088 2.775 1.863 4.066.212.36.461.72.82.94.71.434 1.31-.027 1.734-.608a35.903 35.903 0 0 0 3.532-6.067c.802-1.752 1.964-3.716 1.65-5.726-.12-.775-.507-1.54-1.152-1.992-.812-.581-1.89-.6-2.886-.526-1.881.139-3.744.48-5.579.922-.913.221-1.826.48-2.73.747-.322.102-.756.194-1.143.35Z"/><path fill="#fff" d="M57.87 36.386c.065-.203.13-.406.185-.61.71-.294 1.41-.626 2.14-.884 3.503-1.273 6.703-.83 9.478 1.789 1.042.977 2.047 1.991 3.09 2.969 1.52 1.429 3.319 2.24 5.403 2.314 1.115.046 2.25-.046 3.365-.101 1.54-.074 3.043.027 4.454.737.71.36 1.346.803 1.798 1.476a.61.61 0 0 1 .083.59c-.387 1.06-.728 2.13-1.143 3.172-.526 1.328-1.024 2.674-1.67 3.946-1.023 1.992-2.609 3.348-4.868 3.781a9.61 9.61 0 0 1-3.873-.028 86.615 86.615 0 0 1-5.495-1.328c-3.09-.866-6.086-1.973-8.862-3.605-1.53-.904-2.95-1.955-4.038-3.384-1.135-1.484-1.642-3.144-1.3-5.007.258-1.374.571-2.73.857-4.094.13-.572.268-1.153.397-1.733Z"/><path fill="#0C0553" d="M89.812 39.594c-.12.295-.249.6-.36.867-.368-.36-.71-.784-1.124-1.097-1.264-.922-2.72-1.3-4.27-1.273-1.162.019-2.314.093-3.476.139-2.416.083-4.546-.655-6.316-2.324-1.042-.977-2.057-1.983-3.099-2.97-2.766-2.618-5.956-3.088-9.47-1.825-.7.25-1.383.572-2.111.867.72-2.637 1.494-5.044 2.656-7.312.664-1.31 1.429-2.555 2.526-3.569.811-.747 1.752-1.17 2.868-1.245 2.655-.175 5.293.01 7.902.47 1.678.305 3.347.71 5.016 1.07 1.503.415 2.739.793 3.974 1.171.554.222 1.107.434 1.66.655 1.208.489 2.388 1.033 3.449 1.798 1.826 1.319 2.73 3.09 2.536 5.348-.074.83-.268 1.641-.434 2.453-.138.682-.323 1.365-.48 2.047a479.86 479.86 0 0 1-1.447 4.73ZM83.8 27.552c-1.567-.553-3.255.424-3.762 1.872-.682 1.945.618 3.531 1.9 3.965 1.438.488 3.43-.23 3.946-2.158.378-1.41-.406-3.246-2.084-3.68ZM49.922 75.879c-.147-.646-.295-1.291-.433-1.928-.092-.249-.194-.497-.286-.756a24.682 24.682 0 0 0-5.744-8.926c-3.735-3.725-8.262-5.339-13.518-4.896-.793.065-1.595.185-2.389.277-.414.092-.839.184-1.263.286-.553.184-1.116.36-1.669.534-4.924 1.605-8.926 4.482-11.987 8.65-1.973 2.692-3.098 5.698-3.107 9.073 0 .756.083 1.512.12 2.26.165.728.331 1.456.488 2.184.102.25.194.498.295.757 1.107 3.033 2.831 5.68 5.044 8.022 3.32 3.513 7.35 5.459 12.245 5.394.867-.01 1.743-.12 2.61-.184.784-.176 1.567-.35 2.351-.535 2.637-.83 4.804-1.946 6.86-3.31 2.693-1.799 5.247-3.744 7.285-6.298 1.937-2.435 3.163-5.146 3.21-8.3.017-.765-.066-1.53-.112-2.304Z"/><path fill="#fff" d="M34.938 71.047c-.286-1.383-.839-2.61-1.982-3.523-1.568-1.245-3.569-1.337-5.238-.212-1.484.996-2.581 2.352-3.411 3.92-.148.276-.286.368-.59.35-1.236-.083-2.398.138-3.44.839-1.807 1.226-2.785 4.324-.608 6.399.857.82 1.77 1.558 2.821 2.102 2.434 1.273 4.933 2.38 7.58 3.135.59.166 1.208.24 1.816.295.876.074 1.54-.304 1.927-1.097.25-.516.489-1.051.618-1.595.775-3.264.996-6.565.664-9.903-.028-.23-.11-.47-.157-.71Zm67.046-28.29c-2.075-2.12-3.615-4.693-4.113-7.865a14.654 14.654 0 0 1-.064-4.067c.783-6.334 4.011-12.632 9.184-16.468 2.157-1.605 4.739-2.665 7.385-3.08 5.33-.82 10.752-.028 15.528 2.499 5.634 2.978 10.402 8.087 10.9 14.689.073.913.055 1.825-.019 2.738-.258 2.988-1.162 5.874-2.517 8.539-1.393 2.73-3.2 5.366-5.57 7.34-3.937 3.264-8.953 4.49-13.978 3.836-3.043-.397-5.976-1.374-8.733-2.711-2.904-1.411-5.772-3.172-8.003-5.45Z"/><path fill="#216FF4" d="M127.046 41.466c-1.319 1.134-2.969 1.945-4.546 1.079-1.992-1.107-3.993-2.214-5.901-3.458-2.038-1.328-3.984-2.822-5.966-4.242-1.522-1.236-1.964-2.619-1.19-4.361.461-1.042.821-2.13 1.217-3.21.581-1.576 1.725-2.434 3.347-2.729 2.213-.396 4.39-.922 6.446-1.88 1.567-.73 2.692-1.873 3.596-3.302.526-.83 1.125-1.613 1.734-2.388.378-.48.903-.747 1.558-.655.867.12 1.438.646 1.328 1.494-.185 1.457-.471 2.905-.793 4.343-.24 1.097-.637 2.158-.895 3.246-.249 1.051-.009 1.365.932 1.881 1.235.682 2.462 1.392 3.623 2.204 1.107.774 1.384 1.844.895 3.172-.931 2.517-2.066 5.044-3.781 7.128a12.26 12.26 0 0 1-1.604 1.678Z"/><path fill="#fff" d="m99.005 141.384-.737.655-10.798-16.598-9.83-.064 1.052-.452h9.543l10.77 16.459ZM84.565 32.623a3.059 3.059 0 0 1-4.214 1.006 3.059 3.059 0 0 1-1.005-4.214 3.059 3.059 0 0 1 4.214-1.006 3.067 3.067 0 0 1 1.005 4.214Zm15.777 49.24c-1.217-.397-2.379-.84-3.578-1.153-1.678-.443-3.31.019-4.85.59-2.655.978-5.283 2.02-7.865 3.172-3.486 1.559-7.045 2.914-10.743 3.891-1.816.48-3.614 1.07-5.458 1.411-2.48.452-4.565-.498-6.114-2.406-2.554-3.145-3.412-6.796-2.812-10.78.203-1.346.959-2.416 2.102-3.135 2.665-1.687 5.579-2.877 8.474-4.103 4.537-1.936 9.147-3.633 13.868-5.044 2.49-.747 4.998-1.457 7.617-1.623 2.075-.138 3.762.673 5.136 2.185 1.65 1.808 2.268 4.085 2.85 6.372.885 3.458 1.143 6.999 1.373 10.54.019.055-.009.12 0 .083Z"/><path fill="#fff" d="M79.632 76.653c-.858.895-2.195.978-3.015.185-.793-.766-.784-1.918.027-2.767.766-.811 2.112-.876 2.896-.147.793.747.839 1.955.092 2.73Zm8.566-7.663c.793.656.941 1.882.314 2.647-.802.996-2.185 1.153-3.126.35-.7-.59-.793-1.871-.184-2.627.756-.922 2.12-1.098 2.996-.37Zm-22.849 7.304c.82-.895 2.176-.996 3.015-.212.71.654.784 1.927.157 2.628-.867.968-2.213 1.088-3.09.267-.783-.72-.81-1.881-.082-2.683Z"/><path fill="#0C0553" d="M17.907 51.535a9.66 9.66 0 0 1-2.333-.286C9.876 49.848 6.17 44.361 3.882 40.35a54.796 54.796 0 0 1-2.314-4.546C.784 34.08-.018 32.033 0 29.866c.019-1.946.72-4.048 2.038-6.067 2.425-3.698 5.902-6.584 9.276-9.36l.664-.553c.581-.48 1.162-.968 1.743-1.457l.977-.82c.12-.093.295-.083.388.037a.269.269 0 0 1-.037.387l-.978.82c-.58.49-1.161.978-1.752 1.457l-.664.554C8.319 17.62 4.87 20.47 2.49 24.103 1.227 26.03.554 28.03.535 29.875c-.018 2.056.756 4.039 1.522 5.699a56.606 56.606 0 0 0 2.296 4.5c2.24 3.918 5.855 9.285 11.35 10.631 5.192 1.282 10.116-2.342 14.08-5.246l15.612-11.453c1.715-1.254 3.494-2.563 4.84-4.241 2.97-3.707 1.799-7.857.351-11.785-1.687-4.555-4.057-8.815-6.86-12.31-1.43-1.789-2.997-3.126-4.657-3.992a9.954 9.954 0 0 0-2.204-.849c-2.59-.645-5.652-.175-8.63 1.337-1.752.886-3.301 2.075-4.74 3.21a.277.277 0 0 1-.387-.047.277.277 0 0 1 .046-.387c1.457-1.153 3.034-2.36 4.832-3.264C31.075.11 34.274-.38 36.995.295a10.65 10.65 0 0 1 2.333.894c1.724.894 3.347 2.296 4.831 4.14 2.84 3.541 5.247 7.847 6.953 12.458 1.503 4.075 2.71 8.381-.443 12.319-1.392 1.742-3.2 3.061-4.942 4.343l-15.62 11.47c-3.467 2.546-7.663 5.616-12.2 5.616Z"/><path fill="#0C0553" d="M25.874 34.31c-.24 0-.47-.073-.7-.211-.406-.25-.683-.646-.913-1.033-.443-.747-.775-1.55-1.089-2.324-.24-.59-.488-1.198-.783-1.76-.71-1.366-1.715-2.61-2.62-3.652a9.747 9.747 0 0 0-.543-.554c-.885-.866-2.102-2.056-1.66-3.172.157-.387.507-.682 1.06-.903.277-.11.563-.185.821-.25a62.432 62.432 0 0 1 3.08-.848c2.02-.497 3.863-.802 5.615-.93.259-.02.517-.028.775-.028.987 0 1.715.193 2.296.599.664.47 1.125 1.263 1.263 2.176.277 1.78-.553 3.522-1.29 5.062-.13.277-.259.554-.388.812a36.481 36.481 0 0 1-3.55 6.122c-.406.6-.876.895-1.374.895Zm3.052-15.112c-.24 0-.488.009-.728.027-1.724.13-3.532.434-5.533.913a49.85 49.85 0 0 0-2.72.747c-.6.166-.867.24-1.116.332-.415.166-.654.36-.756.59-.313.775.802 1.854 1.53 2.573.231.221.434.424.573.59.913 1.06 1.954 2.342 2.683 3.753.304.59.562 1.208.802 1.807.304.756.627 1.53 1.051 2.241.185.304.406.655.729.848.553.332 1.07-.12 1.364-.535a35.981 35.981 0 0 0 3.504-6.02c.12-.268.259-.545.388-.821.737-1.54 1.493-3.126 1.245-4.74-.12-.765-.498-1.43-1.043-1.817-.47-.331-1.097-.488-1.973-.488Zm48.742 34.919a9.969 9.969 0 0 1-2.028-.212c-2.14-.451-3.892-.876-5.514-1.337-3.597-1.014-6.437-2.166-8.926-3.633-1.835-1.07-3.136-2.167-4.113-3.448-1.245-1.623-1.697-3.384-1.346-5.229.184-.995.396-1.991.618-2.987l.24-1.116c.082-.378.165-.747.248-1.125l.332-1.245c.388-.267.609-.368.84-.46.479-.204.968-.425 1.465-.6 3.744-1.356 7.027-.729 9.756 1.853.498.47.987.95 1.485 1.42.535.517 1.07 1.033 1.614 1.55 1.502 1.41 3.264 2.166 5.228 2.24.903.037 1.835-.018 2.73-.064l.617-.037c.277-.01.544-.019.82-.019 1.504 0 2.702.25 3.772.784.867.434 1.466.931 1.9 1.568.184.267.22.534.11.83-.147.405-.286.811-.433 1.226-.23.655-.461 1.319-.71 1.964l-.24.609c-.433 1.115-.885 2.268-1.448 3.356-1.115 2.176-2.812 3.495-5.062 3.919-.655.129-1.31.194-1.955.194Zm-20.01-20.036-.147.479-.138.6c-.083.368-.175.746-.249 1.115l-.24 1.116c-.212.986-.433 1.973-.618 2.969-.313 1.687.102 3.292 1.245 4.795.932 1.226 2.195 2.277 3.956 3.31 2.453 1.438 5.247 2.573 8.797 3.578 1.613.452 3.356.876 5.477 1.328a9.392 9.392 0 0 0 3.762.018c2.075-.397 3.652-1.614 4.675-3.633.544-1.06.987-2.204 1.42-3.31l.24-.609c.249-.636.48-1.29.7-1.936.139-.415.287-.82.434-1.227-.424-.894-.968-1.328-1.743-1.724-.995-.498-2.111-.728-3.522-.728-.267 0-.526.009-.793.018l-.609.037c-.913.046-1.853.101-2.784.065-2.103-.084-3.984-.886-5.579-2.389-.544-.516-1.079-1.033-1.623-1.549-.489-.48-.977-.95-1.475-1.42-2.582-2.434-5.653-3.015-9.193-1.733-.48.175-.969.387-1.439.59-.175.083-.36.166-.553.24Z"/><path fill="#0C0553" d="M88.152 39.935a2.147 2.147 0 0 1-.534-.433c-.24-.249-.48-.516-.757-.71-1.115-.812-2.452-1.226-3.974-1.226-.82.009-1.512.046-2.213.073-.46.019-.922.046-1.383.056-2.526.092-4.73-.72-6.52-2.398-.562-.525-1.106-1.06-1.659-1.586-.48-.46-.959-.922-1.438-1.383-2.582-2.443-5.662-3.034-9.194-1.761a19.5 19.5 0 0 0-1.401.572c-.23.101-.461.193-.692.295.323-2.868 1.107-5.348 2.305-7.69.563-1.107 1.365-2.518 2.582-3.643a4.813 4.813 0 0 1 3.043-1.318c2.6-.166 5.284-.01 7.967.48 1.153.202 2.305.47 3.43.718l1.605.36c.249.028 3.992 1.18 3.992 1.18l1.678.664c1.006.406 2.315.978 3.504 1.835 1.955 1.41 2.85 3.292 2.647 5.597-.055.682-.203 1.365-.341 2.029l-.093.452a38.3 38.3 0 0 1-.332 1.429l-.156.627-1.457 4.721-.369.894c-.203.166-.221.166-.24.166Zm-5.265-2.923c1.641 0 3.09.452 4.297 1.328.314.23.581.507.83.784.037.046.24-.434.24-.434l1.447-4.684.148-.617c.11-.47.23-.932.323-1.402l.092-.461c.138-.646.276-1.31.332-1.964.184-2.093-.627-3.808-2.416-5.1-1.143-.82-2.416-1.373-3.393-1.77l-1.66-.664-3.68-1.134a26.996 26.996 0 0 1-1.853-.387c-1.115-.249-2.268-.507-3.402-.72a32.284 32.284 0 0 0-7.838-.47c-1.033.065-1.918.452-2.702 1.171-1.143 1.06-1.89 2.352-2.462 3.486-1.115 2.185-1.871 4.518-2.517 6.731.692-.295 1.153-.498 1.632-.664 3.725-1.337 7.017-.7 9.756 1.881.489.461.959.922 1.438 1.384.544.525 1.098 1.06 1.65 1.586 1.68 1.576 3.745 2.332 6.124 2.25l1.374-.056c.7-.037 1.401-.064 2.102-.074h.138Zm-1.337-4.01c-.35 0-.691-.056-1.005-.158-.82-.276-1.55-.93-1.946-1.742-.387-.803-.433-1.688-.129-2.573.443-1.282 1.752-2.204 3.108-2.204.341 0 .682.056 1.005.166.784.203 1.457.729 1.89 1.466.452.775.59 1.725.369 2.545-.461 1.725-1.983 2.5-3.292 2.5Zm.037-6.133c-1.134 0-2.222.775-2.591 1.835-.323.932-.12 1.688.101 2.149.332.673.96 1.235 1.633 1.466.258.083.543.129.83.129 1.097 0 2.378-.646 2.756-2.093a2.875 2.875 0 0 0-.313-2.121c-.36-.618-.913-1.051-1.577-1.217a2.48 2.48 0 0 0-.839-.148ZM27.479 95.224c-4.657 0-8.77-1.844-12.209-5.486-2.314-2.444-4.03-5.173-5.099-8.114-.064-.176-.138-.36-.203-.535-.083-.212-.59-2.435-.59-2.435a55.065 55.065 0 0 0-.055-.747 22.29 22.29 0 0 1-.074-1.576c.01-3.274 1.07-6.381 3.163-9.23 3.07-4.196 7.155-7.137 12.116-8.751l1.678-.535 1.282-.295c.277-.037.526-.065.774-.101a33.406 33.406 0 0 1 1.651-.185c5.348-.442 9.977 1.227 13.73 4.98 2.591 2.59 4.555 5.624 5.81 9.017l.285.757.443 1.964c.018.285.037.525.055.756.037.525.074 1.07.065 1.613-.047 2.997-1.116 5.764-3.274 8.465-2.167 2.72-4.933 4.74-7.349 6.353-2.25 1.503-4.435 2.555-6.667 3.219-.23.11-2.637.663-2.637.663-.313.028-.59.056-.857.074-.59.055-1.2.11-1.808.12l-.23.01Zm4.122-37.51c-.535 0-1.089.027-1.633.073a33.12 33.12 0 0 0-1.622.185c-.25.027-.498.064-.747.092l-1.227.277-1.65.535c-4.86 1.576-8.843 4.453-11.85 8.547-2.018 2.757-3.051 5.754-3.051 8.908 0 .507.037 1.032.073 1.54.019.24.037.47.047.71l.562 2.314c.074.184.138.36.212.544 1.042 2.868 2.72 5.533 4.98 7.92 3.328 3.523 7.302 5.312 11.811 5.312.821-.01 1.42-.065 2.001-.12.277-.028.554-.055.83-.074l2.324-.544c2.407-.756 4.546-1.78 6.75-3.255 2.379-1.586 5.099-3.577 7.22-6.233 2.074-2.61 3.107-5.265 3.153-8.133.01-.516-.027-1.051-.064-1.567a18.66 18.66 0 0 1-.047-.72l-.433-1.88-.276-.72a24.38 24.38 0 0 0-5.69-8.824c-3.264-3.246-7.192-4.887-11.674-4.887Z"/><path fill="#0C0553" d="M33.777 84.215c-.812-.055-1.476-.138-2.112-.314-2.407-.691-4.832-1.696-7.635-3.153-.95-.498-1.863-1.18-2.877-2.148-.959-.913-1.42-2.121-1.31-3.403.111-1.374.867-2.683 1.965-3.421 1.023-.692 2.231-.987 3.614-.894.176 0 .222-.01.323-.203.922-1.734 2.066-3.052 3.504-4.02 1.734-1.162 3.928-1.08 5.56.22 1.07.849 1.725 2.02 2.075 3.68.101.387.148.562.157.747.332 3.375.11 6.731-.664 9.995-.139.59-.397 1.134-.646 1.65-.387.821-1.07 1.264-1.954 1.264Zm-8.853-12.808c-1.078 0-2 .268-2.812.812-.95.636-1.623 1.825-1.724 3.015-.065.784.074 1.936 1.143 2.96.978.931 1.854 1.586 2.757 2.056 2.767 1.448 5.164 2.434 7.534 3.117.59.166 1.226.24 1.77.285.766.074 1.319-.248 1.65-.94.231-.489.47-1.005.6-1.54.765-3.2.987-6.5.655-9.82-.019-.148-.056-.295-.093-.443-.378-1.77-.977-2.83-1.936-3.596-1.457-1.153-3.375-1.226-4.915-.194-1.355.913-2.443 2.158-3.32 3.818-.128.249-.322.498-.755.498a7.53 7.53 0 0 0-.554-.028Zm150.725 12.19c-.193-.083-3.218-3.108-3.218-3.108a.267.267 0 0 1 0-.387.267.267 0 0 1 .387 0l3.025 3.024a.267.267 0 0 1 0 .388.28.28 0 0 1-.194.083Z"/><path fill="#0C0553" d="M172.625 83.597c-.305-.185-.305-.36-.194-.47l3.025-3.025c.11-.11.276-.11.387 0a.267.267 0 0 1 0 .387l-3.025 3.025a.28.28 0 0 1-.193.083Zm6.611-4.897a1.141 1.141 0 0 1-1.143-1.134c0-.627.516-1.134 1.143-1.134s1.144.507 1.144 1.134a1.148 1.148 0 0 1-1.144 1.135Zm0-1.724a.594.594 0 0 0-.59.59c0 .323.267.59.59.59.323 0 .59-.267.59-.59a.594.594 0 0 0-.59-.59ZM16.137 121.135a1.133 1.133 0 1 1 0-2.268 1.14 1.14 0 0 1 1.143 1.134 1.14 1.14 0 0 1-1.143 1.134Zm0-1.724a.594.594 0 0 0-.59.59c0 .323.267.59.59.59.323 0 .59-.267.59-.59a.594.594 0 0 0-.59-.59Zm97.345-29.885c-1.208 0-2.158-.682-2.342-1.319-.102-.36-.056-.7.147-.968.295-.387.876-.58 1.494-.46.304.054.517.082.655.082.442-.184.507-.23.682-.94.175-.692.692-1.18 1.254-1.18.258 0 .507.1.729.294.332.286.498.867.442 1.559-.073 1.023-.599 1.936-1.392 2.443a3.112 3.112 0 0 1-1.669.489Zm-1.07-2.24c-.304 0-.562.1-.691.276-.102.129-.12.295-.065.489.111.387.858.93 1.817.93.488 0 .959-.137 1.383-.414.645-.415 1.069-1.171 1.134-2.02.046-.571-.101-.968-.258-1.106-.415-.36-.941-.018-1.097.609-.203.802-.323.977-.637 1.18-.258.166-.442.249-1.337.083a1.141 1.141 0 0 0-.249-.028Zm43.578 33.636c-2.664-6.039-7.69-16.782-8.566-18.063-.95-1.402-1.872-2.591-4.269-4.104-1.918-1.207-3.882-.746-6.362-.166-2.831.664-6.363 1.494-11.25.194-2.434-.645-4.076-1.918-4.896-3.771-1.789-4.039.931-9.369 1.051-9.6a.278.278 0 0 1 .369-.12.28.28 0 0 1 .12.37c-.028.055-2.711 5.33-1.033 9.12.756 1.696 2.277 2.867 4.537 3.466 4.748 1.263 8.206.452 10.982-.203 2.609-.617 4.675-1.097 6.777.23 2.48 1.569 3.476 2.859 4.426 4.261.885 1.3 5.948 12.107 8.363 17.999a.279.279 0 0 1-.147.36.192.192 0 0 1-.102.027Zm-8.151 38.286c-18.146 0-40.987-12.974-41.245-13.121-.12-.332 4.362-12.697 4.362-12.697.046-.13.193-.213.322-.176l36.063 9.055a.275.275 0 1 1-.129.535l-35.814-8.999-4.324 11.913c2.6 1.448 29.497 16.127 47.1 12.31a.267.267 0 0 1 .323.212c.037.147-.065.295-.212.332-2.038.433-4.205.636-6.446.636Z"/><path fill="#0C0553" d="M122.952 85.957c-.406 0-.876-.074-1.402-.25a.275.275 0 0 1-.175-.35.263.263 0 0 1 .35-.166c1.042.36 1.928.286 2.628-.203.913-.645 1.319-1.9 1.328-2.858 0-.738-.157-3.135-2.37-3.19-1.355 0-2.093 1.438-2.102 1.456a.266.266 0 0 1-.369.12.266.266 0 0 1-.12-.369c.037-.073.904-1.76 2.554-1.76 2.213.055 2.97 1.963 2.97 3.743-.01 1.014-.415 2.49-1.559 3.301a2.996 2.996 0 0 1-1.733.526Z"/><path fill="#0C0553" d="M123.754 84.168c-.129-.028-2.296-1.162-2.296-1.162-.074-.424 2.25-2.996 2.25-2.996a.275.275 0 0 1 .387-.019c.111.102.12.277.019.387l-2.094 2.306 1.854.968c.138.073.184.24.12.369a.277.277 0 0 1-.24.147Zm-11.904 9.535c-.369 0-.71-.028-1.051-.093-1.503-.267-2.619-1.217-3.412-2.886-1.217-2.554-1.531-5.394-1.835-8.151-.157-1.411-.544-5.127-.535-5.238a.273.273 0 0 1 .314-.23.273.273 0 0 1 .23.313c.01.083.277 2.785.489 4.721.341 3.08.655 5.883 1.835 8.345.71 1.494 1.697 2.343 3.015 2.582.793.148 1.706.092 2.868-.147 1.383-.295 2.49-.59 3.467-.922a.275.275 0 0 1 .35.175.275.275 0 0 1-.175.35c-1.005.341-2.121.636-3.531.94-.757.157-1.42.24-2.029.24Z"/><path fill="#0C0553" d="M110.919 86.27c-.627-.064-2.591-.304-2.942-.95a.547.547 0 0 1 0-.506c1.937-3.716 2.084-5.966 2.084-5.994a.274.274 0 0 1 .277-.258c.166.01.286.138.276.286-.009.092-.138 2.379-2.148 6.215.083.221 1.272.535 2.48.654a.285.285 0 0 1 .249.305.286.286 0 0 1-.276.249Zm-5.496-7.118c-.268-.11-.314-.276-.24-.405.028-.046.738-1.227 2.914-.895a.272.272 0 0 1 .23.314c-.018.147-.165.249-.313.23-1.789-.267-2.333.59-2.351.627a.291.291 0 0 1-.24.13Zm10.3-.405c-.258-.166-1.236-1.42-3.587-.904a.274.274 0 0 1-.323-.212c-.037-.147.065-.295.212-.332 2.72-.59 3.882.94 3.928 1.005a.279.279 0 0 1-.055.388.303.303 0 0 1-.175.055Zm-1.761 2.978a.376.376 0 0 0 .359-.406l-.046-1.07a.377.377 0 0 0-.406-.36.376.376 0 0 0-.359.406l.055 1.08a.373.373 0 0 0 .397.35Zm-6.501.516a.376.376 0 0 0 .359-.406l-.055-1.078a.377.377 0 0 0-.406-.36.376.376 0 0 0-.359.406l.055 1.079a.382.382 0 0 0 .406.36Z"/><path fill="#0C0553" d="M149.508 106.39a.28.28 0 0 1-.277-.295c.406-5.431-1.161-6.537-2.674-7.598-1.143-.802-2.323-1.632-2.286-4.306.083-5.588-4.426-5.874-9.636-6.215-5.865-.378-6.566-12.743-6.602-18.045a1.75 1.75 0 0 0-.102-.59c-.277-.766-.987-1.07-1.743-1.383-6.417-2.702-12.097-2.96-16.92-.803-2.563 1.153-5.616 3.126-5.606 5.966.009 3.44.11 4.067.138 4.168-.074.378-.24.433-.378.36-.157-.083-.295-.157-.314-4.528-.009-2.48 2.047-4.72 5.929-6.464 4.961-2.231 10.789-1.973 17.327.784.829.35 1.724.729 2.083 1.724.083.24.13.498.13.775.027 4.011.534 17.142 6.039 17.492 5.081.323 10.291.664 10.208 6.768-.037 2.38.931 3.062 2.047 3.845 1.567 1.098 3.338 2.342 2.904 8.087a.259.259 0 0 1-.267.258Zm-27.413-2.055c-2.398-.231-3.237-2.001-3.587-3.587-.268 1.18-.747 2.323-1.605 2.397-.369.028-.682-.12-.913-.433-.83-1.107-.525-4.38.72-7.617a.279.279 0 0 1 .359-.157.28.28 0 0 1 .157.36c-1.273 3.329-1.402 6.279-.793 7.091.12.157.267.23.424.212.848-.065 1.346-2.6 1.429-4.38.009-.166.129-.286.286-.277.148.01.268.139.258.286-.009.175-.175 5.229 2.96 5.551 3.394.019 5.736-4.868 5.754-4.915a.27.27 0 0 1 .369-.129c.138.065.194.23.129.37-.101.202-2.517 5.228-5.947 5.228Zm21.659 37.593c-.295-.295-3.624-10.558-9.138-24.897a.283.283 0 0 1 .157-.359.279.279 0 0 1 .36.157c5.523 14.356 8.852 24.629 8.889 24.73a.272.272 0 0 1-.176.341.195.195 0 0 1-.092.028Zm-32.347 20.508a.279.279 0 0 1-.276-.286l.368-13.601c0-.157.12-.286.286-.267.148 0 .268.129.268.285l-.369 13.601a.282.282 0 0 1-.277.268Zm39.143.036c-.268-.194-1.273-3.504-1.273-3.504a.27.27 0 0 1 .185-.341.27.27 0 0 1 .341.184l1.014 3.311a.27.27 0 0 1-.184.341c-.028.009-.055.009-.083.009Z"/><path fill="#0C0553" d="M110.771 134.994c-.277-.184-5.09-7.183-4.306-14.089.747-6.612 5.339-20.231 9.912-24.768a.268.268 0 0 1 .388 0 .27.27 0 0 1 0 .388c-4.343 4.315-9.009 17.87-9.756 24.435-.756 6.703 3.946 13.527 3.993 13.601a.276.276 0 0 1-.065.378.24.24 0 0 1-.166.055Zm-12.531 7.321h-9.959c-.23-.129-1.687-2.369-1.687-2.369a.27.27 0 0 1 .083-.378.27.27 0 0 1 .378.083l1.374 2.12h9.304l-10.42-16.053h-9.322l3.882 5.966a.27.27 0 0 1-.083.378.27.27 0 0 1-.378-.083l-4.159-6.39c.23-.424 10.208-.424 10.208-.424.23.129 11.01 16.726 11.01 16.726-.037.369-.13.424-.231.424Z"/><path fill="#0C0553" d="M98.24 142.315c-.314-.249-.277-.415-.157-.498l.544-.369-10.549-16.247h-9.331l-1.153.498a.27.27 0 0 1-.36-.147.279.279 0 0 1 .148-.36l1.199-.516c.11-.019 9.654-.019 9.654-.019.23.129 11.01 16.727 11.01 16.727a.277.277 0 0 1-.074.378l-.765.516a.523.523 0 0 1-.166.037Zm8.889 18.083c-.277 0-.572-.01-.876-.028-5.883-.387-18.903-17.151-19.456-17.861.073-.396 1.097-1.051 1.097-1.051a.27.27 0 0 1 .378.083.27.27 0 0 1-.083.378l-.775.489c1.632 2.084 13.592 17.068 18.866 17.418 2.103.129 3.624-.24 4.408-1.088.719-.775.59-1.688.581-1.724a.285.285 0 0 1 .23-.314.264.264 0 0 1 .314.231c.009.046.175 1.189-.71 2.166-.775.858-2.112 1.301-3.974 1.301Zm-1.568-28.456a.285.285 0 0 1-.276-.249c0-.018-.176-2.102-.443-11.102-.267-9.091 9.037-21.245 9.433-21.761a.277.277 0 0 1 .387-.046c.12.092.139.267.046.387-.092.12-9.58 12.513-9.313 21.411.268 8.972.434 11.056.434 11.074.009.148-.102.286-.249.295 0-.009-.009-.009-.019-.009Zm-30.254 30.576c-20.83-.046-35.666-.092-35.666-.092a.277.277 0 0 1 0-.553s14.827.046 35.657.092c.157 0 .277.12.277.276a.259.259 0 0 1-.268.277Zm78.083 0a.278.278 0 0 1-.277-.277c0-.147.12-.276.277-.276l18.322-.092a.27.27 0 0 1 .276.276.277.277 0 0 1-.276.277l-18.322.092Zm4.435-10.677c-1.189-.129-2.102-.471-3.116-.932-2.739-1.263-4.989-3.697-5.745-6.214-.535-1.78-.313-3.532.627-5.054.268-.433.599-.839.913-1.235.71-.885 1.374-1.715 1.429-2.785.046-.94-.332-1.807-.728-2.72-.424-.968-.858-1.973-.784-3.117.148-2.296 1.438-4.61 3.55-6.344.258-.212.516-.415.784-.608a.278.278 0 0 1 .387.055.278.278 0 0 1-.055.387c-.258.194-.517.388-.756.59-1.992 1.642-3.218 3.818-3.357 5.957-.064 1.005.323 1.909.738 2.859.406.931.821 1.899.774 2.969-.055 1.254-.811 2.194-1.549 3.107-.304.378-.627.775-.876 1.181-.857 1.383-1.06 2.978-.571 4.601.71 2.37 2.849 4.675 5.449 5.873.968.443 1.835.766 2.923.886a.277.277 0 0 1 .24.304.278.278 0 0 1-.277.24Z"/><path fill="#0C0553" d="M157.825 151.841c-1.189-.129-2.102-.471-3.116-.932-2.739-1.263-4.989-3.697-5.745-6.214-.535-1.78-.313-3.532.627-5.054.268-.433.599-.839.913-1.235.71-.885 1.374-1.715 1.429-2.785.046-.94-.332-1.807-.728-2.72-.424-.968-.858-1.973-.784-3.117.148-2.296 1.438-4.61 3.55-6.344.258-.212.516-.415.784-.608a.278.278 0 0 1 .387.055.278.278 0 0 1-.055.387c-.258.194-.517.388-.756.59-1.992 1.642-3.218 3.818-3.357 5.957-.064 1.005.323 1.909.738 2.859.406.931.821 1.899.774 2.969-.055 1.254-.811 2.194-1.549 3.107-.304.378-.627.775-.876 1.181-.857 1.383-1.06 2.978-.571 4.601.71 2.37 2.849 4.675 5.449 5.873.968.443 1.835.766 2.923.886a.277.277 0 0 1 .24.304.278.278 0 0 1-.277.24Zm9.876-11.084c-.36-.424-.489-.664-.599-.904-.434-.876-.839-1.705-.674-2.757.185-1.171 1.098-2.074 1.965-2.95.497-.498.977-.969 1.309-1.476.756-1.152 1.475-2.932.599-4.841-.59-1.281-1.613-2.369-2.637-3.356-.811-.784-1.549-1.503-1.826-2.453-.175-.599-.129-1.208-.055-1.826.083-.756.332-1.733.599-2.775.904-3.495 2.02-7.847-1.447-9.073-.517-.185-1.005-.139-1.503.129-1.485.82-2.499 3.467-2.767 4.629-.23 1.023-.258 2.111-.285 3.162-.037 1.337-.074 2.73-.517 4.03a.283.283 0 0 1-.35.175.274.274 0 0 1-.175-.35c.424-1.227.451-2.508.488-3.864.028-1.079.056-2.194.295-3.273.222-.987 1.254-4.002 3.034-4.989.636-.35 1.291-.406 1.955-.166 3.937 1.402 2.692 6.215 1.789 9.737-.258 1.015-.507 1.983-.59 2.693-.065.562-.102 1.106.046 1.614.23.802.922 1.475 1.586 2.111 1.152 1.116 2.222 2.25 2.849 3.615.775 1.696.553 3.55-.636 5.376-.369.553-.876 1.069-1.383 1.567-.812.812-1.651 1.651-1.817 2.647-.138.876.212 1.595.627 2.425.12.249.249.498.36.765a.268.268 0 0 1-.139.36.331.331 0 0 1-.101.018Z"/><path fill="#0C0553" d="M166.087 159.705c-3.411 0-6.722-2.323-7.856-5.532-.987-2.794-.489-6.178 1.3-8.834 1.061-1.577 2.582-2.941 4.399-3.937.691-.378 1.447-.563 2.176-.747.719-.175 1.392-.341 2.01-.673 1.217-.664 1.826-1.964 2.305-3.264.083-.212.157-.434.231-.655.368-1.06.756-2.167 1.447-3.089.738-.987 1.752-1.531 2.85-1.531.47 0 .931.102 1.383.295 1.162.517 2.019 1.623 2.296 2.97.35 1.678-.194 3.605-1.476 5.283-.295.387-.608.747-.913 1.107-1.189 1.392-2.222 2.591-1.844 4.564.618 3.218.388 6.196-.691 8.612-1.291 2.905-3.827 4.961-6.621 5.358a5.852 5.852 0 0 1-.996.073Zm8.871-27.708c-.922 0-1.771.461-2.407 1.309-.645.858-1.014 1.918-1.374 2.941-.074.222-.157.443-.23.655-.517 1.411-1.181 2.813-2.554 3.569-.683.368-1.43.553-2.149.728-.728.175-1.42.35-2.047.692-1.743.959-3.2 2.259-4.214 3.762-1.697 2.517-2.167 5.717-1.236 8.345 1.061 2.996 4.15 5.163 7.34 5.163.314 0 .627-.018.941-.064 2.572-.36 4.998-2.333 6.187-5.035 1.024-2.314 1.254-5.182.655-8.289-.434-2.241.728-3.597 1.964-5.026.295-.35.608-.71.894-1.088 1.19-1.549 1.688-3.31 1.374-4.832-.24-1.18-.987-2.139-1.982-2.581a2.865 2.865 0 0 0-1.162-.249Zm-122.73 27.266a8.155 8.155 0 0 1-1.559-.156c-2.904-.6-5.55-2.776-6.897-5.68-.802-1.725-1.18-3.735-1.097-5.8.028-.784.267-1.531.489-2.25.22-.71.433-1.374.46-2.075.065-1.383-.737-2.582-1.613-3.661-.138-.175-.286-.35-.434-.525-.719-.867-1.466-1.771-1.899-2.85-.664-1.641-.221-3.31 1.125-4.25 1.033-.729 2.434-.895 3.734-.434 1.623.572 2.988 2.029 3.763 3.993.175.452.332.913.47 1.355.433 1.31.839 2.545 1.862 3.338.12.093.139.268.047.388a.278.278 0 0 1-.388.046c-1.162-.904-1.595-2.213-2.047-3.606-.147-.433-.295-.885-.46-1.327-.71-1.817-1.965-3.154-3.431-3.67-1.134-.397-2.342-.259-3.236.368-1.144.803-1.503 2.186-.932 3.597.406.995 1.116 1.862 1.817 2.701.147.176.295.351.433.535.94 1.162 1.798 2.462 1.734 4.03-.037.774-.268 1.503-.49 2.213-.22.719-.433 1.392-.46 2.111-.083 1.983.286 3.901 1.051 5.551 1.282 2.748 3.771 4.804 6.51 5.367 3.467.719 7.275-1.245 8.64-4.445 1.014-2.379.58-5.486-1.107-7.902a11.44 11.44 0 0 0-2.13-2.268.269.269 0 0 1-.036-.388.268.268 0 0 1 .387-.036c.876.719 1.632 1.512 2.231 2.379 1.826 2.609 2.269 5.836 1.162 8.437-1.263 2.941-4.454 4.914-7.7 4.914Z"/><path fill="#0C0553" d="M58.47 162.26c-4.214-7.303-15.897-27.783-16.017-27.995a.282.282 0 0 1 .102-.378.285.285 0 0 1 .378.102c.12.203 11.803 20.691 15.777 27.856a.277.277 0 0 1-.11.378.21.21 0 0 1-.13.037Zm96.884.286c-.203-.037-.295-.175-.267-.323l9.156-49.203a.276.276 0 0 1 .323-.221.28.28 0 0 1 .221.323l-9.156 49.202a.294.294 0 0 1-.277.222Zm5.69.129c-.259-.102-.314-.268-.24-.406l14.172-26.879c.065-.138.231-.184.369-.11.129.073.185.239.111.368l-14.173 26.879c-.037.093-.138.148-.239.148Zm-41.891-64.132a1.47 1.47 0 0 1-.71-.175c-.839-.433-1.171-1.577-1.337-2.13-.443-1.41-1.208-3.375-1.217-3.393a.282.282 0 0 1 .156-.36.28.28 0 0 1 .36.157c.009.019.784 2.001 1.18 3.273.185.646.48 1.633 1.107 1.964.258.139.562.148.922.028 1.512-.516 1.466-2.157 1.466-2.176a.277.277 0 0 1 .267-.286c.129.01.277.11.286.268 0 .018.056 2.074-1.835 2.72-.23.073-.442.11-.645.11Zm-6.575 1.872a3.166 3.166 0 0 1-1.835-.562c-1.512-1.07-2.166-3.54-1.945-7.34a.274.274 0 0 1 .276-.258c.166.01.286.138.277.286-.203 3.54.387 5.91 1.715 6.85 1.199.849 2.637.268 2.647.268.129-.055.295.01.359.148a.277.277 0 0 1-.147.359c-.046.028-.6.249-1.347.249ZM84.51 125.202c-.267-.111-.314-.277-.24-.415 1.43-2.481 2.333-6.741 1.134-10.669-.793-2.591-2.406-4.546-4.665-5.652-3.726-1.826-5.644-3.79-5.699-5.856-.055-2.056 1.761-4.149 5.413-6.196 3.024-1.706 6.943-1.955 11.48-2.25 4.306-.276 9.184-.6 14.735-2.14a.283.283 0 0 1 .341.195.283.283 0 0 1-.194.34c-5.606 1.559-10.512 1.882-14.845 2.158-4.472.286-8.327.544-11.25 2.186-3.458 1.945-5.182 3.863-5.136 5.707.055 1.845 1.863 3.643 5.394 5.376 2.398 1.171 4.113 3.246 4.952 5.985 1.245 4.084.304 8.52-1.18 11.102a.303.303 0 0 1-.24.129Zm46.584-46.456c-.286-.157-.314-.323-.212-.442 4.914-6.197 5.929-10.724 7.469-17.566.175-.793.359-1.614.562-2.471.812-3.523 1.531-7.728.655-12.228a.273.273 0 0 1 .212-.322c.157-.028.295.064.323.212.894 4.592.175 8.87-.655 12.448-.194.858-.387 1.678-.562 2.471-1.55 6.916-2.582 11.48-7.571 17.787a.287.287 0 0 1-.221.111ZM106.087 16.45c-6.962-1.641-13.177-2.379-19.189-3.098a571.407 571.407 0 0 1-5.219-.636.277.277 0 0 1-.24-.305.283.283 0 0 1 .305-.24c1.752.231 3.485.434 5.219.637 6.03.719 12.263 1.457 19.188 3.098.148.037.24.184.203.332a.267.267 0 0 1-.267.212Zm15.26 63.523c-1.383-.71-1.982-3.264-2.259-5.32a38.063 38.063 0 0 0-.064 1.622.266.266 0 0 1-.258.268l-15.086 1.115c-.166 0-.286-.11-.295-.249a.277.277 0 0 1 .249-.295l14.836-1.097c.019-.682.083-2.591.369-4.195.028-.139.12-.231.295-.222a.28.28 0 0 1 .259.268c.055 1.825.534 6.759 2.083 7.589.13.073.185.24.111.368a.265.265 0 0 1-.24.148Zm4.344-12.236c-.305-.203-.295-.378-.185-.48.046-.036 4.426-3.965 3.891-7.1-.212-1.226-1.171-2.185-2.849-2.867-2.37-.96-4.186-.95-5.256.018-1.429 1.291-1.549 4.288-.35 8.437a.277.277 0 0 1-.185.341c-.147.046-.295-.046-.341-.184-1.281-4.426-1.106-7.543.517-9 1.235-1.125 3.255-1.161 5.827-.12 1.872.757 2.942 1.863 3.181 3.283.591 3.43-3.872 7.432-4.066 7.598a.25.25 0 0 1-.184.074Zm-9.12 50.558c-.148-.009-.258-.101-.277-.24-.009-.092-1.254-9.47-.617-16.09a.285.285 0 0 1 .304-.249.286.286 0 0 1 .249.304c-.48 4.998.12 11.591.442 14.495 1.208-4.131 3.929-9.036 6.114-12.605.074-.129.249-.166.378-.092a.281.281 0 0 1 .092.378c-2.425 3.956-5.514 9.572-6.408 13.878a.294.294 0 0 1-.277.221Zm-8.354 23.734c-3.264-.913-5.358-2.176-6.685-3.255.221.544.322 1.07.129 1.42-.185.341-.563.48-1.125.434-2.389-.212-4.362-3.283-4.74-3.919-.304-.102-.378-.258-.323-.397a.27.27 0 0 1 .35-.166c.407.222 2.444 3.726 4.768 3.928.231.019.507.01.59-.147.212-.397-.359-1.512-1.023-2.49-.415-.479-.6-.802-.618-.848a.266.266 0 0 1 .092-.36.284.284 0 0 1 .369.056c.101.129.323.405.562.765.932 1.088 3.2 3.144 7.737 4.435.147.037.23.194.193.341a.292.292 0 0 1-.276.203Zm-13.684-7.118a1.651 1.651 0 0 1-.396-1.485c.184-.876 1.429-1.862 2.194-2.397-.58-.12-1.613-.341-3.365-.775-1.347-.332-2.029-.747-2.057-.765a.282.282 0 0 1-.092-.378.282.282 0 0 1 .378-.092c.01 0 .646.396 1.9.7 3.209.784 3.983.886 3.992.886-.535.903-2.24 2.102-2.406 2.932-.056.276-.074.691.092.94a.27.27 0 0 1-.083.378.25.25 0 0 1-.157.056Zm15.86.535c-2.287-1.651-8.05-5.865-9.313-6.187l-.563-.148c-2.222-.581-7.44-1.955-9.764-2.167-.462-.046-.812.019-.96.166a.275.275 0 0 1-.387.009.275.275 0 0 1-.009-.387c.267-.286.747-.396 1.41-.332 2.37.212 7.608 1.595 9.849 2.176l.562.148c1.623.424 9.027 5.993 9.341 6.233.12.092.147.268.055.387a.292.292 0 0 1-.221.102Z"/><path fill="#0C0553" d="M95.971 136.745c-.285-.23-1.143-2.019-.184-2.913.84-.784 2.517-1.633 2.591-1.66.138-.065.304-.019.369.12a.28.28 0 0 1-.12.368c-.018.01-1.678.849-2.462 1.577-.645.609.055 2.103.055 2.112a.277.277 0 0 1-.249.396Zm28.032-84.509a19.66 19.66 0 0 1-2.637-.175c-2.905-.378-5.865-1.3-8.815-2.739-3.449-1.678-6.086-3.476-8.069-5.495-2.305-2.352-3.725-5.053-4.195-8.013a14.82 14.82 0 0 1-.065-4.14c.83-6.732 4.307-12.956 9.295-16.654a16.98 16.98 0 0 1 7.506-3.125 26.487 26.487 0 0 1 4.085-.314c4.14 0 8.05.959 11.609 2.84 6.565 3.476 10.595 8.907 11.047 14.91a16.63 16.63 0 0 1-.019 2.785c-.258 2.923-1.116 5.828-2.554 8.64-1.614 3.163-3.513 5.662-5.643 7.423-3.191 2.646-7.193 4.057-11.545 4.057Zm-2.886-40.11c-1.328 0-2.674.1-4.002.313a16.377 16.377 0 0 0-7.266 3.024c-4.869 3.615-8.262 9.7-9.073 16.284a14.111 14.111 0 0 0 .064 3.993c.452 2.85 1.817 5.44 4.039 7.718 1.936 1.973 4.518 3.734 7.912 5.385 2.895 1.41 5.809 2.314 8.649 2.683.857.11 1.715.166 2.563.166 4.223 0 8.096-1.365 11.204-3.947 2.074-1.715 3.928-4.158 5.504-7.247 1.402-2.748 2.241-5.588 2.49-8.437a15.55 15.55 0 0 0 .019-2.693c-.443-5.809-4.362-11.083-10.761-14.467-3.467-1.845-7.285-2.776-11.342-2.776Z"/><path fill="#0C0553" d="M124.298 45.275a3.17 3.17 0 0 1-1.521-.397c-2.038-1.134-4.039-2.24-5.92-3.467-1.429-.93-2.822-1.955-4.168-2.941a130.39 130.39 0 0 0-1.807-1.31c-1.678-1.364-2.075-2.913-1.282-4.693.332-.756.627-1.558.904-2.333.101-.286.203-.572.313-.857.59-1.614 1.789-2.591 3.56-2.905 1.798-.323 4.158-.83 6.38-1.863 1.402-.654 2.509-1.669 3.477-3.2.571-.894 1.208-1.724 1.752-2.406.47-.59 1.097-.857 1.807-.756 1.07.138 1.687.848 1.568 1.798-.166 1.273-.415 2.665-.793 4.37-.13.59-.305 1.172-.471 1.734-.147.498-.304 1.005-.424 1.513-.212.922-.055 1.106.802 1.576 1.19.664 2.453 1.383 3.643 2.223 1.208.839 1.54 2.019.995 3.494-.802 2.167-1.973 4.943-3.826 7.211a14.53 14.53 0 0 1-1.642 1.706c-1.189.996-2.314 1.503-3.347 1.503Zm-13.103-8.566c.609.433 1.208.876 1.817 1.318 1.346.987 2.729 2.001 4.14 2.923 1.872 1.217 3.854 2.315 5.782 3.384 1.318.729 2.757.37 4.333-.986a13.33 13.33 0 0 0 1.577-1.632c1.808-2.204 2.951-4.924 3.735-7.054.461-1.227.193-2.158-.793-2.85-1.171-.82-2.425-1.54-3.596-2.185-1.033-.572-1.347-.987-1.07-2.185.12-.526.277-1.042.433-1.55.166-.553.341-1.124.461-1.696.378-1.688.627-3.061.784-4.316.12-.921-.728-1.134-1.097-1.189-.517-.064-.959.12-1.31.553a25.5 25.5 0 0 0-1.715 2.36c-1.014 1.605-2.231 2.721-3.716 3.413-2.277 1.06-4.675 1.576-6.51 1.9-1.586.285-2.609 1.115-3.135 2.553-.101.286-.203.563-.304.849a34.12 34.12 0 0 1-.913 2.37c-.701 1.567-.369 2.83 1.024 3.955-.093.286.073.065.073.065ZM65.054 88.585c-1.964 0-3.735-.904-5.127-2.619-2.536-3.116-3.495-6.814-2.868-11 .212-1.383.978-2.536 2.232-3.329 2.453-1.558 5.145-2.702 7.755-3.808l.756-.323c4.684-2 9.359-3.697 13.895-5.053 2.564-.765 5.072-1.466 7.682-1.641 2.074-.148 3.863.627 5.357 2.277 1.743 1.909 2.36 4.343 2.914 6.492.922 3.596 1.161 7.312 1.383 10.585-.802.23-1.153.111-1.503-.009-.83-.286-1.614-.553-2.434-.765a5.165 5.165 0 0 0-1.32-.166c-1.18 0-2.313.36-3.365.747a124.61 124.61 0 0 0-7.847 3.162c-3.91 1.743-7.441 3.025-10.779 3.91-.544.148-1.097.295-1.641.452-1.245.35-2.536.72-3.836.959a5.929 5.929 0 0 1-1.254.129Zm24.786-27.22c-.139 0-.286.01-.434.018-2.554.166-5.034.858-7.56 1.614-4.52 1.346-9.176 3.043-13.842 5.035l-.765.322c-2.582 1.098-5.256 2.232-7.672 3.763-1.106.7-1.798 1.724-1.982 2.941-.609 4.03.323 7.58 2.748 10.567 1.558 1.909 3.614 2.72 5.855 2.305 1.272-.23 2.554-.599 3.79-.95.553-.156 1.097-.313 1.65-.451 3.32-.876 6.815-2.149 10.697-3.882a128.434 128.434 0 0 1 7.883-3.181c1.107-.406 2.296-.784 3.56-.784.507 0 .996.064 1.466.184.83.222 1.66.507 2.471.784.249.083.498.175.756.258-.212-3.181-.46-6.75-1.346-10.18-.535-2.084-1.143-4.444-2.785-6.251-1.3-1.42-2.766-2.112-4.49-2.112Z"/><path fill="#0C0553" d="M77.235 76.93c-.59 0-1.144-.222-1.559-.628-.903-.866-.894-2.194.019-3.153a2.432 2.432 0 0 1 1.752-.738c.58 0 1.125.203 1.53.581.443.415.692.968.71 1.558a2.14 2.14 0 0 1-.599 1.559 2.57 2.57 0 0 1-1.853.82Zm.212-3.975a1.88 1.88 0 0 0-1.356.572c-.7.737-.719 1.724-.027 2.379.682.664 1.908.58 2.628-.175.304-.314.46-.729.452-1.162a1.657 1.657 0 0 0-.535-1.171 1.688 1.688 0 0 0-1.162-.443Zm10.779-.073a2.35 2.35 0 0 1-1.549-.572c-.812-.682-.922-2.148-.221-3.006.48-.59 1.18-.931 1.936-.931a2.26 2.26 0 0 1 1.448.516c.913.757 1.07 2.14.36 3.025-.508.618-1.227.968-1.974.968Zm.157-3.956c-.572 0-1.134.268-1.503.729-.516.636-.443 1.742.147 2.24.803.674 2.047.526 2.739-.313.526-.645.396-1.706-.277-2.26a1.664 1.664 0 0 0-1.106-.396ZM66.418 80.922c-.58 0-1.134-.221-1.558-.618-.876-.811-.922-2.157-.092-3.07a2.533 2.533 0 0 1 1.853-.83c.581 0 1.135.212 1.55.6.82.755.903 2.194.165 3.014-.507.581-1.207.904-1.918.904Zm.203-3.965c-.544 0-1.07.24-1.447.655-.627.691-.609 1.678.055 2.296.747.691 1.964.571 2.702-.25.525-.58.46-1.696-.13-2.24a1.74 1.74 0 0 0-1.18-.46Zm15.086-64.241c-.166-.01-15.04-.94-31.748-.212a.282.282 0 0 1-.286-.259.276.276 0 0 1 .258-.285c16.737-.738 31.647.193 31.794.212a.277.277 0 0 1 .258.295.273.273 0 0 1-.276.249ZM14.256 64.279c-2.48-5.053-2.96-8.197-3.523-11.83-.138-.932-.295-1.91-.48-2.96a.28.28 0 0 1 .222-.323c.157-.018.295.074.323.221.184 1.051.332 2.029.48 2.97.553 3.596 1.032 6.703 3.227 11.526a.267.267 0 0 1-.139.36c-.027.036-.064.036-.11.036Zm67.903 60.848c-.24-.074-.314-.23-.259-.369.065-.175 1.577-4.389-2.48-8.381-1.77-1.734-4.325-2.656-7.026-3.633-3.753-1.356-7.635-2.757-10.236-6.464-3.605-5.136-7.57-9.857-19.714-15.704a.276.276 0 1 1 .24-.497c11.148 5.366 15.602 9.718 19.926 15.878 2.508 3.568 6.308 4.942 9.977 6.27 2.767.996 5.376 1.937 7.23 3.762 4.324 4.242 2.628 8.917 2.61 8.963a.3.3 0 0 1-.268.175Zm2.489 15.251c-.203 0-.396-.009-.572-.037-2.49-.322-4.121-3.67-4.739-4.933-.636-1.263-.175-6.344-.13-6.915.01-.148.112-.268.296-.249a.282.282 0 0 1 .249.295c-.194 2.111-.387 5.707-.055 6.353.71 1.457 2.259 4.62 4.444 4.896 2.01.249 5.662-1.143 6.74-2.324.157-.175.342-.424.286-.636-.746-.599-2.037-.359-2.6-.221-.258.064-.396-.019-.433-.166a.27.27 0 0 1 .193-.332c1.374-.378 2.038-1.033 2.121-1.531a.488.488 0 0 0-.23-.525c-.581-.397-1.826-.111-2.25.037a.282.282 0 0 1-.35-.166.278.278 0 0 1 .165-.351c.48-.184 1.457-.71 1.383-1.18-.064-.433-1.54-1.051-4.794-.599-2.776.387-3.486.332-3.523.322a.285.285 0 0 1-.249-.304c.01-.147.12-.267.295-.249 0 0 .72.055 3.394-.323 3.559-.498 5.283.176 5.421 1.061.056.387-.138.719-.424.996.415-.019.895.064 1.245.295.369.249.535.636.461 1.069-.064.36-.313.793-.802 1.171.387.01.765.074 1.051.24a.96.96 0 0 1 .461.627c.083.36-.064.738-.424 1.125-1.18 1.328-4.49 2.554-6.63 2.554Z"/><path fill="#0C0553" d="M81.965 135.307c-.295-.378-.194-.526-.046-.544 2.287-.378 5.874-1.19 5.91-1.199.148-.037.296.065.333.212.036.148-.065.295-.213.332-.037.01-3.642.821-5.938 1.199h-.046Zm.848 2.443c-.295-.378-.193-.525-.046-.544 2.287-.378 5.874-1.189 5.91-1.189a.282.282 0 0 1 .333.203.274.274 0 0 1-.212.332c-.037.009-3.643.82-5.939 1.198h-.046Z"/></svg>