<svg xmlns="http://www.w3.org/2000/svg" width="231" height="147" fill="none"><path fill="#216FF4" d="M67.682 51.432c5.9-2.444 8.701-9.208 6.258-15.107-2.444-5.9-9.208-8.701-15.107-6.258-5.9 2.444-8.702 9.208-6.258 15.108s9.207 8.7 15.107 6.257Z"/><path fill="#fff" d="m194.529 59.302-.174 4.318s-2.534 1.336-2.506 1.546c.027.21 1.783 2.378 1.783 2.378s.083 4.684 3.412 5.095c0 0 2.187.183 2.699 0l.155 4.693s3.44-2.077 4.693-2.168c0 0-.43-3.046.1-5.077.522-2.021 1.007-2.854 1.007-2.854s2.122-.896 1.866-2.762c-.256-1.866-1.811-2.626-2.47-2.617-.659.01-2.287.732-2.287.732s-1.18-1.564-1.628-2.99c-.448-1.428-.201-3.577-.201-3.577s-1.894.247-4.043 1.198c-2.15.951-2.406 1.637-2.406 1.637v.448Z"/><path fill="#0C0553" d="M84.578 132.846c-4.41.046-5.059.888-5.059.888-.064.356-3.503.466-4.372 2.972-.878 2.507.338 4.958 1.198 5.681.86.732 3.056 1.253 3.056 1.253l.118 1.784s1.711.887 5.489.814c3.778-.073 4.866-.613 4.866-.613v-11.818c0 .009-.896-1.007-5.296-.961Zm-8.141 5.507c.119-2.625 1.381-2.214 3.018-2.47l.064 6.129s-3.201-.997-3.082-3.659ZM19.989 78.484s-4.464 2.826-5.214 3.64c-.741.815-4.345 5.81-7.336 10.932-2.991 5.122-5.983 13.885-6.513 17.498-.53 3.614-1.445 10.099 1.198 14.846 2.644 4.748 5.342 5.397 5.342 5.397v11.883l41.127.055s-.906-8.233-.504-10.309l5.992 9.284s3.823-.503 6.933-2.314 4.757-3.083 4.757-3.083l-9.678-36.717S52.288 87.174 50.001 84.1c-2.287-3.073-4.811-6.083-13.529-7.848L19.99 78.484Zm124.348 64.251H98.272a3.353 3.353 0 0 1-3.357-3.357v-28.686c0-1.857 1.5-3.357 3.357-3.357h46.065c1.857 0 3.358 1.5 3.358 3.357v28.686a3.36 3.36 0 0 1-3.358 3.357Z"/><path fill="#216FF4" d="m114.261 92.461 3.065 14.883-19.073.092s-2.972.411-3.338 2.927v3.201s-6.97.805-14.069-1.82c-7.098-2.625-11.324-6.056-14.434-10.529-3.11-4.473-4.693-9.238-5.123-10.519-.43-1.28-2.506-8.205-2.506-8.205s2.158 1.738 8.424.485c6.257-1.254 7.2-3.12 7.2-3.12s.704 7.446 4.509 11.544c3.805 4.09 8.141 6.422 16.52 5.306 0 0 7.473-1.94 10.776-2.626 3.274-.686 8.049-1.619 8.049-1.619Z"/><path fill="#fff" d="M40.808 58.378s.019 7.162.046 8.47c.027 1.308-.512 5.296-3.952 5.278l-.43 4.116-.97 5.663-5.552-4.309s3.12-.713 3.303-4.354c.182-3.64-3.449-6.394-3.449-6.394s-3.275.65-3.705-2.534c0 0 .046-2.021 1.876-2.424 1.829-.402 1.975.073 1.975.073s2.507-1.207 3.778-3.009c1.272-1.802 2.452-3.76 2.671-5.059 0 0 2.013 1.574 2.763 2.406.74.823 1.646 2.077 1.646 2.077Zm74.258 11.325s-.174 7.062-.128 8.653c.046 1.592-.521 5.452 3.641 6.294l-.009 4.089 4.948 7.327 5.022-7.327-.494-9.77s4.226 1.409 4.309-3.238c0 0 .237-2.14-3.065-2.662 0 0-1.408-.009-2.25 1.052 0 0-1.464-.567-2.744-3.137-1.272-2.57-1.089-3.796-1.089-3.796s-1.71 2.122-3.915 2.433c-2.195.302-4.226.082-4.226.082Z"/><path fill="#216FF4" d="m114.965 73.023.101-3.32s2.415.53 4.025 0c1.61-.531 4.153-2.315 4.153-2.315s.667 5.16 3.814 6.742c0 0 .695-1.263 2.086-1.016a9.86 9.86 0 0 1 2.378.732s1.189-1.656 1.335-4.363c.147-2.708-.695-4.427-1.957-4.83-1.262-.402-5.251-.595-5.251-.595s-2.396-4.015-4.921-4.4c-2.525-.383-4.418.284-5.754 1.455-1.335 1.17-2.259 3.805-.887 6.257 0 0-1.171.31-1.262 2.003-.101 1.683 1.729 3.64 2.14 3.65Zm-53.74 7.026.576 3.357s-3.046-.082-3.091-1.153c-.046-1.06 2.515-2.204 2.515-2.204Zm10.958-1.556v3.019s2.47-1.473 2.187-2.15c-.293-.677-2.187-.869-2.187-.869Z"/><path fill="#0C0553" d="M123.518 78.484c-.082.055-.942.521-1.281 1.335-.338.814.092 1.885.092 1.885s-.403.613-1.445.329c-1.043-.284-1.656-.485-1.574-1.134.083-.64.101-.769.833-.805.722-.037 1.399.137 1.555-.522.155-.658.192-1.555.878-1.6a.937.937 0 0 1 .942.512Zm43.523-14.17.384 1.592s-2.131.183-2.222-.201c-.101-.384 1.838-1.39 1.838-1.39Zm8.452-2.734.458 1.39s1.902-.87 1.5-1.28c-.403-.412-1.958-.11-1.958-.11Z"/><path fill="#fff" d="M84.697 133.605c-2.442 0-4.418.376-4.418.833l4.418.357 4.418-.357c0-.457-1.976-.833-4.418-.833ZM70.784 66.099s-.43-4.638-1.235-6.175c-.805-1.536-1.134-2.387-1.93-2.048-.805.347-1.912 1.015-1.839 2.369.073 1.354.87 5.442.87 5.442s-1.217-1.436-2.535-1.043c-1.308.394-1.591 2.489-1.591 2.489s-1.354-1.848-2.836-1.583c-1.473.265-1.473 2.982-1.134 4.574.338 1.591.302 2.598.997 2.982l1.354 5.378.887 4.93s3.064.028 5.095-.392c2.03-.421 5.287-1.5 5.287-1.5l-.238-5.306s1.4-5.14 1.345-6.44c-.055-1.317.695-2.067-2.497-3.677ZM65.24 136.99s1.492 1.5 3.385 2.141c1.894.649 6.357 1.354 6.357 1.354l1.354 1.902-19.73.293-.824-1.208s3.668-1.042 5.955-2.469c2.287-1.427 3.503-2.013 3.503-2.013Zm110.711-74.02s-.961-2.99-.933-3.786c.018-.796.978-1.848 1.719-2.498.741-.65 2.47-2.15 1.409-3.256-1.061-1.107-3.183.357-4.629 1.51-1.445 1.16-2.204 2.36-2.533 2.14-.33-.21-5.489-3.394-6.193-3.705-.714-.302-3-1.153-3.677.256 0 0-1.565.156-1.647.933 0 0-1.491-.036-1.994.878-.503.915 1.079 3.211 3.75 4.492 2.671 1.28 3.614 1.427 4.071 1.738.457.31 1.784 1.728 2.122 4.098 0 0 2.095-.165 4.263-.952 2.177-.777 4.272-1.847 4.272-1.847Zm-5.178 38.181c-.192-.265-.475-.74-.832-1.271l7.766-8.352-8.15-7.683-12.075 12.806 1.866 1.903c-.247.247-.988 1.18-.201 2.835 0 0-1.381 1.089-.421 3.11.961 2.022 3.76 5.553 5.333 6.275 0 0 1.308 1.409 2.635 1.409 1.317 0 2.835 1.061 3.009 1.592 0 0 1.116-2.543 2.47-4.318 1.354-1.774 3.348-3.686 3.348-3.686s-4.043-3.65-4.748-4.62Zm-3.979 3.787c-.201-.036-.567-.283-.997-.603l1.592-1.711c.109.174.183.32.201.439.201 1.034-.32 1.967-.796 1.875Zm-43.148-8.69-5.077-7.52-4.308 3.733 3.064 14.882h4.043l.513-2.131-1.363-2.726 3.128-6.238Z"/><path fill="#fff" d="m128.54 88.728-4.894 7.52 3.156 6.366-1.098 2.589.641 2.14h3.421l3.137-15.312-4.363-3.303Z"/><path fill="#216FF4" d="m120.518 102.487 1.363 2.725-.512 2.132h4.976l-.641-2.141 1.098-2.588-3.156-6.367-3.128 6.239Z"/><path fill="#fff" d="M126.756 126.471a3.72 3.72 0 0 1-3.722 3.723 3.72 3.72 0 0 1-3.723-3.723 3.72 3.72 0 0 1 3.723-3.723 3.72 3.72 0 0 1 3.722 3.723Z"/><path fill="#216FF4" d="M177.451 61.69s6.759 16.895 19.959 19.428l-.622 3.101s5.836-4.354 11.269-4.93c0 0 3.358 1.271 6.523 2.534 3.155 1.253 5.213 5.699 6.339 9.449 0 0 .311 12.44.475 16.383.165 3.933 1.381 35.08 1.381 35.08l-33.332-.256.283-14.243s-5.854-2.305-10.739-5.223a543.593 543.593 0 0 1-9.687-5.946s.064-3.951 3.001-7.949c2.936-3.997 6.165-4.427 6.165-4.427l11.37 4.757s-.567-7.831.412-11.828c0 0-8.745-4.446-13.63-9.595-5.113-5.388-9.412-14.746-10.144-17.984-.723-3.238-1.226-3.997-1.226-3.997s3.092-.138 5.717-.988c2.653-.86 5.553-1.875 6.486-3.366Z"/><path fill="#fff" d="M89.746 105.533s-1.536.412-1.573 2.406c-.037 1.994 1.143 2.497 1.573 2.406.43-.092 1.683-.741 1.574-2.406-.101-1.665-.87-2.278-1.574-2.406Zm-3.522 5.781s-2.963.247-3.796 2.442c-.832 2.205.64 3.696.394 5.187-.238 1.491-.22 1.344-1.18 2.451s-1.693 5.726.786 6.403c2.48.677 3.796 1.006 5.626 0 1.83-1.015 2.561-2.936 2.58-5.003.018-2.077-.677-2.571-.558-3.998.11-1.427 1.134-2.277.228-4.464-.905-2.177-2.058-3.037-4.08-3.018ZM37.927 94.583l2.707-8.846h18.45s-3.146 9.843-3.439 15.67c-.293 5.817-1.006 14.361-1.006 14.361H38.082l.503-.842-1.06-2.085-.833-14.334 1.235-3.924Z"/><path fill="#216FF4" d="m132.903 92.031-3.137 15.313h14.288s3.631-.211 3.631 3.769c0 3.979-.073 28.704-.073 28.704s-.796 2.552-2.561 2.863l8.187-.092s2.744-.091 4.189-1.802c1.445-1.71 3.403-4.93 3.266-8.964-.138-4.034-.878-12.102-3.614-18.816-2.735-6.723-4.802-11.626-6.997-13.849-2.196-2.223-5.553-4.263-8.004-5.058-2.452-.796-9.175-2.068-9.175-2.068Z"/><path fill="#0C0553" d="M190.028 27.058c.009-.412-.146-.586-.521-.714a60.521 60.521 0 0 1-3.33-1.235c-.256-.11-.512-.393-.631-.658a66.021 66.021 0 0 1-1.28-3.238c-.083-.21-.092-.522 0-.723.539-1.207 1.134-2.387 1.673-3.586.083-.183.037-.53-.091-.668-.906-.96-1.857-1.884-2.772-2.835-.247-.256-.439-.274-.75-.119a99.53 99.53 0 0 1-3.457 1.637c-.229.1-.558.12-.787.037a68.319 68.319 0 0 1-3.302-1.29c-.247-.11-.531-.338-.622-.576a62.946 62.946 0 0 1-1.244-3.403c-.128-.366-.275-.549-.705-.53a89.2 89.2 0 0 1-3.832 0c-.421-.01-.586.155-.714.52-.384 1.117-.823 2.224-1.198 3.349-.128.384-.329.549-.714.686a35.046 35.046 0 0 0-3.11 1.244c-.375.174-.64.165-.988-.01-1.116-.566-2.259-1.079-3.384-1.646-.339-.164-.549-.137-.814.137a84.726 84.726 0 0 1-2.708 2.708c-.311.293-.283.521-.119.87a76.695 76.695 0 0 1 1.601 3.402c.101.238.082.594-.018.832a61.117 61.117 0 0 1-1.491 3.22c-.128.256-.385.54-.65.64-1.189.458-2.406.86-3.613 1.254-.366.119-.54.283-.531.704.028 1.28.028 2.552 0 3.833-.009.375.119.549.476.667a64.59 64.59 0 0 1 3.677 1.272c.256.1.503.393.632.659.493 1.024.896 2.094 1.408 3.11.211.411.22.713.028 1.116-.531 1.06-1.016 2.15-1.537 3.21-.174.348-.165.577.137.87.924.877 1.83 1.783 2.708 2.707.292.31.521.293.86.128 1.106-.549 2.222-1.052 3.329-1.6.357-.175.622-.156.988.027 1.061.521 2.168.95 3.238 1.463.229.11.458.339.549.567a88.66 88.66 0 0 1 1.281 3.678c.119.356.292.493.677.484a108.78 108.78 0 0 1 3.832 0c.412.01.577-.137.705-.521a70.275 70.275 0 0 1 1.262-3.613c.092-.247.357-.494.604-.604a59.412 59.412 0 0 1 3.32-1.436c.229-.092.558-.11.778-.018 1.308.576 2.588 1.207 3.933 1.838 1.052-1.06 2.095-2.104 3.11-3.183.128-.137.147-.494.064-.677-.521-1.162-1.097-2.305-1.619-3.467-.091-.21-.128-.521-.055-.74a65.692 65.692 0 0 1 1.272-3.385c.1-.247.347-.512.594-.613 1.116-.448 2.26-.86 3.394-1.262.357-.12.476-.302.466-.677a91.16 91.16 0 0 1-.009-3.842Zm-19.74 9.376a7.44 7.44 0 0 1-7.455-7.483c0-4.17 3.33-7.464 7.538-7.455 4.079.01 7.4 3.357 7.4 7.474a7.459 7.459 0 0 1-7.483 7.464Z"/><path fill="#fff" d="M56.87 41.584c.44-.119.852-.238 1.254-.347.229-.065.457-.12.686-.183a19.033 19.033 0 0 0 2.872 2.78c.32.256.668.311 1.052.22.394-.092.741-.275 1.08-.494.823-.521 1.546-1.17 2.24-1.857 1.272-1.244 2.425-2.589 3.513-3.988.906.119 1.583.302 2.269.494a37.85 37.85 0 0 1-4.382 6.568c-.841 1.015-1.738 1.984-2.808 2.771-.347.247-.713.467-1.089.668-.823.43-1.655.42-2.497.036-.823-.375-1.472-.96-2.012-1.673-.778-1.025-1.299-2.187-1.702-3.403-.182-.522-.32-1.043-.475-1.592Z"/><path fill="#216FF4" d="M16.54 80.487s-1.591-1.445-.603-4.235c.997-2.79 2.58-2.69 2.58-2.69s-1.327-2.451.164-3.768c1.49-1.317 3.787-1.144 4.427-.567 0 0-.54-4.336-1.143-8.004-.604-3.668-.805-4.08-.805-4.08s.75-5.123 5.616-5.854c4.866-.732 6.367-.86 9.02-.54 2.652.33 3.494 1.024 4.198 1.994.704.97 1.299 4.464.823 5.635 0 0-1.747-3.23-4.418-4.492 0 0-.604 4.263-6.302 7.995 0 0-2.25-1.015-3.632 1.089-1.372 2.104.467 4.308 3.028 3.878 0 0 4.19 2.314 3.76 5.873-.43 3.558-2.223 4.363-3.45 5.022 0 0-.118 3.21-3.52 3.53-3.404.32-5.965-1.307-6.523-2.497l-3.22 1.71Zm20.16-8.351-.255 4.272 2.799.311s1.07-.85.74-2.534c-.328-1.692-1.097-2.488-1.097-2.488l-2.186.44Z"/><path fill="#fff" d="M202.935 62.586s-2.68-2.543-1.93-6.559c0 0-4.729.778-6.449 2.836 0 0-1.061-1.701.247-4.327 1.308-2.625 3.183-3.046 5.543-3.457 2.36-.412 6.312.53 6.312.53s4.5.64 5.891 3.97c1.381 3.33.018 8.425-.201 10.236-.22 1.811-.577 5.214 2.195 7.41 2.772 2.186 5.937 4.408 7.153 6.96 1.217 2.552 3.705 7.035-.421 15.176l-.347-4.07s-1.811-6.797-4.784-8.398c0 0-.988-.915-4.3-1.976-3.311-1.06-6.073-2.58-6.878-5.186-.805-2.607-.476-5.242-.183-5.79.292-.55.841-2.653.841-2.653s2.205-.741 1.967-2.8c-.238-2.057-1.958-2.734-2.625-2.716-.677 0-2.031.814-2.031.814ZM32.64 105.24s.905-.65 1.097-2.626c.183-1.975.43-6.577 4.199-8.031l-.796 3.997s-.265 2.552.951 2.836c1.217.284 5.69-2.808 6.779-3.631 1.097-.814 2.68-2.562 4.089-1.574 1.408.988.182 2.598.182 2.598s1.244-.457 1.921.311-.74 2.625-.74 2.625 1.051 1.565-.266 2.955c-1.317 1.399-12.376 8.132-12.376 8.132l-5.04-7.592Z"/><path fill="#fff" d="M196.861 83.844s.083-4.93 3.046-6.513c2.973-1.592 4.803-2.342 4.803-2.342s1.024 3.083 3.348 4.309c0 0-3.357.292-6.12 1.701-2.753 1.409-5.077 2.845-5.077 2.845Z"/><path fill="#0C0553" d="M214.973 120.021s-1.592 10.547-12.733 12.807c-9.486 1.93-12.733-.083-12.733-.083l.238-4.509s7.61 2.982 12.477 1.719c4.848-1.271 9.86-3.448 12.751-9.934Z"/><path fill="#216FF4" d="M110.373 41.657h-4.948a1.213 1.213 0 0 1-1.208-1.208V35.5c0-.667.54-1.207 1.208-1.207h4.948c.668 0 1.208.54 1.208 1.207v4.95c0 .658-.54 1.207-1.208 1.207Z"/><path fill="#0C0553" d="M107.547 56.53h-4.949a1.212 1.212 0 0 1-1.207-1.207v-4.949c0-.667.539-1.207 1.207-1.207h4.949c.668 0 1.207.54 1.207 1.207v4.95c0 .667-.549 1.207-1.207 1.207Zm-69.886 59.687S25.523 139.332 7.43 135.143l.036-4.345s4.29 2.46 11.325-.906c7.034-3.366 11.36-6.485 14.59-9.55 3.22-3.073 4.28-4.125 4.28-4.125Z"/><path fill="#fff" d="M26.282 81.274s2.836-.604 3.193-1.729c.356-1.134.329-1.802.329-1.802l5.699 4.556s.064 5.003-2.982 4.976c-3.046-.037-5.141-2.095-6.239-6.001ZM36.6 75.026v1.555l-1.152 5.544s1.326 2.085 2.936 2.479c1.61.384 2.845-.412 3.156-1.226.31-.814.503-1.71-.265-3.092-.778-1.39-4.675-5.26-4.675-5.26Z"/><path fill="#3A3A3A" d="M35.329 84.12s1.811 1.682 4.134.877c0 0-3.009-.42-3.942-2.698l-.192 1.82Z"/><path fill="#fff" d="M203.182 121.55c-4.199 1.28-6.842 5.031-6.238 8.644 0 0 5.213.064 8.68-1.189 3.11-1.125 6.751-5.077 6.751-5.077-1.921-2.424-5.589-3.485-9.193-2.378Z"/><path fill="#B5B5B5" d="M61.399 140.484s-2.58 1.784-5.196.86c-.1-.036-.348.265-.348.265l.76 1.071 6.76-.046s-2.187-1.299-1.976-2.15Z"/><path fill="#fff" d="M116.529 67.434c-2.753-1.683-.85-6.631-.74-6.924a6.88 6.88 0 0 0-.833.604c-1.335 1.17-2.259 3.805-.887 6.256 0 0-1.171.311-1.262 1.994-.092 1.683 1.738 3.65 2.149 3.66l.101-3.321s2.415.53 4.025 0c.988-.33 2.323-1.125 3.21-1.692.202-.238-2.918 1.152-5.763-.577Zm11.91 5.672c-3.137-.897-5.177-6.01-5.177-6.01-.027.283.64 5.442 3.787 7.025 0 0 .467-.842 1.39-1.015ZM35.795 50.75c-1.482-.184-2.598-.22-4.143-.092 1.948.53 3.585 1.49 3.33 3.229-.577 4.025-6.678 7.775-6.678 7.775a3.603 3.603 0 0 1 1.793.22c5.707-3.732 6.302-7.995 6.302-7.995 2.671 1.262 4.418 4.491 4.418 4.491.476-1.17-.119-4.674-.823-5.635-.704-.97-1.555-1.664-4.199-1.994ZM29.62 66.93l-1.325.037s2.652 1.07 2.853 4.921c.266 5.105-4.6 5.242-4.6 5.242s-.714 3.933-6.66 1.765c.558 1.153 3.074 2.699 6.403 2.379 3.403-.32 3.522-3.531 3.522-3.531 1.217-.659 3.019-1.464 3.448-5.022.376-3.193-2.954-5.379-3.64-5.79Zm9.624 9.79s1.07-.852.74-2.535c-.328-1.692-1.097-2.488-1.097-2.488l-.805.165c.165.046 1.519 3.311-.439 3.888-.494.146-.768.402-.906.704l2.507.265Zm85.289 21.32-2.186 3.55 1.363 3.613-.046 2.141h-2.295l.512-2.132-1.363-2.972 3.128-5.992.887 1.793Z"/><path fill="#0C0553" d="M101.647 85.629c-.284-.293-.229-.44-.092-.494l6.879-2.744a.258.258 0 0 1 .33.146.25.25 0 0 1-.147.33l-6.879 2.744c-.027.009-.054.018-.091.018Zm6.202-5.717-11.608-.302c-.137 0-.247-.119-.247-.265 0-.138.146-.238.256-.247l11.599.302c.137 0 .247.118.247.256a.243.243 0 0 1-.247.256Zm.457-2.863c-.11-.028-6.119-2.8-6.119-2.8a.258.258 0 0 1-.128-.338.258.258 0 0 1 .338-.128l6.019 2.772a.258.258 0 0 1-.11.493Zm-91.628 3.786c-1.61-.897-1.418-3.357-.933-4.802.512-1.519 1.4-2.406 2.716-2.717a.242.242 0 0 1 .302.192.246.246 0 0 1-.192.302c-1.134.265-1.902 1.052-2.35 2.387-.421 1.244-.632 3.467.585 4.171a.255.255 0 0 1 .091.348.27.27 0 0 1-.22.119Zm6.576-11.261c-1.29-7.949-2.332-12.084-2.341-12.12.11-2.195 1.079-3.879 2.872-5.077 4.153-2.799 11.974-2.24 14.27-1.39.1.009 3.787.613 3.01 7.427a.27.27 0 0 1-.284.23.25.25 0 0 1-.22-.285c.723-6.293-2.497-6.86-2.634-6.878-1.83-.677-9.605-1.546-13.859 1.317-1.646 1.107-2.533 2.643-2.652 4.574.11.439 1.107 4.564 2.094 11.919a.256.256 0 0 1-.22.283h-.036Zm1.812 12.03c-2.351 0-3.833-.732-5.498-2.653a.25.25 0 0 1 .028-.357.25.25 0 0 1 .356.028c1.683 1.939 3.12 2.533 5.58 2.46 2.598-.1 3.915-1.198 4.025-3.357.01-.137.137-.22.265-.238.138.01.247.128.238.266-.128 2.433-1.646 3.722-4.51 3.832-.164.01-.329.019-.484.019Zm66.089 15.678a17.59 17.59 0 0 1-3.01-.256c-7.82-1.39-13.07-7.912-14.04-17.435a.243.243 0 0 1 .228-.274c.137-.028.265.082.275.228.95 9.285 6.046 15.633 13.629 16.978 4.281.768 8.617-.375 12.815-1.473 1.354-.357 2.754-.722 4.117-1.015 2.46-.53 5.717-1.208 9.046-1.83a.256.256 0 0 1 .293.201.245.245 0 0 1-.201.293c-3.321.613-6.577 1.3-9.038 1.82a95.34 95.34 0 0 0-4.089 1.007c-3.274.878-6.65 1.756-10.025 1.756Zm78.914-45.499a90.105 90.105 0 0 0-3.86 0c-.494.01-.769-.183-.924-.658a84.435 84.435 0 0 0-1.281-3.668c-.055-.156-.238-.348-.412-.43-.475-.22-.951-.43-1.427-.64a40.207 40.207 0 0 1-1.811-.824c-.302-.146-.494-.165-.759-.027-.558.274-1.125.548-1.692.814-.54.256-1.089.512-1.628.786-.348.174-.732.275-1.162-.173a75.345 75.345 0 0 0-2.699-2.699c-.366-.347-.42-.695-.192-1.162.247-.512.494-1.024.732-1.536.265-.558.531-1.116.805-1.674.156-.32.156-.54-.027-.888a36.26 36.26 0 0 1-.796-1.737c-.201-.467-.394-.924-.613-1.382-.11-.247-.32-.466-.494-.53a78.443 78.443 0 0 0-3.668-1.272c-.467-.146-.659-.42-.65-.914.028-1.427.028-2.68 0-3.824-.018-.631.348-.832.705-.951a95.512 95.512 0 0 0 3.604-1.244c.183-.074.393-.284.512-.513a66.542 66.542 0 0 0 1.491-3.21c.082-.192.092-.467.018-.622a81.655 81.655 0 0 0-1.6-3.394c-.174-.357-.275-.741.173-1.162a74.95 74.95 0 0 0 2.699-2.698c.338-.357.668-.412 1.107-.192.539.265 1.079.53 1.619.786.585.284 1.18.558 1.756.851.284.146.457.146.768.01a33.405 33.405 0 0 1 3.138-1.254c.329-.119.457-.238.558-.521.192-.577.402-1.144.613-1.71.201-.55.402-1.09.585-1.638.119-.348.32-.695.924-.695 1.409.027 2.662.027 3.86 0 .622 0 .823.338.952.704a57.8 57.8 0 0 0 1.244 3.384c.064.156.274.348.484.44 1.052.448 2.159.878 3.293 1.29.165.054.43.045.604-.028a105.054 105.054 0 0 0 3.449-1.638c.42-.21.731-.155 1.042.174.394.412.796.814 1.19 1.217.53.54 1.061 1.07 1.582 1.628.211.229.247.695.137.942-.274.622-.576 1.244-.869 1.866-.274.576-.549 1.144-.805 1.72a.807.807 0 0 0 .01.53 71.168 71.168 0 0 0 1.271 3.23c.091.219.302.448.494.52 1.189.486 2.397.916 3.32 1.236.494.174.705.457.696.96a86.933 86.933 0 0 0 0 3.824c.009.494-.183.768-.641.924a73.61 73.61 0 0 0-3.384 1.253.989.989 0 0 0-.458.466 59.966 59.966 0 0 0-1.262 3.367c-.055.146-.036.384.046.548.247.55.503 1.089.759 1.629.293.612.585 1.216.86 1.838.119.265.101.741-.11.96a111.61 111.61 0 0 1-2.342 2.406l-.768.778c-.293.055-1.271-.412-1.271-.412-.997-.475-1.967-.933-2.946-1.372-.146-.064-.402-.055-.585.018a69.411 69.411 0 0 0-3.302 1.437c-.202.091-.412.301-.476.466a66.916 66.916 0 0 0-1.253 3.595c-.183.494-.449.695-.933.695Zm-1.885-.53c.65 0 1.272.009 1.857.018.247 0 .357-.055.458-.348.42-1.308.832-2.488 1.262-3.622.128-.338.457-.622.732-.75a71.075 71.075 0 0 1 3.329-1.445c.256-.1.668-.156.979-.01.988.44 1.958.897 2.955 1.373l.814.384.64-.65c.768-.777 1.573-1.591 2.333-2.396a.595.595 0 0 0 .009-.403 83.147 83.147 0 0 0-.851-1.83c-.256-.539-.521-1.088-.768-1.636-.128-.284-.156-.66-.055-.924.43-1.235.851-2.351 1.28-3.394.129-.32.43-.631.732-.75a75.646 75.646 0 0 1 3.412-1.262c.247-.083.302-.165.302-.44a91.018 91.018 0 0 1 0-3.841c.009-.284-.064-.366-.357-.467-.924-.32-2.149-.75-3.348-1.244-.356-.146-.64-.503-.768-.787a60.731 60.731 0 0 1-1.281-3.256c-.091-.247-.119-.622.01-.915.265-.585.539-1.152.805-1.729.292-.612.585-1.234.859-1.856.046-.092.01-.339-.045-.394-.513-.549-1.043-1.08-1.574-1.619a76.11 76.11 0 0 1-1.198-1.226c-.165-.173-.229-.183-.457-.073a98.247 98.247 0 0 1-3.467 1.647 1.445 1.445 0 0 1-.979.045 66.237 66.237 0 0 1-3.32-1.299c-.284-.118-.632-.393-.76-.713-.393-.97-.777-2.03-1.253-3.412-.11-.302-.201-.366-.457-.366a89.695 89.695 0 0 1-3.842 0c-.302 0-.366.055-.467.357-.192.549-.393 1.098-.585 1.646-.21.568-.412 1.125-.613 1.702-.146.439-.393.677-.869.841-1.07.375-2.113.787-3.092 1.235-.439.201-.786.201-1.207-.009-.576-.293-1.162-.567-1.747-.85-.549-.266-1.089-.522-1.628-.796-.238-.12-.33-.101-.513.091a84.518 84.518 0 0 1-2.716 2.717c-.193.183-.211.283-.065.576.458.924 1.052 2.15 1.61 3.412.128.284.119.713-.018 1.034a67.558 67.558 0 0 1-1.5 3.238c-.128.265-.412.622-.778.76a81.732 81.732 0 0 1-3.622 1.252c-.293.092-.366.183-.357.458a87.6 87.6 0 0 1 0 3.841c-.009.266.046.339.302.421 1.107.357 2.415.787 3.696 1.28.356.138.64.513.768.788.22.457.421.923.622 1.39.247.567.494 1.153.778 1.71.247.495.256.879.027 1.345-.274.549-.54 1.107-.796 1.665-.247.521-.485 1.034-.741 1.546-.137.265-.119.375.083.567.988.942 1.875 1.83 2.716 2.717.193.201.284.21.568.073.539-.265 1.088-.53 1.637-.787a55.42 55.42 0 0 0 1.683-.814c.412-.201.768-.192 1.217.028.585.292 1.198.558 1.783.814.485.21.97.42 1.446.65.292.136.567.42.677.713.402 1.07.814 2.24 1.28 3.686.082.256.174.302.43.311.714-.01 1.381-.018 2.003-.018Zm-.064-12.276a7.64 7.64 0 0 1-5.451-2.25 7.697 7.697 0 0 1-2.26-5.48c0-2.076.796-4.015 2.241-5.451 1.464-1.455 3.421-2.26 5.525-2.26 4.245.01 7.675 3.476 7.675 7.73 0 4.253-3.467 7.711-7.73 7.711Zm.064-14.937c-1.966 0-3.805.75-5.168 2.103-1.354 1.345-2.095 3.156-2.095 5.095 0 1.94.75 3.76 2.104 5.123a7.16 7.16 0 0 0 5.095 2.104c3.979 0 7.227-3.23 7.227-7.208 0-3.98-3.202-7.218-7.144-7.227-.01.01-.019.01-.019.01Zm-16.428 118.896c-.357 0-.723-.019-1.107-.046a.263.263 0 0 1-.238-.275c4.574.092 7.483-1.527 8.946-5.058 4.327-10.428-5.342-34.778-10.034-38.812-5.544-4.766-10.721-5.57-15.285-6.284-.403-.064-.796-.12-1.18-.183a.252.252 0 0 1-.211-.293c.018-.137.156-.247.293-.21.384.064.777.119 1.18.183 4.628.722 9.879 1.536 15.541 6.403 4.894 4.208 14.672 28.549 10.172 39.388-1.436 3.449-4.144 5.187-8.077 5.187Z"/><path fill="#0C0553" d="M129.766 107.59c-.192-.036-.275-.164-.247-.302l3.101-15.157-4.016-3.037-4.747 7.282c-.421 0-5.342-7.272-5.342-7.272l-3.98 3.439 3.037 14.736a.258.258 0 0 1-.201.302.254.254 0 0 1-.302-.201l-3.064-14.883c.082-.247 4.391-3.97 4.391-3.97.375.046 5.241 7.245 5.241 7.245l4.683-7.19c.366-.064 4.73 3.238 4.73 3.238.091.257-3.037 15.569-3.037 15.569a.247.247 0 0 1-.247.201Z"/><path fill="#0C0553" d="M129.153 107.591c-.229-.137-5.516-10.785-5.516-10.785l-5.324 10.638a.248.248 0 0 1-.338.11.246.246 0 0 1-.11-.338l5.553-11.096c.457 0 5.964 11.096 5.964 11.096a.254.254 0 0 1-.11.338c-.037.037-.082.037-.119.037Z"/><path fill="#0C0553" d="M121.881 105.469c-.238-.156-1.473-3.129-1.473-3.129a.252.252 0 1 1 .466-.192l1.171 2.808 3.485-.009 1.025-2.47a.252.252 0 1 1 .466.193l-1.088 2.625c-.229.164-4.052.174-4.052.174Zm-1.043-20.299c-2.717 0-5.461-1.042-5.982-3.557-.11-.55-.147-1.72-.174-2.845l-.018-.833c-.037-1.07.137-7.958.146-8.25a.257.257 0 0 1 .512.009c0 .073-.174 7.162-.146 8.214l.018.832c.027 1.107.055 2.25.165 2.754.549 2.616 3.869 3.43 6.723 3.082.979-.119 1.729-.274 2.351-.503.119-.045.274.028.32.156a.255.255 0 0 1-.155.32c-.668.238-1.446.402-2.461.521-.421.073-.86.1-1.299.1Zm7.702 3.815c-.256-.237-.75-10.007-.75-10.007a.254.254 0 0 1 .238-.265c.146 0 .265.11.265.238l.494 9.77c.009.136-.1.264-.238.264h-.009Z"/><path fill="#0C0553" d="M129.327 79.5a3.332 3.332 0 0 1-2.022-.686.25.25 0 0 1-.046-.357.26.26 0 0 1 .357-.046 2.78 2.78 0 0 0 3.494-.064 2.815 2.815 0 0 0-3.576-4.345 2.784 2.784 0 0 0-.842 1.18.253.253 0 0 1-.329.147c-.128-.046-.192-.192-.146-.33a3.322 3.322 0 1 1 5.214 3.741 3.255 3.255 0 0 1-2.104.76Zm-117.69 52.313c-1.838 0-3.521-.402-4.985-1.298-3.156-1.912-5.214-4.821-6.12-8.636-2.524-10.647 4.501-25.795 9.047-33.058 1.3-2.067 2.726-4.253 4.391-6.202 1.546-1.82 3.677-3.01 5.91-4.18a.249.249 0 0 1 .338.11.246.246 0 0 1-.11.338c-2.186 1.144-4.263 2.314-5.754 4.061-1.646 1.93-3.064 4.09-4.345 6.148-4.51 7.198-11.47 22.191-8.982 32.674.869 3.677 2.853 6.476 5.89 8.315 7.666 4.646 21.616-4.556 31.385-15.112-.22-.622-1.217-3.192-3.083-5.708-2.415-3.247-4.089-4.829-4.555-5.25-1.345.869-10.886 7.062-16.21 12.257a.248.248 0 0 1-.356 0 .257.257 0 0 1 0-.357c5.745-5.616 16.346-12.367 16.456-12.431.375.083 2.168 1.574 5.077 5.489 2.186 2.945 3.201 5.964 3.21 5.991-8.14 9.001-19.117 16.84-27.204 16.849Zm42.443 10.143c-.237-.146-3.365-4.335-6.448-9.824-.073-.119-.027-.274.1-.347.12-.074.275-.028.348.1 2.79 4.976 5.617 8.873 6.129 9.559 4.683-.302 10.346-4.509 11.279-5.223-.787-2.808-9.24-33.077-9.733-37.22a.256.256 0 0 1 .22-.284c.137-.027.265.082.283.22.503 4.207 9.678 36.973 9.77 37.312-.348.475-6.642 5.46-11.929 5.717-.009-.01-.018-.01-.018-.01Zm-2.944-55.962c-3.202-4.857-7.254-7.748-12.596-8.946a.257.257 0 0 1-.193-.302.253.253 0 0 1 .302-.192c5.48 1.235 9.633 4.199 12.697 9.056a.252.252 0 0 1-.082.347.298.298 0 0 1-.129.037Zm-14.27-13.666a7.33 7.33 0 0 1-.75-.037c-.851-.073-2.104-.228-2.973-.402a.259.259 0 0 1-.202-.302c.028-.137.156-.22.302-.201.851.173 2.077.32 2.918.393.833.073 1.491.027 2.05-.146.905-.284 1.518-.97 1.893-2.095.613-1.875.585-3.906.549-5.873a152.47 152.47 0 0 0-.092-3.412l-.055-1.674a.254.254 0 0 1 .183-.31c.128-.028.275.045.302.182.018.128.073 1.793.073 1.793a123.1 123.1 0 0 1 .083 3.156c.036 2.278.073 4.354-.568 6.303-.42 1.29-1.152 2.085-2.222 2.414a4.93 4.93 0 0 1-1.491.21Z"/><path fill="#0C0553" d="M29.95 62.21c-.292-.255-.238-.41-.119-.475 5.297-2.762 6.211-7.903 6.22-7.958.559-.046 4.254 2.671 4.94 4.656a.252.252 0 0 1-.475.165c-.522-1.519-3.138-3.641-4.053-4.336-.338 1.308-1.747 5.497-6.394 7.921a.282.282 0 0 1-.119.028Zm159.511 80.78a.253.253 0 0 1-.256-.246c-.055-4.199.055-10.053.265-14.252.412-.238.513-.11.513.027a253.256 253.256 0 0 0-.266 14.215.261.261 0 0 1-.256.256Zm.384-33.286c-1.198-10.912.311-16.373 6.733-25.621.302-.247 6.165-4.629 11.461-5.105.174 0 .266.092.275.23a.257.257 0 0 1-.229.274c-4.949.448-10.629 4.564-11.114 4.92-6.321 9.112-7.803 14.5-6.87 25.019.01.137-.091.265-.228.274-.009.009-.018.009-.028.009Zm32.94 33.287c-.265-.558-1.445-31.988-1.848-39.763-.11-2.195-.11-4.217-.11-6 .009-2.26.009-4.208-.21-5.919a.256.256 0 0 1 .219-.283.255.255 0 0 1 .284.22c.229 1.737.22 3.704.22 5.982-.01 1.774-.01 3.796.1 5.973.403 7.775 1.583 39.205 1.592 39.525a.256.256 0 0 1-.247.265Z"/><path fill="#0C0553" d="M199.313 130.45c-5.489 0-10.767-2.222-15.24-4.427-5.131-2.534-10.034-5.644-14.773-8.653-.256-.375-.75-3.494 3.01-8.507 3.412-4.546 6.275-4.51 6.366-4.51.101.018 2.196.951 2.196.951a7040.75 7040.75 0 0 1 14.48 6.413c2.095.924 3.549.713 4.455-.659.64-.969.814-2.232.96-3.339l.284-2.149a1005.72 1005.72 0 0 1 1.61-11.819c.018-.137.155-.228.283-.22a.256.256 0 0 1 .22.284 1239.82 1239.82 0 0 0-1.61 11.819l-.284 2.149c-.155 1.162-.329 2.479-1.033 3.55-1.052 1.591-2.763 1.875-5.077.841-4.83-2.14-9.651-4.272-14.48-6.412l-2.049-.906c-.357.019-2.909.302-5.909 4.309-3.229 4.308-3.202 7.189-3.156 7.766 4.747 3.018 9.641 6.119 14.745 8.635 4.418 2.177 9.632 4.381 15.02 4.381.274 0 .54-.009.823-.018 8.837-.375 14.737-7.83 16.658-15.047 1.271-4.784 2.25-10.053 2.991-16.1.018-.137.137-.246.283-.22a.256.256 0 0 1 .22.285c-.741 6.073-1.729 11.37-3.01 16.172-1.975 7.4-8.031 15.038-17.133 15.431-.292-.009-.576 0-.85 0ZM76.739 142.991H1.557a.256.256 0 1 1 0-.512h75.191c.137 0 .256.109.256.256a.27.27 0 0 1-.265.256Zm153.007 0h-85.089a.256.256 0 1 1 0-.512h85.089a.256.256 0 1 1 0 .512Zm-131.2 0h-8.672a.256.256 0 1 1 0-.512h8.672a.256.256 0 1 1 0 .512Z"/><path fill="#0C0553" d="M144.337 142.991H98.272a3.607 3.607 0 0 1-3.605-3.613v-28.686a3.605 3.605 0 0 1 3.605-3.604h46.065a3.605 3.605 0 0 1 3.604 3.604v28.686a3.606 3.606 0 0 1-3.604 3.613Zm-46.065-35.4a3.103 3.103 0 0 0-3.101 3.101v28.686c0 1.71 1.39 3.101 3.1 3.101h46.066a3.104 3.104 0 0 0 3.101-3.101v-28.686a3.103 3.103 0 0 0-3.101-3.101H98.272Z"/><path fill="#0C0553" d="M121.368 129.242a3.982 3.982 0 0 1-3.979-3.979 3.982 3.982 0 0 1 3.979-3.979 3.982 3.982 0 0 1 3.98 3.979 3.982 3.982 0 0 1-3.98 3.979Zm0-7.446a3.47 3.47 0 0 0-3.466 3.467 3.47 3.47 0 0 0 3.466 3.467 3.47 3.47 0 0 0 3.467-3.467 3.477 3.477 0 0 0-3.467-3.467Zm76.856-61.442c-1.161-.933-2.14-.257-2.177-.23a.26.26 0 0 1-.357-.054.26.26 0 0 1 .055-.357 2.124 2.124 0 0 1 2.644.192.24.24 0 0 1 .018.357.225.225 0 0 1-.183.092Z"/><path fill="#0C0553" d="M221.266 95.598c-.247-.1-.292-.256-.219-.384 6.366-11.196-1.793-18.157-4.437-20.023-5.525-3.888-5.076-6.403-4.326-10.556.265-1.446.558-3.083.649-5.059.147-3.082-.869-5.323-3.009-6.65-1.601-.997-3.266-1.08-3.284-1.088-.787-.256-1.473-.375-2.589-.458-5.872-.43-8.827 1.107-9.605 4.995-.283 1.408.302 2.314.311 2.323.046.146-.146 4.912-.146 4.912-1.372.695-2.461 1.327-2.506 1.574-.028.237.768 1.189 1.71 2.04.083.237-.082 2.963 1.665 4.39 1.217.988 3.074 1.144 5.516.467a.252.252 0 1 1 .137.484c-2.616.732-4.628.54-5.973-.567-1.747-1.427-1.793-3.896-1.775-4.482-.631-.576-1.884-1.811-1.783-2.415.1-.63 1.683-1.344 2.506-1.674l.174-4.519c-.156-.274-.622-1.234-.339-2.634.824-4.135 4.053-5.854 10.136-5.406.969.073 1.747.174 2.607.457.265.019 1.884.165 3.485 1.162 1.591.988 3.448 3.019 3.247 7.108-.101 2.012-.393 3.668-.659 5.131-.741 4.09-1.143 6.34 4.117 10.044 2.744 1.93 11.169 9.12 4.592 20.691-.028.092-.119.137-.202.137ZM115.112 72.373c-.238-.082-.293-.238-.229-.357.009-.009.622-1.28 2.424-.814.137.037.22.174.183.311a.254.254 0 0 1-.311.183c-1.409-.365-1.829.522-1.839.54a.268.268 0 0 1-.228.137Zm8.763.147c-1.391-1.62-2.561-.897-2.607-.87-.128.074-.275.047-.348-.072a.251.251 0 0 1 .073-.348c.019-.018 1.61-1.006 3.083.878a.25.25 0 0 1-.046.357.245.245 0 0 1-.155.055ZM34.149 61.232c.201-.027.338.055.393.787.064.814-.146.96-.329.95-.183-.008-.366-.255-.357-.84.01-.586.028-.851.293-.897Zm5.854-.21c.201-.037.339.046.42.768.092.814-.109.96-.292.96s-.375-.246-.384-.832c-.01-.576-.01-.841.256-.896Zm.741-1.464c-.43-.293-.814-.494-1.655-.284a.254.254 0 0 1-.311-.182.254.254 0 0 1 .182-.311c1.08-.284 1.629.045 1.949.329a.25.25 0 0 1 .027.357.258.258 0 0 1-.192.091Zm-7.482.155c-.284-.192-.275-.357-.165-.448 1.043-.896 2.424-.494 2.479-.476a.252.252 0 0 1-.137.485c-.01-.009-1.171-.338-2.004.375a.274.274 0 0 1-.173.064Zm85.308 29.272a.256.256 0 0 1-.257-.256l.01-4.09a.256.256 0 0 1 .512 0l-.009 4.09a.256.256 0 0 1-.256.256Zm2.799 18.606c-.202-.037-.284-.174-.247-.311l.512-2.131a.253.253 0 0 1 .311-.183c.137.036.22.174.183.311l-.512 2.131a.256.256 0 0 1-.247.183Zm4.976-.001c-.247-.182-.888-2.314-.888-2.314a.263.263 0 0 1 .174-.32c.137-.046.275.037.32.174l.641 2.14a.262.262 0 0 1-.174.32h-.073Z"/><path fill="#0C0553" d="M127.049 74.376c-3.119-2.049-3.851-5.25-4.025-6.586-.969.988-3.686 3.165-8.013 2.15a.253.253 0 0 1-.192-.302c.037-.137.174-.228.302-.192 5.187 1.198 7.867-2.378 7.894-2.415.458.183.65 4.5 4.171 6.87a.263.263 0 0 1 .074.357.234.234 0 0 1-.211.118Z"/><path fill="#0C0553" d="M131.513 74.093c-.284-.293-.22-.439-.092-.494-.009 0 .769-.54 1.235-4.62.284-2.533-1.244-3.96-2.332-4.308-2.095-.65-4.766-.356-4.794-.356-1.692-2.982-3.558-4.043-4.866-4.428a5.447 5.447 0 0 0-4.345.55c-1.39.822-2.25 1.865-2.561 3.1-.494 1.985.613 3.824.622 3.842a1.724 1.724 0 0 0-1.043.869c-.558 1.125-.393 3.348 1.756 4.555.119.073.165.22.101.348a.259.259 0 0 1-.348.1c-2.433-1.362-2.607-3.924-1.966-5.223.219-.43.521-.704.841-.786-.329-.696-.869-2.187-.466-3.815.338-1.372 1.28-2.524 2.799-3.412a5.926 5.926 0 0 1 4.747-.594c1.382.402 3.33 1.49 4.848 4.39.65-.054 2.918-.2 4.83.394 1.555.485 2.973 2.305 2.689 4.848-.493 4.409-1.381 4.967-1.555 5.04-.036-.01-.073 0-.1 0Zm-59.283 7.51c-.321-1.317-.568-5.25-.568-5.25.01-.074.97-4.126.97-4.126.054-.201.11-.393.155-.585.293-1.226.567-2.617-.018-3.632-.302-.53-.823-.832-1.418-1.134a12.925 12.925 0 0 0-2.46-.979 4.623 4.623 0 0 0-1.19-.21c-.768 0-1.619.484-1.692 1.372-.037.485.174 1.033.594 1.51.54.603 1.309 1.06 1.84 1.362 1.033.576 2.158.887 3.265.897.137 0 .256.118.256.256 0 .137-.11.247-.256.247-1.19-.01-2.406-.348-3.513-.96-.567-.312-1.381-.806-1.966-1.465-.522-.585-.769-1.253-.723-1.884.1-1.198 1.198-1.838 2.186-1.838.485 0 .942.11 1.336.22.878.246 1.738.585 2.56 1.014.669.348 1.245.686 1.62 1.336.677 1.18.393 2.69.073 4.006-.055.202-.1.394-.155.595l-.952 4.007c.028.402.256 3.96.311 4.976.01.137-.1.256-.238.265h-.018Zm-10.429 2.04c-.247-.21-1.043-4.802-1.043-4.802s-.814-2.525-1.454-5.69a.259.259 0 0 1 .201-.301.259.259 0 0 1 .302.2 56.305 56.305 0 0 0 1.445 5.663l.796 4.629a.251.251 0 0 1-.21.292c-.01.01-.028.01-.037.01Z"/><path fill="#0C0553" d="M60.804 73.81a2.144 2.144 0 0 1-1.418-.513 1.926 1.926 0 0 1-.356-.448 2.997 2.997 0 0 1-.33-.85c-.347-1.473-.722-3.102-.558-4.583.046-.44.201-1.052.65-1.519a2.004 2.004 0 0 1 2.158-.448c.778.31 1.263 1.152 1.537 1.802.128.31.238.64.339 1.043.265 1.116.448 2.076.375 3.01-.064.767-.348 1.435-.796 1.883a2.343 2.343 0 0 1-1.6.623Zm-.576-8.004c-.403 0-.805.155-1.07.43-.348.365-.476.868-.513 1.225-.146 1.4.22 2.982.54 4.373.073.329.165.567.284.75.073.128.164.238.265.338.613.558 1.701.503 2.323-.11.366-.356.595-.914.65-1.564.073-.86-.11-1.774-.275-2.47-.192-.74-.292-1.051-.411-1.344-.192-.457-.613-1.272-1.254-1.528a1.38 1.38 0 0 0-.54-.1Zm10.574.686c-.512-2.333-.905-4.802-1.793-7.071-.146-.366-.329-.787-.64-1.061-.567-.485-1.244-.137-1.647.302-.97 1.06-.722 2.35-.457 3.723.229 1.207.394 2.131.549 3.055a.251.251 0 0 1-.21.293c-.156.036-.275-.074-.293-.21a145.73 145.73 0 0 0-.494-2.763c-.33-1.72-.604-3.202.53-4.446.613-.658 1.574-1.024 2.36-.347.403.347.613.832.787 1.253.915 2.323 1.308 4.83 1.573 6.97a.256.256 0 0 1-.219.284c-.028.018-.037.018-.046.018Z"/><path fill="#0C0553" d="M65.643 72.73c-.503 0-.997-.136-1.39-.347-.723-.393-1.08-1.161-1.263-1.738-.137-.457-.237-.933-.338-1.4-.055-.265-.11-.52-.174-.786-.192-.796-.338-1.656-.073-2.452.338-1.024 1.546-1.948 2.763-1.655.868.22 1.417.75 1.5 1.454a.256.256 0 0 1-.22.284.246.246 0 0 1-.283-.22c-.083-.668-.741-.933-1.126-1.024-.914-.229-1.884.512-2.15 1.317-.237.713-.082 1.5.083 2.177.064.265.119.53.174.796.091.448.192.915.33 1.354.146.485.447 1.125 1.015 1.436.585.32 1.463.448 2.122.018.585-.384.85-1.134.768-2.186a.256.256 0 0 1 .238-.274c.146.009.265.09.274.237.128 1.564-.466 2.305-.997 2.653a2.31 2.31 0 0 1-1.253.357Zm28.43 41.245c-1.4 0-2.762-.055-4.07-.155a.262.262 0 0 1-.238-.275c.009-.137.137-.228.274-.237a52.69 52.69 0 0 0 4.867.155c.146 0 .256.11.256.247s-.11.256-.247.256c-.284 0-.558.009-.842.009Zm-10.849-1.271c-5.58-1.427-10.318-4.089-14.142-7.903-5.817-5.827-8.113-13.785-10.336-21.487l-.265-.933a.248.248 0 0 1 .174-.311.248.248 0 0 1 .31.174l.275.933c2.204 7.638 4.482 15.541 10.208 21.276 3.75 3.76 8.407 6.367 13.84 7.766.138.037.22.174.183.311a.281.281 0 0 1-.247.174Z"/><path fill="#0C0553" d="M62.615 83.66c-2.25 0-3.997-.402-4.162-1.353-.146-.833.741-1.61 2.699-2.379a.25.25 0 0 1 .329.147.257.257 0 0 1-.146.33c-1.601.63-2.47 1.289-2.379 1.81.138.778 3.193 1.354 7.885.55 4.464-.77 7.41-2.278 7.254-3.157-.082-.457-.796-.759-2.085-.878-.138-.009-.238-.137-.23-.274.01-.137.102-.238.275-.229 1.583.147 2.415.567 2.534 1.3.265 1.527-3.75 3.063-7.665 3.74-1.446.247-2.964.394-4.309.394Zm63.419-19.382c-.247-.1-.293-.247-.229-.375.073-.137 1.793-3.311 3.384-3.714a.25.25 0 0 1 .311.183.253.253 0 0 1-.183.311c-1.143.293-2.597 2.598-3.064 3.467-.036.082-.128.128-.219.128Zm-.961-.713c-.238-.082-.292-.238-.228-.366.009-.009.567-1.17.704-1.902.027-.138.146-.22.302-.202a.25.25 0 0 1 .201.293c-.146.796-.723 1.976-.741 2.03a.267.267 0 0 1-.238.147Zm-5.763 15.038c-.164 0-1.637-.019-2.14-.55a.668.668 0 0 1-.183-.493c.055-.805 1.171-3.906 1.217-4.043a.248.248 0 0 1 .32-.156.248.248 0 0 1 .155.32c-.32.879-1.152 3.294-1.189 3.906.311.394 1.272.504 1.811.504.137 0 .256.11.256.256a.242.242 0 0 1-.247.256Zm1.729 3.696a3.23 3.23 0 0 1-.832-.12c-.622-.182-1.107-.557-1.253-.978-.138-.366-.083-.714.137-.988.274-.338.768-.53 1.308-.448.695.082.75.036.887-.064.137-.101.202-.147.32-.824.101-.53.412-.96.815-1.116.329-.118.676-.073.987.165.33.247.522.778.513 1.427-.009.96-.439 1.848-1.144 2.378a3.03 3.03 0 0 1-1.738.568Zm-.86-2.05c-.292 0-.548.101-.686.275-.109.137-.128.302-.054.494.073.21.393.503.923.668a2.37 2.37 0 0 0 2.113-.385c.586-.43.933-1.17.943-1.966.009-.54-.156-.897-.311-1.016-.165-.128-.33-.155-.494-.091-.238.091-.439.384-.503.732-.147.796-.257.951-.522 1.143-.283.21-.485.256-1.253.156-.055-.01-.101-.01-.156-.01Z"/><path fill="#0C0553" d="M122.329 81.951c-1.171-1.829.201-3.201 1.07-3.695a.254.254 0 1 1 .256.439c-.082.046-2.04 1.19-1.097 2.872.073.12.027.275-.101.348a.253.253 0 0 1-.128.036Zm7.967-3.925c-.109-.027-2.497-1.207-2.497-1.207-.064-.403 2.095-2.625 2.095-2.625.091-.101.256-.101.357 0 .1.1.1.256 0 .356l-1.921 1.967 2.067 1.025c.128.064.174.21.119.338a.23.23 0 0 1-.22.146Zm9.559 29.492a.256.256 0 0 1-.256-.256v-1.985c0-.138.11-.256.256-.256.137 0 .256.109.256.256v1.985a.25.25 0 0 1-.256.256ZM62.286 48.791c-.439 0-.887-.1-1.344-.31-.796-.366-1.492-.934-2.104-1.757-.723-.951-1.281-2.049-1.748-3.476a22.533 22.533 0 0 1-.329-1.116l-.137-.484c.174-.32 2.113-.851 2.113-.851a.371.371 0 0 1 .43.146c.686.924 1.555 1.802 2.671 2.68a.898.898 0 0 0 .832.174c.311-.073.622-.22.997-.457.842-.54 1.583-1.217 2.196-1.82 1.134-1.117 2.278-2.416 3.494-3.961.128-.174.293-.22.494-.165.549.156 1.098.311 1.647.457l.393.11c-1.28 3.046-2.744 5.16-4.254 6.98-.759.914-1.692 1.957-2.854 2.808a8.28 8.28 0 0 1-1.125.686 2.897 2.897 0 0 1-1.372.356Zm-5.104-7.034c.174.613.274.979.393 1.336.449 1.363.98 2.424 1.665 3.32.567.75 1.198 1.272 1.912 1.601.796.366 1.537.357 2.278-.027.411-.22.759-.43 1.06-.65 1.126-.823 2.031-1.839 2.763-2.726 1.455-1.756 2.873-3.787 4.309-6.22-.732-.201-1.272-.347-1.812-.503-1.234 1.564-2.378 2.863-3.521 3.988-.632.622-1.39 1.327-2.278 1.894-.265.164-.677.402-1.153.521-.484.11-.896.028-1.271-.265-1.125-.888-2.012-1.775-2.717-2.717l-1.628.448Z"/><path fill="#0C0553" d="M64.408 54.792c-6.513 0-11.818-5.296-11.818-11.809 0-6.513 5.296-11.81 11.818-11.81 6.513 0 11.819 5.297 11.819 11.81 0 1.372-.23 2.708-.687 3.98a.248.248 0 0 1-.32.155.248.248 0 0 1-.155-.32c.439-1.217.658-2.498.658-3.815 0-6.23-5.067-11.306-11.306-11.306-6.238 0-11.306 5.068-11.306 11.306 0 6.23 5.077 11.306 11.306 11.306.138 0 .256.11.256.256-.018.137-.128.247-.265.247ZM51.035 39.48c-.12-.028-6.056-3.093-6.056-3.093a.249.249 0 0 1-.11-.338c.065-.119.22-.174.339-.11l5.937 3.065a.25.25 0 0 1 .11.338.244.244 0 0 1-.22.137Zm23.902-4.326c-.284-.202-.275-.357-.165-.449l4.4-3.677a.257.257 0 0 1 .357.027.258.258 0 0 1-.028.357l-4.4 3.678a.22.22 0 0 1-.164.063Zm5.909 22.684c-.165-.055-6.915-5.68-6.915-5.68a.25.25 0 0 1-.028-.357.25.25 0 0 1 .357-.028l6.75 5.626c.11.091.12.247.028.357a.263.263 0 0 1-.192.082ZM64.408 30.122a.256.256 0 0 1-.256-.256v-6.211a.256.256 0 1 1 .512 0v6.21c-.009.138-.119.257-.256.257ZM53.67 56.027c-.275-.164-.284-.32-.184-.43l2.004-2.158a.248.248 0 0 1 .356-.01c.1.092.11.257.01.357l-2.004 2.159a.23.23 0 0 1-.183.082ZM28.752 67.215c-.96-.055-1.665-.403-2.177-.98a2.906 2.906 0 0 1-.723-2.103c.101-1.6 1.51-2.8 3.074-2.717a2.926 2.926 0 0 1 1.591.595.25.25 0 0 1 .046.357.26.26 0 0 1-.357.045 2.42 2.42 0 0 0-1.308-.494c-1.29-.082-2.451.924-2.543 2.241-.036.64.174 1.253.595 1.738.42.476 1.006.769 1.647.805a2.39 2.39 0 0 0 1.253-.265.262.262 0 0 1 .347.11.246.246 0 0 1-.11.338c-.42.22-.878.33-1.335.33Z"/><path fill="#0C0553" d="M28.157 65.915c-.283-.21-.265-.365-.155-.457l1.518-1.17-1.7-1.263a.26.26 0 0 1-.056-.357.259.259 0 0 1 .357-.055l1.976 1.464c0 .402-1.784 1.784-1.784 1.784a.248.248 0 0 1-.155.054Zm7.309 16.465c-.155-.054-5.818-4.436-5.818-4.436a.259.259 0 0 1-.045-.357.25.25 0 0 1 .356-.045l5.324 4.125.933-5.296.22-4.245a.26.26 0 0 1 .265-.237.254.254 0 0 1 .238.265l-.229 4.28-1.006 5.745c-.174.192-.21.202-.238.202ZM19.12 74.158c-1.052-.75-1.491-1.756-1.4-2.909.046-.585.33-1.17.787-1.637.732-.75 1.93-1.162 3.11-1.107.997.055 1.83.466 2.342 1.134a.259.259 0 0 1-.046.357.259.259 0 0 1-.357-.046c-.42-.558-1.125-.887-1.966-.942-1.043-.082-2.095.311-2.717.951-.375.385-.604.851-.64 1.317-.083.97.292 1.82 1.052 2.415.11.083.128.247.045.357-.064.073-.137.11-.21.11Zm20.288 2.816c-.265-.128-.292-.283-.21-.402 1.683-2.379-.54-4.73-.558-4.748a.249.249 0 0 1 .01-.356c.1-.101.255-.092.356.009.027.027 2.543 2.68.613 5.397a.288.288 0 0 1-.21.1Z"/><path fill="#0C0553" d="M28.78 77.99c-.394 0-.659-.046-.668-.046a.254.254 0 0 1-.201-.302.262.262 0 0 1 .292-.201c.156.036 3.732.658 4.684-3.595.97-4.318-3.476-6.75-3.522-6.778a.238.238 0 0 1-.1-.339.238.238 0 0 1 .338-.1c.046.027 4.839 2.643 3.778 7.327-.796 3.585-3.366 4.034-4.601 4.034Zm15.248 28.274c-.284-.21-.265-.366-.155-.457.173-.138.585-.375 1.161-.696 1.793-1.024 5.141-2.936 5.726-4.427.311-.777.266-1.363-.128-1.674-.365-.302-.988-.293-1.29-.091a.263.263 0 0 1-.356-.073.263.263 0 0 1 .073-.357c.457-.311 1.308-.348 1.894.119.329.265.814.924.283 2.259-.658 1.656-3.97 3.549-5.946 4.684-.53.301-.951.539-1.097.658a.292.292 0 0 1-.165.055Z"/><path fill="#0C0553" d="M37.67 113.107c-.292-.238-.256-.394-.137-.467.037-.027 4.18-2.561 9.477-5.653 1.912-1.116 3.064-2.342 3.33-3.531.21-.933-.183-1.518-.202-1.546a.251.251 0 0 1 .065-.356.26.26 0 0 1 .356.064c.019.027.53.777.284 1.93-.293 1.363-1.5 2.662-3.577 3.878-5.287 3.092-9.422 5.626-9.467 5.653-.037.009-.083.028-.128.028Zm-.54-14.27c-.182-.028-.274-.156-.246-.293 1.345-7.903 3.494-12.852 3.513-12.907.237-.156 10.73-.156 10.73-.156a.256.256 0 1 1 0 .513H40.798c-.366.887-2.214 5.57-3.421 12.632-.01.119-.119.21-.247.21Z"/><path fill="#0C0553" d="M54.648 116.025H38.092a.256.256 0 1 1 0-.513h16.31c.264-16.904 3.64-27.524 4.335-29.527h-7.592a.256.256 0 1 1 0-.512h7.949c.201.457-3.924 11.489-4.19 30.286-.009.156-.119.266-.256.266Z"/><path fill="#0C0553" d="M48.592 142.991c-.86-.951-1.198-17.188-1.262-27.222a.256.256 0 1 1 .512 0c.083 13.776.522 26.051.96 26.82a.26.26 0 0 1-.045.357.378.378 0 0 1-.165.045Zm-41.126-.055c-.42-3.75-.256-12.056-.256-12.138 0-.137.11-.229.256-.247.137 0 .256.119.247.256 0 .082-.165 8.37 0 11.864.01.137-.1.256-.238.265h-.009Zm10.154-29.573c-.238-.091-.293-.238-.23-.366 4.172-8.287 4.712-21.624 4.712-21.761.009-.138.1-.256.265-.247a.262.262 0 0 1 .247.265c-.01.137-.549 13.584-4.766 21.972a.27.27 0 0 1-.228.137Z"/><path fill="#000" d="M75.046 140.905c-.85-.338-1.692-.512-2.89-.613-4.674-.393-7.162-3.174-7.263-3.293a.25.25 0 0 1 .027-.357.25.25 0 0 1 .357.028c.028.027 2.46 2.753 6.925 3.119 1.253.11 2.14.293 2.945.631a.253.253 0 0 1 .137.33.273.273 0 0 1-.238.155Z"/><path fill="#0C0553" d="M74.095 142.891c-.265-.137-.283-.293-.2-.403.008-.009.438-.594.255-1.097-.128-.348-.521-.604-1.189-.769-2.35-.558-4.802-1.372-4.83-1.381a.26.26 0 0 1-.164-.32.262.262 0 0 1 .32-.165c.027.009 2.451.814 4.784 1.363.841.201 1.363.567 1.555 1.089.274.768-.311 1.546-.33 1.573a.253.253 0 0 1-.2.11Zm-9.943.1c-3.202-.659-3.019-2.452-3.01-2.534a.25.25 0 0 1 .284-.219.255.255 0 0 1 .22.283c-.01.064-.1 1.418 2.56 1.967a.258.258 0 0 1 .202.302.264.264 0 0 1-.256.201Zm-7.537-.055c-.823-.705-1.052-1.354-1.061-1.381a.253.253 0 0 1 .155-.321.257.257 0 0 1 .32.156c0 .009.202.567.76 1.116.1.1.1.256 0 .357a.253.253 0 0 1-.174.073ZM38.842 66.354c-.293-.228-.266-.384-.147-.466.33-.22.97-.96 1.034-1.427-.165-.338-.659-.128-.915-.018-.293.128-.485.21-.65.128-.228-.44-.548-2.836-.621-3.312a.256.256 0 0 1 .22-.283.256.256 0 0 1 .283.22c.128.914.32 2.323.402 2.853.586-.256 1.244-.54 1.629-.1.091.1.192.292.146.585-.082.668-.86 1.518-1.244 1.784a.22.22 0 0 1-.137.036Zm-2.196 1.885c-.393 0-.74-.1-1.043-.311-.777-.54-.887-1.574-.887-1.62a.254.254 0 0 1 .229-.274c.137-.027.265.092.274.229 0 .01.091.85.668 1.244.347.238.805.274 1.381.119a.256.256 0 0 1 .311.174.256.256 0 0 1-.174.31 2.495 2.495 0 0 1-.759.129Zm160.38-6.165c-.201-.01-.329.082-.32.823.009.814.228.942.411.915.183-.028.339-.293.284-.87-.064-.585-.11-.85-.375-.868Zm-2.442 7.418c-.284 0-.586-.055-.906-.174a.25.25 0 0 1-.156-.32.257.257 0 0 1 .321-.155c.558.2 1.024.183 1.39-.028.613-.356.75-1.189.75-1.198.018-.137.137-.247.293-.21.137.018.228.155.21.292-.009.046-.183 1.07-.997 1.546-.265.174-.567.247-.905.247ZM85.118 128.886c-2.754-.083-3.778-1.29-4.208-2.296-.814-1.94-.018-4.483 1.217-5.827.018-.028.832-1.025.036-3.421-.521-1.565-.402-3.12.339-4.263.677-1.052 1.81-1.683 3.284-1.839 1.436-.155 2.753.33 3.686 1.354.96 1.061 1.4 2.571 1.134 3.842-.448 2.159-.567 2.735-.009 4.592.384 1.253.44 3.952-1.024 5.873-.997 1.317-2.498 1.985-4.455 1.985Zm1.207-17.17c-.155 0-.32.009-.485.028-1.317.137-2.323.695-2.918 1.609-.649 1.016-.759 2.406-.283 3.833.915 2.735-.1 3.879-.137 3.924-1.107 1.199-1.848 3.568-1.126 5.288.522 1.244 1.73 1.93 3.486 1.984 1.92.037 3.366-.539 4.317-1.783 1.28-1.674 1.317-4.171.942-5.415-.603-1.985-.457-2.699-.064-4.583.284-1.372-.119-2.735-.96-3.668-.512-.577-1.4-1.217-2.772-1.217Zm3.43-1.116c-1.024 0-1.829-1.171-1.829-2.662 0-1.491.805-2.662 1.83-2.662 1.024 0 1.829 1.171 1.829 2.662 0 1.5-.805 2.662-1.83 2.662Zm0-4.802c-.713 0-1.317.988-1.317 2.149 0 1.162.604 2.15 1.317 2.15.714 0 1.318-.988 1.318-2.15 0-1.17-.604-2.149-1.317-2.149ZM79.52 142.259c-.083-.018-3.23-.75-3.421-3.814-.055-.869.182-1.555.695-2.04.997-.952 2.67-.787 2.735-.769a.262.262 0 0 1 .228.275c-.018.137-.155.247-.274.228-.018 0-1.518-.146-2.333.641-.393.384-.576.933-.53 1.646.165 2.671 2.854 3.312 2.973 3.339.137.037.22.165.192.302-.046.11-.156.192-.265.192Z"/><path fill="#0C0553" d="M79.4 143.897c-.073-.009-5.25-.567-4.902-5.452.11-1.509.63-2.662 1.555-3.421 1.445-1.198 3.348-.997 3.42-.979a.256.256 0 0 1 .22.284.255.255 0 0 1-.283.219c-.01 0-1.766-.192-3.046.869-.814.668-1.272 1.702-1.363 3.065-.311 4.381 4.226 4.884 4.418 4.903a.26.26 0 0 1 .229.274.244.244 0 0 1-.247.238Zm5.324 2.606c-.914 0-5.46-.055-5.46-1.07a.256.256 0 1 1 .512 0c.183.201 2.058.567 4.948.567 2.864 0 4.72-.366 4.912-.622.385-.229.494-.091.494.055 0 1.015-4.5 1.07-5.406 1.07Z"/><path fill="#0C0553" d="M89.874 145.681a.256.256 0 0 1-.256-.256v-11.608c0-.138.11-.256.256-.256.138 0 .256.109.256.256v11.608a.25.25 0 0 1-.256.256Zm-10.354-.001a.255.255 0 0 1-.257-.256v-11.699a.256.256 0 1 1 .513 0v11.699c-.01.147-.12.256-.256.256Z"/><path fill="#0C0553" d="M84.697 135.051c-.22 0-5.434-.018-5.434-1.235s5.214-1.235 5.434-1.235c.22 0 5.433.009 5.433 1.235 0 1.226-5.213 1.235-5.433 1.235Zm0-1.958c-3.037 0-4.793.476-4.93.741.137.229 1.893.705 4.93.705 2.954 0 4.702-.458 4.912-.723-.21-.265-1.957-.723-4.912-.723Zm120.104-65.448a3.051 3.051 0 0 1-1.491-.394.252.252 0 0 1-.091-.347c.064-.128.219-.165.347-.092.448.257.961.375 1.473.32a2.52 2.52 0 0 0 2.278-2.735 2.532 2.532 0 0 0-2.735-2.277 2.52 2.52 0 0 0-2.022 1.372.246.246 0 0 1-.338.11.248.248 0 0 1-.11-.339 3.02 3.02 0 0 1 5.708 1.08c.146 1.655-1.08 3.137-2.735 3.283-.101.019-.192.019-.284.019Z"/><path fill="#0C0553" d="M205.615 66.062c-.119-.027-2.131-1.098-2.131-1.098-.055-.411 1.72-2.012 1.72-2.012a.256.256 0 0 1 .356.018c.092.1.083.266-.018.357l-1.5 1.354 1.692.896c.128.064.174.22.11.348-.055.082-.137.137-.229.137Zm-8.827 18.413a.26.26 0 0 1-.256-.274c.009-.138.265-3.385 1.765-5.663 1.098-1.664 4.721-3.091 6.221-3.622a.261.261 0 0 1 .329.156.265.265 0 0 1-.156.329c-3.036 1.08-5.259 2.35-5.964 3.42-1.427 2.16-1.683 5.389-1.683 5.416a.252.252 0 0 1-.256.238Z"/><path fill="#0C0553" d="M220.873 91.528c-.924-2.269-1.564-4.144-2.515-5.845-1.098-1.958-2.699-3.266-4.922-4.016a36.536 36.536 0 0 0-1.317-.412c-.869-.265-1.765-.53-2.607-.914-1.034-.467-2.04-1.144-3.092-2.086-3.037-2.726-2.634-7.51-.887-11.05a.257.257 0 0 1 .338-.119.26.26 0 0 1 .119.339c-1.664 3.366-2.067 7.903.769 10.446 1.006.906 1.976 1.555 2.954 2.003.814.366 1.693.631 2.543.888.448.137.897.274 1.345.42 2.342.796 4.043 2.186 5.196 4.254.978 1.747 1.655 3.723 2.314 5.763a.25.25 0 0 1-.165.32c-.027.009-.046.009-.073.009Zm-17.947-28.686c-2.534-2.451-2.378-5.497-2.241-6.522-4.098.586-5.928 2.68-5.946 2.699a.25.25 0 0 1-.357.027.25.25 0 0 1-.027-.356c.082-.101 2.067-2.379 6.604-2.918.275.338-.475 3.997 2.141 6.631.1.1.1.266 0 .357-.037.055-.101.082-.174.082Zm-2.927 14.746a.26.26 0 0 1-.256-.247l-.174-4.674a.256.256 0 0 1 .247-.266c.146 0 .256.11.265.247l.174 4.675a.27.27 0 0 1-.256.265c.009 0 0 0 0 0Zm-2.946 3.905c-13.538-3.915-19.749-19.492-19.804-19.648-.055-.128.009-.274.147-.33a.25.25 0 0 1 .329.147c.064.156 6.184 15.505 19.411 19.337.137.037.21.183.173.312a.283.283 0 0 1-.256.182Zm-6.75 16.209c-8.599-3.42-19.877-11.708-25.347-31.86a.255.255 0 0 1 .173-.31.25.25 0 0 1 .311.173c5.416 19.95 16.557 28.137 24.954 31.503a.252.252 0 0 1 .137.33.244.244 0 0 1-.228.164Zm-14.298-34.475c-.393-.522-1.747-3.778-1.042-4.903.603-.97 1.271-1.546 1.866-2.058.219-.192.43-.375.631-.568.695-.676.942-1.362.668-1.884-.238-.457-.86-.686-1.501-.549-1.381.284-3.247 2.113-4.61 3.44-1.326 1.299-5.36 1.06-5.543 1.042a.257.257 0 0 1-.238-.274c1.372-.174 4.427-.165 5.287-1.006 1.619-1.592 3.467-3.394 5.004-3.714.869-.174 1.701.155 2.049.814.183.348.476 1.272-.759 2.479-.211.201-.43.393-.659.586-.595.512-1.207 1.042-1.765 1.939-.421.677.292 2.982.85 4.28a.252.252 0 0 1-.137.33c-.027.037-.064.046-.101.046Z"/><path fill="#0C0553" d="M167.425 66.163c-.411-1.253-1.125-4.025-2.479-4.345-1.655-.384-7.135-2.835-7.747-5.68-.11-.503.036-.98.393-1.308.457-.412 1.18-.54 1.903-.32 1.116.338 4.784 2.442 5.369 2.78.649-.064 4.528-.384 6.44 1.683a.25.25 0 1 1-.366.339c-1.866-2.022-6.047-1.519-6.083-1.51-.201-.054-4.373-2.47-5.498-2.808-.548-.174-1.088-.091-1.408.21-.229.211-.311.495-.238.824.521 2.442 5.461 4.848 7.373 5.296 1.966.458 2.588 4.382 2.616 4.546a.263.263 0 0 1-.211.293h-.064Z"/><path fill="#0C0553" d="M168.486 57.765c-2.597-1.555-6.769-3.924-7.656-3.924-1.006.11-1.152.951-1.152.96-.019.138-.138.247-.293.21-.137-.018-.229-.155-.211-.292a1.734 1.734 0 0 1 1.555-1.372c1.226-.146 7.218 3.53 7.895 3.952a.252.252 0 0 1 .082.347.283.283 0 0 1-.22.12Z"/><path fill="#0C0553" d="M170.984 57.345c-.165-.055-2.717-1.729-3.284-2.04a23.224 23.224 0 0 1-.997-.576c-1.153-.686-2.735-1.62-3.76-1.674-1.171-.083-1.399.576-1.408.603-.046.138-.183.202-.321.174a.248.248 0 0 1-.173-.31c.009-.047.338-1.053 1.921-.97 1.152.054 2.725.988 3.997 1.738.366.22.704.411.979.567.594.32 3.082 1.948 3.192 2.021a.252.252 0 0 1 .073.348.282.282 0 0 1-.219.119Zm4.537 48.672c-.174-.064-.586-.394-2.735-2.351a20.019 20.019 0 0 1-2.214-2.351 23.854 23.854 0 0 1-.832-1.143c-.385-.55-.778-1.116-1.226-1.62a6.525 6.525 0 0 0-.43-.439c-.21-.192-.494-.43-.823-.54-.339-.11-.723-.054-1.061.165-.375.247-.622.65-.65 1.052-.046.64.339 1.299.705 1.875.192.311.411.604.622.906.237.339.493.686.713 1.052.357.512.988 1.409-.183 2.351-.951.768-2.159-.512-2.881-1.29a7.83 7.83 0 0 0-.275-.283c-.1-.101-.1-.266 0-.357a.256.256 0 0 1 .357 0c.082.082.174.183.274.292.595.641 1.592 1.72 2.187 1.235.805-.649.457-1.134.173-1.527-.32-.503-.567-.851-.805-1.18a21.143 21.143 0 0 1-.64-.924c-.411-.64-.841-1.39-.777-2.186a1.905 1.905 0 0 1 .878-1.436c.466-.311 1.015-.394 1.5-.23.421.147.759.422 1.006.65.165.156.32.311.467.476.466.521.869 1.098 1.262 1.665.265.384.531.759.823 1.125a19.76 19.76 0 0 0 2.15 2.296c2.113 1.93 2.534 2.268 2.543 2.278.11.082.128.247.046.356-.028.055-.101.083-.174.083Zm-16.109-3.997c-.219-.119-.933-.942-.933-2.177 0-.777.247-1.244.814-1.582a.256.256 0 0 1 .348.091.256.256 0 0 1-.092.348c-.347.201-.567.466-.567 1.134 0 1.034.613 1.756.613 1.756a.249.249 0 0 1-.027.357c-.037.055-.101.073-.156.073Z"/><path fill="#0C0553" d="M165.632 104.59c-.173-.073-8.324-7.748-8.324-7.748-.009-.357 12.066-13.172 12.066-13.172.091-.1.256-.11.356-.01l8.151 7.675c.1.101.109.257.009.357l-7.794 8.27c-.1.1-.256.109-.356.008a.249.249 0 0 1-.01-.356l7.62-8.086-7.775-7.327-11.727 12.44 7.784 7.327 1.281-1.363c.101-.101.256-.11.357-.009.1.091.11.256.009.357l-1.464 1.555c-.173.082-.173.082-.183.082Z"/><path fill="#0C0553" d="M162.678 96.614c-.275-.165-.284-.33-.183-.43l7.391-7.83a.249.249 0 0 1 .357-.01.25.25 0 0 1 .009.357l-7.391 7.83a.244.244 0 0 1-.183.083Zm4.747.75c-.274-.165-.283-.33-.183-.43l5.562-5.89a.248.248 0 0 1 .357-.01c.1.1.109.256.009.357l-5.562 5.89a.26.26 0 0 1-.183.083Zm-3.668 9.22c-2.351-1.847-4.519-4.628-4.546-4.656a.249.249 0 0 1 .046-.356.259.259 0 0 1 .356.045c.019.028 2.159 2.763 4.309 4.519a.25.25 0 0 1 .036.357.293.293 0 0 1-.201.091Zm-54.664-63.198h-4.949a1.467 1.467 0 0 1-1.463-1.464v-4.949c0-.805.658-1.463 1.463-1.463h4.949c.805 0 1.463.658 1.463 1.463v4.949c0 .805-.658 1.464-1.463 1.464Zm-4.958-7.373a.96.96 0 0 0-.96.96v4.949c0 .53.43.951.96.951h4.949c.53 0 .96-.43.96-.951v-4.949a.96.96 0 0 0-.96-.96h-4.949Zm4.958 19.539h-4.949a1.467 1.467 0 0 1-1.463-1.464v-4.949c0-.805.658-1.463 1.463-1.463h4.949c.805 0 1.463.658 1.463 1.463v4.949c0 .805-.658 1.464-1.463 1.464Zm-4.958-7.373a.96.96 0 0 0-.96.96v4.949c0 .521.43.951.96.951h4.949c.53 0 .96-.43.96-.951v-4.949a.96.96 0 0 0-.96-.96h-4.949Zm39.974-10.584h-30.973a.256.256 0 1 1 0-.512h30.973c.137 0 .256.11.256.256a.262.262 0 0 1-.256.256Zm0 4.619h-30.973a.256.256 0 1 1 0-.512h30.973a.256.256 0 1 1 0 .512Zm0 7.547h-30.973a.256.256 0 1 1 0-.512h30.973c.137 0 .256.11.256.256a.262.262 0 0 1-.256.256Zm0 4.62h-30.973a.256.256 0 1 1 0-.512h30.973a.256.256 0 1 1 0 .512Z"/><path fill="#0C0553" d="M169.795 114.177c-.622-.952-1.29-1.162-2.306-1.473-.786-.238-1.765-.549-2.863-1.244-2.634-1.665-5.076-4.711-6.119-6.852-1.18-2.433.503-3.43.521-3.439a.256.256 0 0 1 .348.092c.073.118.027.274-.092.347-.064.037-1.28.796-.32 2.781 1.006 2.076 3.375 5.022 5.937 6.641 1.043.658 1.948.942 2.744 1.189 1.061.329 1.893.585 2.378 1.601a.25.25 0 0 1-.119.338c-.036.009-.073.019-.109.019ZM32.393 105.66c-.284-.292-.22-.439-.092-.494.01 0 1.08-.512 1.28-3.713.357-5.9 4.108-7.19 4.263-7.245a.25.25 0 0 1 .32.165.25.25 0 0 1-.164.32c-.146.046-3.577 1.253-3.915 6.796-.22 3.522-1.464 4.098-1.6 4.153a.274.274 0 0 1-.092.018Zm9.934-1.427c-.293-.274-.23-.429-.101-.484 3.659-1.656 6.614-4.117 7.016-5.855.119-.503.027-.933-.274-1.308-.156-.192-.43-.42-.806-.42-.475 0-.96.283-1.408.576a20.06 20.06 0 0 0-1.336.96c-.183.138-.356.275-.54.403-.987.732-2.012 1.372-2.963 1.948-.238.147-.476.302-.714.467-.612.402-1.253.832-1.939 1.088-.247.092-.613.211-.997.128-1.482-.302-1.418-2.232-1.381-3.165a.256.256 0 0 1 .265-.247c.137.01.247.12.247.266-.036 1.207.046 2.46.979 2.652.183.037.412.009.713-.109.632-.238 1.245-.65 1.839-1.043.247-.165.485-.32.732-.476.942-.576 1.957-1.207 2.927-1.93.183-.137.357-.265.54-.403.439-.329.896-.676 1.363-.978.521-.33 1.07-.65 1.683-.65.457 0 .878.21 1.198.613.403.494.53 1.08.375 1.747-.521 2.223-4.153 4.775-7.309 6.202-.036.018-.073.018-.11.018ZM166.108 66.29c-.613 0-1.052-.12-1.153-.43-.173-.522.357-1.015 1.885-1.756a.25.25 0 0 1 .338.118.25.25 0 0 1-.119.339c-1.674.805-1.637 1.107-1.628 1.134.229.247 2.488.092 6.175-1.116 3.677-1.207 5.589-2.424 5.634-2.771-.009 0-.164-.229-1.701.018-.137.036-.275-.073-.293-.21-.027-.138.073-.266.211-.293 1.454-.238 2.113-.128 2.268.338a.506.506 0 0 1-.046.403c-.439.869-3.375 2.158-5.909 2.991-.201.073-3.759 1.235-5.662 1.235Zm-22.173 19.292h-6.028a.256.256 0 0 1-.256-.256V66.619c0-.137.11-.256.256-.256h6.028c.137 0 .256.11.256.256v6.01a.256.256 0 1 1-.512 0v-5.754h-5.516V85.08h5.516v-5.507a.256.256 0 1 1 .512 0v5.763c0 .137-.11.247-.256.247Zm10.08 0h-6.028a.256.256 0 0 1-.256-.256V73.691c0-.138.11-.256.256-.256h6.028c.138 0 .257.11.257.256v11.644a.254.254 0 0 1-.257.247Zm-5.772-.503h5.516V73.947h-5.516v11.132Zm15.853.503h-6.028a.255.255 0 0 1-.256-.256v-4.61a.256.256 0 1 1 .512 0v4.363h5.516v-6.907h-3.815a.256.256 0 1 1 0-.512h4.071c.137 0 .256.11.256.256v7.419a.254.254 0 0 1-.256.247ZM28.962 46.624a4.186 4.186 0 0 1-.283-1.72c0-.137.11-.247.256-.247.137 0 .256.11.256.256 0 .485.01.96.037 1.455a.254.254 0 0 1-.238.265c-.019-.01-.028-.01-.028-.01Zm.119-4.409c-.165-.019-.265-.137-.256-.284.1-.97.256-1.957.467-2.936.027-.137.155-.22.301-.192a.246.246 0 0 1 .192.302 29.2 29.2 0 0 0-.457 2.89c0 .128-.11.22-.247.22Zm1.208-5.763c-.21-.055-.284-.201-.238-.33a31.87 31.87 0 0 1 1.015-2.79.252.252 0 1 1 .467.193 35.73 35.73 0 0 0-1.007 2.744.244.244 0 0 1-.237.183Zm2.268-5.443c-.238-.091-.293-.247-.229-.375.449-.86.952-1.729 1.482-2.57a.252.252 0 1 1 .43.265 42.02 42.02 0 0 0-1.463 2.534.242.242 0 0 1-.22.146Zm3.138-4.985c-.266-.137-.284-.293-.202-.402a40.353 40.353 0 0 1 1.857-2.315c.092-.1.256-.119.357-.027a.25.25 0 0 1 .027.357c-.64.74-1.262 1.518-1.838 2.287a.243.243 0 0 1-.201.1Zm57.975-2.488c-.283 0-.585-.018-.924-.046a8.862 8.862 0 0 1-1.262-.21.254.254 0 0 1-.183-.311.254.254 0 0 1 .311-.183 7.69 7.69 0 0 0 1.19.192c.64.064 1.161.064 1.655 0a.256.256 0 0 1 .284.22.256.256 0 0 1-.22.283 6.43 6.43 0 0 1-.85.055Zm3.266-1.491c-.247-.11-.293-.265-.22-.384.302-.494.458-1.098.458-1.766 0-.292-.028-.594-.1-.905a.252.252 0 0 1 .2-.302.252.252 0 0 1 .302.201c.073.339.11.677.11 1.006 0 .76-.183 1.455-.53 2.031a.24.24 0 0 1-.22.119Zm-7.913-.174c-.402-.356-.567-.64-.676-.951a3.181 3.181 0 0 1-.174-1.08c0-.338.046-.704.137-1.088.037-.137.156-.229.302-.192.137.027.22.165.192.302a4.18 4.18 0 0 0-.119.97c0 .329.046.63.146.905.092.256.22.494.394.713a.25.25 0 0 1-.037.357.25.25 0 0 1-.165.064Zm-49.477-.31c-.275-.175-.275-.33-.183-.43a45.846 45.846 0 0 1 2.159-2.031.257.257 0 0 1 .356.018c.092.1.083.265-.018.357a40.613 40.613 0 0 0-2.131 2.012.272.272 0 0 1-.183.073Zm4.427-3.907c-.284-.21-.265-.366-.155-.457.786-.613 1.6-1.198 2.405-1.738a.26.26 0 0 1 .357.064.26.26 0 0 1-.064.357 45.93 45.93 0 0 0-2.378 1.72.295.295 0 0 1-.165.054Zm51.984-1.033c-.76-.76-1.49-1.436-2.314-2.05a.26.26 0 0 1-.055-.356c.082-.11.238-.128.357-.046.85.631 1.61 1.345 2.204 2.04a.257.257 0 0 1-.027.357.274.274 0 0 1-.165.055Zm-6.302-.284c-.247-.091-.293-.247-.229-.375.457-.86.997-1.71 1.61-2.515a.26.26 0 0 1 .357-.055.26.26 0 0 1 .055.356 18.731 18.731 0 0 0-1.565 2.452.251.251 0 0 1-.228.137Zm-40.797-1.985c-.293-.247-.247-.402-.128-.476.85-.493 1.728-.978 2.607-1.417a.246.246 0 0 1 .338.11.254.254 0 0 1-.11.338c-.869.439-1.738.905-2.58 1.4a.219.219 0 0 1-.127.045Zm42.425-1.28a65.02 65.02 0 0 0-2.763-1.3.263.263 0 0 1-.137-.338c.055-.128.21-.183.339-.137.905.393 1.802.832 2.68 1.29a.257.257 0 0 1-.12.485Zm-37.147-1.363c-.293-.284-.229-.43-.101-.485a42.792 42.792 0 0 1 2.726-1.043c.128-.046.293.01.338.137-1.079.65-1.985.997-2.872 1.372a.326.326 0 0 1-.091.019Zm39.04-.074c-.274-.173-.274-.329-.183-.43a24.653 24.653 0 0 1 2.223-1.985c.1-.091.266-.073.357.037a.25.25 0 0 1-.037.357 24.96 24.96 0 0 0-2.177 1.948.256.256 0 0 1-.183.073Zm56.641-.914c-.879-.741-1.62-1.39-2.379-2.004a.25.25 0 0 1-.036-.356.257.257 0 0 1 .356-.037c.769.622 1.519 1.28 2.232 1.958.101.1.11.256.009.356a.255.255 0 0 1-.182.083Zm-63.94 0a52.677 52.677 0 0 0-2.882-.878.254.254 0 0 1-.183-.312.254.254 0 0 1 .312-.182c.95.256 1.902.548 2.835.878a.248.248 0 0 1 .156.32c-.028.11-.128.174-.238.174Zm-26.161-.924c-.284-.32-.202-.467-.065-.503.96-.256 1.94-.476 2.891-.659.146-.018.274.064.302.201a.259.259 0 0 1-.201.302c-.943.183-1.912.403-2.864.65-.018.009-.045.009-.064.009Zm20.471-.622a51.897 51.897 0 0 0-2.945-.485.256.256 0 0 1-.22-.284.25.25 0 0 1 .284-.22 44.37 44.37 0 0 1 2.927.486.259.259 0 0 1 .201.302.246.246 0 0 1-.247.2ZM65.506 8.68c-.275-.366-.174-.485-.028-.503a51.29 51.29 0 0 1 2.955-.284c.146 0 .265.1.274.238.01.137-.1.265-.237.274-.98.064-1.967.156-2.918.275h-.046Zm8.836-.275a52.8 52.8 0 0 0-2.945-.1.262.262 0 0 1-.257-.256c0-.138.12-.256.257-.256.997 0 1.994.036 2.963.1a.257.257 0 0 1-.018.512Zm23.426-.466c-.292-.229-.256-.384-.137-.467a34.65 34.65 0 0 1 2.543-1.527.259.259 0 0 1 .348.1.267.267 0 0 1-.101.348 39.77 39.77 0 0 0-2.516 1.51.339.339 0 0 1-.137.036Zm47.457-.924c-.952-.595-1.784-1.116-2.626-1.6a.255.255 0 0 1-.091-.348.247.247 0 0 1 .347-.092 39.863 39.863 0 0 1 2.516 1.583.26.26 0 0 1 .064.356.273.273 0 0 1-.21.101Zm-42.298-1.94c-.292-.274-.237-.43-.109-.484a51.829 51.829 0 0 1 2.726-1.17c.137-.047.274.008.329.145.055.129-.009.275-.147.33-.914.366-1.82.75-2.698 1.161a.326.326 0 0 1-.101.019Zm37.184-.987a52.862 52.862 0 0 0-2.808-1.162.25.25 0 0 1-.146-.33.25.25 0 0 1 .329-.146 35.42 35.42 0 0 1 2.735 1.153c.128.055.183.21.119.338a.26.26 0 0 1-.229.147Zm-31.695-1.19c-.284-.31-.211-.448-.083-.493a50.919 50.919 0 0 1 2.845-.851c.137-.027.275.046.311.183a.253.253 0 0 1-.183.311c-.942.247-1.893.53-2.808.842-.027 0-.055.009-.082.009Zm26.17-.86c-.384-.1-.704-.182-1.015-.255a40.974 40.974 0 0 0-1.903-.421.26.26 0 0 1-.201-.302.25.25 0 0 1 .293-.201c.658.128 1.299.274 1.93.43.32.082.649.164.96.247a.248.248 0 0 1 .174.31.243.243 0 0 1-.238.193Zm-20.471-.649c-.275-.338-.183-.475-.046-.503a51.26 51.26 0 0 1 2.927-.485.247.247 0 0 1 .284.22.256.256 0 0 1-.22.284 51.78 51.78 0 0 0-2.9.475c-.009.01-.027.01-.045.01Zm14.681-.503a47.374 47.374 0 0 0-2.955-.283.253.253 0 0 1-.237-.266c.009-.137.137-.237.265-.237.988.064 1.976.155 2.954.283a.256.256 0 0 1 .22.284.241.241 0 0 1-.247.22ZM119.96.622c-.266-.375-.156-.503-.019-.512.979-.064 1.976-.1 2.964-.11a.256.256 0 1 1 0 .512c-.979 0-1.967.037-2.936.1.009.01 0 .01-.009.01Zm32.921 13.382c-.503-.466-.814-.832-1.143-1.189a.256.256 0 0 1 .018-.356.248.248 0 0 1 .357.018c.329.366.64.732.951 1.116a.25.25 0 0 1-.037.357.206.206 0 0 1-.146.054ZM32.264 87.668c-.347 0-.722-.046-1.125-.146-3.412-.833-5.296-5.873-5.378-6.083a.262.262 0 0 1 .155-.33.261.261 0 0 1 .33.147c.018.055 1.866 4.994 5.021 5.772 1.07.265 1.94.128 2.58-.403 1.5-1.244 1.345-4.28 1.345-4.308.475-.137 2.113 2.104 3.85 2.25.632.046 1.18-.164 1.693-.677.466-.466.695-1.006.686-1.656-.027-1.673-1.674-4.033-4.894-7.025-.1-.1-.11-.256-.009-.356a.249.249 0 0 1 .357-.01c3.375 3.129 5.022 5.544 5.058 7.391a2.7 2.7 0 0 1-.832 2.022c-.613.613-1.336.87-2.095.823-1.39-.119-2.653-1.317-3.302-2.058-.046 1.052-.302 2.982-1.528 3.998-.53.43-1.161.65-1.912.65ZM202.46 54.345c-.284-.183-.275-.338-.174-.44.064-.054 1.482-1.38 2.57-1.829a.252.252 0 0 1 .192.467c-.997.412-2.396 1.72-2.415 1.729a.214.214 0 0 1-.173.073ZM124.241 65.87c-.266-.147-.284-.303-.202-.413l1.244-1.545a.25.25 0 0 1 .357-.037.25.25 0 0 1 .037.357l-1.244 1.546a.23.23 0 0 1-.192.091ZM35.503 52.725c-.147-.046-1.894-1.043-2.873-1.253a.246.246 0 0 1-.192-.302.253.253 0 0 1 .302-.192c1.052.229 2.817 1.235 2.89 1.28a.255.255 0 0 1 .092.348.257.257 0 0 1-.22.119Zm29.582 23.774c-.667-2.443.394-4.098.44-4.172.072-.118.228-.146.347-.073a.252.252 0 0 1 .073.348c-.01.018-.997 1.555-.613 3.586a.259.259 0 0 1-.201.301c-.018.01-.028.01-.046.01Zm102.761 27.478h-1.537a.256.256 0 1 1 0-.512h1.537a.256.256 0 1 1 0 .512Zm21.752 0h-16.364a.255.255 0 0 1-.256-.256c0-.137.109-.256.256-.256h16.364a.256.256 0 1 1 0 .512Zm16.155-54.399a.256.256 0 0 1-.257-.256V33.616a5.856 5.856 0 0 0-5.845-5.845h-12.87a.256.256 0 0 1-.256-.256.25.25 0 0 1 .256-.256h12.87c3.504 0 6.349 2.854 6.349 6.357v15.715c0 .137-.11.247-.247.247ZM94.915 66.876a.256.256 0 0 1-.257-.256V33.616a6.361 6.361 0 0 1 6.358-6.357h46.285c.137 0 .256.11.256.256a.25.25 0 0 1-.256.256h-46.285a5.856 5.856 0 0 0-5.845 5.845V66.62a.256.256 0 0 1-.256.256Z"/><path fill="#0C0553" d="M158.461 103.977h-5.406a.256.256 0 1 1 0-.512h5.406c.137 0 .256.11.256.256a.25.25 0 0 1-.256.256Zm-42.297-28.21c-1.18-.192-.86-2.268-.824-2.506.019-.137.147-.247.293-.21a.264.264 0 0 1 .211.292c-.119.732-.11 1.848.292 1.912.503-.311.75-1.409.823-2.03.01-.138.11-.257.284-.22a.251.251 0 0 1 .22.283c-.019.192-.22 1.848-.869 2.342a.774.774 0 0 1-.43.137Zm6.009.166c-1.189-.22-.823-2.287-.777-2.525.027-.137.165-.21.302-.201a.26.26 0 0 1 .201.302c-.137.731-.155 1.838.247 1.92.512-.302.787-1.39.869-2.012a.26.26 0 0 1 .284-.22.256.256 0 0 1 .219.284c-.027.192-.265 1.848-.924 2.314a.742.742 0 0 1-.421.138Zm74.725 54.215c-.686-3.943 2.021-7.574 6.202-8.846 3.595-1.097 7.4-.119 9.449 2.443a.249.249 0 0 1-.037.356c-.109.083-.274.073-.356-.036-1.921-2.397-5.507-3.312-8.901-2.269-3.878 1.18-6.504 4.656-6.101 8.077a.256.256 0 0 1-.22.284c-.018-.009-.027-.009-.036-.009Z"/></svg>