<svg xmlns="http://www.w3.org/2000/svg" width="287" height="45" fill="none"><g clip-path="url(#a)"><path fill="#ED185B" d="M111.292 18.768H89.915v7.471h21.377v-7.471ZM79.846.285v7.472h41.516V.285H79.846Zm0 39.134v5.295h41.516v-7.268H79.846v1.973Z"/><path fill="#000" d="M22.436 12.896h-1.408v19.137h1.408V12.895Zm-9.453 9.154H6.125v1.312h6.858V22.05Z"/><path fill="#000" d="M.877 12.896v19.137h1.408V14.206h14.572v-1.31H.877Zm63.82-.086H53.499v19.137h1.408V14.12h9.686c3.406 0 5.729 1.586 5.729 4.62v.053c0 2.844-2.381 4.706-5.891 4.706H60v1.31h4.353c3.945 0 7.377-2.077 7.377-6.095v-.052c0-3.69-2.868-5.853-7.027-5.853m-19.377 10.69-6.56-10.762h-1.349l-11.69 19.276h1.46l10.88-17.716 5.67 9.209h1.595l-.006-.007Zm2.159 3.546h-1.57l3.063 4.974h1.537l-3.03-4.974Zm209.458-14.012-11.289 18.692h1.544l10.517-17.407 5.67 9.392 1.129-.689-6.027-9.981h-1.551l.007-.007Zm8.317 13.757 2.978 4.934h1.544l-3.399-5.623-1.129.688h.006Zm-51.746 3.663V14.284h14.332v-1.206h-15.629v18.587h15.759V30.46h-14.462v-.006Z"/><path fill="#000" d="M223.739 21.763h-6.306v1.206h6.306v-1.206Zm-93.022 8.69V14.284h14.332v-1.206H129.42v18.587h15.758V30.46h-14.461v-.006Z"/><path fill="#000" d="M140.942 21.763h-6.307v1.206h6.307v-1.206Zm43.254 3.539-6.365.013v-1.147s6.073.007 6.144 0c2.796-.157 4.983-2.32 4.983-4.928 0-2.609-2.394-4.916-5.34-4.916h-9.738s.039 17.388 0 17.388h-1.246V13.059h11.062c3.614.066 6.52 2.805 6.52 6.187 0 2.877-2.108 5.29-4.969 5.984 0 0-.61.072-1.045.072h-.006Zm16.777-2.918h1.2c3.037 0 5.294-1.219 5.294-3.867v-.052c0-2.464-1.92-4.011-5.216-4.011h-7.947V31.56h-1.35V13.189h9.375c3.919 0 6.488 2.15 6.488 5.224v.052c0 3.067-2.258 4.496-5.32 4.922l5.995 8.173h-1.713l-6.806-9.176Zm36.863 9.635c-3.328 0-5.884-.99-8.382-3.002l1.012-1.042c2.29 1.9 4.399 2.786 7.455 2.786 3.055 0 5.261-1.58 5.261-3.723v-.052c0-1.98-1.161-3.133-5.884-3.992-4.989-.91-7.013-2.438-7.013-5.276v-.052c0-2.786 2.822-4.929 6.682-4.929 3.03 0 5.021.748 7.13 2.274l-.98 1.095c-1.959-1.527-3.918-2.117-6.208-2.117-3.063 0-5.08 1.58-5.08 3.533v.052c0 1.98 1.128 3.185 6.059 4.096 4.814.885 6.832 2.438 6.832 5.171v.053c0 3.028-2.881 5.119-6.897 5.119l.013.006Zm41.555 0c-3.328 0-5.884-.99-8.382-3.002l1.012-1.042c2.29 1.9 4.399 2.786 7.454 2.786 3.056 0 5.262-1.58 5.262-3.723v-.052c0-1.98-1.161-3.133-5.885-3.992-4.989-.91-7.013-2.438-7.013-5.276v-.052c0-2.786 2.822-4.929 6.683-4.929 3.029 0 5.021.748 7.13 2.274l-.98 1.095c-1.959-1.527-3.925-2.117-6.209-2.117-3.062 0-5.08 1.58-5.08 3.533v.052c0 1.98 1.129 3.185 6.06 4.096 4.814.885 6.832 2.438 6.832 5.171v.053c0 3.028-2.881 5.119-6.89 5.119l.006.006Zm-110.13-18.653h-1.862l-8.292 10.447-8.233-10.447h-1.914l10.05 12.59.065.073.058-.073 10.121-12.59h.007Z"/><path fill="#000" d="M149.012 13.419v17.938h1.492V15.156l-1.492-1.73v-.007Zm18.639 1.699v16.28h1.596V13.414l-1.596 1.704Z"/></g><defs><clipPath id="a"><path fill="#fff" d="M.877.285H286.89v44.429H.877z"/></clipPath></defs></svg>