<svg xmlns="http://www.w3.org/2000/svg" width="427" height="316" fill="none"><path fill="#fff" d="M419.526 142.202H388.96c-3.862 0-7.015-3.147-7.015-7.028v-23.036c0-3.881 3.132-7.028 7.015-7.028h30.566c3.862 0 6.994 3.147 6.994 7.028v23.036c0 3.881-3.132 7.028-6.994 7.028Zm-79.901-2.685s-10.126-1.448-12.047.461c0 0-2.004 8.854-2.902 9.861 0 0 .501.902-1.482 0-1.984-.902-8.978.377-8.978.377l-1.92 10.868-7.245 10.658s5.741 2.79 10 2.14c0 0 1.462-.336.961 1.426-.501 1.763-3.048 12.001-3.048 12.001s4.447 8.958 5.094 8.958c.626 0 3.194 1.28 4.447 1.91 1.273.629 4.468.629 5.721.629 1.273 0 6.367 0 6.367-1.28s2.548-4.469 1.9-5.748c-.626-1.28-3.173-8.959-3.173-8.959l-.543-1.405 1.127-5.161s-.208-1.28 1.838-.231c2.046 1.049 9.478 2.622 12.088-2.979 1.399-3.021-3.048-8.77-3.048-8.77l1.441-5.056 3.653-12.231-.626-8.309s-6.368-3.839-6.994-3.839c-.668.021-4.594 1.007-2.631 4.679ZM20.19 261.662l-8.603 14.665-.71 1.762.335.86 4.321 2.686 1.65.881 1.023.231 1.983-2.518 7.913-13.49 1.17-1.489.834-.903s2.15.462 1.942.672c-.209.231 5.282 3.126 5.282 3.126l1.629.629 1.127-.65.313-1.238.94-19.448-12.694-1.406-8.456 15.63Z"/><path fill="#fff" d="M154.352 163.119H21.922v95.962h132.43v-95.962Z"/><path fill="#0C0553" d="M21.755 170.651h128.359l1.942-12.378-4.823-8.266H34.637s-10.189.545-12.569 10.322l-.313 10.322Z"/><path fill="#216FF4" d="M96.77 141.51s.501 18.399 6.41 28.763c5.908 10.364 11.316 17.875 23.55 18.379 12.235.482 19.918-7.364 30.608-6.63l17.224-.042s7.203.378 16.473 4.007c9.27 3.63 17.078 2.958 20.628 1.595 3.549-1.364 8.08-2.266 13.153-9.882s7.412-15.021 8.226-18.588c.835-3.567 2.192-12.735 2.192-16.91 0 0 7.308 3.357 17.162 2.979 9.855-.377 13.112-.314 15.763-2.79 0 0-2.171 19.91-5.512 29.435-3.34 9.525-8.998 25.134-17.162 33.358-8.163 8.224-15.784 15.903-29.48 20.623-13.696 4.7-25.367 3.63-25.367 3.63s-.689 14.371.585 20.896 3.424 12.944 3.424 12.944l10.711 33.505h-76.895s-3.507-26.225-4.008-41.33c-.501-15.106-.209-28.365-.209-28.365s-13.425-.629-26.286-11.329c-12.86-10.7-18.352-19.868-23.195-30.19-4.844-10.302-7.454-21.253-8.477-27.253-1.023-6.001-2.171-15.169-2.171-15.169s6.159 2.098 14.949 1.93c8.768-.168 16.953-1.531 17.704-3.566Zm40.086-72.171c-.229.042-7.725 2.35-13.696 1.405l-.71-30.945-31.087-.483c-1.67 6.504.5 14.015.772 14.917-.041 6-4.906 10.868-10.877 10.868-5.971 0-10.836-4.868-10.878-10.868.272-.902 2.422-8.413 1.295-14.476-.522-.44-31.714-.23-31.714-.23l-.042 83.395 60.86.335h3.862l18.206-.398.334-30.862c5.971-.944 13.467 1.343 13.529 1.364 6.744.02 12.11-5.371 12.11-12 0-6.63-5.366-12.022-11.964-12.022Z"/><path fill="#0C0553" d="m304.216 48.191-31.151-.546c-1.67 6.504.501 14.015.773 14.917-.042 6-4.907 10.868-10.878 10.868s-10.835-4.868-10.877-10.868c.271-.902 2.443-8.413 1.294-14.476-.522-.44-31.797-.063-31.797-.063l-.543 31.512c6.472 1.574 13.947-.587 14.844-.86 5.972.042 10.815 4.93 10.815 10.93s-4.843 10.889-10.815 10.931c-.897-.273-8.372-2.455-14.406-1.3-.438.608-.062 31.784-.062 31.784l32.946.545h50.212V99.906c-6.473-1.783-13.947.399-14.845.672-5.971-.042-10.815-4.93-10.815-10.93s4.844-10.89 10.815-10.931c.898.273 8.372 2.433 14.406 1.3.418-.86.084-31.826.084-31.826Z"/><path fill="#fff" d="M264.819 143.755s5.031-10.197 5.741-17.078h-22.736s6.555-5.14 2.777-8.896c-3.779-3.755-13.049 6.043-13.676 6.84-.626.797-2.401 4.469-.605 7.721 1.775 3.251 7.787 12 7.787 12s17.997 1.804 20.712-.587Zm-176.671.692s7.098-10.343 7.537-11.392c.438-1.049 2.547-5.245-.063-8.161-2.61-2.917-6.2-6.924-8.456-7.679-2.275-.734-4.53-.923-6.075 1.175s-.188 5.287 2.985 8.287H62.113s3.925 13.973 6.054 17.392c.021 0 15.137 2.14 19.98.378Zm85.704 37.575 1.566-15.609s6.598-.357 6.598-5.749c0-5.391-5.512-5.811-7.036-5.643 0 0-1.503-6.483-3.8-8.602-2.318-2.098-5.888-1.888-8.205-2.392-2.318-.503-7.516-2.328-9.5-3.692 0 0-4.969 5.769-6.117 11.413-1.211 5.937 2.317 6.042 2.171 7.427-.626 5.455-1.315 13.133 3.028 14.392 4.342 1.238 5.157 1.343 5.157 1.343l-.794 6.797s-4.844 14.623 1.128 14.686c5.971.063 11.19-5.601 13.153-8.916 1.942-3.294 2.651-5.455 2.651-5.455Z"/><path fill="#0C0553" d="M149.153 166.917s-4.822 1.279-5.971 7.301c-1.127 6 2.965 9.608 2.965 9.608s6.994-2.161 10.878-1.615l.689-7.28c-.021 0-8.519.398-8.561-8.014Zm25.054 15.105s4.573-.671 10.001 1.49c5.407 2.182 10.355 3.608 10.355 3.608s6.661-3.671 6.139-9.944c-.501-6.273-5.533-10.218-8.644-10.658-3.09-.42-5.846-.105-5.846-.105s-1.127-3.63 2.422-8.623c3.549-5.014 4.447-10.217 3.007-14.035-1.42-3.819-6.911-9.001-14.031-9.735l-1.106-.608s-5.783-6.148-13.216-6.63c-7.412-.483-14.719 2.685-17.475 7.972-2.756 5.287.397 13.092 1.399 15.232 0 0 1.921-3.21 2.443-4.343.334-.734 2.797-2.329 2.797-2.329l.981-2.979s3.696 3.168 8.581 3.525c4.886.356 7.725.86 9.918 3.797 2.233 2.979 2.463 7.595 2.463 7.595s1.858-.986 4.176.377c2.296 1.364 3.57 3.336 3.236 5.875-.334 2.538-3.278 5.203-6.765 4.741l-.835 15.777Zm-107.71-41.393 1.378 3.272s-3.215-.545-3.424-1.636c-.209-1.091 2.046-1.636 2.046-1.636Zm25.242-1.595-3.591 5.413s9.144-1.112 8.643-3.231c-.417-1.699-5.052-2.182-5.052-2.182Z"/><path fill="#3A3A3A" d="m266.384 140.88-1.733 3.378s3.383-.713 3.508-1.867-1.754-1.762-1.754-1.762l-.021.251Zm-22.318 3.462-3.821-5.119s-5.136.923-4.76 2.287c.417 1.363 8.581 2.832 8.581 2.832Z"/><path fill="#CCC" d="m270.539 126.677-22.506-.168-3.195 3.042c.167 0-1.336.986-1.336.986 1.253.189 3.027-.335 4.593-.986h21.546l.898-2.874Z"/><path fill="#fff" d="M131.95 159.552c0 2.245-1.816 4.071-4.05 4.071s-4.051-1.826-4.051-4.071c0-2.244 1.817-4.07 4.051-4.07 2.234.021 4.05 1.826 4.05 4.07Zm14.072 0c0 2.245-1.817 4.071-4.05 4.071-2.234 0-4.051-1.826-4.051-4.071 0-2.244 1.817-4.07 4.051-4.07 2.233.021 4.05 1.826 4.05 4.07Z"/><path fill="#0C0553" d="M347.976 151.161s7.266-6.19 4.405-13.386c-2.004-5.035-7.662-7.175-13.341-8.916-5.679-1.741-10.418-1.93-14.113-.818-3.696 1.112-7.015 5.077-7.015 5.077s-4.635-1.259-6.995 1.615c-2.359 2.875-4.447 7.406-4.551 11.392-.104 3.987 1.503 6.483-.793 9.273-2.297 2.791-5.554 7.637-4.719 11.456.814 3.797 4.531 5.685 9.959 6.713 5.408 1.049 9.834.713 12.068-1.552 2.234-2.245 2.943-4.721.689-8.246 0 0-3.508 1.469-4.677-3.335 0 0-4.865-2.287-3.382-7.322 1.482-5.035 7.578-3.798 8.727-2.329 0 0 2.422-4.616 3.069-10.805 0 0 5.637-1.993 11.671-.377 6.013 1.594 10.877 5.349 8.998 11.56Z"/><path fill="#216FF4" d="m332.798 181.393-.313 1.363s1.252 13.595-1.65 13.637c-2.902.042-9.833-5.601-12.464-9.588-2.631-3.986-3.862-4.699-3.862-4.699v-.902s-7.684-.965-15.012 1.384c-7.328 2.35-12.798 6.357-21.003 22.932-8.184 16.574-9.395 28.05-10.627 32.686-1.232 4.637-3.863 20.791-3.195 25.743.669 4.951 6.514 28.763 23.614 32.812h76.643l-.897-14.035s11.086 2.308 20.502-12.462c9.416-14.77 9.604-21.022 9.604-21.022s-9.813 2.035-13.675.21c-3.863-1.826-11.233-42.946-11.233-42.946s-4.196-23.078-36.432-25.113Z"/><path fill="#0C0553" d="m392.488 224.339 4.03-9.064s.313-5.454-4.385-6.441l-68.605 5.623s-3.863.273-5.491 5.035l-22.757 48.17s-1.9 7.364 5.01 8.245l68.042-6.126s2.902-.063 4.26-3.461l19.896-41.981Z"/><path fill="#fff" d="m392.739 208.667-3.821-3.147h-3.632l-59.378 5.412s-7.098.273-8.602 1.574c-1.482 1.301-5.136 8.853-7.244 13.532-2.109 4.699-18.478 39.128-18.478 39.128s-.939 2.916.668 4.699l2.819 2.832s-.772-2.769.438-5.349c1.211-2.581 24.365-51.296 24.365-51.296s2.986-1.427 7.37-1.7c4.406-.273 63.178-5.664 63.178-5.664h2.317v-.021Zm-117.294 102.78h-94.097c-7.078 0-12.861-5.811-12.861-12.923v-21.526c0-7.112 5.783-12.923 12.861-12.923h94.097c7.078 0 12.861 5.811 12.861 12.923v21.526c0 7.112-5.783 12.923-12.861 12.923Zm72.072-68.268c-1.691 2.937-1.503 6.231.438 7.343 1.921 1.112 4.865-.357 6.556-3.294 1.691-2.937 1.503-6.231-.417-7.343-1.942-1.133-4.886.356-6.577 3.294ZM325.24 161c0 1.721-1.399 3.126-3.111 3.126-1.712 0-3.111-1.405-3.111-3.126 0-1.72 1.399-3.126 3.111-3.126 1.712.021 3.111 1.406 3.111 3.126Z"/><path fill="#0C0553" d="M345.346 165.28s5.783 6.378.751 10.28c-5.031 3.902-12.088.525-12.088.525l.626-1.826s4.865.273 6.66-1.657c1.796-1.909 4.051-7.322 4.051-7.322Z"/><path fill="#216FF4" d="m3.361 251.529 25.221-15.693c1.065-.672 2.443.146 2.38 1.405l-1.44 29.75a1.573 1.573 0 0 1-2.36 1.28l-6.806-4.029a1.554 1.554 0 0 0-2.13.546L8.31 281.677a1.54 1.54 0 0 1-2.13.545l-5.387-3.189a1.555 1.555 0 0 1-.542-2.14l9.917-16.888c.438-.735.188-1.7-.543-2.14l-6.18-3.672a1.541 1.541 0 0 1-.084-2.664Zm60.986-36.044H43.134v21.316h21.213v-21.316Z"/><path fill="#0C0553" d="M52.78 180.47H31.568v21.315H52.78V180.47Z"/><path fill="#216FF4" d="M413.721 111.11c-1.252-2.161-3.298-2.161-4.551 0l-9.625 16.574c-1.253 2.161-.25 3.923 2.234 3.923h19.333c2.485 0 3.487-1.762 2.234-3.923l-9.625-16.574Z"/><path fill="#fff" d="M153.789 134.46c-.543-2.916.438-5.182 1.774-6.839-4.322 1.238-7.954 3.755-9.708 7.133-2.756 5.287.397 13.092 1.399 15.232 0 0 1.92-3.21 2.442-4.343.334-.734 2.798-2.329 2.798-2.329l.981-2.979s3.696 3.168 8.581 3.525c3.069.23 5.324.503 7.12 1.405.459-.126-14.072-3.755-15.387-10.805Zm-4.197 35.331a9.69 9.69 0 0 1-.418-2.874s-4.822 1.279-5.971 7.301c-1.148 6 2.944 9.608 2.944 9.608s2.693-.629 4.197-.986c-5.178-5.664-2.464-11.287-.752-13.049Zm198.384-18.63s7.266-6.19 4.406-13.386c-2.005-5.035-7.663-7.175-13.342-8.916 2.443 1.406 4.865 3.42 5.408 5.958.584 2.728-2.213 4.07-5.721 4.721 6.264 1.657 11.128 5.412 9.249 11.623Zm-24.427 12.629s-1.441.609-2.798-.251c.585 2.454.355 10.07-14.489 8.622.522.126 3.967 1.301 4.551 1.427 5.408 1.049 9.834.713 12.068-1.552 2.213-2.266 2.923-4.721.668-8.246Zm21.797 1.49s-.501 1.196-1.211 2.665c.605 2.349 1.357 8.245-7.746 8.979 2.505.671 6.514 1.133 9.687-1.364 5.032-3.902-.73-10.28-.73-10.28Z"/><path fill="#0C0553" d="M270.643 316h-94.097c-7.078 0-12.861-5.811-12.861-12.924v-21.525c0-7.112 5.783-12.924 12.861-12.924h94.097c7.078 0 12.861 5.812 12.861 12.924v21.525c0 7.113-5.804 12.924-12.861 12.924Z"/><path fill="#fff" d="m395.892 217.142-3.383 7.197s-3.695.692-6.806.986c-3.132.272-6.952-.965-8.372 2.727-1.399 3.672.814 5.098.814 5.098s-4.718 4.91-.605 7.973c0 0-4.781 3.671.355 6.881 5.136 3.21 14.907 1.741 17.203.923 2.297-.818 6.326-3.965 6.89-11.623.564-7.657.501-11.707-.793-14.224-1.274-2.539-5.303-5.938-5.303-5.938Z"/><path fill="#0C0553" d="M128.463 297.307c-2.505-13.826-3.152-23.33-3.862-33.379-.167-2.371-.334-4.805-.522-7.343-2.526-33.652 1.9-45.149 4.28-51.317.292-.734.543-1.406.752-2.035.793.986.522 1.678.229 2.433-2.338 6.085-6.723 17.435-4.217 50.856.188 2.538.355 4.972.522 7.343.689 10.028 1.357 19.49 3.319 32.833-.459.609-.48.609-.501.609Zm24.031-153.573c-.397-.063-.584-.357-.522-.651.543-2.559.564-2.622.585-2.664 1.002.398.814 1.196.459 2.895a.518.518 0 0 1-.522.42Zm8.122 31.742c-1.065 0-2.109-.021-2.965-.063-1.211-.042-3.027-.209-4.656-.965-2.15-1.007-3.466-2.853-3.988-5.685-.626-3.252-.459-6.21-.02-9.63.647 3.462.48 6.315 1.064 9.441.46 2.455 1.587 4.07 3.403 4.909 1.107.525 2.464.797 4.239.881 1.774.084 4.363.084 6.201-.042-.898 1.133-2.088 1.154-3.278 1.154Zm15.679-8.685c-1.503-.084-2.589-.462-3.487-1.091 1.358-.357 2.234-.042 3.153 0 2.756.209 5.178-1.931 5.366-4.742a5.031 5.031 0 0 0-1.253-3.671 4.993 4.993 0 0 0-3.466-1.721 5.094 5.094 0 0 0-2.881.672c.522-1.553 1.712-1.826 2.944-1.763a6.015 6.015 0 0 1 4.196 2.077 6.092 6.092 0 0 1 1.504 4.448c-.188 3.294-2.882 5.791-6.076 5.791Z"/><path fill="#0C0553" d="M177.151 164.168c-.376-.168-3.758-3.546-3.758-3.546.125-.86 4.635-3.398 4.635-3.398.522.944-3.382 3.126-3.382 3.126l2.86 2.874c-.083.881-.23.944-.355.944Zm-18.08 32.729a11.78 11.78 0 0 1-1.691-.105c-1.337-.147-2.318-.755-2.903-1.825-2.108-3.735 1.545-12.064 2.005-13.071l.522-7.028c1.064.084.543 7.196.543 7.196-.084.273-4.051 8.937-2.13 12.378.418.755 1.107 1.175 2.088 1.28 12.339 1.322 15.784-13.679 15.825-13.826 1.003.399-2.338 15.001-14.259 15.001Zm.188-30.106c-.668 0-1.378-.168-2.151-.483 1.566-.503 2.547-.482 3.341-.881 1.336-.692 1.733-2.413 1.733-2.434 1.023.336.522 2.476-1.253 3.399-.501.273-1.065.399-1.67.399Z"/><path fill="#0C0553" d="M173.852 182.547c-.542-.588.877-16.197.877-16.197 1.065.105-.334 15.714-.334 15.714a.56.56 0 0 1-.543.483Zm-45.597 6.65c-6.368 0-12.694-1.93-17.684-6.965-3.466-3.483-6.305-7.952-8.727-13.637-3.383-7.993-5.387-17.602-5.617-27.064 1.316 9.294 3.278 18.777 6.598 26.644 2.359 5.56 5.136 9.924 8.497 13.302 9.187 9.273 23.175 7.51 33.197 2.769 3.695-1.741 7.892-2.665 12.464-2.748-4.405 1.153-8.456 2.035-12.026 3.713-4.927 2.371-10.836 3.986-16.702 3.986Zm-3.654 38.414c-10.732-.797-18.728-5.266-27.413-11.748-18.52-13.784-31.088-41.247-33.614-73.43 3.57 31.805 15.972 58.954 34.261 72.57 8.539 6.356 16.369 10.762 26.808 11.538.48.861.229 1.07-.042 1.07Zm-36.558-82.472c-.417-.86 2.36-5.371 5.533-9.609 3.194-4.279 3.236-8.496 1.65-10.28-2.38-2.727-7.433-8.518-11.087-8.266-1.044.063-1.9.63-2.61 1.7-.563.839-.71 1.741-.48 2.748.96 4.133 7.996 8.266 8.08 8.308-.835.755-8.038-3.483-9.124-8.056-.313-1.301-.104-2.518.626-3.609.898-1.364 2.046-2.098 3.445-2.182 4.468 0 9.354 5.623 11.462 8.078 2.715 3.063 2.067 7.951-1.106 12.189-3.132 4.196-5.909 8.665-5.93 8.707a.503.503 0 0 1-.459.272Z"/><path fill="#0C0553" d="M78.251 145.748c-3.528 0-6.806-.231-9.395-.672-3.528-.587-5.261-1.468-5.282-2.664-.02-1.091.73-1.553 2.13-2.056-1.086 1.51-1.065 1.783-1.065 2.014 0 .252.814 1.028 4.405 1.615 3.07.525 7.14.735 11.462.63 10.23-.273 15.742-2.203 15.722-3.105 0-.105-.168-1.112-4.719-1.763 3.925-.524 5.762.378 5.804 1.742.084 2.958-10.94 4.049-16.765 4.217-.773.021-1.545.042-2.297.042Zm3.236-5.98c-1.544-6.629-5.26-12.546-5.282-12.609 1.065-.335 4.781 5.581 5.825 11.98-.5.629-.522.629-.543.629Zm122.514 49.429c-5.867 0-11.776-1.636-16.724-3.965-3.382-1.594-8.268-2.602-13.07-2.685 4.969-.987 10.022.042 13.529 1.699 10.022 4.741 24.01 6.483 33.197-2.769 3.361-3.399 6.138-7.742 8.497-13.302 3.341-7.867 5.303-17.35 5.533-26.665.835 9.483-1.169 19.092-4.552 27.106-2.401 5.685-5.261 10.154-8.727 13.637-4.969 5.014-11.295 6.944-17.683 6.944Zm-9.103 40.911c-1.42 0-2.84-.042-4.28-.147 15.554 0 29.855-4.552 43.823-14.958 18.268-13.616 30.67-40.764 33.175-72.654-1.461 32.267-14.03 59.73-32.549 73.514-12.673 9.462-26.181 14.245-40.169 14.245Zm49.335-84.969c-.481-.293-3.257-4.762-6.389-8.958-3.153-4.238-3.821-9.126-1.587-11.644 1.858-2.098 7.287-8.182 11.838-8.182 1.441.021 2.61.587 3.508 1.699.626.755.856 1.637.73 2.644-.584 4.342-8.288 9.755-8.601 9.965-.543-.944 7.015-6.252 7.537-10.112.104-.714-.063-1.301-.481-1.804-.73-.861-1.586-1.301-2.63-1.322-2.777 0-6.452 2.601-11.024 7.741-1.67 1.868-1.628 6.085 1.566 10.364 3.153 4.238 5.95 8.749 5.992 8.791-.271.797-.355.818-.459.818Z"/><path fill="#0C0553" d="M254.024 145.748c-.751 0-1.503 0-2.275-.021-5.825-.168-16.849-1.238-16.765-4.217.041-1.343 1.879-2.266 5.658-2.791-4.427 1.721-4.573 2.728-4.573 2.833-.021.902 5.512 2.832 15.722 3.105 4.342.126 8.393-.105 11.462-.63 3.591-.608 4.384-1.384 4.405-1.615 0-.252.021-.504-1.42-1.007 1.754-.525 2.526-.042 2.485 1.028-.021 1.196-1.754 2.056-5.282 2.664-2.61.42-5.888.651-9.417.651Zm-103.096 14.35c-3.654-.755-4.948-5.056-3.821-9.903 1.128-4.846 4.176-8.119 6.953-7.468 2.777.65 4.071 4.951 2.944 9.797-.397 1.784-.543 2.413-1.274 3.546-.271-1.553-.167-2.056.125-3.294 1.065-4.595.084-8.497-2.046-8.979-2.108-.504-4.718 2.559-5.679 6.65-.96 4.112.021 7.994 2.151 8.497 1.232.923.981 1.154.647 1.154Zm12.652 2.182c-2.108-.399-3.152-1.658-3.695-3.567-.501-1.804-.501-4.049.021-6.294.522-2.245 1.503-4.259 2.756-5.664 1.336-1.49 2.818-2.119 4.217-1.805 1.378.315 2.443 1.574 2.986 3.483.501 1.804.501 4.049-.021 6.294-.522 2.245-1.503 4.259-2.756 5.665-1.107 1.238-2.318 1.888-3.508 1.888Zm2.589-16.343c-.877 0-1.816.524-2.693 1.531-1.127 1.259-2.025 3.105-2.505 5.182-.481 2.077-.501 4.133-.042 5.77.417 1.531 1.211 2.496 2.192 2.727.981.231 2.109-.294 3.174-1.469 1.127-1.258 2.025-3.105 2.505-5.182.48-2.077.501-4.133.042-5.769-.418-1.532-1.211-2.497-2.193-2.728a1.928 1.928 0 0 0-.48-.062Z"/><path fill="#0C0553" d="M160.302 153.804c-1.941-1.951-3.34-.881-3.507-.755.104-1.49 2.088-2.203 3.904-.126-.146.839-.271.881-.397.881Zm204.857 129.509c-.397 0-.772-.021-1.148-.042 1.837-.965 3.633-1.112 5.449-1.51 10.961-2.371 20.043-18.106 24.177-32.666-3.194 15.147-12.569 31.239-23.968 33.715a20.686 20.686 0 0 1-4.51.503Zm-72.531 8.371c-1.42 0-2.902-.147-4.447-.482 14.845 2.161 24.428-12.148 27.016-16.616-1.482 4.699-9.791 17.098-22.569 17.098Zm-28.206-27.19c-.647-3.189-.459-5.266-.146-7.783 4.509-34.995 12.61-49.45 19.75-62.185 8.456-15.105 25.493-14.434 30.545-13.868-4.969.525-21.462-.126-29.605 14.393-7.099 12.671-15.137 27.022-19.625 61.807-.314 2.433-.502 4.468-.397 7.07-.501.566-.501.566-.522.566Zm104.808-57.443c-5.574-16.679-17.955-21.441-28.185-23.749-.042 0-5.617-1.154-8.31-1.364 2.86-.86 8.31.252 8.539.294 10.502 2.392 23.238 7.28 28.457 24.106-.397.692-.438.713-.501.713Zm-32.549-32.057c-1.044 0-2.213-.168-3.549-.525-1.754-.461-4.28-1.238-6.034-1.909 2.088-.336 4.593.42 6.305.881 1.733.462 3.09.588 4.301.441 1.984-.273 3.508-1.469 4.677-3.672 1.044-1.951 1.816-4.238 2.422-7.196.042-.147 3.027-11.623 2.86-16.364 1.232 4.846-1.691 16.133-1.816 16.616-.627 3.021-1.441 5.392-2.527 7.448-1.336 2.538-3.131 3.923-5.49 4.238-.355.021-.752.042-1.149.042Zm-17.809-14.015c-3.174-1.07-4.865-4.175-4.134-7.28a6.106 6.106 0 0 1 2.756-3.818c1.399-.86 3.027-1.133 4.635-.735a6.231 6.231 0 0 1 3.09 1.826c-1.482-.021-2.359-.546-3.341-.777a5.003 5.003 0 0 0-3.82.609c-1.149.713-1.963 1.825-2.255 3.147a5.062 5.062 0 0 0 3.257 5.979c.25.902.042 1.049-.188 1.049Z"/><path fill="#0C0553" d="M318.997 158.273c-.25-1.007 3.341-2.916 3.341-2.916l-3.09-3.252c.772-.735 4.343 3.021 4.343 3.021-.126.839-4.343 3.084-4.343 3.084a.555.555 0 0 1-.251.063Zm-17.37 86.185c-.439-.105-.606-.398-.522-.692 3.925-13.973 3.591-34.764 3.591-34.974 1.065.189 1.419 21.148-2.547 35.268a.54.54 0 0 1-.522.398Zm35.576-77.583c-1.19 0-2.15-.336-2.881-1.028-1.462-1.364-1.357-3.567-1.357-3.651 1.065.063 1.002 1.867 2.088 2.874.647.609 1.607.839 2.839.693-.146 1.091-.418 1.112-.689 1.112Zm-36.537 109.578c-2.067 0-3.967-.986-5.178-2.728a6.32 6.32 0 0 1-.542-6.357l10.522-22.385c.961.461-9.562 22.847-9.562 22.847a5.279 5.279 0 0 0 .438 5.287 5.2 5.2 0 0 0 4.782 2.245l66.705-6.021a5.274 5.274 0 0 0 4.28-3.001l7.83-16.658c.96.462-6.869 17.12-6.869 17.12a6.375 6.375 0 0 1-5.157 3.63l-66.706 6.021h-.543Zm10.878-42.569c-.48-.776 6.723-16.091 6.723-16.091a6.372 6.372 0 0 1 5.156-3.63l66.727-6.021c2.255-.189 4.447.797 5.762 2.686 1.316 1.888 1.524 4.279.522 6.356l-3.465 7.364c-.961-.461 2.484-7.825 2.484-7.825a5.278 5.278 0 0 0-.438-5.287c-1.086-1.574-2.84-2.413-4.781-2.245l-66.706 6.021a5.275 5.275 0 0 0-4.28 3l-7.203 15.316c-.105.231-.292.356-.501.356Zm12.673-82.577c1.482-3.168 2.526-11.329 2.547-11.413.564-.503 17.078-4.72 21.964 6.483-5.115-9.084-18.603-6.504-20.941-5.979-.23 1.678-1.294 8.455-3.132 10.7a.582.582 0 0 1-.438.209Z"/><path fill="#0C0553" d="M316.137 174.658c-1.169 0-2.422-.105-3.8-.294-4.572-.629-10.001-1.867-11.608-5.664-.459-1.049-.459-2.224-.418-3 .167-3.399 1.441-6.714 3.529-9.106 2.025-2.286 3.215-3.629 2.505-6.189-1.273-4.741-.188-10.679 2.672-14.434 1.692-2.224 3.8-3.399 6.076-3.399h2.798c0 1.07-2.798 1.07-2.798 1.07-2.464 0-4.196 1.616-5.24 2.958-2.631 3.441-3.675 9.127-2.485 13.491.835 3.126-.626 4.804-2.338 6.734-2.318 2.644-3.508 5.728-3.675 8.896-.021.671-.042 1.678.334 2.517 1.399 3.294 6.493 4.406 10.773 5.014 5.157.735 8.623.063 10.314-1.972 2.276-2.727 1.796-5.622.355-7.154 2.526 1.133 3.174 4.616.459 7.847-1.44 1.783-3.946 2.685-7.453 2.685Zm48.792 122.208c-2.067-12.462-1.9-26.455-1.9-26.602 1.065.147.919 14.077 2.443 25.994-.501.608-.522.608-.543.608Zm-24.197-119.313c-2.443 0-4.907-.566-6.535-1.258 3.653.398 10.877 1.321 12.923-2.728 2.025-4.028-1.962-7.72-2.129-7.867.772-.756 5.491 3.587 3.09 8.35-1.336 2.622-4.322 3.503-7.349 3.503Zm46.203 73.178c-1.42 0-2.923-.084-4.468-.272-3.278-.378-7.955-2.749-7.516-6.651.146-1.322.898-2.434 2.088-3.084-.355 1.427-.919 2.245-1.023 3.21-.355 3.273 4.113 5.161 6.576 5.455 8.268.965 13.675-.84 15.387-3.042 1.274-1.658 2.255-3.819 2.944-6.609 1.065-4.28 1.378-9.021.856-13.343-.543-4.595-6.159-8.77-6.221-8.812.876-.692 6.701 3.651 7.286 8.686a38.61 38.61 0 0 1-.898 13.742c-.73 2.958-1.753 5.245-3.131 7.028-1.838 2.35-6.285 3.692-11.88 3.692Z"/><path fill="#0C0553" d="M382.822 234.745c-.585 0-1.086-.021-1.42-.063-1.587-.21-3.382-.441-4.175-1.721-.919-1.468-1.128-3.168-.606-4.678.439-1.238 1.399-2.266 2.798-3.021 1.211-.651 2.484-.588 3.716-.525 11.274.294 13.216-1.951 13.216-1.972.668.902-1.357 3.378-12.422 3.105-2.005-.105-3.07-.168-4.009.336-1.169.629-1.942 1.468-2.297 2.434-.417 1.174-.25 2.538.501 3.734.522.839 2.026 1.049 3.028 1.175 2.714.398 12.923-.714 13.821-1.07-.626 1.405-8.456 2.266-12.151 2.266Zm-24.574-26.099c-.542-.546-.542-2.665-.542-2.665 1.064 0 1.064 2.119 1.064 2.119 0 .315-.229.546-.522.546Z"/><path fill="#0C0553" d="M384.743 243.011c-1.42 0-2.84-.063-4.155-.189-2.735-.273-5.533-2.119-5.241-5.497.147-1.636 1.232-3.357 2.777-4.406-.668 1.763-1.586 3.21-1.712 4.511-.229 2.665 2.046 4.112 4.28 4.343 6.138.65 14.657-.567 14.74-.567.063 1.049-5.324 1.805-10.689 1.805Zm-36.454 5.266c-.605 0-1.19-.147-1.712-.441-2.171-1.259-2.463-4.888-.626-8.077 1.837-3.189 5.094-4.763 7.286-3.504 2.172 1.259 2.464 4.889.627 8.077-.877 1.511-2.088 2.728-3.403 3.378-.752.378-1.483.567-2.172.567Zm-1.399-7.994c-1.545 2.686-1.44 5.644.23 6.609.773.441 1.775.399 2.86-.147 1.149-.566 2.193-1.636 2.965-2.958 1.503-2.643 1.399-5.665-.23-6.609-1.67-.965-4.3.42-5.825 3.105Zm-16.619-43.26c-4.885 0-14.969-13.029-16.159-14.581-.105-.441 1.733-8.497 1.733-8.497 1.044.231-.731 8.035-.731 8.035 4.593 5.979 12.756 14.917 15.554 13.91 1.858-.651 1.817-7.763 1.19-12.609.021-.189 2.025-9.043 2.025-9.043 1.044.252-.96 9.001-.96 9.001.292 2.308 1.399 12.525-1.9 13.679-.25.063-.501.105-.752.105Zm-7.056-60.423c-.23-.063-3.988-1.888-3.988-1.888.459-.965 4.217.86 4.217.86.147.903-.041 1.028-.229 1.028Zm79.358 160.707H288.306c0-1.07 114.267-1.07 114.267-1.07.521.839.292 1.07 0 1.07Zm-234.086 0H12.235c0-1.07 156.252-1.07 156.252-1.07.543.839.292 1.07 0 1.07Zm177.046-145.265c-.417-.105-.73.042-1.002 1.573-.313 1.7.105 2.056.501 2.077.376.021.815-.461.919-1.699.125-1.238.146-1.804-.418-1.951Zm-10.981-1.951c-.418-.105-.731.062-.961 1.594-.25 1.72.167 2.056.543 2.056.376.021.814-.482.877-1.72.104-1.238.104-1.805-.459-1.93ZM17.517 282.999c-.355 0-.731-.084-1.065-.294l-5.387-3.189c-.48-.294-.835-.734-.96-1.28a2.035 2.035 0 0 1 .23-1.594l9.917-16.889a1.03 1.03 0 0 0-.355-1.406l-6.18-3.671a2.09 2.09 0 0 1-1.023-1.784c0-.755.355-1.426.981-1.825l25.221-15.672a2.073 2.073 0 0 1 2.171-.021 2.096 2.096 0 0 1 1.023 1.909l-1.44 29.771c-.042.755-.439 1.405-1.107 1.741a2.077 2.077 0 0 1-2.067-.042l-6.827-4.028c-1.399.357-11.316 17.246-11.316 17.246a2.151 2.151 0 0 1-1.816 1.028Zm-3.299-31.03c-.313.189-.48.525-.48.881 0 .357.188.693.5.882l6.18 3.671a2.08 2.08 0 0 1 .732 2.874l-9.918 16.889c.355 1.406 5.763 4.595 5.763 4.595a1.04 1.04 0 0 0 1.399-.357l9.917-16.889c.292-.482.73-.839 1.273-.965a2.008 2.008 0 0 1 1.587.231l6.827 4.049a1.028 1.028 0 0 0 1.545-.839l1.462-29.75a1.023 1.023 0 0 0-.501-.944 1.023 1.023 0 0 0-1.065.021l-25.221 15.651Zm399.817-117.131h-19.333c-1.399 0-2.464-.503-2.986-1.426-.522-.924-.418-2.098.292-3.315l9.625-16.554c.71-1.216 1.67-1.888 2.735-1.888s2.046.672 2.735 1.888l9.646 16.575c.71 1.216.814 2.391.292 3.314-.543.903-1.587 1.406-3.006 1.406Zm-9.667-22.113c-.668 0-1.315.483-1.816 1.343l-9.625 16.574c-.501.881-.606 1.658-.272 2.224.314.566 1.044.881 2.047.881h19.333c1.002 0 1.733-.315 2.067-.881.313-.566.229-1.364-.272-2.224l-9.645-16.574c-.502-.86-1.149-1.343-1.817-1.343ZM77.04 70.136c-6.597 0-11.963-5.392-11.963-12.021.042-.231 2.443-8.14 1.316-14.204 2.192 5.853.041 13.364-.23 14.266.042 6 4.906 10.868 10.898 10.868 5.971 0 10.836-4.867 10.878-10.868-.272-.902-2.422-8.413-1.295-14.476-.083 6.252 2.318 14.162 2.339 14.246 0 6.797-5.366 12.189-11.943 12.189Z"/><path fill="#0C0553" d="M118.421 127.222h-21.88c0-1.07 21.337-1.07 21.337-1.07v-30.63c6.472-1.658 13.947.503 14.844.776 5.972-.042 10.815-4.93 10.815-10.952 0-6-4.843-10.888-10.815-10.93-.897.273-8.372 2.455-14.405 1.3-.439-.524-.439-31.343-.439-31.343H87.145c0-1.07 31.255-1.07 31.255-1.07.543.545.543 31.428.543 31.428 5.971.965 13.466-1.343 13.529-1.385 6.744-.021 12.109 5.37 12.109 12s-5.365 12.022-11.963 12.022c-.23-.042-7.746-2.35-13.696-1.385v30.715a.5.5 0 0 1-.501.524Zm-34.553 0H35.952c-.543-.545-.543-31.784-.543-31.784 1.065 0 1.065 30.693 1.065 30.693h47.373c.563.84.313 1.091.02 1.091Zm-47.916-59.31c-.543-.545-.543-24.106-.543-24.106.543-.545 31.485-.545 31.485-.545 0 1.07-30.42 1.07-30.42 1.07v23.015a.517.517 0 0 1-.522.566Zm220.453 2.224c-6.598 0-11.963-5.392-11.963-12.022.041-.23 2.442-8.14 1.315-14.203 2.192 5.853.021 13.364-.251 14.287.042 6 4.907 10.868 10.878 10.868s10.836-4.867 10.877-10.868c-.271-.902-2.422-8.413-1.294-14.476-.084 6.252 2.317 14.162 2.338 14.246.063 6.776-5.303 12.168-11.9 12.168Zm-27.142 27.127c-.23-.042-8.122-2.476-14.134-1.322 5.845-2.203 13.299-.042 14.218.252 5.971-.042 10.814-4.93 10.814-10.93s-4.843-10.89-10.814-10.931c-.898.273-8.393 2.434-14.406 1.3 6.242.085 14.092-2.328 14.176-2.349 6.744-.021 12.109 5.37 12.109 12 0 6.588-5.365 11.98-11.963 11.98Zm53.991 0c-6.598 0-11.963-5.392-11.963-12.022s5.365-12.021 11.963-12.021c.23.042 8.122 2.476 14.134 1.322-5.825 2.203-13.32.042-14.218-.231-5.971.042-10.814 4.93-10.814 10.93s4.843 10.89 10.814 10.931c.898-.273 8.393-2.455 14.406-1.3-6.242-.085-14.092 2.328-14.176 2.35-.021.041-.083.041-.146.041Z"/><path fill="#0C0553" d="M215.024 75.696c-.543-.546-.543-31.89-.543-31.89.543-.545 31.798-.545 31.798-.545 0 1.07-30.733 1.07-30.733 1.07v30.82a.511.511 0 0 1-.522.545Zm20.711 51.526h-20.69c-.543-.545-.543-31.721-.543-31.721 1.065 0 1.065 30.63 1.065 30.63h20.168c.522.84.293 1.091 0 1.091Zm47.999 0h-35.91c0-1.07 35.91-1.07 35.91-1.07.522.819.292 1.07 0 1.07Zm13.759-7.049c-.543-.545-.543-24.651-.543-24.651 1.065 0 1.065 24.106 1.065 24.106a.523.523 0 0 1-.522.545Zm0-44.855c-.543-.546-.543-30.945-.543-30.945h-30.419c0-1.07 30.962-1.07 30.962-1.07.543.545.543 31.49.543 31.49 0 .273-.251.525-.543.525ZM68.418 144.971c-3.78-5.098-6.305-17.665-6.43-18.189 1.085-.084 3.653 12.672 6.868 17.35-.23.818-.334.839-.438.839Z"/><path fill="#0C0553" d="M251.582 139.768c-.376-.063-.585-.335-.522-.629 1.044-6.42 5.887-12.546 6.096-12.798.794.735-4.029 6.84-5.031 12.966a.541.541 0 0 1-.543.461Zm13.069 4.763c2.777-5.518 5.345-17.833 5.366-17.959.94.734-1.587 12.882-4.927 17.728a.543.543 0 0 1-.439.231Zm-69.67 119.963c-9.562-19.889-2.401-55.051-2.317-55.408.981.567-6.118 35.372 2.818 54.632-.334.755-.417.776-.501.776Z"/><path fill="#0C0553" d="M275.445 311.804h-94.097c-7.391 0-13.404-6.042-13.404-13.469v-21.463c0-7.426 6.013-13.469 13.404-13.469h94.077c7.39 0 13.403 6.043 13.403 13.469v21.463c0 7.427-5.992 13.469-13.383 13.469Zm-94.097-47.31c-6.807 0-12.318 5.56-12.318 12.378v21.463c0 6.839 5.532 12.399 12.318 12.399h94.077c6.806 0 12.339-5.56 12.339-12.399v-21.463c0-6.839-5.533-12.378-12.339-12.378h-94.077Zm-56.497-4.93H44.992c0-1.07 79.859-1.07 79.859-1.07.543.839.293 1.07 0 1.07ZM21.755 243.787c-.543-.545-.543-80.731-.543-80.731 0-7.427 6.013-13.469 13.404-13.469h29.898c0 1.07-29.898 1.07-29.898 1.07-6.806 0-12.318 5.56-12.318 12.378v80.207c0 .314-.23.545-.543.545Zm125.561-93.13h-49.71c0-1.07 49.71-1.07 49.71-1.07.522.839.293 1.07 0 1.07Zm38.562 16.113c-.689-4.175 1.023-7.05 2.652-9.819 1.962-3.294 3.967-6.714 3.006-11.644-1.733-8.832-14.448-10.846-14.594-10.867-5.052-4.931-10.856-7.469-16.598-7.218-5.073.189-9.708 2.476-13.069 6.42-4.155 4.889-1.316 12.609.751 16.763-3.633-4.888-5.908-12.378-1.566-17.476 3.55-4.175 8.477-6.588 13.842-6.798 5.972-.23 12.026 2.35 16.974 7.26 1.671.293 13.509 2.622 15.304 11.706 1.044 5.329-1.086 8.917-3.132 12.399-1.628 2.77-3.173 5.371-3.048 8.707-.501.567-.522.567-.522.567Z"/><path fill="#0C0553" d="M194.021 187.645c2.964-2.266 5.386-5.224 6.013-8.56.73-3.986-1.211-8.266-4.844-10.616-3.32-2.182-7.85-2.434-12.068-.734 4.155-2.833 9.041-2.518 12.673-.168 3.988 2.601 6.118 7.301 5.303 11.728-.668 3.713-3.361 6.965-6.869 8.329-.083 0-.146.021-.208.021Zm-47.561-3.084c-3.841-2.014-4.76-8.057-3.34-12.253 1.482-4.384 5.804-5.874 5.992-5.937.292 1.028-3.654 2.413-4.969 6.294-1.42 4.196-.188 9.399 2.568 10.889.125.902-.063 1.007-.251 1.007Zm28.248-28.764c-.647-.797-.772-1.343-.918-1.951-.376-1.636-.919-3.86-2.13-5.665-1.419-2.098-3.507-3.189-6.326-3.335-8.121-.399-14.176-5.413-14.427-5.644.752-.776 6.744 4.175 14.49 4.553 3.132.146 5.553 1.426 7.161 3.797 1.336 1.972 1.9 4.322 2.297 6.021.146.588.25 1.091.396 1.49-.417.734-.48.734-.543.734Zm-21.859 6.965c-.48-.251-2.276-2.265-2.13-4.3.105-1.385 1.065-1.637 1.984-1.889.731-.188 1.545-.398 2.401-1.133 1.879-1.594 1.691-5.748 1.691-5.79 1.086.147 1.273 4.679-1.002 6.609-1.044.881-2.067 1.154-2.819 1.363-.981.252-1.148.357-1.19.923-.104 1.574 1.441 3.294 1.462 3.315-.147.86-.272.902-.397.902Z"/><path fill="#0C0553" d="M144.059 171.196H103.41c0-1.07 40.67-1.07 40.67-1.07.522.819.292 1.07-.021 1.07Zm-74.806 0h-43.74c0-1.07 43.76-1.07 43.76-1.07.523.819.293 1.07-.02 1.07Zm72.719-6.755c-2.589 0-4.698-2.119-4.698-4.721 0-2.601 2.109-4.72 4.698-4.72 2.588 0 4.697 2.119 4.697 4.72a4.69 4.69 0 0 1-4.697 4.721Zm0-8.371c-2.005 0-3.633 1.636-3.633 3.65 0 2.014 1.628 3.651 3.633 3.651 2.004 0 3.632-1.637 3.632-3.651s-1.628-3.65-3.632-3.65Zm-14.072 8.371c-2.589 0-4.698-2.119-4.698-4.721 0-2.601 2.109-4.72 4.698-4.72 2.589 0 4.697 2.119 4.697 4.72a4.69 4.69 0 0 1-4.697 4.721Zm0-8.371c-2.005 0-3.633 1.636-3.633 3.65 0 2.014 1.628 3.651 3.633 3.651 2.004 0 3.632-1.637 3.632-3.651s-1.628-3.65-3.632-3.65Zm103.054-115.6-.584-.902c-.251.609-.543-.377-1.232-2.056 2.296 2.644 2.171 2.727 1.816 2.958ZM97.605 38.52c-.459-.819.334-3.022 2.36-6.358-1.023 3.798-1.838 5.98-1.838 6-.104.231-.292.357-.522.357Zm129.257-6.232c-1.461-2.014-2.589-3.755-3.8-5.413 2.109 1.07 3.236 2.833 4.259 4.616-.271.776-.354.797-.459.797Zm-122.951-4.427c.814-2.496 2.171-4.112 3.612-5.622-.627 2.224-1.963 3.797-3.195 5.413a.511.511 0 0 1-.417.21Zm115.686-5.58c-1.754-1.679-3.216-3.147-4.719-4.511 2.255.588 3.737 2.077 5.115 3.609-.125.86-.271.902-.396.902Zm-107.231-3.42c1.19-2.287 2.84-3.588 4.531-4.804-1.044 2.077-2.673 3.356-4.176 4.678a.563.563 0 0 1-.355.126Zm98.065-4.825a124.704 124.704 0 0 0-5.428-3.462c2.338.126 4.092 1.259 5.741 2.476.021.902-.146.986-.313.986Zm-88.043-2.35c1.503-2.035 3.361-3.021 5.24-3.881-1.399 1.846-3.215 2.79-4.969 3.818a.573.573 0 0 1-.271.063Zm77.416-3.881c-2.046-.882-3.946-1.658-5.888-2.35 2.339-.315 4.26.461 6.118 1.322.167.902-.021 1.028-.23 1.028ZM133.558 6.44c1.733-1.762 3.716-2.392 5.72-2.958-1.67 1.594-3.633 2.224-5.532 2.937-.084 0-.147.02-.188.02Zm54.638-2.749a81.525 81.525 0 0 0-6.118-1.3c2.255-.693 4.301-.252 6.243.251.334.882.104 1.05-.125 1.05Zm-42.8-.629c1.879-1.469 3.925-1.825 5.992-2.119-1.9 1.343-3.946 1.7-5.888 2.098-.042.021-.063.021-.104.021Zm30.67-1.51a85.918 85.918 0 0 0-6.16-.42c2.13-1.007 4.218-.86 6.222-.65.439.86.209 1.07-.062 1.07Zm-18.478-.19C159.551.127 161.639.043 163.727 0c-2.046 1.112-4.113 1.217-6.097 1.364h-.042ZM56.893 206.59H35.681c-.543-.546-.543-21.862-.543-21.862.543-.545 21.755-.545 21.755-.545.543.545.543 21.861.543 21.861a.54.54 0 0 1-.543.546Zm-20.69-1.07H56.35v-20.246H36.203v20.246Zm20.69 36.484H44.324c0-1.07 12.047-1.07 12.047-1.07v-20.246H36.224v13.994c-1.065 0-1.065-14.539-1.065-14.539.543-.546 21.755-.546 21.755-.546.543.546.543 21.861.543 21.861a.572.572 0 0 1-.564.546Zm37.455-28.638H55.85c0-1.07 38.52-1.07 38.52-1.07.522.839.272 1.07-.02 1.07Zm253.357-60.695c2.443-3.357 5.303-8.476 4.927-11.958-.647-5.938-6.66-9.987-18.331-12.4-11.065-2.286-15.867 4.511-16.055 4.805-.835-.693 4.447-8.287 16.285-5.875 12.193 2.497 18.456 6.861 19.187 13.323.417 3.86-2.568 9.294-5.637 11.937a.51.51 0 0 1-.376.168Zm-25.576 12.001c-2.004 0-3.633-1.637-3.633-3.651s1.629-3.65 3.633-3.65 3.633 1.636 3.633 3.65c.021 2.014-1.629 3.651-3.633 3.651Zm0-6.252a2.572 2.572 0 0 0-2.568 2.58 2.572 2.572 0 0 0 2.568 2.581 2.572 2.572 0 0 0 2.568-2.581c0-1.406-1.148-2.58-2.568-2.58Zm8.748-9.987c-.355-.944 2.777-4.091 7.182-1.888-4.155-.881-6.681 1.615-6.785 1.72a.658.658 0 0 1-.397.168Z"/><path fill="#0C0553" d="M347.83 151.098c-1.19-2.14-3.153-2.056-3.194-2.056.835-1.112 2.923-.672 3.695 1.321-.355.714-.438.735-.501.735Zm-15.032 59.855c-.501-3.902-2.213-10.385-2.234-10.448 1.106 0 2.818 6.42 2.777 9.924-.021.273-.251.524-.543.524Zm51.151-21.903c.585-2.559 1.608-4.364 2.61-6.168-.063 2.35-1.086 4.175-2.15 5.917-.084.167-.272.251-.46.251Zm5.93-10.888c.438-2.665 1.315-4.553 2.108-6.378.167 2.287-.71 4.175-1.628 6.084a.554.554 0 0 1-.48.294Zm4.969-11.35c.25-2.686.939-4.637 1.586-6.546.376 2.266-.313 4.238-1.085 6.189a.533.533 0 0 1-.501.357Zm3.883-11.77c-.418-.105-.606-.399-.522-.672a104.446 104.446 0 0 0 1.441-6c.626 2.224.146 4.259-.418 6.273a.51.51 0 0 1-.501.399Zm-4.05-53.079c-.919-1.091-1.42-1.91-1.921-2.707 1.42.252 1.921 1.07 2.38 1.909-.292.756-.376.798-.459.798Zm-5.053-7.532c-1.67-1.784-3.027-3.336-4.468-4.805 2.213.756 3.591 2.33 4.886 3.945-.188.839-.293.86-.418.86Zm-40.838-.462c1.149-.923 3.153-1.531 4.823-2.685-1.044 2.035-3.027 2.685-4.823 2.685Zm-4.05-4.238c-.376-.063-.585-.335-.522-.63.188-1.153.752-2.433 1.629-3.817.417-.63.877-1.26 1.398-1.826.335 1.259-.104 1.826-.48 2.413-.814 1.259-1.315 2.413-1.482 3.42a.543.543 0 0 1-.543.44Zm12.965-2.245c.376-2.538.982-4.468 1.337-6.524.689 2.328.062 4.343-.835 6.21a.546.546 0 0 1-.502.314Zm23.342-1.93c-1.816-1.385-3.403-2.643-5.052-3.84-.355-.25-.418-.587-.251-.838 2.547 1.175 4.134 2.454 5.637 3.734-.042.881-.188.944-.334.944Zm-28.498-4.91c1.544-1.93 3.57-2.58 5.741-3.02-1.879 1.468-3.8 2.098-5.491 2.958a.552.552 0 0 1-.25.063Zm18.059-1.489a26.142 26.142 0 0 0-6.096-.923c2.213-.986 4.301-.671 6.242-.126.313.902.084 1.05-.146 1.05Zm-10.815-3.734c-.71-2.518-1.127-4.51-1.795-6.399 1.691 1.636 2.15 3.713 2.338 5.832-.501.567-.522.567-.543.567Zm-4.029-11.581c-1.545-1.888-2.84-3.462-4.322-4.888 2.276.713 3.633 2.328 4.781 4.049-.25.818-.355.839-.459.839Zm-8.832-8.518c-2.004-1.154-3.82-2.056-5.72-2.77 2.338-.272 4.217.651 5.992 1.763.083.902-.084 1.007-.272 1.007Zm-41.672-1.426c1.336-1.952 3.277-2.749 5.553-3.378-1.9 1.636-3.779 2.391-5.282 3.294a.459.459 0 0 1-.271.084Zm30.189-2.917a63.232 63.232 0 0 0-6.159-.797c2.255-.902 4.322-.63 6.264-.273.376.902.146 1.07-.105 1.07Zm-18.435-.566c1.9-1.322 3.988-1.448 6.138-1.49-2.088 1.112-4.155 1.259-6.075 1.49h-.063Z"/><path fill="#fff" d="M265.382 279.306h-73.971c0-1.07 73.992-1.07 73.992-1.07.522.818.272 1.07-.021 1.07Zm0 17.686h-73.971c0-1.07 73.992-1.07 73.992-1.07.522.839.272 1.07-.021 1.07Z"/><path fill="#0C0553" d="M419.63 142.559h-31.296c-4.072 0-7.37-3.315-7.37-7.406v-22.994c0-4.091 3.298-7.406 7.37-7.406h31.296c4.071 0 7.37 3.315 7.37 7.406v22.994c0 4.091-3.299 7.406-7.37 7.406Zm-31.296-36.736c-3.466 0-6.306 2.832-6.306 6.336v22.994c0 3.483 2.819 6.336 6.306 6.336h31.296c3.466 0 6.305-2.833 6.305-6.336v-22.994c0-3.483-2.818-6.336-6.305-6.336h-31.296Zm-48.688 57.359c2.213-1.07 3.591-2.895 4.092-3.713-1.232-.861-2.881-2.182-2.881-3.084 0-.924 1.232-6.357 1.378-6.966.522 2.518-.293 6.378-.293 6.966.063.356 1.378 1.531 2.819 2.475.104.818-1.566 4.322-5.115 4.322Z"/></svg>