<svg xmlns="http://www.w3.org/2000/svg" width="45" height="45" fill="none"><path fill="#0B054F" d="M0 0h45v40a5 5 0 0 1-5 5H0V0Z"/><g stroke="#fff" stroke-miterlimit="10" stroke-width="1.5" clip-path="url(#a)"><path stroke-linecap="square" d="M22.063 24.375c-4.004 0-6.647.837-8.07 1.468a2.15 2.15 0 0 0-1.274 1.97v3.75h11.5M17.031 15.75a5.031 5.031 0 0 1 10.063 0c0 2.779-2.253 5.75-5.032 5.75-2.778 0-5.03-2.971-5.03-5.75Z"/><path d="m34.282 32.281-3.21-3.209"/><path stroke-linecap="square" d="M28.531 30.125a3.594 3.594 0 1 0 0-7.188 3.594 3.594 0 0 0 0 7.188Z"/></g><defs><clipPath id="a"><path fill="#fff" d="M12 10h23v23H12z"/></clipPath></defs></svg>