<svg xmlns="http://www.w3.org/2000/svg" width="45" height="45" fill="none"><path fill="#0B054F" d="M0 0h45v40a5 5 0 0 1-5 5H0V0Z"/><g stroke="#fff" stroke-miterlimit="10" stroke-width="1.5" clip-path="url(#a)"><path d="M18.7 20.86a2.16 2.16 0 0 0-1.95-1.235h-2.875a2.156 2.156 0 0 0-2.156 2.156v3.594h1.437v5.031h4.313"/><path stroke-linecap="square" d="M15.313 17.469a2.156 2.156 0 1 0 0-4.313 2.156 2.156 0 0 0 0 4.313Z"/><path d="M26.3 20.86a2.16 2.16 0 0 1 1.95-1.235h2.875c1.19 0 2.156.965 2.156 2.156v3.594h-1.438v5.031h-4.312"/><path stroke-linecap="square" d="M29.688 17.469a2.156 2.156 0 1 0 0-4.313 2.156 2.156 0 0 0 0 4.313Zm-5.032 15.812h-4.312v-5.75h-2.157V22.5a2.875 2.875 0 0 1 2.875-2.875h2.875a2.875 2.875 0 0 1 2.875 2.875v5.031h-2.156v5.75ZM22.5 17.469a2.875 2.875 0 1 0 0-5.75 2.875 2.875 0 0 0 0 5.75Z"/></g><defs><clipPath id="a"><path fill="#fff" d="M11 11h23v23H11z"/></clipPath></defs></svg>