<svg xmlns="http://www.w3.org/2000/svg" width="35" height="36" fill="none"><circle cx="17.5" cy="17.56" r="17.5" fill="#fff"/><path fill="#216FF4" d="M27.79 13.188s-.205-1.421-.834-2.047c-.8-.82-1.694-.825-2.105-.873-2.938-.208-7.346-.208-7.346-.208h-.01s-4.408 0-7.346.208c-.41.048-1.306.052-2.104.873-.63.626-.835 2.047-.835 2.047S7 14.856 7 16.524v1.564c0 1.669.21 3.337.21 3.337s.205 1.42.835 2.046c.798.821 1.848.795 2.315.881 1.68.159 7.14.208 7.14.208s4.413-.007 7.351-.215c.41-.049 1.306-.053 2.105-.874.63-.625.834-2.046.834-2.046s.21-1.668.21-3.337v-1.564c0-1.668-.21-3.336-.21-3.336Z"/><path fill="#fff" d="M15.332 19.983V14.19l5.673 2.907-5.673 2.886Z"/></svg>