<svg xmlns="http://www.w3.org/2000/svg" width="135" height="21" fill="none"><g clip-path="url(#a)"><path fill="#F2617A" d="M8.985 0 0 17.126h4.174L13.163 0H8.985Z"/><path fill="#003D4F" d="m60.699 6.856-.72 1.369h-.043a3.125 3.125 0 0 0-1.321-1.283 4.203 4.203 0 0 0-1.816-.362 4.353 4.353 0 0 0-1.952.417c-.554.267-1.04.65-1.423 1.122a4.867 4.867 0 0 0-.869 1.629 6.2 6.2 0 0 0-.297 1.924c-.005.67.079 1.338.248 1.988.154.596.429 1.157.809 1.648.372.475.856.856 1.41 1.113a4.741 4.741 0 0 0 2.047.407 4.4 4.4 0 0 0 1.83-.388 2.823 2.823 0 0 0 1.34-1.202h.04v1.353c0 1.603-.773 2.52-2.312 2.52-1.538 0-2.357-.641-2.793-1.167l-1.05 2.017S55.015 21 57.264 21c3.728 0 5.479-1.76 5.479-4.53V6.85l-2.044.006Zm-.872 6.07a2.814 2.814 0 0 1-.462.904 2.295 2.295 0 0 1-.777.641 2.368 2.368 0 0 1-1.083.238 2.1 2.1 0 0 1-1.126-.28 2.213 2.213 0 0 1-.726-.714 2.837 2.837 0 0 1-.387-.982 5.399 5.399 0 0 1-.115-1.103 4.469 4.469 0 0 1 .135-1.103c.082-.334.227-.65.43-.933a2.19 2.19 0 0 1 .736-.641 2.158 2.158 0 0 1 1.053-.237 2.43 2.43 0 0 1 1.186.256c.304.166.561.401.75.686.197.308.336.648.409 1.004.084.394.125.796.122 1.2.004.359-.045.717-.145 1.064ZM21.973 2.944v5.342h.063a3.305 3.305 0 0 1 1.41-1.299 3.868 3.868 0 0 1 1.674-.407 5.086 5.086 0 0 1 1.916.32c.461.181.866.475 1.175.854.299.395.504.85.601 1.33.121.572.18 1.155.175 1.738v6.317h-2.9v-5.813a3.495 3.495 0 0 0-.409-1.895c-.27-.42-.756-.642-1.45-.642-.792 0-1.363.231-1.72.687-.356.455-.531 1.208-.531 2.244v5.406H19.07V2.944h2.902Zm8.233 6.823a4.75 4.75 0 0 1 1.103-1.709 5.04 5.04 0 0 1 1.717-1.093 6.79 6.79 0 0 1 4.511 0 4.815 4.815 0 0 1 1.735 1.098 4.65 4.65 0 0 1 1.099 1.704c.268.72.4 1.48.39 2.245a6.104 6.104 0 0 1-.39 2.225 4.843 4.843 0 0 1-1.103 1.697 4.85 4.85 0 0 1-1.73 1.06 6.967 6.967 0 0 1-4.515 0 4.879 4.879 0 0 1-1.717-1.083 4.753 4.753 0 0 1-1.103-1.696 6.032 6.032 0 0 1-.39-2.226 6.1 6.1 0 0 1 .393-2.222Zm2.642 3.434c.073.374.215.731.42 1.056.193.308.463.563.785.743a2.47 2.47 0 0 0 1.229.28 2.51 2.51 0 0 0 1.235-.28 2.17 2.17 0 0 0 .799-.743c.203-.325.345-.682.42-1.056a5.75 5.75 0 0 0 .122-1.199c0-.407-.04-.813-.123-1.212a3.08 3.08 0 0 0-.419-1.055 2.312 2.312 0 0 0-.803-.757 2.475 2.475 0 0 0-1.234-.285c-.4-.02-.8.064-1.154.245a2.197 2.197 0 0 0-.86.784 3.016 3.016 0 0 0-.42 1.055 5.944 5.944 0 0 0 0 2.425h.003Zm15.837 3.925v-1.414h-.06a3.245 3.245 0 0 1-1.433 1.283 4.36 4.36 0 0 1-1.8.394 5.28 5.28 0 0 1-1.911-.295 2.73 2.73 0 0 1-1.176-.846 3.233 3.233 0 0 1-.604-1.33 8.066 8.066 0 0 1-.175-1.739V6.856h2.906v5.8a3.507 3.507 0 0 0 .41 1.899c.27.417.754.63 1.452.641.79 0 1.363-.229 1.717-.686.354-.455.532-1.209.532-2.245v-5.41h2.903v10.262l-2.761.01ZM66.732 2.944v5.342h.06c.329-.559.82-1.01 1.413-1.299a3.869 3.869 0 0 1 1.674-.407 5.086 5.086 0 0 1 1.915.32c.464.176.872.466 1.186.84.298.397.504.85.604 1.331a8.07 8.07 0 0 1 .172 1.738v6.317h-2.903v-5.8a3.524 3.524 0 0 0-.41-1.895c-.272-.428-.757-.642-1.452-.642-.793 0-1.364.231-1.717.686-.354.456-.532 1.21-.532 2.245v5.406h-2.906V2.944h2.896Zm29.186 6.823a4.693 4.693 0 0 1 1.095-1.7 4.865 4.865 0 0 1 1.725-1.102 6.79 6.79 0 0 1 4.511 0c.652.24 1.244.615 1.733 1.1a4.68 4.68 0 0 1 1.1 1.702c.268.72.4 1.48.39 2.245a6.092 6.092 0 0 1-.39 2.225 4.804 4.804 0 0 1-1.106 1.697c-.49.47-1.077.832-1.724 1.06a6.967 6.967 0 0 1-4.514 0 4.847 4.847 0 0 1-1.717-1.083 4.793 4.793 0 0 1-1.107-1.696 6.1 6.1 0 0 1-.386-2.226 6.17 6.17 0 0 1 .39-2.222Zm2.641 3.434c.075.373.217.73.42 1.056.195.307.467.563.79.743.376.198.8.295 1.228.28a2.52 2.52 0 0 0 1.235-.28c.326-.178.601-.434.799-.743.203-.325.345-.682.419-1.056a5.68 5.68 0 0 0 .122-1.199 5.949 5.949 0 0 0-.122-1.212 3.095 3.095 0 0 0-.419-1.055 2.345 2.345 0 0 0-.803-.757 2.474 2.474 0 0 0-1.235-.285 2.422 2.422 0 0 0-1.228.285 2.37 2.37 0 0 0-.79.744 3.077 3.077 0 0 0-.419 1.055c-.08.4-.121.806-.122 1.212 0 .407.04.813.122 1.212h.004Zm19.904-10.257v7.609l3.659-3.697h3.437l-3.989 3.774 4.442 6.496h-3.521l-2.902-4.588-1.126 1.051v3.528h-2.906V2.944h2.906Z"/><path fill="#003D4F" d="M128.157 14.574c.124.212.294.395.499.535.214.147.453.255.706.321.271.067.55.1.829.1.217-.001.433-.025.644-.071.215-.042.422-.116.614-.218.182-.097.339-.233.459-.398a1.01 1.01 0 0 0 .185-.641c0-.423-.29-.74-.868-.962a17.957 17.957 0 0 0-2.424-.641 18.09 18.09 0 0 1-1.238-.321 4.243 4.243 0 0 1-1.087-.484 2.415 2.415 0 0 1-.756-.776 2.132 2.132 0 0 1-.287-1.142 2.997 2.997 0 0 1 .399-1.629c.257-.416.62-.762 1.054-1.003a4.707 4.707 0 0 1 1.486-.51 9.304 9.304 0 0 1 3.341.01c.511.094.999.277 1.444.538a3.26 3.26 0 0 1 1.053 1c.299.479.472 1.022.502 1.581h-2.761a1.214 1.214 0 0 0-.161-.635 1.262 1.262 0 0 0-.473-.468 2.97 2.97 0 0 0-1.35-.288c-.178 0-.355.01-.532.029-.18.018-.356.062-.522.131a1.008 1.008 0 0 0-.399.289.733.733 0 0 0-.162.503.76.76 0 0 0 .284.616c.22.175.474.307.746.388.346.11.697.2 1.054.27.396.08.799.167 1.208.259.418.09.83.202 1.235.336a4.1 4.1 0 0 1 1.073.526c.312.214.571.492.76.815.203.37.302.784.287 1.202a3.034 3.034 0 0 1-.365 1.6 3.156 3.156 0 0 1-1.15 1.2 4.537 4.537 0 0 1-1.543.587 9.318 9.318 0 0 1-3.569-.01 4.786 4.786 0 0 1-1.566-.603 3.304 3.304 0 0 1-1.186-1.205 3.183 3.183 0 0 1-.419-1.617h2.761c-.009.274.059.546.195.786Zm-48.265.446a1.47 1.47 0 0 1-.991-.238 1.36 1.36 0 0 1-.244-.962V8.744h1.621l.99-1.888H78.66V3.777h-2.906v3.079h-1.453l-.99 1.885h2.44v6.06c-.02.433.073.862.267 1.251.166.308.418.563.727.738.33.178.69.295 1.063.346.423.062.85.092 1.278.09.287 0 .578 0 .878-.02a7.27 7.27 0 0 0 .82-.08V14.94c-.142.03-.286.05-.43.061-.142.013-.297.02-.462.02Zm-62.63 0a1.473 1.473 0 0 1-.991-.238 1.36 1.36 0 0 1-.244-.962V8.744h1.496l.99-1.888h-2.48V3.777h-2.902v3.079h-1.457l-.99 1.885h2.443v6.06c-.02.432.071.862.264 1.251.167.307.419.562.727.738.333.178.697.296 1.073.346.423.062.85.092 1.278.09.287 0 .581 0 .879-.02.273-.01.545-.038.815-.08V14.94c-.141.03-.285.05-.43.061-.151.013-.31.02-.471.02Zm96.028-8.44c-2.44 0-3.374 2.184-3.374 2.184h-.04V6.856h-2.761v10.26h2.903v-4.29c0-2.5.502-3.617 2.698-3.617a2.44 2.44 0 0 1 1.136.263l1.245-2.373a3.336 3.336 0 0 0-1.807-.52Z"/><path fill="#003D4F" d="m93.09 6.859-1.944 6.949h-.04l-1.8-6.95h-2.823l-1.76 6.972h-.04l-1.941-6.971-1.893 3.6 2.18 6.667h3.005l1.8-6.894h.04l1.882 6.894h2.988L96.076 6.86h-2.985Z"/></g><defs><clipPath id="a"><path fill="#fff" d="M0 0h135v21H0z"/></clipPath></defs></svg>