<svg xmlns="http://www.w3.org/2000/svg" width="139" height="18" fill="none"><g clip-path="url(#a)"><path fill="#3957BD" fill-rule="evenodd" d="M0 17.287V0h18.208v17.287h-2.704l-6.492-6.163 1.924-1.826 4.569 4.337V2.566H2.712v12.138h5.531v2.583H0Z" clip-rule="evenodd"/><path fill="#0C0553" d="M38.28 8.284a6.924 6.924 0 0 0-1.303-3.97 7.493 7.493 0 0 0-3.404-2.616 7.932 7.932 0 0 0-4.361-.384 7.68 7.68 0 0 0-3.853 1.977 7.065 7.065 0 0 0-2.05 3.674 6.839 6.839 0 0 0 .44 4.137 7.271 7.271 0 0 0 2.784 3.21 7.846 7.846 0 0 0 4.19 1.206 8.015 8.015 0 0 0 3.989-1.034l2.203 2.1L38.7 14.89l-2.105-2.007a7.031 7.031 0 0 0 1.686-4.6Zm-5.45 4.42a4.747 4.747 0 0 1-2.106.458c-2.855 0-4.702-2.151-4.702-4.878 0-2.728 1.847-4.88 4.702-4.88s4.702 2.17 4.702 4.88a5.304 5.304 0 0 1-.732 2.727l-2.16-2.05-1.783 1.694.098.094 1.98 1.956Zm13.533-2.074c0 1.6-.964 2.812-2.4 2.812-1.267 0-1.91-.847-1.91-2.473V5.362h-2.577v5.928c0 2.745 1.097 4.235 3.568 4.235a4.004 4.004 0 0 0 1.992-.626 3.725 3.725 0 0 0 1.353-1.525v1.855h2.597V5.362h-2.623v5.268Zm6.923-5.268h-2.579v9.875h2.579V5.362Zm0-3.99h-2.579V3.82h2.579V1.372Zm7.645 3.693c-.71.032-1.396.25-1.984.63a3.704 3.704 0 0 0-1.344 1.522V5.362h-2.542v9.875h2.578V9.961c0-1.618.892-2.803 2.372-2.803 1.268 0 2.106.846 2.106 2.464v5.616h2.596v-5.93c0-2.744-1.311-4.234-3.782-4.234v-.009Zm7.895-2.592h-2.56V12.79c-.042.332-.004.669.112.984.115.316.305.603.554.838.25.236.552.415.885.524.333.108.688.143 1.037.102H71.7v-2.135h-2.123a.672.672 0 0 1-.418-.084.623.623 0 0 1-.271-.314.582.582 0 0 1-.034-.271V7.352H71.7V5.319h-2.874V2.473Zm8.707 2.567a5.765 5.765 0 0 0-3.128.799 5.351 5.351 0 0 0-2.123 2.322 5.018 5.018 0 0 0-.393 3.053 5.16 5.16 0 0 0 1.472 2.737 5.64 5.64 0 0 0 2.834 1.49 5.816 5.816 0 0 0 3.225-.267 5.497 5.497 0 0 0 2.518-1.935 5.077 5.077 0 0 0 .948-2.94 4.795 4.795 0 0 0-.332-2.01 4.984 4.984 0 0 0-1.145-1.72 5.303 5.303 0 0 0-1.772-1.147 5.513 5.513 0 0 0-2.104-.383v.001Zm0 8.3c-1.516 0-2.748-1.067-2.748-3.04 0-1.974 1.232-3.067 2.748-3.067 1.517 0 2.765 1.085 2.765 3.067 0 1.982-1.222 3.04-2.765 3.04ZM88.434 1.406l-5.646 13.831h2.899l1.329-3.54h6.058l1.347 3.541h2.899L91.655 1.406h-3.22Zm-.65 8.259 2.247-5.93 2.275 5.93h-4.523Zm16.093-4.6a4.013 4.013 0 0 0-1.987.631 3.736 3.736 0 0 0-1.35 1.52l.045-1.854h-2.533v9.875h2.577V9.961c0-1.618.893-2.803 2.374-2.803 1.267 0 2.105.846 2.105 2.464v5.616h2.596V9.31c0-2.745-1.311-4.235-3.782-4.235l-.045-.009ZM117.09 7.04a3.671 3.671 0 0 0-1.408-1.452 3.914 3.914 0 0 0-2.001-.522c-2.899 0-4.853 2.422-4.853 5.252 0 2.829 1.954 5.217 4.853 5.217.711-.01 1.406-.2 2.014-.551a3.866 3.866 0 0 0 1.439-1.448v1.694h2.578V1.406h-2.578l-.044 5.633Zm-2.766 6.361a3.14 3.14 0 0 1-1.153-.286 3.004 3.004 0 0 1-.946-.69 2.806 2.806 0 0 1-.589-.983 2.72 2.72 0 0 1-.14-1.124 2.79 2.79 0 0 1 .381-1.656 2.99 2.99 0 0 1 1.29-1.169 3.177 3.177 0 0 1 1.157-.3 3.15 3.15 0 0 1 2.102 1.005c.533.584.8 1.347.744 2.12a2.768 2.768 0 0 1-.397 1.644 2.966 2.966 0 0 1-1.295 1.15 3.158 3.158 0 0 1-1.154.288v.001Zm11.677-8.36c-2.854 0-4.559 1.6-4.889 3.066l2.579.432c.152-.447.454-.834.86-1.102a2.347 2.347 0 0 1 1.388-.38 2.05 2.05 0 0 1 .818.132c.26.1.495.25.688.443.193.193.34.423.431.674.091.252.124.519.097.784v1.253a4.555 4.555 0 0 0-3.096-1.024c-2.185 0-3.889 1.16-3.889 3.057 0 1.898 1.436 3.143 3.657 3.143a4.06 4.06 0 0 0 1.911-.37 3.824 3.824 0 0 0 1.479-1.206l-.062 1.262h2.587V8.878c0-2.448-1.731-3.871-4.559-3.871v.033Zm-.294 8.69c-1.418 0-2.078-.67-2.078-1.38 0-.712.642-1.45 2.078-1.45 1.294 0 2.311.535 2.311 1.288 0 .754-1 1.542-2.311 1.542Zm12.302-8.53a3.69 3.69 0 0 0-2.097.75 3.37 3.37 0 0 0-1.212 1.792h-.071l.142-2.423h-2.578v9.876h2.578v-4.091c0-2.786 1.543-3.574 3.042-3.574h1.186V5.26a6.126 6.126 0 0 0-.999-.077"/></g><defs><clipPath id="a"><path fill="#fff" d="M0 0h139v18H0z"/></clipPath></defs></svg>