<svg xmlns="http://www.w3.org/2000/svg" width="83" height="22" fill="none"><g clip-path="url(#a)"><path fill="#000F40" d="M73.899 0h8.456v22H73.9c-2.362 0-4.378-.45-6.046-1.345-1.668-.896-2.928-2.168-3.777-3.816-.85-1.648-1.274-3.594-1.274-5.839 0-2.246.424-4.192 1.274-5.84.85-1.647 2.11-2.92 3.777-3.816C69.522.448 71.537 0 73.899 0Zm.062 18.416h4.196V3.584h-4.195c-2.175 0-3.855.633-5.035 1.9-1.18 1.267-1.773 3.106-1.773 5.516s.59 4.248 1.773 5.516c1.18 1.266 2.859 1.899 5.035 1.899Zm-20.25-1.577c.848-1.647 1.273-3.593 1.273-5.839 0-2.41.59-4.249 1.771-5.516 1.18-1.266 2.861-1.9 5.036-1.9h.793V0h-.854c-2.364 0-4.379.448-6.047 1.344-1.667.896-2.926 2.168-3.777 3.817-.849 1.647-1.273 3.593-1.273 5.839 0 2.41-.59 4.248-1.773 5.516-1.18 1.266-2.859 1.9-5.035 1.9h-.793V22h.855c2.362 0 4.377-.448 6.046-1.344 1.668-.896 2.927-2.169 3.777-3.817ZM32.5 0h8.456v22H32.5c-2.362 0-4.377-.45-6.045-1.345-1.668-.896-2.927-2.168-3.778-3.816-.848-1.648-1.274-3.594-1.274-5.839 0-2.246.425-4.192 1.275-5.84.849-1.647 2.109-2.92 3.777-3.816C28.123.448 30.138 0 32.5 0Zm.062 18.416h4.196V3.584h-4.196c-2.177 0-3.855.633-5.036 1.9-1.18 1.267-1.771 3.106-1.771 5.516s.59 4.248 1.772 5.516c1.18 1.266 2.86 1.899 5.036 1.899ZM14.5 1.344c1.667.896 2.927 2.169 3.777 3.817.85 1.648 1.275 3.594 1.275 5.839 0 2.246-.425 4.192-1.276 5.84-.849 1.647-2.109 2.92-3.776 3.815C12.833 21.553 10.818 22 8.455 22H0V0h8.456c2.362 0 4.377.448 6.045 1.344Zm-1.072 15.17C14.608 15.249 15.2 13.41 15.2 11s-.59-4.248-1.773-5.515c-1.18-1.266-2.86-1.9-5.035-1.9H4.196v14.83h4.196c2.177 0 3.855-.632 5.036-1.9Z"/></g><defs><clipPath id="a"><path fill="#fff" d="M0 0h83v22H0z"/></clipPath></defs></svg>