<svg xmlns="http://www.w3.org/2000/svg" width="140" height="24" fill="none"><g clip-path="url(#a)"><path fill="#FFF22D" d="M.08 0h139.84v24H.081V0Z"/><path fill="#2360A5" d="m6.595 18.5 1.85-1.25 1.851 1.25L6.595 21v-2.5Zm17.767-13-1.85 1.25L20.66 5.5 24.362 3v2.5Zm0 9.5-8.884 6-8.883-6 10.55-7.126 1.85 1.25-8.513 5.751 5.182 3.5 2.405-1.625-1.85-1.25 4.442-3.002L24.362 15ZM6.595 9l8.884-5.999 8.884 6-10.55 7.124-1.85-1.25 8.513-5.75-5.182-3.5-2.406 1.625 1.85 1.25-4.442 3.001-3.701-2.5Zm21.32 5.083v3.914h4.844c1.16 0 4.046-.134 4.046-3.175 0-.258-.013-.506-.042-.74l-3.008.001c.015.118.021.244.021.374 0 1.678-1.371 1.696-1.98 1.696h-.9v-2.067h-2.981v-.003Zm10.14 0-1.184 3.913h2.436l.609-2.175h2.615l.593 2.175h2.584l-1.16-3.913H42.09l.055.226h-1.872l.05-.226h-2.268Zm8.224 0v3.913h2.091v-3.913h-2.091Zm3.178 0 1.611 3.913h2.907v-3.913H51.88v.442l-.182-.442h-2.241Zm5.515 0c.028 2.454.335 4.201 3.68 4.201 2.14 0 3.392-.86 3.392-3.538H59.61c-.03.79-.043 2.039-.956 2.039-.915 0-1.14-.494-1.18-2.704l-2.5.002Zm7.803 0c.052 2.246.464 4.201 3.764 4.201s3.714-1.955 3.765-4.199l-2.528-.002c-.048 1.876-.284 2.703-1.238 2.703-.952 0-1.19-.826-1.236-2.703h-2.527Zm10.216 0v3.913h3.683c3.108 0 3.552-2.245 3.603-3.911l-2.5-.002c-.071 1.73-.387 2.414-1.395 2.414h-.938v-2.414h-2.453Zm8.213 0c.049 2.242.454 4.201 3.767 4.201 3.312 0 3.716-1.959 3.767-4.202l-2.53.001c-.047 1.88-.282 2.708-1.238 2.708-.957 0-1.193-.828-1.239-2.708h-2.527Zm10.091 0v3.914h4.846c1.16 0 4.045-.134 4.045-3.175 0-.259-.014-.506-.041-.74h-2.967c.014.124.02.254.02.39 0 1.678-1.119 1.697-1.614 1.697H94.28v-2.087l-2.985.001Zm9.706 0v3.912h2.528v-3.912h-2.528Zm3.561 0 1.679 3.912h4.04l.611-2.176h2.613l.593 2.176h5.872c1.622 0 3.266-.218 3.266-2.761a2.4 2.4 0 0 0-.269-1.147l-3.659-.004c.751.36 1.334.727 1.334 1.308 0 .666-.353 1.117-1.073 1.117l-3.33-.001-.717-2.424h-2.46l.056.232h-1.873l.051-.232h-2.288l-.924 3.03-1.352-3.03h-2.17Zm19.589 0v3.913h2.466v-3.913h-2.466Zm3.911 0v3.913h5.345V16.51h-2.878v-2.427h-2.467Z"/><path fill="#2360A5" d="M30.898 14.084v-1.32l.596-.018h.38c1.27 0 1.777.497 1.883 1.338h3.008c-.154-1.246-.772-2.092-2.408-2.301 1.488-.3 2.232-1.296 2.232-2.674 0-2.559-1.723-3.107-3.81-3.107h-4.863v8.083h2.982v-.002Zm9.425 0 .84-3.791.926 3.79h2.46l-1.752-5.905h-2.955l-1.787 5.905h2.268Zm8.048 0v-2.637l1.086 2.637H51.7l-2.441-5.906H46.28v5.906h2.092Zm5.604 0V8.178h-2.094v5.905h2.094Zm3.499 0c-.005-.325-.008-.65-.007-.974 0-3.146.237-3.676 1.14-3.676.65 0 .942.499.942 1.83h2.42c.091-2.15-1.087-3.33-3.421-3.33-3.476 0-3.577 2.237-3.577 5.174 0 .334 0 .659.002.971l2.5.005Zm7.83 0a32.858 32.858 0 0 1-.011-.974c0-2.566.143-3.676 1.247-3.676s1.246 1.109 1.246 3.676c0 .352-.002.676-.01.972l2.528.002c.007-.32.007-.647.007-.974 0-2.65 0-5.174-3.771-5.174-3.772 0-3.772 2.525-3.772 5.174 0 .327 0 .654.007.975l2.528-.002Zm10.143 0V9.677h1.003c1.346 0 1.346 1.596 1.346 3.41 0 .364-.006.695-.017.994l2.5.002c.014-.403.004-.773.004-1.068 0-3.07-.554-4.87-3.518-4.87h-3.773v5.938h2.455Zm8.288 0c-.007-.318-.01-.635-.01-.953 0-2.554.144-3.66 1.247-3.66 1.104 0 1.246 1.106 1.246 3.66 0 .344-.002.66-.01.953h2.53c.007-.315.007-.632.007-.953 0-2.636 0-5.152-3.773-5.152-3.775 0-3.775 2.515-3.775 5.152 0 .32 0 .638.007.95l2.531.003Zm10.547 0v-1.3l.752-.02h.613c1.027 0 1.442.492 1.532 1.324l2.968-.002c-.154-1.245-.775-2.091-2.409-2.3 1.487-.3 2.232-1.297 2.232-2.676 0-2.558-1.724-3.107-3.81-3.107h-4.863v8.08h2.986Zm9.247 0V9.686h.838c.713 0 1.332.526 1.332 1.492 0 .818-.404 1.49-1.054 1.448l-.704.01.622 1.45h2.171l-.362-.814c1.257-.237 1.756-1.044 1.761-2.525.004-1.672-.98-2.57-2.509-2.57h-4.623v5.908h2.528v-.002Zm7.768 0 .842-3.785.923 3.785h2.46l-1.749-5.908h-2.956l-1.807 5.908h2.287Zm11.668 0c-.925-1.747-3.929-1.781-3.929-3.357 0-.68.41-1.047 1.101-1.047h2.246V8.17h-3.159c-2.595 0-3.236 1.187-3.236 2.723 0 1.891 1.943 2.53 3.321 3.19l3.656.002Zm3.65 0V8.178h-2.466v5.905h2.466Zm3.912 0V8.178h-2.467v5.905h2.467ZM30.898 10.91V7.845h1.07c.973 0 1.659.648 1.659 1.528 0 1.163-.877 1.529-1.506 1.529h-1.003l-.22.01Zm63.385.019V7.863h1.442c.79 0 1.35.65 1.35 1.529 0 1.162-.714 1.528-1.227 1.528h-.816l-.75.01Z"/></g><defs><clipPath id="a"><path fill="#fff" d="M0 0h140v24H0z"/></clipPath></defs></svg>