<svg xmlns="http://www.w3.org/2000/svg" width="115" height="36" fill="none"><g clip-path="url(#a)"><path fill="#6D6E70" d="M55.12 15.987v7.01h1.117v-5.158l2.116 5.157h.977l2.115-5.157v5.157h1.118v-7.009H61.09l-2.215 5.517-2.259-5.517H55.12Zm13.862 6.07h-.211c-.232 0-.343-.12-.343-.36v-2.025c0-.6-.196-1.062-.563-1.382-.368-.32-.917-.48-1.603-.48-.654 0-1.178.15-1.58.43a1.581 1.581 0 0 0-.688 1.191h1.07a.82.82 0 0 1 .363-.54 1.35 1.35 0 0 1 .785-.21c.3-.014.595.074.837.25a.82.82 0 0 1 .301.671v.308h-1.299c-.725 0-1.27.15-1.642.43-.372.28-.564.69-.564 1.211 0 .47.172.841.524 1.102.353.26.805.4 1.39.4.746 0 1.31-.293 1.702-.878 0 .269.07.47.222.61.151.14.383.21.725.21h.574v-.938Zm-1.63-1.343v.18a1.307 1.307 0 0 1-.393.96c-.251.24-.604.36-1.047.36-.302 0-.533-.059-.705-.2a.633.633 0 0 1-.252-.53.655.655 0 0 1 .272-.57c.181-.131.433-.196.776-.196l1.349-.004Zm5.375-2.844h-.241c-.403 0-.715.07-.947.21a1.535 1.535 0 0 0-.574.56l-.12-.77h-.968v5.126h1.088v-2.573a1.893 1.893 0 0 1 .302-1.1c.197-.292.524-.44.982-.44h.483l-.005-1.013Zm.993-1.883v7.01h1.094v-1.312l.916-.962 1.53 2.273h1.285l-2.046-3.064 1.925-2.062H77.17l-2.356 2.503v-4.386H73.72Zm5.511 3.074a2.913 2.913 0 0 0-.312 1.381c-.014.478.097.95.323 1.372.212.39.533.711.926.922.435.225.92.335 1.41.32.615 0 1.129-.16 1.541-.5.405-.32.677-.776.766-1.282h-1.09a1.19 1.19 0 0 1-.454.671 1.446 1.446 0 0 1-.846.23c-.423 0-.765-.13-1.018-.39-.252-.26-.402-.61-.423-1.06v-.061h3.89c.02-.136.03-.273.03-.41a2.577 2.577 0 0 0-.342-1.292 2.293 2.293 0 0 0-.897-.851 2.778 2.778 0 0 0-1.31-.3 2.564 2.564 0 0 0-1.31.329 2.24 2.24 0 0 0-.884.921Zm3.633.811h-2.769a1.239 1.239 0 0 1 .443-.861c.258-.22.588-.337.927-.33.344-.011.68.102.947.32.257.222.42.534.452.871Zm2.583-1.052v2.785c0 .48.111.83.333 1.05.222.231.584.341 1.08.341h1.048v-.951h-.826c-.202 0-.333-.04-.413-.12-.081-.08-.121-.23-.121-.43V18.82h1.239v-.95h-1.241v-1.432h-1.099v1.432h-.896v.95h.896Zm7.364-.69a2.526 2.526 0 0 0-1.26-.32 2.025 2.025 0 0 0-1.681.82l-.133-.76h-.947v7.124h1.088v-2.719c.17.246.404.443.675.571.312.146.653.218.997.21a2.43 2.43 0 0 0 1.261-.316c.37-.222.669-.541.866-.922a3.238 3.238 0 0 0 0-2.773 2.231 2.231 0 0 0-.866-.915Zm-.352 3.536a1.379 1.379 0 0 1-1.088.481 1.356 1.356 0 0 1-1.088-.48c-.282-.321-.413-.732-.413-1.252 0-.5.13-.902.413-1.212a1.374 1.374 0 0 1 1.088-.47 1.413 1.413 0 0 1 1.088.47c.282.321.423.732.423 1.231 0 .5-.14.91-.423 1.232Zm2.705-5.679v7.01h1.088v-7.01h-1.088Zm7.392 6.07h-.211c-.232 0-.343-.12-.343-.36v-2.025c0-.6-.196-1.062-.565-1.382-.368-.32-.916-.48-1.601-.48-.655 0-1.178.15-1.582.43a1.588 1.588 0 0 0-.687 1.191h1.068a.826.826 0 0 1 .363-.54c.233-.15.508-.222.785-.21a1.32 1.32 0 0 1 .836.25.818.818 0 0 1 .302.671v.308h-1.297c-.725 0-1.268.15-1.642.43-.373.28-.564.69-.564 1.211 0 .47.172.841.524 1.102.353.26.806.4 1.39.4.746 0 1.31-.293 1.703-.878 0 .269.07.47.221.61s.383.21.725.21h.575v-.938Zm-1.632-1.341v.18a1.326 1.326 0 0 1-.393.96c-.252.24-.605.36-1.047.36-.303 0-.534-.059-.705-.2a.632.632 0 0 1-.253-.53.654.654 0 0 1 .272-.57c.182-.131.433-.195.776-.195l1.35-.005Zm6.506 1.839c.424-.355.701-.855.775-1.401h-1.108a1.21 1.21 0 0 1-1.27.98c-.443 0-.795-.149-1.057-.47-.262-.32-.393-.73-.393-1.241 0-.51.132-.901.393-1.222a1.319 1.319 0 0 1 1.057-.47c.294-.009.582.083.816.26.22.18.375.426.444.7h1.118a2.228 2.228 0 0 0-.766-1.37c-.413-.341-.936-.512-1.581-.512a2.743 2.743 0 0 0-1.375.331 2.26 2.26 0 0 0-.906.91 2.757 2.757 0 0 0-.323 1.373 2.92 2.92 0 0 0 .312 1.382c.204.392.52.715.907.93.413.225.879.335 1.349.32.65 0 1.184-.16 1.608-.5Zm1.981-3.494a2.904 2.904 0 0 0-.312 1.381c-.015.478.096.95.322 1.372.212.39.534.71.927.922.434.225.92.335 1.41.32.614 0 1.128-.16 1.541-.5a2.1 2.1 0 0 0 .766-1.282h-1.088a1.18 1.18 0 0 1-.454.671 1.448 1.448 0 0 1-.846.23c-.423 0-.766-.13-1.017-.39-.251-.26-.403-.61-.423-1.06v-.061h3.888c.02-.136.03-.273.03-.41a2.57 2.57 0 0 0-.342-1.292 2.285 2.285 0 0 0-.897-.851 2.775 2.775 0 0 0-1.31-.3 2.561 2.561 0 0 0-1.308.33 2.23 2.23 0 0 0-.887.92Zm3.633.811h-2.77a1.238 1.238 0 0 1 .444-.861 1.38 1.38 0 0 1 .926-.33c.344-.011.681.102.947.32.259.221.422.533.456.871h-.003Z"/><path fill="url(#b)" d="m42.127 20.717.01 11.126c0 1.782 1.458 3.39 3.247 3.497a3.482 3.482 0 0 0 2.587-.926 3.439 3.439 0 0 0 1.09-2.51v-19.45c0-1.838-1.424-3.398-3.269-3.496-1.151-.062-2.061.433-2.865 1.243L30.798 22.257a4.028 4.028 0 0 0-1.183 2.85l.01 8.04 12.502-12.43Z"/><path fill="url(#c)" d="M21.446 12.395c0-.914.365-1.79 1.015-2.435a3.474 3.474 0 0 1 4.898 0 3.433 3.433 0 0 1 1.015 2.435v19.508c0 .913-.365 1.788-1.014 2.434a3.474 3.474 0 0 1-4.898 0 3.432 3.432 0 0 1-1.014-2.434V12.395h-.002Z"/><path fill="url(#d)" d="M24.91 7.54c.684 0 1.354-.203 1.923-.581a3.447 3.447 0 0 0 1.276-1.545 3.424 3.424 0 0 0-.752-3.752 3.482 3.482 0 0 0-3.774-.745 3.459 3.459 0 0 0-1.554 1.269 3.428 3.428 0 0 0 .432 4.346 3.474 3.474 0 0 0 2.448 1.007Z"/><path fill="url(#e)" d="m7.78 23.582-.01-11.126c0-1.782-1.459-3.39-3.247-3.498a3.48 3.48 0 0 0-2.588.927 3.44 3.44 0 0 0-1.09 2.51v19.45c0 1.838 1.424 3.398 3.27 3.495 1.15.063 2.06-.432 2.866-1.242l12.127-12.056a4.028 4.028 0 0 0 1.178-2.85l-.008-8.04-12.499 12.43Z"/></g><defs><linearGradient id="b" x1="5.655" x2="53.721" y1="44.013" y2="17.404" gradientUnits="userSpaceOnUse"><stop stop-color="#6A5AFF"/><stop offset="1" stop-color="#00D3C3"/></linearGradient><linearGradient id="c" x1="24.909" x2="24.909" y1=".654" y2="35.345" gradientUnits="userSpaceOnUse"><stop stop-color="#929497"/><stop offset="1" stop-color="#6D6E70"/></linearGradient><linearGradient id="d" x1="1778.56" x2="1778.56" y1="4118.34" y2="1672.94" gradientUnits="userSpaceOnUse"><stop stop-color="#929497"/><stop offset="1" stop-color="#6D6E70"/></linearGradient><linearGradient id="e" x1="-782.074" x2="9897.95" y1="8764.39" y2="13093.4" gradientUnits="userSpaceOnUse"><stop stop-color="#6A5AFF"/><stop offset="1" stop-color="#00D3C3"/></linearGradient><clipPath id="a"><path fill="#fff" d="M0 0h115v36H0z"/></clipPath></defs></svg>