<svg xmlns="http://www.w3.org/2000/svg" width="140" height="16" fill="none"><path fill="#ED1C24" d="M58.28 10.413h8.92l-4.714-6.93L53.837 16h-3.95L60.418.978c.45-.61 1.22-.978 2.064-.978.825 0 1.582.357 2.032.95L75.078 16h-3.94l-1.857-2.799h-9.032l-1.968-2.788ZM99.203 13.2V.154h-3.35v14.33c0 .39.18.774.496 1.05.318.3.758.466 1.217.466H112.8l1.984-2.799H99.202Zm-55.309-2.333c3.257 0 5.873-2.4 5.873-5.359 0-2.958-2.616-5.355-5.873-5.355H29.265V16h3.343V2.954h11.064c1.552 0 2.812 1.142 2.812 2.555 0 1.413-1.26 2.574-2.812 2.574l-9.429-.008L44.23 16h4.85l-6.707-5.132h1.52ZM8.697 16h10.106c4.808 0 8.68-3.54 8.68-7.917 0-4.383-3.872-7.93-8.68-7.93H8.697C3.894.154 0 3.7 0 8.084 0 12.459 3.894 16 8.697 16Zm9.875-2.788H8.92c-3.107 0-5.625-2.302-5.625-5.13 0-2.838 2.518-5.128 5.625-5.128h9.652c3.118 0 5.631 2.29 5.631 5.129 0 2.827-2.513 5.129-5.631 5.129ZM82.059 16h10.317l1.954-2.788H82.29c-3.122 0-5.637-2.302-5.637-5.13 0-2.838 2.515-5.128 5.636-5.128h9.801l1.977-2.8H82.059c-4.805 0-8.709 3.546-8.709 7.929 0 4.376 3.904 7.917 8.709 7.917Zm40.887-2.788c-2.576 0-4.748-1.577-5.417-3.732h14.287l1.969-2.794h-16.256c.668-2.16 2.841-3.732 5.417-3.732h9.81l1.961-2.8h-11.995c-4.797 0-8.69 3.546-8.69 7.929 0 4.376 3.893 7.917 8.69 7.917h10.318l1.96-2.788h-12.054Zm13.563-11.366c0-.773.684-1.401 1.547-1.401.856 0 1.534.628 1.534 1.401 0 .77-.678 1.396-1.534 1.396-.863 0-1.547-.627-1.547-1.396Zm1.547 1.78c1.078 0 1.944-.788 1.944-1.772 0-.985-.866-1.79-1.944-1.79-1.091 0-1.958.805-1.958 1.79 0 .984.867 1.772 1.958 1.772Zm-.19-2.832c.294 0 .43.012.581.05a.56.56 0 0 1 .415.558c0 .026-.01.092-.025.165a.488.488 0 0 1-.267.347c-.028.015-.041.026-.086.046l.502.827h-.489l-.449-.769h-.295v.769h-.437V.794h.55Zm.156.902c.133 0 .274-.012.352-.129.06-.043.068-.101.068-.167 0-.112-.069-.198-.168-.245-.114-.041-.2-.041-.408-.041h-.113v.582h.269Z"/></svg>