<svg xmlns="http://www.w3.org/2000/svg" width="117" height="26" fill="none"><g clip-path="url(#a)"><path fill="#CC092F" d="M37.716 14.125c-.908 0-1.792.202-2.348.479V9.018c-.884.327-1.818.78-2.6 1.409-.405.326-.53.654-.53 1.133v13.786c.833.352 2.525.654 4.14.654 4.091 0 6.44-2.49 6.44-6.088-.002-3.572-1.667-5.787-5.102-5.787Zm-1.161 9.334c-.328 0-.833 0-1.187-.126v-6.264c.43-.227 1.035-.353 1.818-.353 1.565 0 2.4 1.082 2.4 3.12-.002 2.139-.986 3.623-3.031 3.623Zm14.24-9.232c-1.49 0-2.348.578-3.156 1.61a7.86 7.86 0 0 0-.354-1.484c-.302-.1-.832-.126-1.288-.126-.43 0-.984.05-1.262.126v11.396c.379.1 1.01.126 1.565.126.53 0 1.237-.05 1.565-.126v-5.56c0-2.213 1.162-3.396 2.727-3.396.278 0 .757 0 1.035.05.176-.73.202-1.785.05-2.515-.174-.052-.629-.101-.882-.101Zm-39.54 5.578v5.805c0 .146.118.264.264.264h1.62v-7.453l-1.618.927a.497.497 0 0 0-.266.457Zm1.642-14.268c-1.587 0-3.32.145-5.034.436a9.575 9.575 0 0 1 7.55-3.65c2.262 0 4.526.851 6.048 2.115.275.229.486.25.698.042.212-.207.19-.414-.041-.685C20.13 1.495 17.21-.06 13.764.002 9.26.085 5.432 2.925 3.973 6.863c-1.332.415-2.559.912-3.638 1.514-.296.165-.402.372-.296.621.106.229.318.31.614.229.93-.27 1.882-.498 2.876-.705a8.028 8.028 0 0 0-.17 1.617c-.085 3.627 1.861 7.07 4.864 8.955.296.187.55.187.719-.042.169-.228.148-.436-.107-.663-1.902-1.699-2.96-4.229-2.96-6.737 0-1.264.255-2.488.74-3.586a38.584 38.584 0 0 1 3.258-.145c7.697 0 14.19 2.528 14.19 5.845 0 1.679-2.136 3.359-4.674 4.478-.614.269-.677.456-.593.725.085.249.36.332.677.229 4.441-1.452 7.803-3.835 7.803-6.718.001-3.916-6.343-6.943-14.38-6.943Zm3.107 11.241-2.141 1.228v7.865l2.3.003a.41.41 0 0 0 .41-.408v-8.394c0-.322-.312-.44-.569-.294Zm95.491-2.702c-3.509 0-5.479 2.39-5.479 5.987 0 3.648 2.07 5.937 5.479 5.937 3.535 0 5.505-2.34 5.505-5.937 0-3.623-1.969-5.987-5.505-5.987Zm0 9.409c-1.742 0-2.272-1.409-2.272-3.422 0-1.962.53-3.472 2.272-3.472 1.793 0 2.298 1.46 2.298 3.472.001 2.114-.58 3.422-2.298 3.422Zm-30.55-9.41c-3.384 0-5.454 2.265-5.454 6.039 0 3.774 2.196 5.887 5.958 5.887 1.288 0 2.677-.226 3.56-.654a5.58 5.58 0 0 0 0-2.415c-1.16.327-2.145.528-3.23.528-1.743 0-2.955-.654-3.208-2.49h7.12c.1-.277.127-1.208.127-1.586-.001-3.396-1.92-5.308-4.874-5.308ZM78.57 18.68c.227-1.384 1.06-2.214 2.323-2.214 1.414 0 1.97.956 2.02 2.214H78.57Zm24.164 4.754c-1.565 0-2.6-1.233-2.6-3.396 0-2.062.833-3.396 2.626-3.396.757 0 1.289.126 1.995.403a6.65 6.65 0 0 1 1.111-2.189c-.985-.503-1.945-.78-3.51-.78-3.46 0-5.454 2.44-5.454 5.962 0 3.648 2.046 5.963 5.58 5.963 1.289 0 2.475-.226 3.434-.754-.429-.554-.908-1.308-1.186-2.189-.885.351-1.263.376-1.996.376Zm-46.156-9.358a13.192 13.192 0 0 0-3.384.377c-.202.705-.176 1.736 0 2.466 1.313-.302 2.046-.327 2.878-.327 1.616 0 2.4.654 2.4 1.987v.127c-.48-.051-1.06-.1-1.465-.1-2.677 0-4.974.955-4.974 3.521 0 2.894 2.07 3.874 5.075 3.874 1.413 0 2.953-.25 4.368-.679v-6.515c0-3.121-1.691-4.656-4.898-4.731Zm1.893 9.358c-.176.05-.959.126-1.337.126-1.44 0-2.222-.427-2.222-1.434s.783-1.409 2.221-1.409c.48 0 1.036.051 1.338.076v2.641Zm12.12-11.875v2.743c-.556-.15-1.136-.175-1.64-.175-3.46 0-5.808 2.314-5.808 6.012 0 3.774 2.297 5.861 5.883 5.861 1.64 0 3.257-.226 4.696-.705V9.018c-.883.327-1.818.78-2.6 1.409-.404.328-.531.655-.531 1.133Zm0 11.724c-.53.151-.909.176-1.338.176-2.07 0-2.878-1.359-2.878-3.32 0-2.189.808-3.522 2.853-3.522.606 0 .984.075 1.364.176v6.49h-.001Zm22.397-4.302-1.262-.528c-.733-.301-1.162-.554-1.162-1.031 0-.73.657-.88 1.515-.88.86 0 1.743.1 2.954.478.152-.83.152-1.61 0-2.34-.757-.403-2.172-.603-3.41-.603-2.423 0-4.266 1.308-4.266 3.27 0 1.762.757 2.642 2.878 3.498l.984.402c.935.377 1.213.603 1.213 1.208 0 .905-.909 1.056-1.667 1.056-1.262 0-2.222-.251-3.434-.68-.202.73-.202 1.686 0 2.44 1.035.555 2.449.73 3.94.73 2.398 0 4.317-1.257 4.317-3.522 0-1.863-.808-2.743-2.6-3.498Z"/></g><defs><clipPath id="a"><path fill="#fff" d="M0 0h117v26H0z"/></clipPath></defs></svg>