<svg xmlns="http://www.w3.org/2000/svg" width="96" height="27" fill="none"><path fill="#00C" d="M95.915 13.011a6.2 6.2 0 0 1-.457 2.393 5.951 5.951 0 0 1-1.334 1.98 6.194 6.194 0 0 1-2.026 1.313 6.587 6.587 0 0 1-2.441.457 6.61 6.61 0 0 1-2.457-.457 6.099 6.099 0 0 1-2.029-1.328 5.7 5.7 0 0 1-1.318-1.952 6.34 6.34 0 0 1-.447-2.405c0-.869.15-1.673.447-2.415a5.59 5.59 0 0 1 1.318-1.959 5.965 5.965 0 0 1 2.023-1.312 6.628 6.628 0 0 1 2.463-.453c.878 0 1.698.148 2.46.453a6.101 6.101 0 0 1 2.029 1.312 5.804 5.804 0 0 1 1.312 1.968c.305.74.457 1.54.457 2.405Zm-6.258 2.21c.592 0 1.068-.203 1.428-.602.36-.405.54-.935.54-1.604 0-.672-.18-1.21-.54-1.621-.36-.405-.836-.611-1.428-.611-.595 0-1.07.206-1.434.617-.364.409-.544.946-.544 1.615s.18 1.2.544 1.604c.36.4.839.602 1.434.602Zm-17.079 3.617V7.133h5.29c1.534 0 2.705.338 3.515 1.013.81.679 1.216 1.656 1.216 2.93 0 .832-.203 1.518-.612 2.054-.408.54-.958.856-1.652.946l3.132 4.762h-4.718l-2.045-3.862v3.862h-4.126Zm4.126-8.692v2.29h.656c.399 0 .708-.097.923-.293.216-.196.322-.476.322-.839 0-.373-.106-.66-.322-.862-.215-.2-.524-.299-.923-.299h-.656v.003Zm-11.01.245v1.948h.656c.401 0 .707-.083.922-.25.213-.168.319-.409.319-.714 0-.309-.11-.547-.328-.724-.219-.174-.524-.26-.913-.26h-.656Zm-4.226 8.447V7.133h5.026c1.769 0 3.062.341 3.882 1.023.82.682 1.228 1.765 1.228 3.248 0 1.38-.37 2.389-1.103 3.026-.736.636-1.904.955-3.502.955h-1.325v3.453h-4.206Zm-11.236 0V7.133h5.29c1.534 0 2.705.338 3.515 1.013.81.679 1.212 1.656 1.212 2.93 0 .832-.202 1.518-.61 2.054-.409.54-.959.856-1.65.946l3.129 4.762H56.4l-2.045-3.862v3.862h-4.122Zm4.126-8.692v2.29h.656c.399 0 .708-.097.923-.293.216-.196.322-.476.322-.839 0-.373-.106-.66-.322-.862-.215-.2-.524-.299-.923-.299h-.656v.003Zm-13.264 8.692V7.133h7.83v3.177h-3.705v1.129h3.36v2.997h-3.36v1.229h3.798v3.173h-7.924Zm-10.583-.997 1.344-3.276c.601.42 1.138.73 1.61.923.473.193.914.292 1.326.292.286 0 .514-.054.681-.164a.51.51 0 0 0 .248-.444c0-.324-.412-.569-1.238-.742-.267-.058-.476-.103-.624-.139-.878-.212-1.543-.591-2.006-1.135-.463-.543-.698-1.222-.698-2.029 0-1.257.45-2.283 1.35-3.07.9-.792 2.084-1.184 3.544-1.184a7.5 7.5 0 0 1 1.98.263 9.016 9.016 0 0 1 1.969.801l-1.277 3.065c-.405-.3-.81-.528-1.218-.685a3.337 3.337 0 0 0-1.184-.235c-.296 0-.52.048-.678.148a.457.457 0 0 0-.242.412c0 .33.586.617 1.75.871l.43.097c.805.183 1.441.553 1.904 1.112.464.56.698 1.235.698 2.03 0 1.295-.466 2.353-1.402 3.173-.936.823-2.154 1.232-3.653 1.232a8.39 8.39 0 0 1-2.302-.328 10.69 10.69 0 0 1-2.312-.988Zm-4.528-4.829c0 7.174-5.817 12.991-12.992 12.991C5.817 26.003 0 20.186 0 13.012 0 5.837 5.817.02 12.991.02c7.178 0 12.992 5.817 12.992 12.992Z"/><path fill="#fff" d="M14.155 17.89a5.619 5.619 0 0 1-8.454-.579 8.462 8.462 0 0 0 14.84-.476l-5.186-5.187c.9 2.055.482 4.557-1.2 6.242Zm-2.324-9.757a5.615 5.615 0 0 1 8.45.582 8.462 8.462 0 0 0-14.84.473l5.187 5.187c-.9-2.058-.479-4.56 1.203-6.242Z"/></svg>