<svg xmlns="http://www.w3.org/2000/svg" width="150" height="70" fill="none"><path fill="#434343" d="M77.301 11.743c-1.421-1.133-3.504-1.74-6.427-1.74a18.647 18.647 0 0 0-3.964.364 7.913 7.913 0 0 0-2.623 1.275 4.815 4.815 0 0 0-1.502 1.964c-.3.749-.46 1.539-.44 2.348v.83c-.08.223.08.385.3.385h3.584c.16-.02.28-.142.3-.304.06-.81.38-1.579.901-2.186.6-.688 1.722-1.053 3.364-1.053a6.04 6.04 0 0 1 2.082.304c.46.182.901.425 1.262.749.54.546.86 1.275.9 2.045v1.052c0 .365-.08.73-.22 1.053-.12.284-.3.547-.52.75a1.9 1.9 0 0 1-.6.526 2.752 2.752 0 0 1-.521.303c-.08.081-.38.162-.982.385-.6.223-1.12.445-1.862.688-.74.243-1.501.446-2.242.75-.741.303-1.422.445-2.022.688a4.899 4.899 0 0 0-2.764 2.267 6.613 6.613 0 0 0-.96 3.402v2.348c.04.668.18 1.336.38 1.964.24.77.68 1.437 1.261 1.964a6.298 6.298 0 0 0 2.543 1.518c1.382.425 2.823.628 4.265.608a11.78 11.78 0 0 0 4.265-.608 6.911 6.911 0 0 0 2.603-1.518 4.3 4.3 0 0 0 1.281-1.964 6 6 0 0 0 .38-1.964v-14.8c0-1.72-.74-3.32-2.022-4.393Zm-3.143 20.469c-.601.607-1.802.971-3.364.971-1.562 0-2.683-.303-3.284-.91a4.027 4.027 0 0 1-.9-2.876c0-.526.08-1.133.38-1.579.24-.384.5-.749.82-1.053.3-.222.741-.445 1.122-.688.44-.223 1.121-.385 1.642-.607.52-.243 1.08-.446 1.642-.608.6-.141 1.12-.384 1.641-.526.26-.081.52-.202.741-.385.28-.162.46-.445.52-.749l-.08 6.195a3.983 3.983 0 0 1-.88 2.815ZM57.687 10.021h2.341a.34.34 0 0 1 .296.304v.061l-.807 3.182c0 .163-.138.223-.295.223h-1.614a5.077 5.077 0 0 0-2.124.386 3.296 3.296 0 0 0-1.24.83 2.73 2.73 0 0 0-.59.973 5.57 5.57 0 0 0-.158.973v19.662a.358.358 0 0 1-.314.385H49.62a.343.343 0 0 1-.295-.385V16.143c0-.527.08-1.075.217-1.581.137-.77.511-1.48 1.023-2.048.708-.75 1.554-1.358 2.498-1.743a10.592 10.592 0 0 1 4.624-.75ZM45.165 29.916v.907c0 .565-.08 1.11-.218 1.653a4.412 4.412 0 0 1-1.03 2.036 7.257 7.257 0 0 1-2.516 1.734 12.21 12.21 0 0 1-4.656.745c-1.585.04-3.17-.201-4.656-.745a6.6 6.6 0 0 1-2.516-1.734 4.318 4.318 0 0 1-1.03-2.036c-.158-.524-.158-1.048-.218-1.572v-20.52a.357.357 0 0 1 .317-.382h3.507c.198-.02.356.14.376.342v19.15c.02.483.06.947.159 1.43.119.383.337.746.594 1.049.337.382.773.665 1.248.826a7.546 7.546 0 0 0 2.22.383c.772.02 1.564-.1 2.297-.383a2.932 2.932 0 0 0 1.248-.746c.298-.262.496-.605.595-.988.158-.483.218-.987.218-1.511v-19.17a.355.355 0 0 1 .297-.382h3.546c.198-.02.357.14.377.342v.04l-.159 19.532ZM20.68.002h3.285c.188-.02.338.138.357.317v35.303a.349.349 0 0 1-.32.376H20.68c-.188.02-.338-.138-.357-.337V.358c.076-.218.207-.356.357-.356Z"/><path fill="#030542" d="M.323 45.682c.022-.361.32-.662.726-.682h4.549c.384.02.704.301.725.682v23.636c-.02.361-.32.662-.725.682H1.049c-.384-.02-.704-.301-.726-.682V45.682Zm12-1.032a.677.677 0 0 1 .667-.65h.863l13.921 13.873h.04V45.036c0-.386.294-.69.666-.69h4.177c.353.02.647.304.667.69V69.35a.677.677 0 0 1-.667.65h-.55a.97.97 0 0 1-.45-.183l-13.785-14.34h-.039v13.487c0 .386-.294.69-.666.69h-4.138a.714.714 0 0 1-.666-.69l-.04-24.314ZM50.344 44c3.616 0 6.297 1.116 8.734 3.349.285.223.326.65.102.954l-.06.06-2.824 2.944a.638.638 0 0 1-.894 0 7.43 7.43 0 0 0-4.875-1.847c-4.083 0-7.09 3.39-7.09 7.428 0 4.019 3.048 7.327 7.11 7.327a7.616 7.616 0 0 0 4.835-1.725.712.712 0 0 1 .934.04l2.823 2.984a.72.72 0 0 1-.04.975 12.524 12.524 0 0 1-8.775 3.51c-7.191 0-13-5.824-13-12.989 0-7.165 5.83-13.01 13.02-13.01Zm12.98 1.682c0-.381.305-.682.692-.682h4.314c.367.02.672.301.692.682v19.061h8.61c.386 0 .691.301.691.682v3.893a.682.682 0 0 1-.691.682H64.014a.682.682 0 0 1-.691-.682V45.682Zm17.999-.01a.706.706 0 0 1 .67-.672h4.316c.374 0 .67.297.67.672v14.241c0 2.472 1.813 4.43 4.315 4.43 2.522 0 4.374-1.978 4.374-4.43v-14.24c0-.376.296-.673.67-.673h4.316c.354.02.65.297.669.672V60.21c0 5.34-4.492 9.79-10.03 9.79-5.497 0-9.95-4.43-9.95-9.79l-.02-14.538Zm26 .011c0-.362.283-.663.646-.683h8.76c6.923 0 12.594 5.602 12.594 12.47 0 6.928-5.651 12.53-12.594 12.53h-8.76a.684.684 0 0 1-.646-.683V45.683Zm9.043 19.056c4.057 0 7.003-3.173 7.003-7.249 0-4.036-2.946-7.209-7.003-7.209h-3.452V64.74h3.452Zm16.957-19.057c0-.381.299-.682.677-.682h14.647c.378 0 .676.3.676.682v3.889c0 .38-.298.682-.676.682h-9.811v4.43h8.08c.358.02.656.301.676.682v3.89c0 .38-.298.68-.676.68h-8.08v4.812h9.811c.378 0 .676.301.676.682v3.89c0 .38-.298.681-.676.681H134a.674.674 0 0 1-.677-.682V45.682Z"/><path fill="#434343" d="M15.299 11.745c-1.424-1.135-3.508-1.743-6.435-1.743a18.68 18.68 0 0 0-3.97.365 6.55 6.55 0 0 0-2.606 1.276A4.82 4.82 0 0 0 .785 13.61a6.27 6.27 0 0 0-.441 2.35v.912a.36.36 0 0 0 .32.385h3.549c.16-.02.28-.142.3-.304.06-.81.381-1.58.902-2.189.602-.688 1.725-1.053 3.368-1.053.702-.081 1.424 0 2.105.223.461.182.902.425 1.263.75.542.526.862 1.276.902 2.046v1.053c0 .365-.08.73-.22 1.054-.12.284-.3.547-.521.75-.16.222-.361.385-.602.526-.16.122-.34.223-.52.304-.081.081-.382.162-.963.385-.582.223-1.123.446-1.865.689-.741.243-1.483.446-2.245.75s-1.443.445-2.045.689a4.97 4.97 0 0 0-2.766 2.269 6.834 6.834 0 0 0-.983 3.404v2.33c.04.668.18 1.337.381 1.965.24.77.682 1.438 1.263 1.965a6.308 6.308 0 0 0 2.546 1.52c1.384.425 2.827.628 4.27.608 1.444.06 2.887-.142 4.27-.608a7.159 7.159 0 0 0 2.627-1.52 4.11 4.11 0 0 0 1.263-1.965 6 6 0 0 0 .38-1.965V16.12a5.695 5.695 0 0 0-2.024-4.376Zm-3.067 20.483c-.602.608-1.725.973-3.368.973-1.644 0-2.767-.304-3.368-.912a4.029 4.029 0 0 1-.902-2.877c0-.547.14-1.094.36-1.58.241-.385.502-.73.822-1.054.301-.223.742-.446 1.123-.689.441-.223 1.123-.385 1.644-.608a11.396 11.396 0 0 1 1.644-.607c.601-.142 1.122-.385 1.644-.527.26-.081.52-.203.741-.385a1.11 1.11 0 0 0 .522-.75v6.2c.14 1.033-.2 2.046-.862 2.816Z"/></svg>