<svg xmlns="http://www.w3.org/2000/svg" width="78" height="28" fill="none"><g clip-path="url(#a)"><path fill="#FF1E1E" fill-rule="evenodd" d="m73.142 2.153 2.64 2.598-8.923 8.863-2.64-2.598 8.923-8.863ZM57.695 13.369c4.073 0 7.4 3.274 7.4 7.282 0 4.009-3.327 7.282-7.4 7.282s-7.4-3.273-7.4-7.282c0-4.008 3.32-7.282 7.4-7.282Zm0 3.044c2.308 0 4.194 1.907 4.194 4.238 0 2.331-1.886 4.239-4.194 4.239S53.5 22.982 53.5 20.65c-.008-2.338 1.878-4.238 4.194-4.238Zm-38.883 4.891a9.568 9.568 0 0 1-1.441 2.784C15.591 26.486 12.747 28 9.655 28h-.008a9.58 9.58 0 0 1-6.834-2.873A9.724 9.724 0 0 1 0 18.291v-.015a9.703 9.703 0 0 1 2.821-6.844c1.75-1.767 4.164-2.873 6.826-2.873h.023c1.026 0 2.036.17 2.98.475.444.148.897.334 1.342.557a9.646 9.646 0 0 1 4.691 5.226H14.61a5.955 5.955 0 0 0-2.277-2.012l-.008-.008a5.899 5.899 0 0 0-.822-.334 5.813 5.813 0 0 0-1.833-.296h-.023c-1.637 0-3.13.682-4.209 1.774a6.157 6.157 0 0 0-1.772 4.342v.015c0 1.693.679 3.229 1.772 4.335a5.891 5.891 0 0 0 4.217 1.774h.007c1.909 0 3.666-.942 4.775-2.435a5.84 5.84 0 0 0 .422-.66h3.953v-.008ZM78 16.375v3.675h-9.172v-3.675H78ZM56.948 0h3.734v9.027h-3.734V0Zm-32.75 9.071v18.365H20.5V9.07h3.696Zm5.852 14.534c.008.52.204.914.581 1.188.377.267.89.409 1.532.409 1.003-.045 1.757-.364 2.255-.966.498-.6.746-1.21.746-1.818V20.71c-.86.475-1.893.779-3.107.905-1.215.134-1.886.794-2.007 1.99Zm-3.522.253c.038-1.626.475-2.762 1.328-3.385.844-.631 1.84-1.017 2.979-1.15 1.139-.142 2.134-.275 2.98-.394.852-.126 1.297-.497 1.35-1.099.015-.527-.121-.928-.43-1.217-.302-.29-.883-.43-1.735-.43-.913 0-1.562.155-1.954.474-.385.312-.58.795-.573 1.44h-3.425c-.007-1.462.46-2.605 1.419-3.429.95-.831 2.466-1.247 4.533-1.27 1.742.008 3.13.335 4.163.973 1.041.646 1.57 1.537 1.592 2.687v8.448c-.008.319.038.586.15.809.106.215.302.4.59.534v.58h-3.802a1.66 1.66 0 0 1-.332-.735 6.108 6.108 0 0 1-.144-.928c-.34.608-.89 1.106-1.629 1.5-.747.393-1.652.6-2.738.63-1.448-.015-2.534-.371-3.25-1.054-.718-.69-1.072-1.678-1.072-2.984Zm18.827-3.548v7.126h-3.696V14.015h3.424v2.427c.332-.727.822-1.38 1.464-1.967.64-.579 1.659-.89 3.07-.92v3.667c-1.072-.067-2.045.059-2.897.386-.86.311-1.312 1.224-1.365 2.702Z" clip-rule="evenodd"/></g><defs><clipPath id="a"><path fill="#fff" d="M0 0h78v28H0z"/></clipPath></defs></svg>