<svg xmlns="http://www.w3.org/2000/svg" width="113" height="70" fill="none"><path fill="#4F4F4F" d="M76.299 11.743c-1.423-1.133-3.508-1.74-6.435-1.74a18.691 18.691 0 0 0-3.97.364 7.927 7.927 0 0 0-2.625 1.275 4.605 4.605 0 0 0-1.483 1.964 5.89 5.89 0 0 0-.442 2.348v.83c-.08.223.08.385.301.385h3.588a.343.343 0 0 0 .301-.304c.06-.81.381-1.579.902-2.186.601-.688 1.724-1.053 3.368-1.053a6.057 6.057 0 0 1 2.085.304c.46.182.902.425 1.263.749a3.14 3.14 0 0 1 .902 2.045v1.052c0 .365-.08.73-.22 1.053a2.206 2.206 0 0 1-.522.75c-.16.222-.36.384-.601.526a2.7 2.7 0 0 1-.522.303c-.08.081-.38.142-.962.385-.581.243-1.122.445-1.864.688-.742.223-1.504.446-2.245.75-.742.303-1.423.445-2.025.688a4.968 4.968 0 0 0-2.766 2.267 6.608 6.608 0 0 0-.962 3.402v2.348c.04.668.18 1.336.38 1.964a4.26 4.26 0 0 0 1.263 1.964 6.307 6.307 0 0 0 2.546 1.518 13.88 13.88 0 0 0 4.27.608c1.443.06 2.887-.142 4.25-.608a6.922 6.922 0 0 0 2.606-1.518 4.107 4.107 0 0 0 1.263-1.964c.24-.628.36-1.296.38-1.964v-14.8c0-1.7-.741-3.3-2.024-4.393Zm-3.147 20.469c-.602.607-1.784.971-3.368.971-1.584 0-2.686-.303-3.288-.91a4.024 4.024 0 0 1-.902-2.876c0-.526.08-1.133.381-1.579.24-.384.501-.729.822-1.053.3-.222.742-.445 1.123-.688.44-.223 1.122-.385 1.643-.607a11.406 11.406 0 0 1 1.644-.608c.602-.141 1.123-.384 1.644-.526a2.55 2.55 0 0 0 .742-.364c.28-.162.46-.446.52-.75l-.08 6.196a3.93 3.93 0 0 1-.881 2.794ZM57.687 10.014h2.341a.34.34 0 0 1 .296.305v.06l-.807 3.186c0 .142-.138.223-.295.223h-1.614a5.072 5.072 0 0 0-2.124.386 3.296 3.296 0 0 0-1.24.832 2.734 2.734 0 0 0-.59.974 4.13 4.13 0 0 0-.138.973v19.662a.358.358 0 0 1-.315.385h-3.58a.344.344 0 0 1-.296-.386V16.162c0-.527.08-1.075.217-1.582a4.193 4.193 0 0 1 1.023-2.05 7.486 7.486 0 0 1 2.498-1.745 10.95 10.95 0 0 1 4.624-.77ZM45.185 29.922v.906c0 .564-.08 1.108-.218 1.652a4.407 4.407 0 0 1-1.032 2.034 7.267 7.267 0 0 1-2.519 1.732 12.244 12.244 0 0 1-4.661.745 12.646 12.646 0 0 1-4.661-.745 6.606 6.606 0 0 1-2.52-1.732 4.31 4.31 0 0 1-1.03-2.034c-.14-.524-.14-1.048-.219-1.571V10.384a.357.357 0 0 1 .317-.382h3.511c.199-.02.357.14.377.342V29.46c.02.483.06.946.139 1.43.119.382.337.745.595 1.047a2.91 2.91 0 0 0 1.25.826 7.566 7.566 0 0 0 2.221.382 6.01 6.01 0 0 0 2.3-.382 2.937 2.937 0 0 0 1.25-.745 1.98 1.98 0 0 0 .596-.967 4.82 4.82 0 0 0 .218-1.51V10.383a.354.354 0 0 1 .297-.382h3.55c.199-.02.358.14.378.342v.04l-.14 19.538ZM20.68.002h3.285c.188-.02.338.138.357.317v35.303a.349.349 0 0 1-.32.376H20.68c-.188.02-.338-.138-.357-.337V.378c.076-.218.207-.376.357-.376Zm-5.366 11.743c-1.427-1.135-3.516-1.743-6.45-1.743a18.762 18.762 0 0 0-3.978.365 6.704 6.704 0 0 0-2.612 1.276A4.82 4.82 0 0 0 .767 13.61a6.258 6.258 0 0 0-.442 2.35v.912a.36.36 0 0 0 .322.385h3.556a.343.343 0 0 0 .301-.304c.06-.81.382-1.58.904-2.189.603-.688 1.728-1.053 3.376-1.053.703-.081 1.426 0 2.11.223.462.182.904.425 1.265.75.543.526.864 1.276.905 2.046v1.053c0 .365-.08.73-.222 1.054-.12.284-.3.547-.522.75-.16.222-.361.385-.603.526-.16.122-.341.223-.522.304-.08.081-.382.142-.964.385-.603.223-1.126.446-1.869.689-.743.223-1.487.446-2.25.75-.764.304-1.427.445-2.03.689-1.165.385-2.17 1.175-2.772 2.269a6.706 6.706 0 0 0-.985 3.404v2.33c.04.668.181 1.337.382 1.965.241.77.683 1.438 1.266 1.965a6.325 6.325 0 0 0 2.551 1.52c1.387.425 2.833.628 4.26.608a11.68 11.68 0 0 0 4.26-.608 7.179 7.179 0 0 0 2.631-1.52 4.11 4.11 0 0 0 1.266-1.965 5.989 5.989 0 0 0 .382-1.965V16.12a5.602 5.602 0 0 0-2.01-4.376ZM12.24 32.228c-.603.608-1.728.973-3.376.973-1.647 0-2.752-.304-3.355-.892a3.994 3.994 0 0 1-.904-2.877c0-.547.14-1.094.361-1.58.242-.385.503-.73.824-1.054.302-.222.744-.445 1.125-.688.442-.223 1.126-.386 1.648-.608a11.45 11.45 0 0 1 1.647-.608c.603-.142 1.126-.385 1.648-.527.261-.081.522-.203.743-.365a1.11 1.11 0 0 0 .523-.75v6.2a3.55 3.55 0 0 1-.884 2.776Z"/><path fill="url(#a)" d="M.323 45.679c0-.36.275-.679.666-.679h8.167c4.133 0 7.521 2.895 7.521 6.65 0 2.755-2.409 4.752-4.054 5.65 1.86.78 4.7 2.536 4.7 5.811 0 3.994-3.466 6.889-7.638 6.889H.99a.667.667 0 0 1-.666-.679V45.68Zm8.207 9.465c1.332 0 2.448-1.138 2.448-2.576 0-1.438-1.117-2.436-2.448-2.436H5.788v4.992H8.53v.02Zm.45 9.744c1.371 0 2.527-1.138 2.527-2.616 0-1.437-1.508-2.496-2.88-2.496h-2.84v5.112H8.98Z"/><path fill="url(#b)" d="M33.303 44c7.238 0 13.02 5.814 13.02 13.04 0 7.227-5.782 12.96-13.02 12.96-7.238 0-12.98-5.733-12.98-12.96 0-7.226 5.762-13.04 12.98-13.04Zm0 20.227c3.983 0 7.238-3.25 7.238-7.187 0-3.976-3.255-7.246-7.238-7.246-3.942 0-7.197 3.29-7.197 7.246.02 3.937 3.255 7.187 7.197 7.187Z"/><path fill="url(#c)" d="M61.303 44c7.238 0 13.02 5.814 13.02 13.04 0 7.227-5.782 12.96-13.02 12.96-7.238 0-12.98-5.733-12.98-12.96 0-7.226 5.763-13.04 12.98-13.04Zm0 20.227c3.983 0 7.238-3.25 7.238-7.187 0-3.976-3.255-7.246-7.238-7.246-3.942 0-7.197 3.29-7.197 7.246.02 3.937 3.255 7.187 7.197 7.187Z"/><path fill="url(#d)" d="m76.505 66.222 1.696-2.99c.283-.464.97-.404 1.232-.222.141.08 2.746 1.98 5.128 1.98 1.454 0 2.483-.91 2.483-2.162 0-1.515-1.272-2.666-3.715-3.656-3.109-1.233-7.005-3.657-7.005-7.98 0-3.576 2.786-7.192 8.338-7.192 3.755 0 6.642 1.92 7.733 2.707.424.263.363.91.222 1.152l-1.838 2.788c-.262.404-.908.727-1.231.464-.323-.182-2.968-2.161-5.169-2.161-1.292 0-2.281.868-2.281 1.838 0 1.333 1.09 2.343 3.937 3.495 2.806 1.11 7.288 3.333 7.288 8.242 0 3.717-3.21 7.475-8.52 7.475-4.684 0-7.288-1.96-8.116-2.788-.364-.343-.465-.485-.182-.99Z"/><path fill="url(#e)" d="M101.043 50.252h-5.049a.67.67 0 0 1-.67-.68V45.68a.67.67 0 0 1 .67-.679h15.659c.394 0 .67.32.67.679v3.894c0 .36-.276.679-.67.679h-5.049v19.07a.695.695 0 0 1-.67.678h-4.24a.696.696 0 0 1-.671-.679l.02-19.07Z"/><defs><linearGradient id="a" x1="-4.063" x2="105.705" y1="59.627" y2="36.802" gradientUnits="userSpaceOnUse"><stop stop-color="#00C86F"/><stop offset=".996" stop-color="#00E6AB"/><stop offset="1" stop-color="#00E6AB"/></linearGradient><linearGradient id="b" x1="-3.294" x2="109.819" y1="64.75" y2="40.733" gradientUnits="userSpaceOnUse"><stop stop-color="#00C86F"/><stop offset=".996" stop-color="#00E6AB"/><stop offset="1" stop-color="#00E6AB"/></linearGradient><linearGradient id="c" x1="-2.594" x2="110.519" y1="70.529" y2="46.511" gradientUnits="userSpaceOnUse"><stop stop-color="#00C86F"/><stop offset=".996" stop-color="#00E6AB"/><stop offset="1" stop-color="#00E6AB"/></linearGradient><linearGradient id="d" x1="-2.2" x2="110.778" y1="75.431" y2="51.493" gradientUnits="userSpaceOnUse"><stop stop-color="#00C86F"/><stop offset=".996" stop-color="#00E6AB"/><stop offset="1" stop-color="#00E6AB"/></linearGradient><linearGradient id="e" x1=".925" x2="111.393" y1="78.974" y2="55.843" gradientUnits="userSpaceOnUse"><stop stop-color="#00C86F"/><stop offset=".996" stop-color="#00E6AB"/><stop offset="1" stop-color="#00E6AB"/></linearGradient></defs></svg>