<svg xmlns="http://www.w3.org/2000/svg" width="139" height="35" fill="none"><path fill="#216FF4" d="M19.287 0h3.306a.31.31 0 0 1 .308.31v33.32a.31.31 0 0 1-.308.31h-3.306a.31.31 0 0 1-.308-.31V.34a.318.318 0 0 1 .294-.34h.014ZM41.97 27.436v.834a6.887 6.887 0 0 1-.213 1.526 3.936 3.936 0 0 1-.99 1.867c-.523.623-1.294 1.152-2.375 1.618-1.08.465-2.5.684-4.352.684-1.852 0-3.306-.216-4.352-.684a6.805 6.805 0 0 1-2.375-1.618 4.16 4.16 0 0 1-.987-1.897 8.91 8.91 0 0 1-.216-1.493V9.302a.31.31 0 0 1 .308-.313h3.306a.31.31 0 0 1 .308.313v17.76a4.53 4.53 0 0 0 .186 1.338c.095.353.263.68.493.964a2.62 2.62 0 0 0 1.142.748 5.228 5.228 0 0 0 2.035.31 6.485 6.485 0 0 0 2.129-.31c.439-.15.839-.395 1.172-.718.264-.255.455-.577.555-.93a4.1 4.1 0 0 0 .216-1.432V9.302a.31.31 0 0 1 .308-.313h3.306a.31.31 0 0 1 .308.313l.091 18.134h-.003ZM53.203 8.988h2.223a.287.287 0 0 1 .277.374l-.735 2.885a.285.285 0 0 1-.28.219h-1.54a5.06 5.06 0 0 0-2.008.343 3.09 3.09 0 0 0-1.172.776 2.399 2.399 0 0 0-.53.951 3.484 3.484 0 0 0-.124.933v18.138a.31.31 0 0 1-.308.31h-3.332a.31.31 0 0 1-.31-.31V14.68a6.822 6.822 0 0 1 .216-1.493c.156-.71.5-1.366.994-1.898.527-.62 1.298-1.15 2.378-1.618.95-.434 2.43-.684 4.252-.684Zm-45.364 0c2.686 0 4.66.53 5.957 1.588a5.178 5.178 0 0 1 1.882 4.013v13.656a7.135 7.135 0 0 1-.31 1.836 4.435 4.435 0 0 1-1.14 1.834 6.881 6.881 0 0 1-2.409 1.402c-1.017.37-2.345.56-3.95.56a12.443 12.443 0 0 1-3.95-.56 6.433 6.433 0 0 1-2.405-1.402 3.651 3.651 0 0 1-1.142-1.834 6.034 6.034 0 0 1-.31-1.836v-2.177a6.123 6.123 0 0 1 .895-3.205A4.806 4.806 0 0 1 3.5 20.84c.554-.22 1.142-.375 1.882-.654.679-.254 1.388-.465 2.035-.715.646-.25 1.203-.435 1.729-.623s.801-.28.926-.34c.125-.061.277-.156.463-.255.21-.137.405-.292.585-.465.19-.21.342-.45.453-.71.155-.308.23-.65.216-.994v-.875a2.292 2.292 0 0 0-.216-.964 2.21 2.21 0 0 0-.649-.9 3.698 3.698 0 0 0-1.203-.687 5.51 5.51 0 0 0-1.912-.255c-1.544 0-2.531.31-3.119.964a3.473 3.473 0 0 0-.801 2.035.285.285 0 0 1-.295.275H.308a.31.31 0 0 1-.308-.31v-.809a5.609 5.609 0 0 1 .433-2.18 4.55 4.55 0 0 1 1.419-1.803A6.614 6.614 0 0 1 4.29 9.393a16.27 16.27 0 0 1 3.548-.405Zm3.95 12.288a.985.985 0 0 1-.463.684c-.21.146-.438.261-.68.343-.462.186-.986.341-1.51.53-.524.188-1.05.374-1.513.529-.555.216-1.112.374-1.544.56A6.51 6.51 0 0 0 5 24.575c-.302.275-.554.6-.742.964a3.01 3.01 0 0 0-.339 1.46c0 1.15.279 2.02.835 2.612.554.56 1.571.872 3.085.872 1.513 0 2.56-.312 3.149-.903.587-.59.831-1.462.831-2.543l-.03-5.756v-.005ZM65.054 8.988c2.686 0 4.66.53 5.956 1.588a5.178 5.178 0 0 1 1.882 4.013v13.656a7.11 7.11 0 0 1-.308 1.836 4.471 4.471 0 0 1-1.142 1.834 6.898 6.898 0 0 1-2.406 1.402c-1.017.37-2.347.56-3.952.56a12.454 12.454 0 0 1-3.95-.56 6.433 6.433 0 0 1-2.406-1.402 3.67 3.67 0 0 1-1.142-1.834 6.031 6.031 0 0 1-.308-1.836v-2.177a6.106 6.106 0 0 1 .895-3.205 4.802 4.802 0 0 1 2.528-2.022c.557-.22 1.142-.375 1.885-.654.679-.254 1.389-.465 2.035-.715.646-.25 1.205-.435 1.73-.623.523-.188.8-.28.925-.34.125-.061.278-.156.463-.255.21-.135.406-.291.585-.465.192-.21.35-.449.463-.71.155-.308.23-.65.216-.994v-.875a2.292 2.292 0 0 0-.216-.964 2.227 2.227 0 0 0-.646-.9 3.71 3.71 0 0 0-1.206-.687 5.51 5.51 0 0 0-1.912-.255c-1.544 0-2.53.31-3.116.964a3.473 3.473 0 0 0-.803 2.035.285.285 0 0 1-.308.28H57.43a.31.31 0 0 1-.308-.31v-.814a5.607 5.607 0 0 1 .432-2.18 4.325 4.325 0 0 1 1.42-1.803 6.614 6.614 0 0 1 2.439-1.183 17.928 17.928 0 0 1 3.64-.405Zm3.919 12.288a.986.986 0 0 1-.463.684c-.21.146-.438.261-.68.343-.462.186-.986.341-1.51.53-.524.188-1.05.374-1.513.529-.555.216-1.112.374-1.542.56-.38.182-.742.4-1.08.653a3.452 3.452 0 0 0-.74.964A2.92 2.92 0 0 0 61.102 27c0 1.15.279 2.02.835 2.612.554.56 1.574.873 3.085.873 1.51 0 2.561-.313 3.149-.903.587-.59.831-1.463.831-2.543l-.03-5.756v-.008ZM84.132 7.399h-1.06V35h1.06V7.399Zm8.794 3.901c0-.114.092-.218.218-.218h2.697c1.411 0 2.57 1.148 2.57 2.536 0 1.423-1.159 2.582-2.558 2.582h-1.435v2.697a.226.226 0 0 1-.218.218h-1.056a.218.218 0 0 1-.218-.218v-7.596Zm2.823 3.5c.642 0 1.182-.516 1.182-1.193 0-.631-.54-1.113-1.182-1.113h-1.331v2.307h1.331Zm5.426 1.412c.459 0 .838.126.838.126.011-.585-.173-.791-.597-.791a5.49 5.49 0 0 0-1.285.172c-.16.046-.241-.057-.264-.207l-.103-.597c-.035-.172.057-.252.16-.287a6.158 6.158 0 0 1 1.561-.218c1.434 0 1.767.746 1.767 1.997v2.49a.226.226 0 0 1-.218.218h-.413c-.08 0-.138-.035-.195-.16l-.138-.31c-.264.24-.689.585-1.4.585-.918 0-1.55-.597-1.55-1.572.001-.815.667-1.446 1.837-1.446Zm.023 2.042c.367 0 .723-.31.791-.447v-.631s-.31-.138-.642-.138c-.448 0-.746.253-.746.62a.573.573 0 0 0 .597.596Zm3.831-3.511c0-.127.103-.218.218-.218h.437c.103 0 .172.057.206.149l.161.447c.161-.23.585-.711 1.297-.711.539 0 1.021.172.883.459l-.424.745c-.057.103-.172.15-.264.103-.035-.01-.207-.068-.333-.068a.928.928 0 0 0-.814.47v2.777c0 .16-.104.218-.264.218h-.884a.225.225 0 0 1-.218-.218v-4.153h-.001Zm5.874 1.469c.459 0 .837.126.837.126.011-.585-.172-.791-.597-.791-.424 0-1.021.091-1.285.172-.16.046-.241-.057-.264-.207l-.103-.597c-.034-.172.058-.252.161-.287a6.156 6.156 0 0 1 1.56-.218c1.435 0 1.767.746 1.767 1.997v2.49a.226.226 0 0 1-.218.218h-.413c-.08 0-.138-.035-.195-.16l-.138-.31c-.264.24-.688.585-1.4.585-.917 0-1.549-.597-1.549-1.572.001-.815.666-1.446 1.837-1.446Zm.022 2.042c.367 0 .723-.31.792-.447v-.631s-.31-.138-.643-.138c-.447 0-.745.253-.745.62 0 .344.241.596.596.596Zm-17.999 5.019c0-.115.092-.219.218-.219h4.67c.127 0 .219.104.219.219v.94a.218.218 0 0 1-.218.219h-3.397v1.881h2.834c.115 0 .218.104.218.219v.952a.218.218 0 0 1-.218.218h-2.834v2.008h3.397c.126 0 .218.104.218.218v.941a.218.218 0 0 1-.218.219h-4.67a.218.218 0 0 1-.219-.219v-7.596Zm6.642 3.442c0-.127.103-.218.218-.218h.425c.103 0 .172.057.195.126l.16.436a2.09 2.09 0 0 1 1.538-.677c.654 0 1.113.252 1.492.711.195-.206.791-.711 1.618-.711 1.468 0 2.008 1.09 2.008 2.295v2.191a.218.218 0 0 1-.218.219h-.93a.218.218 0 0 1-.218-.219v-2.271c0-.597-.287-.976-.861-.976-.665 0-.964.482-.964.482s.012.23.012.436v2.33a.227.227 0 0 1-.219.218h-.86a.218.218 0 0 1-.218-.218v-2.272c0-.597-.264-.976-.85-.976-.573 0-.849.413-.964.723v2.524a.226.226 0 0 1-.218.219h-.93a.226.226 0 0 1-.218-.219v-4.153h.002Zm10.807 7.595c0 .139-.068.219-.275.219h-.918a.225.225 0 0 1-.218-.218v-7.596c0-.127.103-.218.218-.218h.448c.08 0 .16.046.194.137l.15.379c.172-.23.734-.631 1.48-.631 1.262 0 2.215 1.09 2.215 2.41 0 1.353-1.033 2.409-2.272 2.409-.448 0-.861-.16-1.022-.253v3.363Zm.838-4.348c.642 0 1.113-.528 1.113-1.17 0-.643-.436-1.17-1.067-1.17-.586 0-.872.458-.941.7v1.376s.321.264.895.264Zm3.946-3.247c0-.127.103-.218.218-.218h.436c.103 0 .172.057.207.149l.161.447c.16-.23.585-.711 1.296-.711.539 0 1.021.172.884.459l-.425.745c-.057.104-.172.15-.264.104a1.244 1.244 0 0 0-.332-.07.93.93 0 0 0-.815.471v2.777c0 .16-.103.218-.264.218h-.884a.226.226 0 0 1-.218-.218v-4.153Zm6.333-.333c1.182 0 2.146.895 2.146 2.134 0 .08-.011.23-.023.31a.222.222 0 0 1-.218.195h-2.937c.034.47.436.998 1.102.998.355 0 .688-.137.895-.287.114-.068.218-.091.298 0l.47.54c.081.08.103.207-.011.298-.379.356-.964.631-1.71.631-1.377 0-2.352-1.09-2.352-2.41 0-1.296.975-2.409 2.34-2.409Zm.804 1.836a.858.858 0 0 0-.838-.78.905.905 0 0 0-.895.78h1.733Zm2.511 2.318.31-.62c.046-.115.161-.137.264-.08 0 0 .516.275 1.044.275.229 0 .39-.091.39-.286 0-.207-.16-.333-.769-.574-.883-.345-1.296-.815-1.296-1.515s.516-1.354 1.686-1.354c.677 0 1.171.195 1.412.356.103.069.16.195.103.31l-.287.585c-.057.103-.184.114-.275.08 0 0-.517-.24-.953-.24-.275 0-.39.114-.39.263 0 .207.207.276.631.448.884.344 1.55.722 1.55 1.617 0 .758-.666 1.4-1.825 1.4-.757 0-1.285-.24-1.526-.424-.069-.058-.116-.15-.069-.241Zm6.39-2.352c.459 0 .837.126.837.126.012-.585-.172-.791-.596-.791a5.49 5.49 0 0 0-1.285.172c-.161.046-.241-.058-.264-.207l-.103-.597c-.035-.172.057-.252.16-.287a6.172 6.172 0 0 1 1.561-.218c1.434 0 1.767.746 1.767 1.997v2.49a.226.226 0 0 1-.218.218h-.414c-.08 0-.137-.035-.194-.161l-.138-.31c-.264.241-.689.585-1.4.585-.918 0-1.549-.596-1.549-1.572 0-.814.666-1.445 1.836-1.445Zm.023 2.042c.367 0 .723-.31.791-.447v-.631s-.31-.138-.642-.138c-.448 0-.746.252-.746.62 0 .344.241.596.597.596Zm3.578.31.31-.62c.046-.115.161-.137.264-.08 0 0 .517.275 1.045.275.229 0 .39-.091.39-.286 0-.207-.161-.333-.769-.574-.884-.345-1.297-.815-1.297-1.515s.516-1.354 1.687-1.354c.677 0 1.17.195 1.411.356.103.069.161.195.103.31l-.286.585c-.058.103-.184.114-.276.08 0 0-.516-.24-.952-.24-.275 0-.39.114-.39.263 0 .207.207.276.631.448.884.344 1.549.722 1.549 1.617 0 .758-.665 1.4-1.824 1.4-.758 0-1.286-.24-1.526-.424-.07-.058-.115-.15-.07-.241Z"/></svg>