<svg xmlns="http://www.w3.org/2000/svg" width="152" height="70" fill="none"><path fill="#216FF4" d="M143.132 44h-8.463a.661.661 0 0 0-.473.2.683.683 0 0 0-.196.48v23.644a.687.687 0 0 0 .413.625.657.657 0 0 0 .256.051h4.144a.683.683 0 0 0 .465-.204.706.706 0 0 0 .202-.472v-8.395h3.689c4.289 0 7.831-3.607 7.831-8.036-.002-4.32-3.542-7.893-7.868-7.893Zm-.316 10.707h-3.336V49.25h3.336c1.509 0 2.776 1.144 2.776 2.643.002.371-.068.74-.207 1.083a2.804 2.804 0 0 1-1.504 1.53 2.72 2.72 0 0 1-1.065.21v-.01ZM108 59.821C108 65.386 112.681 70 118.468 70 124.295 69.996 129 65.382 129 59.821V44.697a.726.726 0 0 0-.7-.697h-4.527a.703.703 0 0 0-.7.697v14.838c0 2.563-1.953 4.611-4.605 4.611-2.618 0-4.533-2.048-4.533-4.611V44.697a.694.694 0 0 0-.433-.644.707.707 0 0 0-.269-.053h-4.531a.73.73 0 0 0-.702.697v15.124Zm-25 8.503a.709.709 0 0 0 .189.48.611.611 0 0 0 .455.197h12.712a.611.611 0 0 0 .455-.198.681.681 0 0 0 .189-.48V64.43a.713.713 0 0 0-.189-.48.611.611 0 0 0-.455-.198H88.31V44.68a.723.723 0 0 0-.194-.474.65.65 0 0 0-.448-.206h-4.023a.614.614 0 0 0-.455.2.684.684 0 0 0-.189.48v23.644Zm-21 0a.682.682 0 0 0 .415.625.665.665 0 0 0 .257.051h14.646a.666.666 0 0 0 .623-.416.681.681 0 0 0 .051-.26V64.43a.683.683 0 0 0-.416-.627.665.665 0 0 0-.258-.051h-9.79V58.93h8.052a.666.666 0 0 0 .623-.418.684.684 0 0 0 .05-.26v-3.894a.705.705 0 0 0-.204-.471.692.692 0 0 0-.469-.203h-8.053V49.25h9.8a.667.667 0 0 0 .622-.418.684.684 0 0 0 .051-.26V44.68a.685.685 0 0 0-.416-.628.668.668 0 0 0-.258-.052H62.672a.67.67 0 0 0-.475.2.683.683 0 0 0-.197.48v23.644Zm-14.81 1.27c.054.12.14.22.247.293a.665.665 0 0 0 .36.113h.355a.666.666 0 0 0 .359-.114.693.693 0 0 0 .245-.292l11.169-24.639a.664.664 0 0 0-.027-.66.636.636 0 0 0-.25-.228.615.615 0 0 0-.327-.065h-4.74a.682.682 0 0 0-.357.116.71.71 0 0 0-.247.29l-5.87 13.362h-.214l-5.866-13.36a.718.718 0 0 0-.249-.29.69.69 0 0 0-.358-.117h-4.739a.614.614 0 0 0-.328.064.635.635 0 0 0-.25.227.661.661 0 0 0-.028.662L47.19 69.594ZM19 68.324a.682.682 0 0 0 .415.625.666.666 0 0 0 .257.051h14.654a.667.667 0 0 0 .623-.416.681.681 0 0 0 .051-.26V64.43a.683.683 0 0 0-.416-.627.667.667 0 0 0-.258-.051h-9.801V58.93h8.074a.67.67 0 0 0 .476-.199.681.681 0 0 0 .197-.48v-3.893a.704.704 0 0 0-.204-.473.693.693 0 0 0-.469-.205h-8.074v-4.43h9.8a.668.668 0 0 0 .624-.418.684.684 0 0 0 .051-.26V44.68a.685.685 0 0 0-.416-.628.669.669 0 0 0-.258-.052H19.672a.672.672 0 0 0-.475.2.683.683 0 0 0-.197.48v23.644Zm-19 0a.71.71 0 0 0 .188.479.61.61 0 0 0 .454.197h12.716a.61.61 0 0 0 .454-.197.68.68 0 0 0 .188-.48V64.43a.697.697 0 0 0-.188-.48.625.625 0 0 0-.454-.198H5.309V44.68a.723.723 0 0 0-.194-.474.65.65 0 0 0-.45-.206H.642a.627.627 0 0 0-.454.2.7.7 0 0 0-.188.48v23.644Z"/><path fill="#4F4F4F" d="M75.1 10.742c-1.338-1.134-3.312-1.74-6.057-1.74a16 16 0 0 0-3.735.377 7.105 7.105 0 0 0-2.46 1.285 4.73 4.73 0 0 0-1.407 1.964 6.548 6.548 0 0 0-.422 2.344v.83c-.071.228.069.38.282.38h3.38a.296.296 0 0 0 .192-.097.338.338 0 0 0 .086-.21 3.961 3.961 0 0 1 .842-2.19c.56-.682 1.62-1.059 3.175-1.059a5.706 5.706 0 0 1 1.972.303c.436.177.84.432 1.197.756.515.538.818 1.269.846 2.04v1.059c.004.365-.068.727-.212 1.058-.123.28-.29.535-.492.756a1.966 1.966 0 0 1-.56.53c-.15.128-.316.23-.494.301-.07.077-.353.153-.917.38-.564.226-1.055.452-1.759.68-.704.23-1.41.452-2.114.754-.704.303-1.337.453-1.9.682-1.108.374-2.042 1.184-2.615 2.267a6.99 6.99 0 0 0-.913 3.407v2.344c.041.668.16 1.328.351 1.966a4.29 4.29 0 0 0 1.197 1.964 5.779 5.779 0 0 0 2.396 1.514c1.3.426 2.654.629 4.013.6a10.397 10.397 0 0 0 4.015-.6 6.537 6.537 0 0 0 2.463-1.514 4.28 4.28 0 0 0 1.199-1.964 6.057 6.057 0 0 0 .35-1.966v-14.82a5.992 5.992 0 0 0-.49-2.42 5.609 5.609 0 0 0-1.408-1.96Zm-2.96 20.483c-.56.602-1.68.983-3.174.983s-2.53-.297-3.092-.898a4.19 4.19 0 0 1-.846-2.873c0-.529.07-1.134.353-1.587a5.63 5.63 0 0 1 .775-1.059c.28-.226.704-.455 1.055-.681.424-.227 1.057-.377 1.55-.601a9.228 9.228 0 0 1 1.548-.602c.56-.152 1.059-.379 1.55-.53.254-.08.492-.208.704-.378.128-.08.24-.189.325-.32a1.15 1.15 0 0 0 .17-.435l-.071 6.197a4.22 4.22 0 0 1-.846 2.784ZM56.361 9.02h2.347a.31.31 0 0 1 .202.094c.053.056.085.13.09.208v.076l-.807 3.174c0 .152-.146.228-.292.228h-1.614a5.066 5.066 0 0 0-2.127.377 3.32 3.32 0 0 0-1.246.832c-.261.28-.46.616-.584.982-.083.321-.132.65-.145.983V35.62a.368.368 0 0 1-.1.275.345.345 0 0 1-.266.104h-3.525a.332.332 0 0 1-.221-.128.352.352 0 0 1-.071-.25V15.14c.002-.536.075-1.07.218-1.585a4.135 4.135 0 0 1 1.028-2.04 7.14 7.14 0 0 1 2.493-1.74 10.618 10.618 0 0 1 4.62-.757ZM44.864 28.918v.902a6.393 6.393 0 0 1-.222 1.652 4.456 4.456 0 0 1-1.035 2.03 7.253 7.253 0 0 1-2.516 1.739c-1.49.553-3.071.808-4.657.751a12.367 12.367 0 0 1-4.66-.751 6.62 6.62 0 0 1-2.516-1.74 4.438 4.438 0 0 1-1.036-2.029c-.147-.526-.147-1.052-.221-1.578V9.377a.36.36 0 0 1 .225-.354A.344.344 0 0 1 28.37 9h3.477a.344.344 0 0 1 .268.104.356.356 0 0 1 .1.272v19.088c.014.479.063.956.148 1.427a2.844 2.844 0 0 0 1.845 1.88c.718.233 1.466.36 2.22.374a6.101 6.101 0 0 0 2.29-.375 3.115 3.115 0 0 0 1.257-.751c.289-.258.494-.6.588-.979.15-.485.224-.991.22-1.5V9.377a.348.348 0 0 1 .072-.25.338.338 0 0 1 .224-.126h3.55a.344.344 0 0 1 .268.104.355.355 0 0 1 .101.272l-.135 19.54ZM21.352 0h3.296a.315.315 0 0 1 .254.102.35.35 0 0 1 .097.267v35.26a.367.367 0 0 1-.096.269.33.33 0 0 1-.255.101h-3.296a.318.318 0 0 1-.255-.102.354.354 0 0 1-.096-.268V.369c.07-.221.211-.368.35-.368Zm-7.253 10.742c-1.34-1.134-3.314-1.74-6.061-1.74a16.043 16.043 0 0 0-3.739.377c-.9.227-1.742.665-2.465 1.285a4.718 4.718 0 0 0-1.411 1.964 6.582 6.582 0 0 0-.422 2.343v.904a.385.385 0 0 0 .096.274.317.317 0 0 0 .255.107h3.314a.298.298 0 0 0 .194-.096.34.34 0 0 0 .088-.209 3.958 3.958 0 0 1 .845-2.19c.56-.682 1.622-1.059 3.177-1.059a4.314 4.314 0 0 1 1.974.227 4.02 4.02 0 0 1 1.198.755c.518.538.821 1.269.847 2.04v1.059a2.614 2.614 0 0 1-.707 1.814 1.919 1.919 0 0 1-.56.53 4.16 4.16 0 0 1-.494.302c-.069.076-.351.152-.916.378-.564.227-1.058.453-1.762.682-.705.228-1.41.45-2.114.753-.705.303-1.338.453-1.905.682-1.105.377-2.035 1.188-2.605 2.27a6.972 6.972 0 0 0-.916 3.408v2.343c.04.667.154 1.327.342 1.964.22.763.635 1.444 1.2 1.964a5.779 5.779 0 0 0 2.396 1.514c1.301.426 2.657.629 4.017.6a10.41 10.41 0 0 0 4.018-.6 6.55 6.55 0 0 0 2.467-1.514 4.293 4.293 0 0 0 1.2-1.964 6.096 6.096 0 0 0 .35-1.966v-14.82a5.977 5.977 0 0 0-.49-2.42 5.603 5.603 0 0 0-1.411-1.961Zm-2.893 20.482c-.561.601-1.623.982-3.178.982s-2.616-.3-3.177-.906a4.17 4.17 0 0 1-.847-2.872 4.02 4.02 0 0 1 .351-1.588c.22-.384.48-.739.776-1.058.282-.226.705-.455 1.058-.681.422-.227 1.058-.377 1.551-.602a9.046 9.046 0 0 1 1.55-.6c.56-.153 1.058-.38 1.551-.532.254-.08.492-.208.705-.377.128-.08.239-.189.324-.32.085-.13.142-.279.167-.436v6.198a3.948 3.948 0 0 1-.146 1.488c-.143.48-.377.924-.685 1.304Z"/></svg>