<svg xmlns="http://www.w3.org/2000/svg" width="144" height="16" fill="none"><g fill="#0000BF" clip-path="url(#a)"><path d="M85.306.494H80.76l-5.517 15.09h3.989l1.044-3.19h5.18l.336 1.09c.484 1.555 1.267 2.1 2.982 2.1h2.088L85.305.493Zm-4.025 8.673 1.677-4.94 1.603 4.94h-3.28ZM52.691.222C49.151.222 45.61 2.75 45.61 8c0 5.056 2.945 7.894 7.082 7.894 3.765 0 7.157-2.605 7.157-7.894 0-4.978-2.982-7.778-7.157-7.778Zm0 11.9c-2.199 0-2.982-1.633-2.982-4.122 0-2.567 1.081-4.006 2.982-4.006 2.2 0 3.02 1.634 3.02 4.006 0 2.605-1.044 4.122-3.02 4.122Zm19.345-2.216c1.566-.74 2.386-2.334 2.386-4.2 0-3.423-1.939-5.212-6.039-5.212h-6.336v15.09h3.988V10.8h2.497l1.156 2.605c.633 1.478 1.379 2.217 3.168 2.217h2.125l-2.945-5.716Zm-4.25-2.45h-1.75v-3.54h1.9c1.752 0 2.349.506 2.349 1.75 0 1.284-.709 1.79-2.498 1.79Zm60.61-6.962h4.027l3.727 6.845 3.541-6.845h2.087c1.417 0 1.976.7 1.976 2.061v13.067h-3.802v-9.1l-2.498 4.745h-2.758l-2.534-4.745v9.061h-3.766V.494Zm-7.044 0h2.161c1.342 0 1.939.7 1.939 2.062v13.066h-4.1V.494Zm-1.715 3.734h-4.287v11.355h-4.1V4.228h-4.436V.494h10.884c1.379 0 1.939.7 1.939 2.062v1.672ZM92.092.494h3.653l5.554 8.634V.494h1.863c1.379 0 1.939.7 1.939 2.061v13.067h-3.653l-5.591-8.36v8.36h-3.802V.494h.037ZM44.678 4.228H40.39v11.355h-4.1V4.228h-4.435V.494H42.74c1.379 0 1.938.7 1.938 2.062v1.672ZM23.73.222C20.19.222 16.649 2.75 16.649 8c0 5.056 2.945 7.894 7.083 7.894 3.764 0 7.156-2.605 7.156-7.894 0-4.978-2.982-7.778-7.156-7.778Zm0 11.9c-2.199 0-2.981-1.633-2.981-4.122 0-2.567 1.08-4.006 2.982-4.006 2.199 0 3.019 1.634 3.019 4.006 0 2.605-1.081 4.122-3.02 4.122ZM5.428 2.594C4.943 1.04 3.9.494 2.185.494H.061l4.957 12.6c.671 1.75 1.603 2.684 3.317 2.684.485 0 .932-.078 1.305-.234L5.428 2.594Zm6.746-2.1-3.02 8.517c-.186.506-.186 1.05-.037 1.595l1.38 4.316c.41-.389.708-.972 1.006-1.672L16.46.494h-4.286Z"/></g><defs><clipPath id="a"><path fill="#fff" d="M0 0h144v16H0z"/></clipPath></defs></svg>