<svg xmlns="http://www.w3.org/2000/svg" width="52" height="29" fill="none"><g fill="#820AD1" clip-path="url(#a)"><path d="M9.338 3.412C10.987 1.701 13.175.701 15.745.701c5.007 0 8.327 3.611 8.962 9.022.206 1.757.204 4.234.202 7.103v11.643h-6.886v-7.95s-.014-6.804-.056-8.075c-.185-5.539-3.504-9.019-8.63-9.022C7.79 5.036 6.962 7.01 6.84 10.027c-.017.421-.013 1.913-.007 3.88.002 1.018.006 2.164.007 3.355.005 5.181 0 11.208 0 11.208H-.046V16.235c0-.419-.008-.842-.015-1.266-.016-.854-.032-1.714.015-2.566.078-1.42.327-2.817.997-4.114 1.536-2.97 4.682-4.884 8.036-4.884.117 0 .235.003.35.007Zm42.708 14.014c.047-.852.032-1.712.016-2.566a69.117 69.117 0 0 1-.016-1.267V1.36h-6.885s-.005 6.026 0 11.208c0 1.19.004 2.336.007 3.355.005 1.967.01 3.459-.007 3.88-.122 3.017-.951 4.99-2.498 6.605-5.125-.003-8.444-3.484-8.629-9.022-.042-1.271-.06-4.427-.06-8.082v-7.95l-6.88.007v11.642c-.003 2.869-.005 5.346.201 7.103.634 5.41 3.954 9.022 8.96 9.022 2.571 0 4.759-1 6.408-2.712.116.005.233.007.35.007 3.354 0 6.5-1.913 8.036-4.884.671-1.297.92-2.693.997-4.113Z"/></g><defs><clipPath id="a"><path fill="#fff" d="M0 0h52v29H0z"/></clipPath></defs></svg>