<svg xmlns="http://www.w3.org/2000/svg" width="129" height="27" fill="none"><g clip-path="url(#a)"><path fill="url(#b)" d="M18.455.161c-.9-.418-1.542 0-1.542 1v18.72c0 .997.61 1.417 1.542.997l1.189-.516c.738-.354 1.092-.837 1.092-1.642V2.35c0-.805-.354-1.32-1.093-1.642L18.455.16Zm28.267 5.832c-1.51 0-2.955.644-3.919 1.643V1.032c0-.483-.289-.741-.738-.741h-2.313c-.482 0-.739.29-.739.74V20.01c0 .483.29.741.739.741h2.088c.482 0 .739-.29.739-.74v-.806c.899 1.03 2.57 1.804 4.24 1.804 3.63 0 6.776-3.319 6.776-7.507 0-4.253-3.179-7.508-6.872-7.508Zm-34.594.257c-.482 0-.739.29-.739.741v.806c-.835-1.03-2.409-1.804-3.951-1.804C3.648 5.993.37 9.247.37 13.5c0 4.252 3.084 7.184 6.97 7.184 1.735 0 3.084-.805 3.855-1.642-.033 2.963-1.574 4.317-4.273 4.317-1.413-.033-2.762-.452-4.303-1.45-.418-.29-.868-.194-1.092.257l-.932 1.838c-.225.418-.16.837.289 1.127C2.812 26.388 5.094 27 7.052 27c5.14 0 7.966-2.77 7.966-9.182V6.99c0-.483-.289-.74-.739-.74h-2.152Zm17.73-.257c-4.015 0-7.387 3.158-7.387 7.508 0 4.349 3.309 7.506 7.388 7.506 4.015 0 7.388-3.157 7.388-7.507s-3.31-7.508-7.389-7.508v.001Zm32.667 0c-4.014 0-7.387 3.158-7.387 7.508 0 4.349 3.308 7.506 7.388 7.506 4.013 0 7.386-3.157 7.386-7.507s-3.308-7.508-7.387-7.508v.001Zm23.834 9.44c-.417 0-.642.194-.867.548-.546.967-1.478 1.353-2.602 1.353-1.96 0-3.469-1.643-3.469-3.834 0-2.223 1.542-3.834 3.47-3.834 1.091 0 1.927.45 2.472 1.288.225.387.514.548.9.548h2.506c.513 0 .803-.322.642-.837-.835-2.739-3.534-4.64-6.585-4.64-3.918 0-7.163 3.158-7.163 7.508s3.116 7.507 7.163 7.507c3.116 0 5.846-1.87 6.65-4.737.127-.516-.194-.805-.675-.805h-2.442v-.065Zm11.82-9.44c-4.015 0-7.388 3.157-7.388 7.507s3.309 7.507 7.388 7.507c4.015 0 7.388-3.158 7.388-7.508s-3.308-7.507-7.388-7.507Zm24.444 0c-1.542 0-3.116.644-4.208 2.062-.803-1.193-2.152-2.063-3.854-2.063-1.671 0-2.859.741-3.63 1.74v-.741c0-.483-.289-.741-.739-.741h-2.087c-.482 0-.74.29-.74.74v12.985c0 .483.29.741.74.741h2.312c.482 0 .739-.29.739-.74v-7.121c0-2.03.996-3.254 2.57-3.254 1.541 0 2.377 1.063 2.377 3.125v7.25c0 .482.289.74.738.74h2.313c.482 0 .739-.29.739-.74v-7.121c0-2.03.995-3.254 2.569-3.254 1.574 0 2.378 1.063 2.378 3.125v7.25c0 .482.288.74.738.74h2.313c.481 0 .739-.29.739-.74v-7.7c-.065-3.834-2.281-6.283-6.007-6.283ZM7.694 17.301c-1.959 0-3.597-1.547-3.597-3.834 0-2.32 1.639-3.834 3.597-3.834 1.96 0 3.598 1.546 3.598 3.834-.031 2.287-1.638 3.834-3.598 3.834Zm22.164.032c-1.991 0-3.597-1.611-3.597-3.834s1.606-3.834 3.597-3.834c1.991 0 3.598 1.61 3.598 3.834.032 2.223-1.607 3.834-3.598 3.834Zm16.414 0c-1.928 0-3.566-1.547-3.566-3.834 0-2.288 1.607-3.834 3.566-3.834 1.928 0 3.565 1.546 3.565 3.834 0 2.32-1.638 3.834-3.566 3.834h.001Zm16.253 0c-1.992 0-3.598-1.611-3.598-3.834s1.606-3.834 3.598-3.834c1.992 0 3.598 1.61 3.598 3.834.031 2.223-1.606 3.834-3.598 3.834Zm35.654 0c-1.991 0-3.597-1.611-3.597-3.834s1.606-3.834 3.597-3.834c1.991 0 3.598 1.61 3.598 3.834.032 2.223-1.574 3.834-3.598 3.834Zm-25.407-1.32c-1.286 0-2.474.998-2.474 2.48a2.464 2.464 0 0 0 2.473 2.513c1.285 0 2.474-.999 2.474-2.48a2.464 2.464 0 0 0-2.474-2.514h.001Z"/></g><defs><linearGradient id="b" x1="22.428" x2="125.01" y1="13.501" y2="41.377" gradientUnits="userSpaceOnUse"><stop stop-color="#0420FC"/><stop offset="1" stop-color="#03B4FC"/></linearGradient><clipPath id="a"><path fill="#fff" d="M0 0h129v27H0z"/></clipPath></defs></svg>