<svg xmlns="http://www.w3.org/2000/svg" width="449" height="281" fill="none"><g clip-path="url(#a)"><path fill="#fff" d="M285.567 149.053H134.718c-6.907 0-12.502-5.593-12.502-12.496V54.819c0-6.903 5.595-12.496 12.502-12.496h150.849c6.907 0 12.502 5.593 12.502 12.496v81.738c0 6.903-5.595 12.496-12.502 12.496Z"/><path fill="#216FF4" d="M314.814 255.578v-1.107s-2.603-1.618-11.272-1.618c-8.67 0-10.084 2.008-10.084 2.008v24.234s2.849 1.393 10.617 1.393c7.788 0 10.575-1.414 10.575-1.414l.41-3.953s9.613-.922 9.613-9.69c0-8.788-5.473-8.993-9.859-9.853Zm.144 16.122v-12.599s6.128-.819 6.415 4.486c.328 6.167-6.415 8.113-6.415 8.113Zm62.409-130.739s-17.81 1.393-30.005 14.217-21.316 36.054-22.361 39.291c-1.045 3.237-7.625 19.4 5.636 27.84 0 0 5.575 2.602 17.913 3.728 0 0 .021 17.966-.655 26.468-.656 8.522-2.501 21.305-2.501 21.305h83.418s.758-19.441.676-28.373c-.082-8.932-.307-18.662-.307-18.662s8.956-7.273 8.567-17.802c-.41-10.509-2.132-25.75-6.272-38.226-4.14-12.476-9.756-21.858-19.86-26.263-8.137-3.544-17.422-4.199-17.422-4.199l-16.827.676Z"/><path fill="#0C0553" d="M192.578 167.285s-17.626.901-25.292 4.937c-7.665 4.036-16.724 6.494-24.226 24.829-7.501 18.334-8.321 21.694-9.571 27.942-1.251 6.248-3.362 18.171-2.296 26.119 1.066 7.948 3.812 17.208 13.527 21.079 0 0 4.038 1.68 8.445 1.619 4.406-.062 100.183 0 100.183 0s5.165-1.578 6.927-2.827c1.763-1.25 6.497-5.101 8.383-11.882 1.886-6.78 1.722-14.811 1.394-18.252-.328-3.462-1.292-11.349-2.706-16.839-1.393-5.491-5.575-18.991-7.87-24.091-2.296-5.122-6.108-13.603-10.268-17.987-4.161-4.384-12.277-9.423-17.401-11.021-5.124-1.598-13.282-3.646-20.722-3.646-7.46.041-18.507.02-18.507.02Z"/><path fill="#216FF4" d="M248.716 273.851H154.23a7.188 7.188 0 0 1-7.194-7.191v-58.609a7.188 7.188 0 0 1 7.194-7.19h94.486a7.188 7.188 0 0 1 7.194 7.19v58.609a7.188 7.188 0 0 1-7.194 7.191Z"/><path fill="#CCC" d="M65.135 245.909s-1.721-.123-1.926 1.106c-.205 1.25 1.189 1.372 3.976 1.495 2.787.144 54.888-.061 54.888-.061s3.525-1.598 3.586-3.872c.082-2.274.103-11.963.103-11.963s-.861-3.79-4.591-4.261c-3.73-.472-56.63-.082-56.63-.082s-1.291.676-1.353 1.495c-.04.82 1.927 1.229 1.927 1.229v14.914h.02Z"/><path fill="#216FF4" d="m123.528 252.833 1.516-.512.697-1.393-.512-1.701-2.05-1.003-74.953.409s-5.451 1.967-5.964 6.064c-.512 4.097-.04 18.396-.04 18.396s1.106 6.453 6.21 6.924c5.103.471 75.608-.041 75.608-.041s2.009-.922 1.722-2.642c-.308-1.721-2.685-1.865-2.685-1.865l.451-22.636Z"/><path fill="#fff" d="M191.656 170.87s.881-3.544 1.209-5.92c.348-2.377.697-7.887.697-7.887s-4.919-2.889-5.37-9.649c-.431-.533-7.317 2.11-8.424-4.896-1.107-7.006 6.969-6.043 7.85-5.367l.02-3.77s5.042-1.495 8.486-4.547c3.463-3.032 5.595-7.232 5.595-7.232s2.439 5.388 6.436 7.867c3.976 2.499 7.747 3.912 7.747 3.912v3.77s7.276-2.438 7.932 4.548c0 0 .328 5.08-3.423 5.408-3.751.328-4.796-.205-4.796-.205s-1.066 6.473-5.575 10.161c0 0 .554 9.116 1.25 11.308 0 0 1.353 2.54.595 4.117-.759 1.578-3.874 5.347-10.187 5.019-6.312-.327-8.628-3.216-9.161-3.708-.492-.491-.881-2.929-.881-2.929Zm11.928 77.292a7.684 7.684 0 0 0 7.686-7.682 7.684 7.684 0 0 0-7.686-7.682 7.684 7.684 0 0 0-7.686 7.682 7.684 7.684 0 0 0 7.686 7.682Zm-138.449-2.254v-14.893h55.339l1.701.922.43 1.454v10.673l-.922 1.373-1.517.471h-55.03ZM46.402 256.09l.492-1.701 1.537-1.311 1.968-.245h72.78v23.005H48.616l-1.722-1.537-.471-1.454-.02-16.757Z"/><path fill="#216FF4" d="M185.22 136.065s-1.619-8.604-.574-13.172c1.045-4.548 3.997-10.304 16.807-10.612 0 0 8.341.205 12.256 3.196 3.915 2.991 5.575 6.863 5.165 11.984-.41 5.121-.799 9.096-.799 9.096l-2.152.573v-3.769s-10.269-2.643-14.184-11.779c0 0-4.324 10.058-14.08 11.779l-.308 3.646-2.131-.942Zm.881 11.697s1.742 9.526-1.988 12.476c-3.73 2.95-9.51 6.391-9.592 9.198 0 0 6.272-1.106 9.777-1.455 3.504-.368 8.28-.696 8.28-.696l1.271-10.058s-5.411-3.544-5.719-10.325l-2.029.86Zm31.338-.348s-1.168 4.917-.205 8.85 4.12 5.756 6.19 7.17c2.07 1.413 4.755 3.032 5.595 6.35 0 0-8.321-1.803-13.138-2.151l-4.816-.348-1.004-10.222s4.652-3.176 5.575-10.161l1.803.512Zm-73.231-36.403c0 15.2-12.318 27.512-27.526 27.512s-27.526-12.332-27.526-27.512c0-15.2 12.318-27.512 27.526-27.512s27.526 12.312 27.526 27.512Zm-30.088 30.421v10.714s.308 5.92 7.727 5.92c7.399 0 8.998-4.158 8.998-4.158l.656-12.476s-3.751 1.659-8.691 1.352c-4.939-.307-8.69-1.352-8.69-1.352Z"/><path fill="#0C0553" d="M334.552 101.117h-58.413c-8.649 0-15.72-7.068-15.72-15.713v-27.86c0-8.645 7.071-15.712 15.72-15.712h58.413c8.649 0 15.72 7.067 15.72 15.712v27.86c.021 8.645-7.071 15.713-15.72 15.713Z"/><path fill="#fff" d="M311.925 54.88c-1.579-2.703-4.161-2.703-5.76 0l-12.154 20.794c-1.578 2.704-.307 4.916 2.829 4.916h24.41c3.136 0 4.407-2.212 2.828-4.916L311.925 54.88Z"/><path fill="#CCC" d="M291.531 232.142s4.141 10.427 18.078 4.548c0 0-2.316 6.248-11.621 5.265-8.445-.881-6.457-9.813-6.457-9.813Zm4.018-34.354s2.521 2.253 6.087 0c0 0-.779 2.745-2.788 2.97-1.988.226-3.299-2.97-3.299-2.97Z"/><path fill="#fff" d="m368.534 185.476-11.478-5.327s-6.456-1.003-9.038 2.971c0 0-7.645 1.024-7.42 6.862 0 0 5.739-.553 8.772 1.066 3.034 1.598 8.424 5.224 8.424 5.224s6.169-8.645 10.74-10.796Zm19.348 8.317s2.336-5.162 8.403-1.946c0 0 3.033-2.888 8.793 0 0 0 3.525-1.843 6.312.697 2.788 2.54 5.37 6.801 5.37 6.801s1.292 4.773-3.771 5.06c-.205.492.39 4.179-4.222 4.404-4.612.226-6.374-3.79-6.374-3.79s-.779 3.913-4.017 3.729c-3.239-.205-3.874-2.336-3.915-3.565-.041-1.249.553-3.318.041-4.609-.492-1.331-3.751-6.535-6.62-6.781Z"/><path fill="#0C0553" d="M400.364 190.106s-3.423-3.647-9.039-3.585c-5.616.061-7.747 5.367-7.747 5.367l4.304 2.192s1.373-2.725 3.136-3.052c1.762-.328 4.878.758 4.878.758s2.377-1.988 4.837-1.496l-.369-.184Z"/><path fill="#fff" d="M393.108 124.778s7.174 3.216 8.506-3.79c1.332-7.027-7.543-5.982-7.543-5.982s-10.227-6.494-13.014-8.256c-2.788-1.782-7.42-6.289-7.42-6.289l-3.648 18.724s-3.197 14.504 7.686 14.893l-.308 6.904s-4.96 13.93 1.681 13.991c6.661.062 14.614-13.069 14.696-13.848.082-.799.245-15.487.245-15.487l-.881-.86Z"/><path fill="#0C0553" d="M419.425 149.012s1.844-5.511-1.784-8.727c-3.648-3.216-9.981-4.261-10.821-8.707-.841-4.445 2.705-11.656 5.329-17.617 2.644-5.961 2.48-12.209-1.681-14.73-4.161-2.54-11.17-5.55-14.06-5.51 0 0-6.087-4.896-12.482-4.179-6.395.717-11.047 1.25-13.712 6.29-2.664 5.018-2.357 11.512.697 17.043l2.706-12.824s10.391 11.185 20.372 14.627c0 0 2.952-.062 4.55.471 1.599.533 3.669 3.011 2.972 6.228-.717 3.236-4.447 5.183-7.522 4.22l.144 14.237s8.383.738 13.609 2.909c5.267 2.192 11.683 6.269 11.683 6.269Z"/><path fill="#3A3A3A" d="M374.088 133.688s-3.423 4.22-.307 7.805l3.587-.532.533-6.617-3.813-.656Z"/><path fill="#fff" d="M373.637 100.051s9.961 10.694 19.738 14.402c-2.849-2.295-13.63-11.247-15.7-16.225-2.07-4.998 3.914-7.907 5.513-8.584-6.005.677-10.412 1.373-12.953 6.208-2.665 5.019-2.357 11.513.717 17.044l2.685-12.845Zm.451 33.637s-3.423 4.22-.307 7.785l2.07-.307c-1.517-2.131-.328-6.351-.062-7.191l-1.701-.287Zm-160.379-18.19c-1.517-1.168-3.689-1.885-5.8-2.356.082.041 5.882 2.602 6.025 8.973.123 6.411-11.723-.513-11.723-.513s.082.513.184 1.373c4.284 8.03 13.507 10.407 13.507 10.407v3.769l2.152-.574s.389-3.974.799-9.095c.431-5.122-1.229-8.993-5.144-11.984Zm15.331 54.286c-.841-3.318-3.525-4.937-5.596-6.35-2.07-1.414-5.205-3.237-6.189-7.17-.964-3.933.205-8.85.205-8.85l-1.804-.512a15.923 15.923 0 0 1-2.09 6.125c-.185 1.27-.738 6.494 2.09 9.382 1.25 1.27 1.804 3.34 2.009 5.388 4.837.553 11.375 1.987 11.375 1.987Zm208.769 37.796s-8.424-3.872-16.437 2.97c-7.994 6.843-9.244 16.348-4.468 21.285 0 0 10.268-1.496 15.535-8.44 5.288-6.945 5.37-15.815 5.37-15.815Z"/><path fill="#0C0553" d="M299.893 242.897c-5.533-.164-7.583-2.602-8.444-4.609-1.639-3.893-.041-8.993 2.439-11.698.062-.061 1.66-2.069.062-6.842-1.046-3.154-.8-6.268.676-8.563 1.353-2.11 3.628-3.38 6.6-3.687 2.89-.307 5.534.655 7.399 2.725 1.926 2.13 2.808 5.162 2.275 7.723-.902 4.342-1.148 5.49 0 9.198.758 2.519.881 7.927-2.07 11.779-1.989 2.622-5.001 3.974-8.937 3.974Zm2.419-34.436c-.307 0-.635.02-.963.061-2.644.267-4.653 1.393-5.842 3.216-1.311 2.029-1.516 4.815-.574 7.662 1.825 5.49-.205 7.785-.286 7.887-2.214 2.397-3.71 7.129-2.255 10.591 1.045 2.479 3.443 3.851 6.969 3.954 3.832.082 6.743-1.086 8.649-3.565 2.562-3.359 2.644-8.358 1.885-10.837-1.209-3.974-.922-5.408-.123-9.177.574-2.766-.246-5.49-1.926-7.334-1.004-1.168-2.788-2.458-5.534-2.458Zm-3.71-7.15c-2.07 0-3.689-2.356-3.689-5.347 0-2.99 1.619-5.346 3.689-5.346 2.07 0 3.69 2.356 3.69 5.346 0 2.991-1.64 5.347-3.69 5.347Zm0-9.649c-1.434 0-2.623 1.967-2.623 4.302 0 2.336 1.209 4.302 2.623 4.302 1.435 0 2.624-1.966 2.624-4.302 0-2.335-1.209-4.302-2.624-4.302Zm82.332-57.092a60.53 60.53 0 0 1-2.931-.062c-1.886-.082-3.321-.389-4.55-.942-2.111-.963-3.382-2.786-3.915-5.531-.799-4.159-.184-8.379.41-12.476.471-3.237 3.115-15.487 3.218-15.712.902.737-1.681 12.434-2.091 15.302-.656 4.569-1.25 8.727-.492 12.701.451 2.397 1.537 3.954 3.321 4.774 1.086.512 2.398.778 4.16.839 1.742.082 4.284.103 6.067-.041-.922 1.127-2.091 1.148-3.197 1.148Z"/><path fill="#0C0553" d="M394.379 115.518c-17.852-9.444-21.89-16.081-22.054-16.368.943-.471 5.022 6.166 22.3 15.384.123.881-.062.984-.246.984Zm-9.285-3.298c-.41-.123-.717.02-1.025 1.495-.348 1.66.041 2.008.431 2.028.369.041.82-.43.943-1.618.143-1.188.184-1.762-.349-1.905Zm-11.047-1.762c-.41-.123-.717 0-1.066 1.475-.41 1.639-.02 2.007.349 2.048.369.041.84-.409 1.004-1.597.184-1.209.246-1.762-.287-1.926Zm-1.803-3.196c.43-1.434 1.639-1.987 3.771-1.106-2.029.307-2.89.635-3.484 1.024a.67.67 0 0 1-.287.082Z"/><path fill="#0C0553" d="M396.224 126.129c-1.476-.082-2.521-.45-3.423-1.065 1.332-.348 2.193-.061 3.095 0 2.91 0 5.083-2.007 5.247-4.609a4.998 4.998 0 0 0-1.21-3.585 5.035 5.035 0 0 0-3.381-1.68c-.984-.041-1.948.164-2.808.656.512-1.516 1.701-1.783 2.869-1.701a5.96 5.96 0 0 1 4.12 2.028 6.013 6.013 0 0 1 1.475 4.343c-.225 3.176-2.849 5.613-5.984 5.613Z"/><path fill="#0C0553" d="M397.064 123.569c-.369-.144-3.669-3.442-3.669-3.442.123-.819 4.53-3.298 4.53-3.298.512.922-3.3 3.052-3.3 3.052l2.808 2.807c-.103.819-.246.881-.369.881Zm-17.688 31.896a7.92 7.92 0 0 1-1.681-.164c-.901-.164-1.598-.676-2.049-1.496-2.009-3.503.902-12.045 1.23-12.967l.512-6.863c1.045.082.533 7.006.533 7.006-.062.226-3.198 9.096-1.353 12.292.307.553.758.881 1.353.983 9.038 1.741 15.392-13.398 15.454-13.561.696 1.044-5.042 14.77-13.999 14.77Zm.185-29.356c-.656 0-1.353-.164-2.091-.471 1.537-.492 2.5-.471 3.259-.861 1.291-.676 1.701-2.355 1.701-2.376 1.004.328.512 2.417-1.209 3.298-.513.287-1.066.41-1.66.41Z"/><path fill="#0C0553" d="M393.825 141.453c-.532-.533-.163-15.713-.163-15.713 1.045.021.696 15.2.696 15.2a.526.526 0 0 1-.533.513ZM374.17 121.5c-.799-1.639-1.353-4.568-.328-5.367.635-.492 1.968-.041 2.992.43l1.189-6.535c1.025.184-.287 7.395-.287 7.395-1.803-.164-3.013-.573-3.279-.45-.287.225-.205 2.13.205 3.892-.41.614-.451.635-.492.635Zm-181.305 27c-3.587 0-6.497-3.667-6.497-8.174s2.91-8.153 6.497-8.153c3.587 0 6.497 3.667 6.497 8.153 0 .84-.082 1.516-.246 2.233-.861-.881-.799-1.455-.799-2.233 0-3.913-2.439-7.109-5.432-7.109-2.992 0-5.431 3.196-5.431 7.109 0 3.933 2.439 7.108 5.431 7.108 1.497 0 2.767-.676 3.772-1.987-.39 2.213-1.968 3.053-3.792 3.053Zm17.729 0c-3.567 0-6.498-3.667-6.498-8.174s2.911-8.153 6.498-8.153c3.586 0 6.497 3.667 6.497 8.153 0 4.507-2.911 8.174-6.497 8.174Zm0-15.283c-2.993 0-5.432 3.196-5.432 7.109 0 3.933 2.439 7.108 5.432 7.108 2.992 0 5.451-3.195 5.451-7.108-.02-3.913-2.459-7.109-5.451-7.109Z"/><path fill="#0C0553" d="M204.404 140.838c-1.291-1.024-2.214-1.455-3.074-1.373-1.169.082-1.907 1.004-1.927 1.004-.779-.696.205-1.925 1.845-2.048 1.188-.082 2.357.409 3.525 1.516-.082.86-.226.901-.369.901Zm44.312 133.545H154.23c-4.263 0-7.726-3.462-7.726-7.702v-58.589c0-4.261 3.463-7.702 7.726-7.702h94.486a7.708 7.708 0 0 1 7.706 7.702v58.589c.021 4.24-3.443 7.702-7.706 7.702Zm-94.486-72.969c-3.668 0-6.661 2.991-6.661 6.658v58.588c0 3.667 2.993 6.658 6.661 6.658h94.486c3.668 0 6.661-2.991 6.661-6.658v-58.588c0-3.667-2.993-6.658-6.661-6.658H154.23Z"/><path fill="#0C0553" d="M201.616 246.052c-4.529 0-8.218-3.688-8.218-8.195 0-4.527 3.689-8.194 8.218-8.194 4.53 0 8.199 3.687 8.199 8.194 0 4.507-3.689 8.195-8.199 8.195Zm0-15.365c-3.955 0-7.153 3.217-7.153 7.15 0 3.954 3.218 7.149 7.153 7.149a7.158 7.158 0 0 0 7.154-7.149c0-3.933-3.218-7.15-7.154-7.15Zm47.407 43.676c9.203-1.045 15.413-5.244 18.487-13.5 8.65-23.312-9.94-71.105-19.491-79.32-12.298-10.57-22.095-12.926-36.974-13.725 15.166-.226 25.127 2.171 37.671 12.947 9.694 8.317 28.571 56.827 19.799 80.467-3.259 8.706-9.797 13.131-19.492 13.131Zm-94.485.02c-11.006 0-18.364-4.773-21.869-14.217-8.793-23.681 10.145-70.88 20.086-79.422 12.195-10.489 24.267-13.131 39.802-13.992-15.248 1.905-27.136 4.487-39.105 14.791-9.797 8.419-28.448 54.921-19.779 78.254 3.341 8.973 10.351 13.521 20.885 13.521.492.819.267 1.065-.02 1.065Zm252.671-83.028c-1.927-8.644-.779-20.526-.758-20.649 1.024.225-.103 11.984 1.291 20.035-.472.614-.492.614-.533.614Zm.574 18.089c-2.131 0-3.566-1.106-4.386-2.069-1.045-1.208-1.619-2.683-1.537-3.175.902.451 2.234 4.343 5.923 4.343 1.988-.021 3.3-.512 3.894-1.455 1.23-1.925-.41-5.469-1.393-7.6a15.807 15.807 0 0 1-.451-1.003c-.902-2.172-1.906-4.63-5.268-6.289-4.427-2.192-8.403-.226-8.444-.205-.225-.902 4.038-2.991 8.854-.594 3.649 1.802 4.776 4.547 5.698 6.76.103.266.267.594.431.963 1.065 2.294 2.828 6.104 1.332 8.46-.779 1.229-2.337 1.864-4.632 1.864h-.021Z"/><path fill="#0C0553" d="M412.641 205.019c2.275-1.393 3.627-2.274 3.955-3.544.595-2.315-2.254-5.818-4.898-8.112-2.849-2.479-6.743-1.168-6.805-1.168-.123-.922 4.14-2.356 7.399.471 1.435 1.25 6.067 5.593 5.186 9.014-.431 1.639-2.03 2.745-4.755 3.318-.021.021-.041.021-.082.021Zm-29.166-12.373c1.701-4.896 4.796-6.903 8.977-6.903 2.849 0 5.76 1.495 8.67 4.445-3.443-2.008-6.108-3.38-8.629-3.401-3.853 0-6.558 1.762-8.567 5.573a.49.49 0 0 1-.451.286Z"/><path fill="#0C0553" d="M403.623 233.699c-7.502 0-16.11-1.843-26.235-5.592a109.352 109.352 0 0 1-25.476-13.582c-.205-.553.594-8.666 3.771-15.528 4.263-9.198 12.154-13.787 12.482-13.992.471-.02 21.746 9.403 21.746 9.403-.43.963-21.459-8.358-21.459-8.358-1.312.819-8.096 5.347-11.826 13.377-2.767 5.961-3.689 12.906-3.874 14.401a109.198 109.198 0 0 0 24.964 13.275c10.74 3.995 19.778 5.797 27.505 5.511 4.694-.164 10.802-.635 16.438-2.725 3.484-1.291 8.383-3.831 11.785-8.542 3.546-4.917 3.894-11.063 3.792-15.877-.205-9.833-2.337-19.482-4.182-26.795-.737-2.97-1.598-6.023-2.5-9.075-5.513-18.253-17.421-27.676-36.421-28.782 19.553.102 31.768 9.751 37.425 28.475a197.321 197.321 0 0 1 2.521 9.116c1.845 7.375 3.997 17.105 4.222 27.041.103 4.978-.266 11.328-3.996 16.511-3.567 4.937-8.629 7.58-12.257 8.911-5.78 2.151-11.99 2.622-16.765 2.807-.533.02-1.087.02-1.66.02Z"/><path fill="#0C0553" d="M353.1 226.591c-9.469 0-20.044-1.045-24.758-5.245-12.113-10.796-4.366-27.102 1.311-39.025.369-.758.738-1.577 1.148-2.437 6.169-13.275 16.499-35.461 46.505-39.456-29.309 4.958-39.475 26.816-45.542 39.886a95.48 95.48 0 0 1-1.147 2.438c-5.534 11.615-13.097 27.512-1.558 37.795 8.936 7.949 41.627 3.954 41.934 3.913-.553 1.127-8.69 2.131-17.893 2.131Z"/><path fill="#0C0553" d="M345.394 274.363c-.389-.061-.574-.348-.512-.635 3.525-16.88 3.136-47.363 3.136-47.67 1.045.287 1.455 30.892-2.111 47.875a.526.526 0 0 1-.513.43Zm83.438-.001c.718-21.366-.143-47.28-.143-47.547 1.045.226 1.926 26.201.676 47.056a.55.55 0 0 1-.533.491Zm-57.265-87.103c9.674-1.373 20.803-1.516 20.906-1.516-.082 1.065-11.191 1.208-20.906 1.516.021 0 .021 0 0 0Zm-43.656 19.788c-.389-.061-.574-.348-.512-.635 2.992-14.381 12.748-16.532 13.179-16.614 9.694-2.171 17.277 5.736 17.585 6.085-.84.635-8.28-7.088-17.36-5.04-.102.021-9.531 2.131-12.359 15.795a.548.548 0 0 1-.533.409Z"/><path fill="#0C0553" d="M340.68 190.843c-.553-.492-1.803-4.118 3.853-6.965 5.493-2.766 12.257 1.127 12.544 1.29-.595.861-7.092-2.867-12.072-.348-4.796 2.397-3.874 5.204-3.833 5.326-.389.697-.451.697-.492.697Z"/><path fill="#0C0553" d="M368.452 185.988c-.349-.143-4.14-2.991-10.842-5.019-6.416-1.946-9.797 2.827-9.818 2.868-.82-.655 2.972-6.023 10.125-3.872 6.887 2.09 10.678 4.958 10.842 5.081 0 .881-.164.942-.307.942Zm-183.191-37.96c-1.968-.123-3.443-.819-4.489-2.028-1.066-1.188-1.578-2.745-1.475-4.343a6.004 6.004 0 0 1 2.008-4.117c1.209-1.066 2.747-1.598 4.345-1.475a6.35 6.35 0 0 1 1.845.409c-.881.779-1.394.676-1.906.636a4.855 4.855 0 0 0-3.567 1.229 4.927 4.927 0 0 0-1.66 3.4 4.852 4.852 0 0 0 1.23 3.565 4.929 4.929 0 0 0 3.402 1.659c.902.041 1.783-.123 2.583-.553-.431 1.372-1.373 1.618-2.316 1.618Z"/><path fill="#0C0553" d="M184.052 145.324c-.328-.942 2.664-3.236 2.664-3.236.636.819-2.357 3.134-2.357 3.134-.082.082-.205.102-.307.102Zm2.705-3.564c-.307-.103-3.423-2.397-3.423-2.397.636-.84 3.731 1.455 3.731 1.455.02.88-.144.942-.308.942Zm31.646 6.268a5.93 5.93 0 0 1-2.767-.676c1.291-.512 2.193-.348 3.074-.389a4.969 4.969 0 0 0 3.402-1.659 4.848 4.848 0 0 0 1.23-3.565 4.961 4.961 0 0 0-1.66-3.4c-.984-.881-2.234-1.311-3.587-1.23a4.915 4.915 0 0 0-1.619.39c.205-1.229.881-1.393 1.558-1.434a5.979 5.979 0 0 1 4.345 1.495 6.01 6.01 0 0 1 2.008 4.118 5.932 5.932 0 0 1-1.475 4.322 5.979 5.979 0 0 1-4.12 2.008c-.144 0-.266.02-.389.02Z"/><path fill="#0C0553" d="M219.612 145.325c-.328-.103-3.362-2.459-3.362-2.459.636-.819 3.69 1.516 3.69 1.516-.021.881-.185.943-.328.943Zm-2.931-3.401c-.308-.943 3.013-3.401 3.013-3.401.615.84-2.685 3.298-2.685 3.298-.123.062-.226.103-.328.103Zm-14.86 17.842c-2.623 0-6.394-.491-9.387-2.888-2.316-1.844-3.853-4.794-4.673-9.014-.123-.655-.246-1.638-.328-3.011 1.148 1.25 1.251 2.212 1.374 2.827.779 3.974 2.193 6.719 4.304 8.399 2.767 2.192 6.272 2.663 8.731 2.663.512.799.266 1.024-.021 1.024Zm-14.08-22.697c-.533-.553-.656-2.192-.615-3.708 1.025 1.475 1.148 3.134 1.148 3.155-.513.553-.513.553-.533.553Zm-.103-3.175c9.797-3.77 13.569-12.415 13.61-12.497.799.779-3.034 9.608-13.466 12.497h-.144Z"/><path fill="#0C0553" d="M201.74 159.766c2.459-1.044 5.984-1.516 8.751-3.707 2.111-1.68 3.525-4.425 4.304-8.4.144-.696.246-1.741.349-3.318.943 1.68.82 2.765.676 3.503-.84 4.24-2.377 7.19-4.673 9.013-3.013 2.418-6.784 2.909-9.407 2.909Zm14.162-22.677c-.512-1.844-.512-2.97-.533-3.708 1.066.738 1.066 1.885 1.045 3.196.021.287-.225.512-.512.512Z"/><path fill="#0C0553" d="M215.902 133.893c-10.576-2.888-14.49-11.717-14.654-12.086 1.004-.328 4.857 8.317 14.797 11.062.308.881.103 1.024-.143 1.024Zm-13.957 44.147c-4.223 0-8.117-1.762-9.92-4.466-.923-1.393-1.128-2.848-.595-4.097 1.332-3.155 1.619-12.312 1.64-12.415 1.045.41.758 9.485-.656 12.824-.389.922-.225 2.028.512 3.114 1.312 1.987 4.632 3.995 9.039 3.995 4.243 0 7.481-1.229 8.895-3.38.779-1.168.923-2.52.41-3.729-1.414-3.318-1.701-12.414-1.701-12.783 1.045.062 1.332 9.239 2.664 12.374.656 1.536.472 3.257-.512 4.711-.963 1.434-3.505 3.852-9.776 3.852Z"/><path fill="#0C0553" d="M217.952 136.597c-.369-.041-.554-.327-.513-.614 1.209-7.723 1.209-11.636.021-15.016-2.091-5.961-9.51-8.112-15.741-8.133 6.6-1.024 14.449 1.332 16.725 7.785 1.25 3.564 1.25 7.62.02 15.528-.021.266-.246.45-.512.45Zm-32.732.001c-1.763-8.358-1.742-12.414-.492-15.979 2.275-6.473 10.125-8.809 16.724-8.829-6.23 1.086-13.629 3.237-15.72 9.177-1.188 3.38-1.188 7.314.021 15.016-.472.615-.492.615-.533.615Zm8.854-3.381c1.066-1.495 2.542-1.639 3.751-1.372-1.23.799-2.521.922-3.566 1.331a.587.587 0 0 1-.185.041Zm16.233.001c-1.23-.492-2.439-.615-3.628-.349 1.148-1.331 2.603-1.208 3.833-.655.184.881 0 1.004-.205 1.004Zm-7.748 19.277c-1.229 0-2.213-.308-2.295-.349.348-.983 2.89-.184 4.529-1.311.861-.594 1.353-1.639 1.435-3.114.922 1.885.287 3.196-.861 3.975-.861.614-1.906.799-2.808.799Zm-4.427-5.061c-.533-.307-2.152-1.782-2.193-3.339a2.009 2.009 0 0 1 .595-1.516c.471-.471 1.024-.717 1.66-.717.676 0 1.311.308 1.783.594.328-2.888.553-6.924-.041-7.825 1.926 1.024 1.148 7.579.963 8.87-1.148.041-1.967-.614-2.705-.614-.349 0-.636.122-.902.409-.267 1.68.799 2.827 1.209 3.196-.082.881-.225.942-.369.942Zm116.682 124.819c.123-1.086 5.678-2.397 6.006-7.928.082-1.455-.287-2.602-1.107-3.38-1.701-1.619-4.796-1.311-4.817-1.311.041-1.066 3.485-1.393 5.534.553 1.066 1.004 1.537 2.417 1.435 4.22-.389 6.309-6.887 7.825-6.948 7.846h-.103Z"/><path fill="#0C0553" d="M315.06 275.633c.349-1.086 9.715-2.131 9.059-11.165-.205-2.806-1.147-4.937-2.807-6.33-2.644-2.192-6.252-1.803-6.293-1.803.041-1.065 3.956-1.495 6.948.984 1.906 1.577 2.993 3.953 3.198 7.067.717 10.059-9.941 11.226-10.064 11.226-.02.021-.02.021-.041.021ZM304.075 281c-1.865 0-11.15-.102-11.15-2.213 1.537.431 5.349 1.168 11.15 1.168 5.964 0 9.838-.758 10.248-1.27 1.004 2.213-8.363 2.315-10.248 2.315Z"/><path fill="#0C0553" d="M293.458 279.32c-.533-.533-.533-24.46-.533-24.46 1.045 0 1.045 23.927 1.045 23.927a.525.525 0 0 1-.512.533Zm21.356 0c-.532-.532-.533-24.644-.533-24.644 1.046 0 1.046 24.112 1.046 24.112a.513.513 0 0 1-.513.532Z"/><path fill="#0C0553" d="M304.136 257.401c-.451 0-11.211-.021-11.211-2.54 0-2.52 10.76-2.541 11.211-2.541.451 0 11.211.021 11.211 2.541 0 2.519-10.76 2.54-11.211 2.54Zm-10.145-2.54c.43.553 4.037 1.495 10.145 1.495 6.272 0 9.899-.983 10.166-1.536-.267-.472-3.894-1.455-10.166-1.455-6.108 0-9.715.942-10.145 1.496Zm154.702 19.584H319.098c0-1.045 129.595-1.045 129.595-1.045.533.819.287 1.045 0 1.045Zm-155.235 0H123.364c0-1.045 170.094-1.045 170.094-1.045.512.819.287 1.045 0 1.045Zm-251.442 0H10.002c0-1.045 31.994-1.045 31.994-1.045.533.819.307 1.045.02 1.045ZM96.412 18.15a2.27 2.27 0 0 0 2.275-2.274 2.283 2.283 0 0 0-2.275-2.274 2.27 2.27 0 0 0-2.275 2.274c-.02 1.25 1.004 2.274 2.275 2.274Zm17.749.123a2.4 2.4 0 0 0 2.398-2.396 2.4 2.4 0 0 0-2.398-2.397 2.4 2.4 0 0 0-2.398 2.396 2.4 2.4 0 0 0 2.398 2.397Zm17.75-.183a2.24 2.24 0 0 0 2.234-2.234 2.24 2.24 0 0 0-2.234-2.233 2.239 2.239 0 0 0-2.234 2.233 2.239 2.239 0 0 0 2.234 2.233ZM96.412 36.014a2.4 2.4 0 0 0 2.398-2.397 2.387 2.387 0 0 0-2.398-2.396 2.4 2.4 0 0 0-2.398 2.396 2.4 2.4 0 0 0 2.398 2.397Zm17.749.123a2.518 2.518 0 0 0 2.521-2.52 2.518 2.518 0 0 0-2.521-2.52 2.519 2.519 0 1 0 0 5.04Zm17.749-.185a2.335 2.335 0 1 0 0-4.67 2.335 2.335 0 1 0 0 4.67ZM96.412 53.57a2.239 2.239 0 0 0 2.234-2.233 2.239 2.239 0 0 0-2.234-2.233 2.239 2.239 0 0 0-2.234 2.233 2.239 2.239 0 0 0 2.234 2.233Zm17.749.123a2.335 2.335 0 1 0 0-4.671 2.335 2.335 0 1 0 0 4.67Zm17.75-.163a2.195 2.195 0 0 0 2.193-2.193 2.195 2.195 0 0 0-2.193-2.192c-1.21 0-2.193.984-2.193 2.192a2.18 2.18 0 0 0 2.193 2.192Zm199.341 40.642h-57.327c-9.141 0-16.581-7.436-16.581-16.552V50.374c0-9.137 7.44-16.553 16.581-16.553h57.798c9.141 0 16.581 7.437 16.581 16.553V77.62c0 6.555-3.75 12.27-9.797 14.913 5.247-3.442 8.752-8.788 8.752-14.913V50.374c0-8.563-6.968-15.508-15.515-15.508h-57.798c-8.567 0-15.515 6.965-15.515 15.508V77.62c0 8.563 6.968 15.507 15.515 15.507h57.326c.513.82.267 1.045-.02 1.045Z"/><path fill="#0C0553" d="M315.101 78.398h-24.41c-1.701 0-2.993-.614-3.628-1.7-.635-1.106-.512-2.52.349-3.995l12.154-20.792c.86-1.475 2.049-2.295 3.32-2.295 1.291 0 2.459.82 3.32 2.295l12.154 20.792c.861 1.475.984 2.889.369 3.995-.615 1.086-1.906 1.7-3.628 1.7Zm-12.215-27.757c-.902 0-1.763.635-2.419 1.761l-12.154 20.793c-.676 1.147-.799 2.192-.348 2.95.43.758 1.394 1.188 2.726 1.188h24.41c1.312 0 2.296-.41 2.726-1.188.431-.758.308-1.803-.348-2.95l-12.154-20.793c-.677-1.127-1.537-1.761-2.439-1.761ZM123.712 158.599h-3.341c-4.14 0-7.522-3.36-7.522-7.498v-9.136c6.149.757 12.216.757 17.668-.984.697.984.697 10.12.697 10.12.02 4.118-3.362 7.498-7.502 7.498Zm-9.817-16.45v8.932a6.454 6.454 0 0 0 6.456 6.453h3.341a6.454 6.454 0 0 0 6.456-6.453v-8.912c-5.227 1.537-11.006 1.537-16.253-.02Z"/><path fill="#0C0553" d="M122.073 143.317c-3.034 0-6.006-.471-8.834-1.393-11.949-3.831-19.963-14.852-19.963-27.389 0-15.877 12.912-28.783 28.797-28.783 15.884 0 28.796 12.906 28.796 28.783 0 12.578-8.055 23.599-20.024 27.409a28.246 28.246 0 0 1-8.772 1.373Zm0-56.5c-15.311 0-27.752 12.435-27.752 27.738 0 12.087 7.727 22.698 19.246 26.406 5.431 1.762 11.498 1.762 16.97.02 11.539-3.687 19.287-14.298 19.287-26.426 0-15.303-12.462-27.737-27.751-27.737Zm10.35 63.916h-20.721c0-1.045 20.721-1.045 20.721-1.045.533.819.307 1.045 0 1.045Zm0 5.203h-20.721c0-1.045 20.721-1.045 20.721-1.045.533.819.307 1.045 0 1.045Zm0-10.407h-20.721c0-1.045 20.721-1.045 20.721-1.045.533.82.307 1.045 0 1.045Z"/><path fill="#0C0553" d="M132.423 150.733h-20.721c0-1.045 20.721-1.045 20.721-1.045.533.819.307 1.045 0 1.045Zm-27.362-23.948c-.307 0-.615 0-.881-.02 1.721-.984 4.14-1.045 5.698-2.418.369-.307.676-.676.942-1.044a9.104 9.104 0 0 1-1.865-1.783c-1.332-1.741-1.926-3.994-1.639-6.207.102-.758.778-3.749 2.336-4.609.513-.287 1.066-.287 1.619-.041 1.046.492 1.456 1.926 1.722 2.868.389 1.393.553 2.602.553 3.831-.02 1.126-.184 3.482-1.291 5.572 2.214 1.229 5.247 1.782 9.346 1.659 2.296-.061 4.222-.389 5.882-1.004 2.03-.758 3.649-2.028 4.714-3.585-2.049-1.126-3.176-2.642-3.361-4.22-.123-.901.062-1.905.513-2.847.328-.717.963-1.639 2.008-1.967.861-.266 1.455 0 1.824.267 1.394 1.024 1.435 3.83 1.435 4.363a8.881 8.881 0 0 1-.922 3.933c2.767 1.086 6.107 1.188 9.325 1.188-3.382 1.045-6.886.943-9.838-.266-1.168 1.803-2.992 3.257-5.308 4.138-1.763.656-3.792 1.024-6.231 1.086-4.263.102-7.542-.492-9.92-1.803a7.378 7.378 0 0 1-1.148 1.27c-1.598 1.373-3.771 1.639-5.513 1.639Zm5.431-15.262c-1.27.594-1.988 2.807-2.131 3.913a7.296 7.296 0 0 0 1.435 5.429 7.429 7.429 0 0 0 1.578 1.516c.963-1.865 1.107-3.995 1.107-5.019 0-1.147-.144-2.254-.451-3.319-.267-1.004-.595-2.151-1.21-2.438a.96.96 0 0 0-.328-.082Zm21.562.39c-1.066.266-1.496.942-1.742 1.475-.369.778-.513 1.556-.431 2.273.164 1.25 1.087 2.459 2.48 3.237.923-.881 1.21-2.069 1.21-3.319 0-1.331-.308-3.011-1.025-3.523a.943.943 0 0 0-.492-.143Zm-56.076 39.926c-.328-.922 20.618-17.966 20.618-17.966.656.82-20.29 17.864-20.29 17.864a.623.623 0 0 1-.328.102Zm17.81-56.233c-.328-.102-11.62-8.91-11.62-8.91.655-.82 11.928 7.968 11.928 7.968 0 .86-.144.942-.308.942Zm28.264-14.504c-.533-.532-.533-26.324-.533-26.324 0-7.231 5.882-13.11 13.117-13.11h120.167c0 1.044-120.167 1.044-120.167 1.044-6.64 0-12.051 5.408-12.051 12.046v25.791c-.021.328-.246.553-.533.553Zm57.634 68.36h-45.07c0-1.044 45.05-1.044 45.05-1.044.532.799.307 1.044.02 1.044Zm105.41.001h-61.221c0-1.045 61.221-1.045 61.221-1.045 6.64 0 12.051-5.408 12.051-12.046v-25.811c1.045 0 1.045 25.791 1.045 25.791 0 7.231-5.882 13.111-13.096 13.111ZM123.179 276.37c-.533-.532-.533-23.537-.533-23.537 1.046 0 1.046 23.005 1.046 23.005a.525.525 0 0 1-.513.532Zm-20.659-15.507H46.402c0-1.045 56.118-1.045 56.118-1.045.533.799.287 1.045 0 1.045Zm0 7.989H46.402c0-1.044 56.118-1.044 56.118-1.044.533.799.287 1.044 0 1.044Z"/><path fill="#0C0553" d="M123.507 280.57H49.661c-4.406 0-7.973-3.585-7.973-7.969V256.11c0-4.404 3.587-7.969 7.973-7.969h73.682c.021 0 1.394-.082 2.234.738.451.43.677.983.677 1.68 0 .922-.287 1.659-.841 2.151-.881.778-2.09.676-2.131.676h-73.62a2.724 2.724 0 0 0-2.727 2.724v16.491a2.724 2.724 0 0 0 2.726 2.725h73.682c.021 0 1.394-.082 2.234.737.451.43.677.984.677 1.68 0 .922-.287 1.659-.841 2.151-.655.594-1.516.676-1.906.676Zm-.061-31.404H49.661c-3.812 0-6.927 3.114-6.927 6.924v16.491c0 3.81 3.115 6.924 6.927 6.924h73.682c.062 0 .882.061 1.394-.41.328-.287.492-.758.492-1.372 0-.39-.123-.697-.348-.922-.533-.492-1.476-.451-1.497-.451H49.661c-2.09 0-3.791-1.7-3.791-3.769V256.09c0-2.09 1.7-3.79 3.791-3.79h73.682c.062 0 .882.061 1.394-.41.328-.287.492-.758.492-1.372 0-.389-.123-.697-.348-.922-.451-.41-1.21-.43-1.435-.43Zm-58.311-2.725c-.532-.533-.532-15.426-.532-15.426 1.045 0 1.045 14.893 1.045 14.893a.525.525 0 0 1-.513.533Zm51.342-7.456H74.461c0-1.045 42.016-1.045 42.016-1.045.533.819.287 1.045 0 1.045Z"/><path fill="#0C0553" d="M120.166 245.909c1.333 0 2.439-.943 2.439-2.11v-10.694c0-1.167-1.086-2.11-2.439-2.11H65.791c-.799 0-2.582.103-2.582-1.229 0-1.639 1.783-1.495 1.783-1.495h55.154c3.074 0 5.575 2.171 5.575 4.814v10.693c0 2.663-2.501 4.814-5.575 4.814H64.972s-1.784.103-1.784-1.229c0-1.639 1.784-1.495 1.784-1.495l55.194.041Zm-86.778 12.147c-1.845-1.004-3.526-2.171-5.288-3.544 2.357.512 4.017 1.66 5.554 2.561.102.881-.082.983-.266.983Zm-9.572-7.313c-1.804-1.455-3.28-2.889-4.714-4.363 2.173.737 3.628 2.13 5.063 3.441-.062.86-.206.922-.349.922Zm-8.403-8.665c-1.742-1.742-3.034-3.34-4.222-4.896 2.008.921 3.279 2.478 4.611 4.035-.164.82-.266.861-.39.861Zm-7.276-9.629a30.005 30.005 0 0 1-3.464-5.531c1.763 1.168 2.746 2.909 3.915 4.712-.246.799-.349.819-.451.819ZM2.89 221.633c-1.086-2.294-1.578-4.302-1.947-6.289 1.394 1.762 1.865 3.708 2.46 5.613-.41.656-.452.676-.513.676ZM.676 209.792C.061 207.99 0 206.638 0 205.306c0-.696.02-1.393.041-2.09 1.025.717 1.004 1.394 1.004 2.09 0 1.311.041 2.622.144 3.933-.492.553-.492.553-.513.553Zm.492-12.025c-.369-.061-.574-.327-.512-.614.328-2.028.8-4.036 1.373-5.941.43 2.171-.02 4.118-.348 6.105a.51.51 0 0 1-.513.45Zm3.546-11.492c.41-2.602 1.435-4.384 2.582-6.043-.245 2.192-1.25 3.933-2.11 5.736a.505.505 0 0 1-.472.307Zm41.79-2.212c-.819 0-1.66-.123-2.438-.369a11.022 11.022 0 0 1-2.255-1.004c1.189-.512 1.886-.205 2.583.02a7.59 7.59 0 0 0 3.382.226c-.308 1.086-.78 1.127-1.271 1.127Zm6.273-3.319c.163-1.762.491-2.848.491-3.954 0-.696-.123-1.393-.368-2.11 1.27.471 1.414 1.291 1.414 2.11 0 1.311-.39 2.602-1.107 3.729a.535.535 0 0 1-.43.225Zm-14.942-2.213c-.676-.614-.922-1.003-1.127-1.393-.676-1.249-1.27-2.704-1.824-4.445 1.537 1.373 2.11 2.766 2.746 3.954.205.369.43.737.656 1.086-.266.757-.348.798-.45.798Zm-26.193-2.028c1.024-2.151 2.664-3.359 4.57-4.547-1.291 2.048-2.89 3.236-4.222 4.424a.588.588 0 0 1-.348.123Zm10.166-6.453c1.64-1.864 3.545-2.622 5.451-3.257-1.537 1.619-3.402 2.356-5.226 3.196a.466.466 0 0 1-.226.061Zm28.489-.204c-1.681-1.496-3.341-2.5-5.268-3.155 2.419-.287 4.202.799 5.636 2.253-.102.84-.245.902-.368.902Zm-16.5-2.623c-1.25-3.195-1.68-4.629-2.193-5.961 1.517 1.004 1.968 2.479 2.337 3.892 1.722-.266 3.382-.409 4.96-.409-1.476 1.044-3.054 1.167-4.694 1.434-.328 1.024-.368 1.044-.41 1.044Zm-3.586-11.512c-.984-2.336-1.353-4.364-1.599-6.392 1.27 1.864 1.62 3.851 2.09 5.756-.41.636-.45.636-.491.636Zm-1.414-11.944c-.513-2.56-.39-4.609-.144-6.596.8 2.09.676 4.077.656 6.084.02.267-.226.512-.512.512Zm1.475-11.963c-.41-.082-.574-.369-.512-.656a47.756 47.756 0 0 1 1.803-5.817c.287 2.212-.307 4.138-.778 6.063a.52.52 0 0 1-.513.41Zm4.263-11.247c.492-2.581 1.579-4.322 2.747-5.961-.287 2.213-1.332 3.913-2.275 5.675a.544.544 0 0 1-.472.286Zm6.99-9.771c1.024-2.356 2.561-3.749 4.14-4.978-.902 2.028-2.378 3.38-3.751 4.814a.562.562 0 0 1-.39.164Zm9.489-7.375c1.496-1.967 3.361-2.827 5.267-3.544-1.496 1.68-3.3 2.52-5.021 3.483a.486.486 0 0 1-.246.061Zm11.252-4.261c1.845-1.455 3.853-1.762 5.923-1.926-1.926 1.209-3.894 1.516-5.8 1.926h-.123Zm17.975-.45a63.356 63.356 0 0 0-6.026-.554c2.03-.983 4.058-.778 6.108-.491.41.84.184 1.044-.082 1.044Zm121.621 102.714c-.532-.533-.532-18.847-.532-18.847 1.045 0 1.045 18.334 1.045 18.334.02.267-.226.513-.513.513Zm-27.423-31.118c-.41-.082-.574-.389-.512-.655.943-3.544 3.443-5.142 5.882-6.699 1.701-1.086 3.443-2.213 4.673-3.995 2.911-4.22 1.066-11.246 1.045-11.308 1.087.041 2.993 7.273-.184 11.902-1.353 1.967-3.197 3.155-4.981 4.282-2.357 1.516-4.591 2.929-5.431 6.084a.5.5 0 0 1-.492.389Zm54.601 0c-1.353-3.544-3.566-4.957-5.944-6.473-1.783-1.147-3.628-2.315-4.98-4.281-3.177-4.63-1.271-11.943-1.169-12.271.984.348-.86 7.436 2.05 11.677 1.23 1.802 2.992 2.908 4.673 3.994 2.418 1.557 4.919 3.155 5.882 6.699-.43.655-.471.655-.512.655Zm24.759-100.563h-6.457c0-1.045 6.457-1.045 6.457-1.045.532.82.287 1.045 0 1.045Zm-27.608 0h-69.993c0-1.045 69.993-1.045 69.993-1.045.512.82.287 1.045 0 1.045Zm27.608 25.873h-97.601c0-1.045 97.601-1.045 97.601-1.045.533.8.287 1.045 0 1.045Zm97.662 85.056c-.41-.082-.574-.369-.513-.656l3.321-12.578c1.004.267-2.316 12.845-2.316 12.845a.489.489 0 0 1-.492.389Zm47.181 28.659c-1.824-.082-2.992-.553-3.73-1.413-1.209-1.373-1.025-3.401-.881-4.876.041-.368.061-.717.061-1.003 0-1.68-2.049-5.327-4.611-6.658 3.279.532 5.656 4.466 5.656 6.678 0 .307-.041.676-.061 1.086-.123 1.352-.266 3.052.635 4.097.554.635 1.476.983 2.747 1.045 1.045.082 1.865-.308 2.439-1.107 1.66-2.355.881-7.579-.308-10.447-1.844-4.425-6.374-5.081-8.239-5.163-2.767 0-3.997 2.438-3.997 2.459-.881-.594.656-3.647 4.038-3.503 2.07.082 7.071.819 9.141 5.797 1.23 2.97 2.152 8.665.205 11.451-.717 1.025-1.783 1.557-3.095 1.557Zm20.598-59.162c-.43-.102-.594-.389-.512-.676 2.234-7.477-1.66-9.403-5.78-11.451-3.054-1.516-6.19-3.073-6.764-6.904-.655-4.425 1.517-8.932 3.587-13.295 2.029-4.261 4.14-8.665 3.607-12.926-1.024-8.338-17.339-10.735-17.503-10.755-1.988-2.356-8.137-4.466-14.306-4.056-5.042.327-8.834 2.294-10.658 5.51-4.919 8.604-.061 16.921 0 17.024-.943.45-6.107-8.399-.902-17.536 2.009-3.523 6.108-5.674 11.499-6.043 5.882-.41 12.502 1.475 14.716 4.097 2.049.328 17.113 2.95 18.179 11.636.574 4.568-1.598 9.116-3.71 13.5-2.111 4.404-4.099 8.583-3.504 12.701.471 3.277 3.259 4.65 6.189 6.104 4.141 2.049 8.814 4.364 6.334 12.681-.021.246-.246.389-.472.389Zm-45.644-8.051c-3.791-5.674.123-8.788.164-8.829.513.922-2.562 3.421.267 8.01-.246.778-.328.819-.431.819Zm43.307 89.85c-5.267-6.248-3.279-15.631 4.12-21.572 5.349-4.281 11.642-5.49 16.868-3.257-5.288-1.126-11.17.041-16.212 4.077-6.948 5.572-8.875 14.319-4.366 19.912-.164.799-.287.84-.41.84Zm10.556-95.954c.041-1.885.861-3.77 1.845-6.29-.021 2.93-.861 4.835-1.374 5.982a.54.54 0 0 1-.471.308Zm4.447-11.227c.185-2.601.82-4.527 1.415-6.411.389 2.212-.246 4.138-.923 6.063a.51.51 0 0 1-.492.348Zm3.669-11.512c-.43-.103-.574-.39-.512-.676a200.075 200.075 0 0 0 1.537-5.818c.533 2.233.021 4.199-.533 6.104a.5.5 0 0 1-.492.39Zm2.87-11.718c-.39-.062-.574-.348-.513-.635.41-1.987.779-3.974 1.107-5.92.717 2.13.328 4.117-.082 6.125a.507.507 0 0 1-.512.43Zm1.988-11.902c-.349-.041-.554-.307-.513-.594a156 156 0 0 0 .615-5.982c.882 2.069.677 4.097.431 6.105-.062.286-.287.47-.533.47Zm.922-12.025c-.492-1.557-.492-2.602-.492-3.626 0-.963-.02-1.946-.041-2.91 1.066.964 1.086 1.926 1.086 2.91 0 1.045-.02 2.09-.041 3.114a.507.507 0 0 1-.512.512Zm-.328-12.066c-.697-2.5-.943-4.486-1.25-6.433 1.353 1.803 1.599 3.81 1.783 5.86-.512.573-.533.573-.533.573Zm-1.906-11.902c-.984-2.377-1.517-4.323-2.111-6.166 1.599 1.556 2.152 3.523 2.623 5.53-.43.636-.471.636-.512.636Zm-3.71-11.452c-1.27-2.15-2.131-3.974-3.074-5.715 1.886 1.27 2.767 3.114 3.546 4.978-.328.717-.41.737-.472.737Zm-5.718-10.59c-1.537-1.885-2.746-3.483-4.017-5.02 2.09.881 3.32 2.52 4.447 4.2-.225.778-.328.82-.43.82Zm-125.557-3.176c-.287-.963 1.312-2.5 4.284-4.855-2.275 3.155-3.915 4.712-3.915 4.712a.563.563 0 0 1-.369.143Zm9.428-7.56c1.333-2.11 3.013-3.256 4.714-4.363-1.127 1.967-2.808 3.094-4.406 4.261a.612.612 0 0 1-.308.103Zm10.166-6.534c1.476-1.987 3.279-2.95 5.063-3.872-1.292 1.844-3.075 2.807-4.817 3.79-.061.062-.164.082-.246.082Zm10.76-5.45c1.661-1.822 3.546-2.6 5.411-3.297-1.475 1.68-3.341 2.437-5.185 3.257a1.08 1.08 0 0 1-.226.04Zm64.398-1.945a106.178 106.178 0 0 0-5.8-2.213c2.254-.348 4.14.39 6.005 1.209.184.901 0 1.004-.205 1.004ZM345.784 4.65c1.783-1.618 3.75-2.15 5.697-2.601-1.701 1.475-3.648 2.007-5.554 2.58-.041.021-.082.021-.143.021Zm41.688-1.577a91.622 91.622 0 0 0-5.985-1.23c2.152-.716 4.14-.307 6.108.185.328.881.123 1.045-.123 1.045Zm-29.924-1.147c1.927-1.373 3.956-1.619 5.944-1.783-1.886 1.21-3.874 1.455-5.862 1.783-.041-.02-.061 0-.082 0Zm18.036-.8a74.567 74.567 0 0 0-5.656-.225c1.906-1.044 3.832-.983 5.697-.819.451.84.226 1.045-.041 1.045Zm39.68 23.928a8.56 8.56 0 0 1-8.567-8.563c0-4.732 3.853-8.563 8.567-8.563 4.735 0 8.567 3.851 8.567 8.563 0 4.712-3.853 8.563-8.567 8.563Zm0-16.081c-4.14 0-7.522 3.38-7.522 7.518s3.382 7.518 7.522 7.518c4.14 0 7.522-3.38 7.522-7.518s-3.382-7.518-7.522-7.518Z"/></g><defs><clipPath id="a"><path fill="#fff" d="M0 0h449v281H0z"/></clipPath></defs></svg>